<?xml version="1.0" encoding="UTF-8"?>
<svg version="1.1" xmlns="http://www.w3.org/2000/svg" width="348" height="429">
<path d="M0 0 C8.24697646 -0.24577082 16.35175086 0.0629274 24.5625 0.8125 C25.41875977 0.88259277 26.27501953 0.95268555 27.15722656 1.02490234 C35.80202363 1.88050158 35.80202363 1.88050158 39 5 C39.076985 7.33206298 39.08227797 9.66811776 39 12 C43.21157739 12.72367841 47.4249931 13.43517605 51.64038086 14.13623047 C53.06930716 14.37553587 54.49771477 14.61796303 55.92553711 14.86376953 C69.60917457 17.21556973 81.65849121 17.18078112 95.4375 15.1875 C96.68982422 15.02185547 97.94214844 14.85621094 99.23242188 14.68554688 C101.03356445 14.4293457 101.03356445 14.4293457 102.87109375 14.16796875 C103.95318115 14.01610107 105.03526855 13.8642334 106.15014648 13.70776367 C108.99545359 13.21239677 108.99545359 13.21239677 110.82006836 11.54101562 C114.22355536 9.13505639 117.9472833 8.83730476 122.0078125 8.17578125 C122.88847382 8.02465378 123.76913513 7.87352631 124.67648315 7.71781921 C126.53991624 7.40076598 128.404303 7.08927449 130.26953125 6.78295898 C133.09644184 6.31720516 135.91924339 5.8309526 138.7421875 5.34179688 C140.55968717 5.03521871 142.37739004 4.72984235 144.1953125 4.42578125 C145.02797638 4.28207596 145.86064026 4.13837067 146.71853638 3.99031067 C156.629457 2.38844642 164.55163439 2.6866857 174.0390625 6.0625 C175.93865036 6.70097241 177.83839505 7.33897839 179.73828125 7.9765625 C182.67635836 8.98214419 185.61149221 9.99528572 188.54345703 11.01855469 C200.78482695 15.26332963 210.99885824 18.0872994 224 17 C225.24217285 16.92910156 226.4843457 16.85820312 227.76416016 16.78515625 C231.34804023 16.569755 234.92194844 16.2958389 238.5 16 C239.71558594 15.90460938 240.93117188 15.80921875 242.18359375 15.7109375 C245.12288483 15.47949726 248.06160456 15.24250147 251 15 C250.938125 13.6078125 250.938125 13.6078125 250.875 12.1875 C251 9 251 9 253 6 C255.1875 5.33984375 255.1875 5.33984375 258 4.9375 C259.59714844 4.70740234 259.59714844 4.70740234 261.2265625 4.47265625 C265.60767937 3.92388281 269.98868803 3.38073389 274.375 2.875 C275.13554687 2.78726318 275.89609375 2.69952637 276.6796875 2.60913086 C288.17730843 1.355374 288.17730843 1.355374 290.62399769 3.27249527 C293.02545773 6.28741286 292.79702948 10.13721192 293.07495117 13.85839844 C293.15341782 14.7644281 293.23188446 15.67045776 293.31272888 16.60394287 C293.56924864 19.60481182 293.80626532 22.60688317 294.04296875 25.609375 C294.21693831 27.69591353 294.39202805 29.78235894 294.56819153 31.86871338 C294.93508382 36.24615542 295.29320066 40.62419195 295.64428711 45.00292969 C296.0936334 50.60701986 296.55710155 56.20981657 297.02622509 61.81228256 C297.47372846 67.16094956 297.91521134 72.51010732 298.35546875 77.859375 C298.43950644 78.8770269 298.52354412 79.8946788 298.6101284 80.94316864 C298.84773429 83.83653561 299.081199 86.73020486 299.31323242 89.62402344 C299.3833252 90.47311279 299.45341797 91.32220215 299.52563477 92.19702148 C300.54158674 105.04153973 300.54158674 105.04153973 298.9387207 107.87817383 C296.01395773 109.57056595 293.33522557 109.66047147 289.98046875 109.94921875 C289.28544754 110.01156204 288.59042633 110.07390533 287.87434387 110.13813782 C286.39797792 110.26783498 284.92102341 110.39097445 283.44360352 110.50805664 C281.23233458 110.683934 279.0236537 110.8800529 276.81445312 111.08007812 C267.85138439 111.86070692 259.00173397 112.1689669 250 112 C249.34 110.68 248.68 109.36 248 108 C246.68 108 245.36 108 244 108 C243.9175 109.03125 243.835 110.0625 243.75 111.125 C242.91500871 115.43912167 241.81708798 117.64994943 239 121 C235.22282128 123.41096514 232.4766661 124.39499995 228 124 C227.938125 125.19625 227.87625 126.3925 227.8125 127.625 C227.20733656 132.30879921 225.48654225 134.74084094 222 138 C217.88559084 140.20414776 214.6812403 141.4255673 210 141 C210 142.010625 210 143.02125 210 144.0625 C209.33547484 148.59419239 206.80053007 150.82185337 203.34375 153.62109375 C199.68487954 155.7737292 196.18499474 156.06781241 192 156 C191.938125 156.86625 191.87625 157.7325 191.8125 158.625 C190.82847596 162.71248448 189.10537902 165.26469206 186 168 C181.21759422 170.8510496 177.5751278 171.42304649 172.19921875 170.57421875 C166.1338892 168.99055366 161.62454669 165.06057758 157 161 C156.52949219 161.42152344 156.05898437 161.84304688 155.57421875 162.27734375 C154.95160156 162.82519531 154.32898438 163.37304688 153.6875 163.9375 C153.07261719 164.48277344 152.45773438 165.02804687 151.82421875 165.58984375 C148.11682007 168.45573438 144.14539478 168.38841797 139.64453125 168.35546875 C135.38592709 167.7830419 132.20980385 165.79284403 129 163 C127 160 127 160 127 157 C126.43152344 157.04640625 125.86304688 157.0928125 125.27734375 157.140625 C119.19746754 157.42482623 115.94579111 156.58812296 111 153 C107 148.79487179 107 148.79487179 107 145 C106.35933594 145.04640625 105.71867187 145.0928125 105.05859375 145.140625 C98.71705582 145.40524953 95.1059068 144.85548065 90 141 C87.74290961 138.01481593 87 136.75081172 87 133 C86.03900391 133.08701172 86.03900391 133.08701172 85.05859375 133.17578125 C79.44375176 133.46865676 75.7875242 133.16299202 71.40625 129.484375 C68.03482536 125.92564899 67.047065 122.97267657 66.8125 118.125 C66.9053125 116.578125 66.9053125 116.578125 67 115 C65.70255859 114.58427734 65.70255859 114.58427734 64.37890625 114.16015625 C60.11864657 112.69738501 56.03274809 110.91253038 51.90234375 109.12109375 C49.25032091 108.09669193 46.79847847 107.45699924 44 107 C44.04125 107.94875 44.0825 108.8975 44.125 109.875 C44 113 44 113 42 115 C33.20752894 115.46184437 24.36861029 114.57036029 15.60229492 113.88305664 C13.04487385 113.68614284 10.48652728 113.50815545 7.92773438 113.33007812 C6.29678475 113.2042897 4.66592133 113.07737743 3.03515625 112.94921875 C2.27268082 112.89908127 1.51020538 112.84894379 0.72462463 112.79728699 C-4.52707695 112.35361216 -4.52707695 112.35361216 -6.71365356 110.71867371 C-8.33022982 108.55878347 -8.31368187 107.55649524 -8.15991211 104.88525391 C-8.1178212 104.02274017 -8.07573029 103.16022644 -8.03236389 102.27157593 C-7.96883224 101.3079715 -7.9053006 100.34436707 -7.83984375 99.3515625 C-7.7837645 98.31472321 -7.72768524 97.27788391 -7.66990662 96.20962524 C-7.50101893 93.1653592 -7.31667159 90.12240044 -7.12715912 87.07936096 C-6.9450876 84.10204869 -6.77656229 81.12400568 -6.60721779 78.1459465 C-6.06869172 68.68417284 -5.4908526 59.22512228 -4.89819336 49.76660156 C-4.61420468 45.22824805 -4.340192 40.68934552 -4.06820774 36.15025902 C-3.85483311 32.61886433 -3.63426947 29.08794509 -3.411726 25.55711746 C-3.30738564 23.8820097 -3.20572225 22.20673281 -3.10687447 20.53129196 C-2.96892862 18.20439367 -2.82078501 15.87835374 -2.67016602 13.55224609 C-2.63217392 12.87281448 -2.59418182 12.19338287 -2.55503845 11.49336243 C-2.27561102 7.38145835 -1.45944467 3.85074353 0 0 Z M9 10 C7.52015784 12.95968433 7.62413909 16.05006651 7.42749023 19.30444336 C7.37857635 20.05759827 7.32966248 20.81075317 7.27926636 21.58673096 C7.11803883 24.08751263 6.9631658 26.58864253 6.80859375 29.08984375 C6.69820181 30.83185066 6.58752576 32.57383958 6.47657776 34.31581116 C6.24438516 37.97672969 6.01525828 41.63782373 5.78833008 45.29907227 C5.49887473 49.96613552 5.20254895 54.63273046 4.90394497 59.29921627 C4.67400133 62.90326413 4.44747671 66.50752078 4.22197151 70.11184883 C4.11409974 71.83050172 4.00526654 73.54909456 3.89541435 75.26762199 C3.327429 84.18668385 2.81126012 93.05694907 3 102 C6.10334249 102.3414855 9.2076514 102.67247499 12.3125 103 C13.17423828 103.09539062 14.03597656 103.19078125 14.92382812 103.2890625 C19.57986187 103.77370542 24.15728492 104.05216411 28.84057617 104.02734375 C30.29822639 104.02142212 30.29822639 104.02142212 31.7853241 104.01538086 C32.51616714 104.01030518 33.24701019 104.00522949 34 104 C33.49940474 93.18575285 32.99543554 82.37166864 32.48720646 71.5577774 C32.25129869 66.53598909 32.01653577 61.5141528 31.78442383 56.4921875 C31.56021302 51.64209658 31.33294973 46.7921573 31.10360527 41.94230652 C31.01681132 40.09568823 30.93110127 38.24901865 30.84651375 36.40229797 C30.72748441 33.80776645 30.60453713 31.21344714 30.48071289 28.61914062 C30.44690521 27.8624408 30.41309753 27.10574097 30.37826538 26.32611084 C30.3432341 25.60832458 30.30820282 24.89053833 30.27210999 24.15100098 C30.2435344 23.53893044 30.21495882 22.92685989 30.18551731 22.29624176 C29.90730815 18.85270607 29.42850973 15.42807786 29 12 C22.4 11.34 15.8 10.68 9 10 Z M140.82641602 15.44140625 C138.91529216 15.72824441 137.00178464 15.9996659 135.08618164 16.25488281 C122.00356512 17.68517883 122.00356512 17.68517883 111.4921875 24.890625 C110.28366682 26.56249641 109.11302571 28.26309182 108 30 C107.11319253 31.09351374 106.21340738 32.17682723 105.29296875 33.2421875 C104.59816406 34.11101562 103.90335938 34.97984375 103.1875 35.875 C101.12031413 38.45804099 99.11298483 40.89033252 96.73828125 43.1953125 C94.76875615 44.82246168 94.76875615 44.82246168 95 47 C97.79107547 49.2978333 97.79107547 49.2978333 100.81298828 48.82519531 C104.30006115 47.92230683 106.8885688 46.61961154 109.9921875 44.796875 C111.10980469 44.14589844 112.22742188 43.49492187 113.37890625 42.82421875 C114.54433871 42.13292692 115.70970288 41.44151995 116.875 40.75 C118.03207036 40.07339427 119.1896191 39.39760593 120.34765625 38.72265625 C125.11490857 35.93033009 129.82119921 33.13291061 134.3828125 30.015625 C138.07775136 27.72188248 140.60650892 27.38783082 145 28 C148.50519395 28.86230243 151.90015022 29.95122473 155.3125 31.125 C156.24658691 31.44339844 157.18067383 31.76179688 158.14306641 32.08984375 C170.33262122 36.37271795 178.05503883 42.29011789 186.4375 51.9375 C192.62823069 59.05957956 199.07311003 64.98100239 206.69921875 70.5625 C210.34308172 73.23105803 213.89211237 76.0150627 217.4375 78.8125 C218.0164502 79.26858643 218.59540039 79.72467285 219.19189453 80.19458008 C221.74748639 82.21103792 224.28560896 84.23834128 226.78515625 86.32421875 C228.80292567 88.20112339 228.80292567 88.20112339 231 88 C228.81187175 67.98088322 226.59354925 47.97152441 224 28 C223.13358887 28.08701172 222.26717773 28.17402344 221.37451172 28.26367188 C207.71976333 28.99676587 195.95066008 24.78032705 183.125 20.5 C179.8307697 19.42532408 176.53450427 18.35710428 173.23776245 17.29016113 C171.20138881 16.6284693 169.16690047 15.96094084 167.134552 15.2869873 C166.22535004 14.98667603 165.31614807 14.68636475 164.37939453 14.37695312 C163.57938019 14.11047974 162.77936584 13.84400635 161.95510864 13.56945801 C155.66172042 11.7364037 147.22877558 14.45432805 140.82641602 15.44140625 Z M274.76953125 13.4375 C273.56586914 13.57285156 273.56586914 13.57285156 272.33789062 13.7109375 C271.50451172 13.80632812 270.67113281 13.90171875 269.8125 14 C268.5450293 14.14308594 268.5450293 14.14308594 267.25195312 14.2890625 C265.16780079 14.52455994 263.08387778 14.76208531 261 15 C260.60729368 25.30975104 260.21601589 35.61955522 259.82654572 45.92942905 C259.64564159 50.71705831 259.46425135 55.50466811 259.28173828 60.29223633 C259.1055179 64.9152139 258.93058996 69.53823875 258.75654602 74.16129875 C258.69002507 75.92228872 258.6230438 77.68326137 258.55558777 79.44421577 C258.46095833 81.91662321 258.36798748 84.38908799 258.27539062 86.86157227 C258.24733841 87.58446442 258.21928619 88.30735657 258.19038391 89.05215454 C258.03065293 93.37253813 257.97513027 97.67776072 258 102 C262.22954974 101.69255098 266.45855574 101.37815968 270.6875 101.0625 C271.88568359 100.97548828 273.08386719 100.88847656 274.31835938 100.79882812 C275.47529297 100.71181641 276.63222656 100.62480469 277.82421875 100.53515625 C279.41882935 100.41732788 279.41882935 100.41732788 281.0456543 100.29711914 C283.754444 100.02469562 286.34353331 99.58626953 289 99 C288.33335791 83.23316835 287.02821665 67.53208081 285.67181396 51.81152344 C285.44088702 49.12473147 285.21346091 46.43764781 284.98607635 43.75055408 C284.71123083 40.50672901 284.43369783 37.26313463 284.15625 34.01953125 C284.05517944 32.82987259 283.95410889 31.64021393 283.84997559 30.414505 C283.34627931 24.5903203 282.77782486 18.79417363 282 13 C279.51967824 13 277.22623777 13.15872479 274.76953125 13.4375 Z M40 23 C40.4728662 38.96211762 41.09239688 54.9143409 41.86895752 70.86450195 C41.95621322 72.66098595 42.04211339 74.4575363 42.12664795 76.25415039 C42.2468942 78.79596215 42.37261595 81.33744339 42.5 83.87890625 C42.53541901 84.6412709 42.57083801 85.40363556 42.60733032 86.18910217 C42.78262341 89.5639623 42.98325254 92.76282435 44 96 C45.65 96.33 47.3 96.66 49 97 C50.86123473 90.0393238 52.14011728 83.02025293 53.3828125 75.92578125 C53.60194305 74.68378464 53.82107361 73.44178802 54.04684448 72.16215515 C54.50714736 69.54772069 54.96622075 66.93310474 55.42333984 64.31811523 C56.00799591 60.97512369 56.5991743 57.63332255 57.19211006 54.29179096 C57.75962084 51.08714645 58.32087099 47.88140628 58.8828125 44.67578125 C59.09527618 43.47987869 59.30773987 42.28397614 59.52664185 41.05183411 C59.72039398 39.93685043 59.91414612 38.82186676 60.11376953 37.6730957 C60.28538605 36.69572952 60.45700256 35.71836334 60.63381958 34.71138 C60.98622606 32.10198904 61.06787665 29.6291077 61 27 C56.42015083 25.3021743 51.95404205 24.44587513 47.125 23.875 C46.09246094 23.74544922 46.09246094 23.74544922 45.0390625 23.61328125 C43.36004725 23.40340434 41.68010952 23.20092913 40 23 Z M241.9375 26 C240.52157103 26.17842725 239.10563642 26.35680984 237.68969727 26.53515625 C236.47209717 26.68855469 235.25449707 26.84195312 234 27 C235.29853659 41.52131078 236.87974679 55.99428741 238.65942383 70.46435547 C239.07053073 73.81546192 239.4738793 77.16745009 239.87695312 80.51953125 C240.13755952 82.65370222 240.39860946 84.78781908 240.66015625 86.921875 C240.77996353 87.92265076 240.89977081 88.92342651 241.02320862 89.95452881 C241.19359901 91.32426849 241.19359901 91.32426849 241.36743164 92.72167969 C241.46576797 93.52659851 241.56410431 94.33151733 241.66542053 95.16082764 C241.8218803 97.01159034 241.8218803 97.01159034 243 98 C244.66617115 98.04063832 246.33388095 98.042721 248 98 C248.73586862 88.57528806 249.235889 79.17540956 249.53515625 69.7265625 C249.57813339 68.43680511 249.62111053 67.14704773 249.66539001 65.81820679 C249.77787121 62.44172423 249.88719683 59.06514718 249.99578857 55.6885376 C250.10785774 52.22198101 250.22301724 48.7555271 250.33789062 45.2890625 C250.56156091 38.52613723 250.78188647 31.76310671 251 25 C247.9976221 25 244.92076868 25.62298233 241.9375 26 Z M83.3125 27 C75.3597973 28 75.3597973 28 72 28 C69.81387121 37.01035847 68.03877427 46.03092816 66.51953125 55.17578125 C66.30181564 56.46695358 66.08410004 57.75812592 65.85978699 59.08842468 C65.28919006 62.47264155 64.72325288 65.85762048 64.15838623 69.24279785 C63.57788385 72.71638805 62.99283481 76.18921223 62.40820312 79.66210938 C61.26776192 86.44067616 60.1322568 93.22006146 59 100 C60.40751221 100.86916887 61.8264521 101.71985149 63.25 102.5625 C64.43335937 103.27599609 64.43335937 103.27599609 65.640625 104.00390625 C67.91770354 105.19016722 67.91770354 105.19016722 70.21508789 104.76123047 C72.65163252 103.72209134 73.2112998 102.44162737 74.4375 100.125 C76.38017272 96.45625918 78.21387878 94.77303948 82 93 C87.52000338 92.1753427 92.4480729 92.25174944 97.5 94.6875 C100 97 100 97 101.6875 99.75 C103.76064479 102.25100486 103.76064479 102.25100486 106.48046875 102.17578125 C108.42223248 102.0997878 110.36367205 102.01504374 112.3046875 101.921875 C116.14833104 102.03328496 118.15590422 103.51141619 121 106 C121.62261719 106.81017578 121.62261719 106.81017578 122.2578125 107.63671875 C125.52493521 110.1932789 129.8173785 109.03076532 133.7734375 108.8125 C137.39104715 109.02272429 139.04584955 109.99577072 142 112 C142.66 112 143.32 112 144 112 C144.309375 112.78375 144.61875 113.5675 144.9375 114.375 C145.92875038 116.92330128 145.92875038 116.92330128 147 119 C149.57351792 119.49632131 152.14481844 119.76563381 154.75 120.046875 C163.42657376 122.59144711 170.8204418 129.80962037 177.875 135.25 C179.72596993 136.67264631 181.57750683 138.09455535 183.4296875 139.515625 C184.23647949 140.13727539 185.04327148 140.75892578 185.87451172 141.39941406 C189.88196411 144.41720155 191.94140444 145.52693704 197 145 C199.06402685 144.01951062 199.06402685 144.01951062 200 142 C200.46347851 139.14583381 200.46347851 139.14583381 199 136 C192.73387807 128.57412622 183.52065589 123.1272844 175.71875 117.46484375 C174.14484772 116.31123933 172.57194532 115.15626962 171 114 C169.72503662 113.0728418 169.72503662 113.0728418 168.42431641 112.12695312 C167.60624512 111.51658203 166.78817383 110.90621094 165.9453125 110.27734375 C165.20297363 109.72941162 164.46063477 109.18147949 163.69580078 108.61694336 C162 107 162 107 161.375 103.625 C162 101 162 101 163 100 C167.76302824 99.5496024 170.03752439 100.22933866 173.7578125 103.18359375 C174.62519043 103.85994873 175.49256836 104.53630371 176.38623047 105.2331543 C177.74192139 106.32430542 177.74192139 106.32430542 179.125 107.4375 C181.00502346 108.91169413 182.8852307 110.38565392 184.765625 111.859375 C186.11817383 112.93155273 186.11817383 112.93155273 187.49804688 114.02539062 C191.48318671 117.17057125 195.54704034 120.20284809 199.625 123.2265625 C201.12166034 124.34413453 202.60339512 125.48225897 204.0625 126.6484375 C206.88280942 128.84876511 208.72628726 129.96384926 212.3125 130.4375 C215.14438548 130.245151 215.14438548 130.245151 217 128 C217.62093694 124.09696779 217.33451358 122.47350631 215.03515625 119.21875 C211.54659007 115.22793408 207.29781394 112.30738796 203 109.25 C201.30421487 108.01757714 199.60890474 106.78450045 197.9140625 105.55078125 C195.56543032 103.85191606 193.2154699 102.1549828 190.86230469 100.46240234 C189.02352174 99.13337648 187.19802984 97.78800889 185.375 96.4375 C184.35148437 95.69371094 183.32796875 94.94992187 182.2734375 94.18359375 C179.72231987 91.73329348 179.15125944 90.4964201 179 87 C179.495 86.01 179.495 86.01 180 85 C184.68349848 84.39923711 187.12798403 84.72487218 190.953125 87.5703125 C192.39806751 88.73974771 193.82973014 89.9257206 195.25 91.125 C196.83169563 92.40437111 198.41508772 93.68164716 200 94.95703125 C200.81597656 95.62041504 201.63195312 96.28379883 202.47265625 96.96728516 C206.66487977 100.33904453 210.94377542 103.58830487 215.25 106.8125 C216.03536133 107.41658691 216.82072266 108.02067383 217.62988281 108.64306641 C221.65162664 111.64764781 224.77745685 113.9686804 230 114 C232.58333333 112.58333333 232.58333333 112.58333333 234 110 C233.88177517 106.22708592 233.45000148 104.4905347 230.875 101.68359375 C229.92625 100.94238281 228.9775 100.20117188 228 99.4375 C227.4730957 99.01895752 226.94619141 98.60041504 226.40332031 98.16918945 C224.61657847 96.75985962 222.81085448 95.37818894 221 94 C220.34837891 93.50048828 219.69675781 93.00097656 219.02539062 92.48632812 C216.21786303 90.33433808 213.40760168 88.18612432 210.58886719 86.04882812 C203.46513656 80.63670526 196.52332377 75.01031478 189.62182617 69.31860352 C188.20969399 68.17048882 186.76551814 67.06200942 185.31640625 65.9609375 C182.71140624 63.75569297 180.77464087 61.38513912 178.6875 58.6875 C169.54365747 47.41509084 159.32873684 41.20404218 145 38 C140.27437706 38.41541258 137.03598571 39.84137887 132.97265625 42.23828125 C131.85052734 42.89376953 130.72839844 43.54925781 129.57226562 44.22460938 C128.40219104 44.92031615 127.23227021 45.61628157 126.0625 46.3125 C124.89699096 46.99760732 123.73097896 47.68185977 122.56445312 48.36523438 C118.62412131 50.6778904 114.6839522 52.99062205 110.76513672 55.33959961 C106.43522863 57.89818166 103.03537351 59.24829258 98 59 C92.75500748 57.39983279 89.58872609 55.11647993 86 51 C84.56695936 48.13391871 84.69355845 46.18699217 85 43 C87.79255852 37.65771413 92.09567406 33.47257105 96.171875 29.07421875 C98.11020016 27.3357744 98.11020016 27.3357744 98 26 C93.01564915 25.87321206 88.24303639 26.3703888 83.3125 27 Z M83.26953125 103.828125 C82.78871094 104.62734375 82.30789062 105.4265625 81.8125 106.25 C81.32394531 107.03890625 80.83539063 107.8278125 80.33203125 108.640625 C79.89246094 109.41921875 79.45289062 110.1978125 79 111 C78.608125 111.69351563 78.21625 112.38703125 77.8125 113.1015625 C76.57475421 115.99360315 77.16223059 118.03558515 78 121 C81.2288613 123.1525742 82.2524127 123.53620223 86 123 C87.82487514 121.42231018 87.82487514 121.42231018 89.1875 119.25 C89.67605469 118.55390625 90.16460937 117.8578125 90.66796875 117.140625 C93.28867588 112.92904874 94.64894097 110.08337097 94 105 C91.92200266 102.69111406 90.62304009 102.08559337 87.5546875 101.6640625 C84.87925906 101.74281769 84.87925906 101.74281769 83.26953125 103.828125 Z M105.6875 112.3125 C101.13748287 116.86251713 97.24639894 122.70938191 96.7578125 129.234375 C96.78469963 131.97759242 96.78469963 131.97759242 98.1875 133.875 C100.83215994 135.51651306 101.9310722 135.71370414 105 135 C109.72142219 131.00111736 113.93546591 124.81356365 116 119 C115.6910782 115.76345005 115.48513922 114.46896791 113.125 112.1875 C110.1225093 110.50963755 108.66257061 110.62394641 105.6875 112.3125 Z M127.5546875 120 C124.59668775 123.47361438 122.35056976 127.03204339 120.125 131 C119.70992188 131.69867188 119.29484375 132.39734375 118.8671875 133.1171875 C116.52958032 137.23756004 116.52958032 137.23756004 116.1015625 141.87890625 C116.90209102 144.20516428 116.90209102 144.20516428 119.25 145.9375 C121.88615655 147.22844304 121.88615655 147.22844304 124.34375 146.5859375 C128.35988086 144.18807113 130.00888989 140.70338143 132.25 136.6875 C132.69601563 135.92759766 133.14203125 135.16769531 133.6015625 134.38476562 C136.7530719 129.01743044 136.7530719 129.01743044 138 123 C136.4366674 120.10822929 136.4366674 120.10822929 134 118 C129.9895378 117.57793126 129.9895378 117.57793126 127.5546875 120 Z M148.66796875 129.91796875 C144.81418727 132.92538533 142.93067915 136.62200239 140.625 140.875 C140.16222656 141.67808594 139.69945312 142.48117187 139.22265625 143.30859375 C138.79082031 144.09105469 138.35898438 144.87351562 137.9140625 145.6796875 C137.3255249 146.74292236 137.3255249 146.74292236 136.72509766 147.82763672 C135.80359232 150.58842947 136.18352298 152.23799785 137 155 C138.06345052 156.98029682 138.06345052 156.98029682 140 158 C142.94278399 158.47233383 142.94278399 158.47233383 146 157 C148.44535785 154.25766071 150.1803239 151.17979115 152 148 C152.5878125 147.06542969 153.175625 146.13085938 153.78125 145.16796875 C157.20130404 139.68460061 157.20130404 139.68460061 157.6875 133.4375 C156.14464369 130.89418762 156.14464369 130.89418762 153.6875 129.4375 C151.01000234 128.76666358 151.01000234 128.76666358 148.66796875 129.91796875 Z M167 140 C165.35 143.63 163.7 147.26 162 151 C163.69250673 152.51783522 165.40473886 154.01369438 167.125 155.5 C168.55199219 156.75296875 168.55199219 156.75296875 170.0078125 158.03125 C173.39365591 160.2590112 175.03015856 160.55183612 179 160 C181.09764165 158.48105194 181.09764165 158.48105194 182 156 C181.97077669 152.99417417 181.78325797 150.86468358 179.71069336 148.57666016 C178.02538813 147.16948246 176.29621167 145.88730586 174.5 144.625 C173.89285156 144.17511719 173.28570312 143.72523438 172.66015625 143.26171875 C170.07617939 140.99861161 170.07617939 140.99861161 167 140 Z " fill="#FEFEFE" transform="translate(28,243)"/>
<path d="M0 0 C1.10472656 0.45246094 2.20945312 0.90492187 3.34765625 1.37109375 C18.31092722 8.16073901 28.82885666 18.87075548 35.3125 34.125 C35.89915116 35.74143796 36.46349866 37.3662321 37 39 C37.22558594 39.65742187 37.45117188 40.31484375 37.68359375 40.9921875 C42.15779491 56.8524592 38.84426186 73.64800582 31.11962891 87.76391602 C27.01086357 94.96317114 22.356165 99.82637733 16 105 C15.67 105.66 15.34 106.32 15 107 C15.59167969 107.21914062 16.18335938 107.43828125 16.79296875 107.6640625 C22.40803268 109.91741605 25.71254877 111.86335745 29 117 C30.66293026 121.67699134 29.76234675 125.35919315 28.0703125 129.87890625 C26.24619577 133.49385291 24.50171316 134.88575809 21 137 C18.26625476 137.65511372 15.82934884 137.85365437 13 138 C12.9175 138.86625 12.835 139.7325 12.75 140.625 C11.66238357 145.51927392 9.63309696 148.85683213 5.5 151.75 C2.78636241 154.19227383 2.38007949 155.38030843 1.25 158.75 C-1.30535541 165.77203356 -6.36530765 170.14398689 -12.9375 173.5 C-21.03536973 174.82210118 -27.98027681 174.63640344 -35 170 C-39.7291655 165.84935377 -42.27247949 161.81073763 -44.125 155.87109375 C-45.49451154 152.94254006 -47.83553011 151.4516564 -50.34765625 149.5078125 C-53.06877834 147.02470818 -53.88352492 144.48077524 -55 141 C-55 140.01 -55 139.02 -55 138 C-55.97839844 137.90525391 -55.97839844 137.90525391 -56.9765625 137.80859375 C-61.76498975 137.13764893 -65.21390796 136.46402091 -68.5625 132.8125 C-71.13349987 129.29467299 -72 126.41405976 -72 122 C-71.04500444 116.46102576 -69.43509243 113.4709419 -65 110 C-62.36128267 108.78100072 -59.77726187 107.89437247 -57 107 C-59.01261934 104.391049 -61.04314413 101.95685587 -63.375 99.625 C-64.24125 98.75875 -65.1075 97.8925 -66 97 C-66.69609375 96.33484375 -66.69609375 96.33484375 -67.40625 95.65625 C-77.90107299 84.71483879 -81.39405049 69.66637631 -81.37133789 55.01220703 C-80.95880517 38.41161641 -74.48496069 24.49692497 -62.91796875 12.73046875 C-46.951149 -2.21037061 -20.66176467 -8.56557555 0 0 Z M-59 24 C-65.20045184 32.05936442 -70.12625557 41.7335029 -71 52 C-71.06316406 52.67804688 -71.12632813 53.35609375 -71.19140625 54.0546875 C-71.81776778 66.37986608 -67.727205 78.45807261 -60 88 C-57.54539572 90.50062811 -55.05579982 92.90278386 -52.4296875 95.22265625 C-50 98 -50 98 -45 108 C-29.16 108 -13.32 108 3 108 C4.65 104.7 6.3 101.4 8 98 C10.68359375 94.96875 10.68359375 94.96875 13.4375 92.5 C23.51682231 82.94176027 28.9141356 70.8465541 29.4375 56.875 C28.64153989 41.39229202 22.38162815 28.46227208 11 18 C-11.11687198 1.59753513 -40.08088349 3.69740148 -59 24 Z M-61 121 C-60.62095792 124.29075996 -60.62095792 124.29075996 -59 127 C-56.63777782 127.10556617 -54.30464616 127.14678498 -51.94165039 127.14526367 C-51.20344559 127.14862228 -50.46524078 127.1519809 -49.70466614 127.15544128 C-47.25231262 127.16497882 -44.80002718 127.16689579 -42.34765625 127.16796875 C-40.64993765 127.17117939 -38.95221934 127.17454331 -37.25450134 127.17805481 C-33.69090127 127.1840531 -30.12732547 127.18589399 -26.5637207 127.18530273 C-21.98906956 127.18520107 -17.4145735 127.1988542 -12.83995914 127.21607494 C-9.3321816 127.22717344 -5.82444179 127.22922261 -2.31664848 127.22869301 C-0.62968855 127.22987634 1.05727227 127.23431778 2.74421501 127.24202538 C5.10034025 127.25178209 7.45612558 127.24896453 9.81225586 127.24291992 C10.86509766 127.25134918 10.86509766 127.25134918 11.93920898 127.25994873 C15.91390948 127.33778779 15.91390948 127.33778779 19 125 C18.90888062 122.46048456 18.90888062 122.46048456 18 120 C14.32106803 117.54737869 12.5028973 117.74138784 8.11352539 117.7253418 C7.06912041 117.7176754 7.06912041 117.7176754 6.00361633 117.70985413 C3.70154225 117.69595187 1.39976733 117.69691534 -0.90234375 117.69921875 C-2.50273246 117.69533211 -4.10312013 117.69099751 -5.70350647 117.68623352 C-9.05847517 117.67876993 -12.41333864 117.67906354 -15.76831055 117.68432617 C-20.06704379 117.69012057 -24.36534614 117.67319148 -28.66400814 117.6499815 C-31.96943174 117.63524729 -35.27475149 117.63437202 -38.5802021 117.63749123 C-40.16503312 117.63697784 -41.74986993 117.6317368 -43.33466911 117.62167931 C-45.55144088 117.60933811 -47.76737248 117.61609187 -49.98413086 117.62768555 C-51.24527206 117.62705612 -52.50641327 117.6264267 -53.80577087 117.6257782 C-57.18710599 118.02192051 -58.56035755 118.69281129 -61 121 Z M-44 138 C-42.95299965 142.25958086 -42.95299965 142.25958086 -40 145 C-34.68543029 146.77152324 -28.94252388 146.22560289 -23.37646484 146.24023438 C-21.13992047 146.24993528 -18.90429739 146.28096772 -16.66796875 146.3125 C-15.23958877 146.31903116 -13.81120224 146.32428119 -12.3828125 146.328125 C-11.08746582 146.3374707 -9.79211914 146.34681641 -8.45751953 146.35644531 C-3.7903262 145.87529136 -1.26855507 144.26855507 2 141 C2 140.01 2 139.02 2 138 C-13.18 138 -28.36 138 -44 138 Z M-32 156 C-30.08944756 159.82110489 -29.50744291 160.95399164 -26 163 C-22.05959204 164.2259047 -20.26507432 164.0898557 -16.3125 162.75 C-12.70416514 160.87228554 -12.70416514 160.87228554 -10 158 C-10 157.34 -10 156.68 -10 156 C-17.26 156 -24.52 156 -32 156 Z " fill="#FEFEFE" transform="translate(195,72)"/>
<path d="M0 0 C2 2 2 2 2.25 5 C2 8 2 8 0 10 C-2.02801617 10.49695014 -4.07334279 10.92454162 -6.125 11.3125 C-15.07867924 13.30659394 -20.57671675 16.4351221 -25.8203125 24.03125 C-27.79778511 27.33140297 -28.71657618 30.54837713 -29.44921875 34.30078125 C-29.61035156 35.10902344 -29.77148438 35.91726562 -29.9375 36.75 C-30.07027344 37.50796875 -30.20304688 38.2659375 -30.33984375 39.046875 C-31 41 -31 41 -34 43 C-36.6875 42.625 -36.6875 42.625 -39 42 C-41.93761876 34.88275454 -40.26468956 29.13939369 -38 22 C-33.65237395 12.68168048 -25.50294578 5.40115292 -15.984375 1.67578125 C-10.81638068 -0.08418532 -5.44609242 -0.63127594 0 0 Z " fill="#FEFEFE" transform="translate(177,92)"/>
<path d="M0 0 C2 2 2 2 2.6875 4.75 C1.88147873 8.56028236 1.35649024 8.8421639 -1.75 10.9375 C-3.49257738 11.97095283 -5.24339672 12.99057164 -7 14 C-7.99773437 14.6496875 -8.99546875 15.299375 -10.0234375 15.96875 C-18.8593407 21.57743415 -18.8593407 21.57743415 -23.25 20.9375 C-24.1575 20.628125 -25.065 20.31875 -26 20 C-26.75 17.25 -26.75 17.25 -27 14 C-23.75805422 9.83921397 -19.09976216 7.3948766 -14.625 4.75 C-13.51125 4.06164062 -13.51125 4.06164062 -12.375 3.359375 C-8.15803454 0.85601741 -5.05788464 -0.82515339 0 0 Z " fill="#FEFEFE" transform="translate(264,81)"/>
<path d="M0 0 C5.33178427 0.72195081 9.28004649 3.341004 13.83203125 6.1015625 C15.2097168 6.88466797 15.2097168 6.88466797 16.61523438 7.68359375 C23.22072236 11.63809875 23.22072236 11.63809875 24.6875 15.75390625 C24.51953125 18.4765625 24.51953125 18.4765625 23.51953125 20.4140625 C20.4375498 22.05136514 17.74317775 21.41357211 14.51953125 20.4765625 C11.246865 18.86767985 8.20898999 16.94834551 5.14453125 14.9765625 C4.32597656 14.46480469 3.50742188 13.95304687 2.6640625 13.42578125 C-3.24564035 9.7113909 -3.24564035 9.7113909 -4.48046875 8.4765625 C-4.66796875 5.5390625 -4.66796875 5.5390625 -4.48046875 2.4765625 C-2.48046875 0.4765625 -2.48046875 0.4765625 0 0 Z " fill="#FEFEFE" transform="translate(86.48046875,80.5234375)"/>
<path d="M0 0 C2 2 2 2 2.42578125 4.55078125 C1.82229071 9.43960825 -0.35615283 12.975155 -2.8125 17.1875 C-3.26431641 17.99380859 -3.71613281 18.80011719 -4.18164062 19.63085938 C-8.33049888 26.91710241 -8.33049888 26.91710241 -11 29 C-14.6875 28.6875 -14.6875 28.6875 -18 28 C-19.1474714 23.29738187 -18.99374768 21.02223149 -16.54296875 16.85546875 C-16.00736328 15.93185547 -15.47175781 15.00824219 -14.91992188 14.05664062 C-14.34822266 13.10982422 -13.77652344 12.16300781 -13.1875 11.1875 C-12.62740234 10.22134766 -12.06730469 9.25519531 -11.49023438 8.25976562 C-6.3516883 -0.47637662 -6.3516883 -0.47637662 0 0 Z " fill="#FEFEFE" transform="translate(227,44)"/>
<path d="M0 0 C5.2817579 2.07291349 7.02344262 6.62581264 9.65234375 11.44921875 C10.48282227 12.86944336 10.48282227 12.86944336 11.33007812 14.31835938 C15.2538504 21.32055822 15.2538504 21.32055822 15.0625 25.9375 C14.78277344 26.70449219 14.50304687 27.47148438 14.21484375 28.26171875 C10.96484375 29.07421875 10.96484375 29.07421875 7.21484375 29.26171875 C3.55527925 25.49886009 1.05113684 20.86076217 -1.53515625 16.32421875 C-2.15197266 15.2887793 -2.15197266 15.2887793 -2.78125 14.23242188 C-5.10409835 10.16164943 -6.61858645 7.08268137 -5.78515625 2.26171875 C-2.78515625 0.26171875 -2.78515625 0.26171875 0 0 Z " fill="#FEFEFE" transform="translate(124.78515625,43.73828125)"/>
<path d="M0 0 C1.25361328 -0.02449219 2.50722656 -0.04898438 3.79882812 -0.07421875 C5.59803711 -0.08001953 5.59803711 -0.08001953 7.43359375 -0.0859375 C9.08766235 -0.09826416 9.08766235 -0.09826416 10.77514648 -0.11083984 C13.5625 0.375 13.5625 0.375 15.46118164 2.23583984 C16.5625 4.375 16.5625 4.375 16.3125 7.0625 C15.5625 9.375 15.5625 9.375 14.5625 10.375 C9.92234675 10.6291555 5.27128694 10.56022798 0.625 10.5625 C-0.68919922 10.57474609 -2.00339844 10.58699219 -3.35742188 10.59960938 C-4.60974609 10.60154297 -5.86207031 10.60347656 -7.15234375 10.60546875 C-8.88665649 10.61163208 -8.88665649 10.61163208 -10.65600586 10.61791992 C-13.4375 10.375 -13.4375 10.375 -15.4375 8.375 C-15.6875 5.375 -15.6875 5.375 -15.4375 2.375 C-11.65458327 -1.40791673 -5.1036899 0.00523187 0 0 Z " fill="#FEFEFE" transform="translate(263.4375,130.625)"/>
<path d="M0 0 C1.20269531 -0.00257813 2.40539062 -0.00515625 3.64453125 -0.0078125 C4.90652344 -0.00007812 6.16851562 0.00765625 7.46875 0.015625 C8.73074219 0.00789062 9.99273437 0.00015625 11.29296875 -0.0078125 C12.49566406 -0.00523437 13.69835937 -0.00265625 14.9375 0 C16.04544922 0.00225586 17.15339844 0.00451172 18.29492188 0.00683594 C20.96875 0.265625 20.96875 0.265625 22.96875 2.265625 C23.21875 5.265625 23.21875 5.265625 22.96875 8.265625 C19.65494546 11.57942954 15.44433574 10.5622836 10.9375 10.58789062 C9.6278125 10.58466797 8.318125 10.58144531 6.96875 10.578125 C5.6590625 10.59423828 4.349375 10.61035156 3 10.62695312 C1.7521875 10.62759766 0.504375 10.62824219 -0.78125 10.62890625 C-1.93109375 10.63188721 -3.0809375 10.63486816 -4.265625 10.63793945 C-5.17828125 10.51507568 -6.0909375 10.39221191 -7.03125 10.265625 C-9.03125 7.265625 -9.03125 7.265625 -8.78125 4.703125 C-7.24228522 -0.29851055 -4.7390146 0.00964895 0 0 Z " fill="#FEFEFE" transform="translate(77.03125,130.734375)"/>
<path d="M0 0 C3 0.25 3 0.25 5 2.25 C5.48756262 6.71058343 5.3704032 11.20332453 5.375 15.6875 C5.39949219 16.94111328 5.42398438 18.19472656 5.44921875 19.48632812 C5.45308594 20.68580078 5.45695313 21.88527344 5.4609375 23.12109375 C5.46915527 24.22380615 5.47737305 25.32651855 5.48583984 26.46264648 C5 29.25 5 29.25 3.13916016 31.17993164 C1 32.25 1 32.25 -1.6875 31.5 C-4 30.25 -4 30.25 -5 29.25 C-5.25380234 24.77668042 -5.18522721 20.2921654 -5.1875 15.8125 C-5.20586914 13.91274414 -5.20586914 13.91274414 -5.22460938 11.97460938 C-5.22654297 10.76740234 -5.22847656 9.56019531 -5.23046875 8.31640625 C-5.23457764 7.20209229 -5.23868652 6.08777832 -5.24291992 4.93969727 C-4.88617812 0.98972294 -3.90737219 0.32561435 0 0 Z " fill="#FEFEFE" transform="translate(174,30.75)"/>
</svg>
