<?xml version="1.0" encoding="UTF-8"?>
<svg xmlns="http://www.w3.org/2000/svg" xmlns:xlink="http://www.w3.org/1999/xlink" width="px" height="55px" viewBox="0 0 45 55" version="1.1">
<g id="surface1">
<path style=" stroke:none;fill-rule:nonzero;fill:rgb(99.607843%,99.607843%,99.607843%);fill-opacity:1;" d="M 3.621094 31.152344 C 4.6875 31.121094 5.734375 31.160156 6.796875 31.257812 C 6.90625 31.265625 7.019531 31.277344 7.132812 31.285156 C 8.25 31.394531 8.25 31.394531 8.664062 31.792969 C 8.671875 32.09375 8.675781 32.394531 8.664062 32.691406 C 9.207031 32.785156 9.753906 32.875 10.296875 32.964844 C 10.484375 32.996094 10.667969 33.027344 10.851562 33.058594 C 12.621094 33.359375 14.179688 33.355469 15.960938 33.101562 C 16.125 33.078125 16.285156 33.058594 16.453125 33.035156 C 16.683594 33.003906 16.683594 33.003906 16.921875 32.96875 C 17.0625 32.949219 17.203125 32.929688 17.347656 32.910156 C 17.714844 32.847656 17.714844 32.847656 17.949219 32.632812 C 18.390625 32.324219 18.871094 32.285156 19.398438 32.203125 C 19.511719 32.183594 19.625 32.164062 19.742188 32.144531 C 19.984375 32.101562 20.226562 32.0625 20.464844 32.023438 C 20.832031 31.964844 21.195312 31.902344 21.5625 31.839844 C 21.796875 31.800781 22.03125 31.761719 22.265625 31.722656 C 22.375 31.703125 22.480469 31.683594 22.59375 31.664062 C 23.875 31.460938 24.898438 31.5 26.125 31.929688 C 26.371094 32.011719 26.617188 32.09375 26.863281 32.175781 C 27.242188 32.304688 27.621094 32.433594 28 32.566406 C 29.585938 33.109375 30.90625 33.472656 32.585938 33.332031 C 32.746094 33.324219 32.90625 33.316406 33.074219 33.304688 C 33.535156 33.277344 34 33.242188 34.460938 33.207031 C 34.617188 33.191406 34.777344 33.179688 34.9375 33.167969 C 35.316406 33.136719 35.699219 33.109375 36.078125 33.078125 C 36.070312 32.898438 36.070312 32.898438 36.0625 32.714844 C 36.078125 32.308594 36.078125 32.308594 36.335938 31.921875 C 36.617188 31.839844 36.617188 31.839844 36.984375 31.785156 C 37.1875 31.757812 37.1875 31.757812 37.398438 31.726562 C 37.964844 31.65625 38.53125 31.585938 39.101562 31.523438 C 39.199219 31.511719 39.296875 31.5 39.398438 31.488281 C 40.886719 31.328125 40.886719 31.328125 41.203125 31.574219 C 41.511719 31.960938 41.480469 32.453125 41.519531 32.929688 C 41.527344 33.046875 41.539062 33.164062 41.550781 33.28125 C 41.582031 33.667969 41.613281 34.050781 41.644531 34.4375 C 41.664062 34.703125 41.6875 34.972656 41.710938 35.238281 C 41.757812 35.800781 41.804688 36.363281 41.851562 36.921875 C 41.910156 37.640625 41.96875 38.359375 42.027344 39.078125 C 42.085938 39.765625 42.144531 40.449219 42.199219 41.136719 C 42.210938 41.265625 42.222656 41.398438 42.234375 41.53125 C 42.265625 41.902344 42.296875 42.273438 42.324219 42.644531 C 42.335938 42.753906 42.34375 42.863281 42.351562 42.972656 C 42.484375 44.621094 42.484375 44.621094 42.277344 44.984375 C 41.898438 45.203125 41.550781 45.210938 41.117188 45.25 C 41.027344 45.257812 40.9375 45.265625 40.847656 45.273438 C 40.65625 45.289062 40.464844 45.304688 40.273438 45.320312 C 39.988281 45.34375 39.703125 45.371094 39.414062 45.394531 C 38.257812 45.496094 37.113281 45.535156 35.949219 45.511719 C 35.863281 45.34375 35.777344 45.175781 35.691406 45 C 35.519531 45 35.347656 45 35.171875 45 C 35.160156 45.132812 35.152344 45.265625 35.140625 45.402344 C 35.03125 45.953125 34.890625 46.238281 34.527344 46.667969 C 34.039062 46.976562 33.683594 47.101562 33.101562 47.050781 C 33.09375 47.203125 33.085938 47.359375 33.078125 47.515625 C 33 48.117188 32.777344 48.429688 32.328125 48.847656 C 31.796875 49.128906 31.382812 49.285156 30.777344 49.230469 C 30.777344 49.359375 30.777344 49.488281 30.777344 49.625 C 30.691406 50.203125 30.363281 50.488281 29.914062 50.847656 C 29.441406 51.125 28.988281 51.164062 28.449219 51.152344 C 28.441406 51.265625 28.433594 51.375 28.425781 51.492188 C 28.296875 52.015625 28.074219 52.339844 27.671875 52.691406 C 27.054688 53.058594 26.582031 53.132812 25.886719 53.023438 C 25.105469 52.820312 24.519531 52.316406 23.921875 51.792969 C 23.863281 51.847656 23.800781 51.902344 23.738281 51.957031 C 23.65625 52.027344 23.578125 52.097656 23.492188 52.171875 C 23.414062 52.242188 23.335938 52.3125 23.253906 52.382812 C 22.773438 52.75 22.261719 52.742188 21.679688 52.738281 C 21.128906 52.664062 20.714844 52.410156 20.300781 52.050781 C 20.042969 51.667969 20.042969 51.667969 20.042969 51.28125 C 19.96875 51.289062 19.894531 51.292969 19.820312 51.300781 C 19.035156 51.335938 18.613281 51.230469 17.972656 50.769531 C 17.457031 50.230469 17.457031 50.230469 17.457031 49.742188 C 17.375 49.75 17.292969 49.753906 17.207031 49.761719 C 16.386719 49.796875 15.917969 49.726562 15.257812 49.230469 C 14.964844 48.847656 14.871094 48.6875 14.871094 48.207031 C 14.746094 48.214844 14.746094 48.214844 14.621094 48.226562 C 13.894531 48.265625 13.421875 48.226562 12.855469 47.753906 C 12.417969 47.296875 12.289062 46.917969 12.261719 46.296875 C 12.273438 46.101562 12.273438 46.101562 12.285156 45.898438 C 12.117188 45.84375 12.117188 45.84375 11.945312 45.789062 C 11.394531 45.601562 10.867188 45.375 10.332031 45.144531 C 9.988281 45.011719 9.671875 44.929688 9.308594 44.871094 C 9.316406 44.992188 9.320312 45.113281 9.328125 45.242188 C 9.308594 45.640625 9.308594 45.640625 9.050781 45.898438 C 7.914062 45.957031 6.773438 45.84375 5.636719 45.753906 C 5.308594 45.730469 4.976562 45.707031 4.644531 45.683594 C 4.433594 45.667969 4.222656 45.652344 4.011719 45.632812 C 3.914062 45.628906 3.816406 45.621094 3.714844 45.613281 C 3.035156 45.558594 3.035156 45.558594 2.753906 45.347656 C 2.542969 45.070312 2.546875 44.941406 2.566406 44.601562 C 2.570312 44.488281 2.578125 44.378906 2.582031 44.265625 C 2.589844 44.140625 2.597656 44.019531 2.605469 43.890625 C 2.613281 43.757812 2.621094 43.625 2.628906 43.488281 C 2.652344 43.097656 2.675781 42.707031 2.699219 42.316406 C 2.722656 41.9375 2.746094 41.554688 2.765625 41.171875 C 2.835938 39.960938 2.910156 38.746094 2.988281 37.535156 C 3.023438 36.953125 3.058594 36.371094 3.09375 35.789062 C 3.121094 35.335938 3.152344 34.882812 3.179688 34.429688 C 3.191406 34.214844 3.207031 34 3.21875 33.785156 C 3.238281 33.488281 3.257812 33.191406 3.277344 32.890625 C 3.28125 32.804688 3.285156 32.71875 3.289062 32.628906 C 3.328125 32.101562 3.433594 31.648438 3.621094 31.152344 Z M 4.785156 32.4375 C 4.59375 32.816406 4.605469 33.210938 4.582031 33.628906 C 4.574219 33.726562 4.570312 33.820312 4.5625 33.921875 C 4.542969 34.242188 4.519531 34.5625 4.5 34.882812 C 4.488281 35.105469 4.472656 35.328125 4.457031 35.554688 C 4.429688 36.023438 4.398438 36.492188 4.371094 36.960938 C 4.332031 37.558594 4.292969 38.15625 4.253906 38.757812 C 4.226562 39.21875 4.195312 39.679688 4.167969 40.140625 C 4.152344 40.363281 4.136719 40.582031 4.125 40.804688 C 4.050781 41.945312 3.984375 43.085938 4.007812 44.230469 C 4.410156 44.273438 4.8125 44.316406 5.210938 44.359375 C 5.324219 44.371094 5.4375 44.382812 5.550781 44.394531 C 6.152344 44.457031 6.746094 44.492188 7.351562 44.492188 C 7.539062 44.488281 7.539062 44.488281 7.730469 44.488281 C 7.824219 44.488281 7.917969 44.488281 8.015625 44.488281 C 7.953125 43.101562 7.886719 41.714844 7.820312 40.328125 C 7.792969 39.683594 7.761719 39.039062 7.730469 38.394531 C 7.703125 37.773438 7.671875 37.152344 7.644531 36.53125 C 7.632812 36.292969 7.621094 36.058594 7.609375 35.820312 C 7.59375 35.488281 7.578125 35.15625 7.5625 34.824219 C 7.558594 34.726562 7.554688 34.628906 7.550781 34.527344 C 7.542969 34.4375 7.539062 34.34375 7.535156 34.25 C 7.53125 34.171875 7.527344 34.09375 7.523438 34.011719 C 7.488281 33.570312 7.425781 33.132812 7.371094 32.691406 C 6.515625 32.609375 5.664062 32.523438 4.785156 32.4375 Z M 21.832031 33.132812 C 21.582031 33.171875 21.335938 33.207031 21.089844 33.238281 C 19.398438 33.421875 19.398438 33.421875 18.039062 34.34375 C 17.882812 34.558594 17.730469 34.777344 17.585938 35 C 17.472656 35.140625 17.355469 35.277344 17.234375 35.414062 C 17.144531 35.527344 17.054688 35.636719 16.964844 35.753906 C 16.695312 36.085938 16.4375 36.394531 16.128906 36.691406 C 15.875 36.898438 15.875 36.898438 15.90625 37.179688 C 16.265625 37.472656 16.265625 37.472656 16.65625 37.414062 C 17.109375 37.296875 17.441406 37.128906 17.84375 36.898438 C 17.988281 36.8125 18.132812 36.730469 18.28125 36.644531 C 18.433594 36.554688 18.582031 36.46875 18.734375 36.378906 C 18.882812 36.292969 19.03125 36.203125 19.183594 36.117188 C 19.800781 35.761719 20.40625 35.402344 20.996094 35.003906 C 21.476562 34.707031 21.800781 34.664062 22.371094 34.742188 C 22.824219 34.855469 23.261719 34.992188 23.703125 35.144531 C 23.824219 35.183594 23.945312 35.226562 24.070312 35.269531 C 25.644531 35.816406 26.644531 36.574219 27.730469 37.8125 C 28.53125 38.726562 29.363281 39.484375 30.347656 40.199219 C 30.820312 40.542969 31.277344 40.898438 31.738281 41.257812 C 31.8125 41.316406 31.886719 41.375 31.964844 41.433594 C 32.296875 41.695312 32.625 41.953125 32.945312 42.222656 C 33.207031 42.460938 33.207031 42.460938 33.492188 42.4375 C 33.207031 39.871094 32.921875 37.304688 32.585938 34.742188 C 32.472656 34.753906 32.363281 34.765625 32.246094 34.777344 C 30.480469 34.871094 28.960938 34.332031 27.300781 33.78125 C 26.875 33.644531 26.449219 33.507812 26.023438 33.371094 C 25.757812 33.285156 25.496094 33.199219 25.234375 33.113281 C 25.117188 33.074219 24.996094 33.035156 24.875 32.996094 C 24.773438 32.960938 24.667969 32.929688 24.5625 32.894531 C 23.75 32.660156 22.660156 33.007812 21.832031 33.132812 Z M 39.152344 32.875 C 38.996094 32.894531 38.996094 32.894531 38.835938 32.910156 C 38.730469 32.925781 38.621094 32.9375 38.511719 32.949219 C 38.347656 32.96875 38.347656 32.96875 38.179688 32.984375 C 37.910156 33.015625 37.640625 33.046875 37.371094 33.078125 C 37.320312 34.398438 37.269531 35.71875 37.21875 37.042969 C 37.195312 37.65625 37.171875 38.269531 37.148438 38.882812 C 37.125 39.476562 37.101562 40.070312 37.082031 40.660156 C 37.070312 40.886719 37.0625 41.113281 37.054688 41.339844 C 37.042969 41.65625 37.03125 41.972656 37.019531 42.289062 C 37.015625 42.382812 37.011719 42.476562 37.007812 42.570312 C 36.988281 43.125 36.980469 43.675781 36.984375 44.230469 C 37.53125 44.191406 38.078125 44.152344 38.625 44.109375 C 38.777344 44.097656 38.933594 44.089844 39.09375 44.078125 C 39.242188 44.066406 39.390625 44.054688 39.546875 44.042969 C 39.753906 44.027344 39.753906 44.027344 39.960938 44.011719 C 40.3125 43.976562 40.648438 43.921875 40.992188 43.847656 C 40.90625 41.824219 40.738281 39.8125 40.5625 37.796875 C 40.53125 37.453125 40.5 37.105469 40.472656 36.761719 C 40.4375 36.347656 40.402344 35.929688 40.363281 35.515625 C 40.351562 35.363281 40.339844 35.210938 40.324219 35.054688 C 40.261719 34.304688 40.1875 33.5625 40.085938 32.820312 C 39.765625 32.820312 39.46875 32.839844 39.152344 32.875 Z M 8.792969 34.101562 C 8.855469 36.148438 8.933594 38.195312 9.035156 40.238281 C 9.046875 40.46875 9.058594 40.699219 9.066406 40.929688 C 9.082031 41.257812 9.101562 41.582031 9.117188 41.90625 C 9.121094 42.003906 9.125 42.101562 9.128906 42.203125 C 9.152344 42.636719 9.179688 43.046875 9.308594 43.460938 C 9.523438 43.503906 9.738281 43.546875 9.957031 43.589844 C 10.199219 42.699219 10.363281 41.796875 10.523438 40.886719 C 10.550781 40.730469 10.582031 40.570312 10.609375 40.40625 C 10.667969 40.070312 10.726562 39.734375 10.789062 39.398438 C 10.863281 38.972656 10.941406 38.542969 11.015625 38.113281 C 11.089844 37.703125 11.164062 37.292969 11.234375 36.882812 C 11.261719 36.726562 11.289062 36.574219 11.316406 36.417969 C 11.34375 36.273438 11.367188 36.132812 11.394531 35.984375 C 11.417969 35.859375 11.4375 35.734375 11.460938 35.605469 C 11.507812 35.269531 11.515625 34.953125 11.507812 34.617188 C 10.917969 34.398438 10.339844 34.289062 9.714844 34.214844 C 9.582031 34.199219 9.582031 34.199219 9.445312 34.179688 C 9.226562 34.152344 9.011719 34.128906 8.792969 34.101562 Z M 34.90625 34.488281 C 34.722656 34.511719 34.539062 34.53125 34.355469 34.554688 C 34.199219 34.574219 34.042969 34.59375 33.878906 34.617188 C 34.046875 36.476562 34.25 38.332031 34.480469 40.1875 C 34.535156 40.617188 34.585938 41.046875 34.640625 41.476562 C 34.671875 41.75 34.707031 42.023438 34.742188 42.296875 C 34.757812 42.425781 34.773438 42.554688 34.789062 42.6875 C 34.808594 42.863281 34.808594 42.863281 34.832031 43.042969 C 34.84375 43.144531 34.859375 43.246094 34.871094 43.355469 C 34.890625 43.589844 34.890625 43.589844 35.042969 43.71875 C 35.257812 43.722656 35.472656 43.722656 35.691406 43.71875 C 35.785156 42.507812 35.847656 41.304688 35.886719 40.09375 C 35.894531 39.929688 35.898438 39.761719 35.90625 39.59375 C 35.917969 39.160156 35.933594 38.726562 35.949219 38.292969 C 35.960938 37.847656 35.976562 37.40625 35.992188 36.960938 C 36.019531 36.09375 36.050781 35.226562 36.078125 34.359375 C 35.6875 34.359375 35.292969 34.4375 34.90625 34.488281 Z M 14.394531 34.617188 C 13.367188 34.742188 13.367188 34.742188 12.929688 34.742188 C 12.648438 35.898438 12.417969 37.054688 12.222656 38.226562 C 12.195312 38.394531 12.167969 38.558594 12.136719 38.730469 C 12.0625 39.164062 11.988281 39.597656 11.917969 40.03125 C 11.84375 40.476562 11.765625 40.921875 11.691406 41.367188 C 11.542969 42.234375 11.394531 43.105469 11.25 43.972656 C 11.433594 44.085938 11.617188 44.195312 11.800781 44.304688 C 11.953125 44.394531 11.953125 44.394531 12.109375 44.488281 C 12.402344 44.640625 12.402344 44.640625 12.699219 44.585938 C 13.015625 44.453125 13.085938 44.289062 13.246094 43.992188 C 13.496094 43.519531 13.734375 43.304688 14.222656 43.078125 C 14.9375 42.972656 15.574219 42.980469 16.226562 43.292969 C 16.550781 43.589844 16.550781 43.589844 16.769531 43.941406 C 17.039062 44.261719 17.039062 44.261719 17.390625 44.253906 C 17.640625 44.242188 17.890625 44.234375 18.144531 44.222656 C 18.640625 44.234375 18.898438 44.425781 19.265625 44.742188 C 19.347656 44.847656 19.347656 44.847656 19.429688 44.953125 C 19.851562 45.28125 20.40625 45.132812 20.917969 45.105469 C 21.386719 45.132812 21.601562 45.257812 21.984375 45.511719 C 22.066406 45.511719 22.152344 45.511719 22.242188 45.511719 C 22.28125 45.613281 22.320312 45.714844 22.363281 45.816406 C 22.492188 46.144531 22.492188 46.144531 22.628906 46.410156 C 22.960938 46.472656 23.292969 46.507812 23.632812 46.542969 C 24.753906 46.871094 25.710938 47.796875 26.621094 48.492188 C 26.859375 48.675781 27.101562 48.859375 27.339844 49.039062 C 27.445312 49.121094 27.546875 49.199219 27.65625 49.28125 C 28.175781 49.667969 28.441406 49.8125 29.09375 49.742188 C 29.363281 49.617188 29.363281 49.617188 29.484375 49.359375 C 29.542969 48.992188 29.542969 48.992188 29.351562 48.589844 C 28.542969 47.636719 27.351562 46.9375 26.34375 46.214844 C 26.140625 46.066406 25.9375 45.917969 25.734375 45.769531 C 25.566406 45.648438 25.566406 45.648438 25.398438 45.527344 C 25.292969 45.449219 25.1875 45.371094 25.078125 45.292969 C 24.984375 45.222656 24.886719 45.152344 24.789062 45.078125 C 24.570312 44.871094 24.570312 44.871094 24.488281 44.4375 C 24.570312 44.101562 24.570312 44.101562 24.699219 43.972656 C 25.3125 43.917969 25.609375 44.003906 26.089844 44.382812 C 26.203125 44.46875 26.3125 44.554688 26.429688 44.644531 C 26.605469 44.785156 26.605469 44.785156 26.785156 44.929688 C 27.027344 45.117188 27.269531 45.304688 27.511719 45.496094 C 27.6875 45.632812 27.6875 45.632812 27.867188 45.773438 C 28.382812 46.175781 28.90625 46.566406 29.433594 46.953125 C 29.628906 47.09375 29.820312 47.242188 30.007812 47.390625 C 30.371094 47.671875 30.609375 47.816406 31.074219 47.875 C 31.441406 47.851562 31.441406 47.851562 31.679688 47.5625 C 31.761719 47.0625 31.722656 46.855469 31.425781 46.4375 C 30.976562 45.925781 30.425781 45.550781 29.871094 45.160156 C 29.652344 45.003906 29.433594 44.84375 29.214844 44.6875 C 28.910156 44.46875 28.605469 44.25 28.300781 44.035156 C 28.0625 43.863281 27.828125 43.691406 27.589844 43.519531 C 27.460938 43.421875 27.328125 43.328125 27.191406 43.230469 C 26.859375 42.914062 26.785156 42.757812 26.765625 42.308594 C 26.832031 42.179688 26.832031 42.179688 26.898438 42.050781 C 27.503906 41.972656 27.816406 42.015625 28.3125 42.378906 C 28.5 42.53125 28.683594 42.683594 28.867188 42.835938 C 29.074219 43 29.277344 43.164062 29.484375 43.328125 C 29.589844 43.414062 29.695312 43.496094 29.800781 43.585938 C 30.34375 44.019531 30.898438 44.433594 31.453125 44.847656 C 31.554688 44.925781 31.65625 45.003906 31.761719 45.082031 C 32.28125 45.46875 32.6875 45.765625 33.363281 45.769531 C 33.695312 45.585938 33.695312 45.585938 33.878906 45.257812 C 33.863281 44.773438 33.808594 44.550781 33.476562 44.191406 C 33.351562 44.09375 33.230469 44 33.101562 43.902344 C 33.035156 43.847656 32.96875 43.796875 32.898438 43.738281 C 32.664062 43.558594 32.433594 43.382812 32.199219 43.207031 C 32.113281 43.140625 32.03125 43.078125 31.941406 43.011719 C 31.578125 42.734375 31.214844 42.460938 30.851562 42.1875 C 29.929688 41.492188 29.03125 40.769531 28.140625 40.039062 C 27.957031 39.894531 27.769531 39.75 27.585938 39.609375 C 27.246094 39.328125 26.996094 39.023438 26.726562 38.679688 C 25.542969 37.234375 24.222656 36.4375 22.371094 36.027344 C 21.757812 36.078125 21.339844 36.261719 20.816406 36.570312 C 20.671875 36.652344 20.523438 36.738281 20.375 36.824219 C 20.222656 36.914062 20.074219 37.003906 19.921875 37.089844 C 19.769531 37.179688 19.621094 37.265625 19.46875 37.355469 C 18.960938 37.652344 18.449219 37.949219 17.945312 38.25 C 17.382812 38.578125 16.945312 38.75 16.292969 38.71875 C 15.613281 38.511719 15.207031 38.21875 14.742188 37.691406 C 14.554688 37.324219 14.574219 37.074219 14.613281 36.667969 C 14.972656 35.980469 15.53125 35.445312 16.058594 34.882812 C 16.308594 34.660156 16.308594 34.660156 16.292969 34.488281 C 15.648438 34.472656 15.03125 34.535156 14.394531 34.617188 Z M 14.386719 44.464844 C 14.324219 44.566406 14.265625 44.671875 14.199219 44.777344 C 14.136719 44.875 14.074219 44.976562 14.007812 45.082031 C 13.953125 45.183594 13.894531 45.28125 13.835938 45.382812 C 13.785156 45.472656 13.734375 45.5625 13.683594 45.652344 C 13.523438 46.023438 13.597656 46.285156 13.707031 46.667969 C 14.125 46.941406 14.257812 46.992188 14.742188 46.921875 C 14.976562 46.722656 14.976562 46.722656 15.152344 46.441406 C 15.214844 46.351562 15.28125 46.265625 15.34375 46.171875 C 15.683594 45.632812 15.859375 45.265625 15.777344 44.617188 C 15.507812 44.320312 15.339844 44.242188 14.941406 44.1875 C 14.597656 44.199219 14.597656 44.199219 14.386719 44.464844 Z M 17.289062 45.554688 C 16.699219 46.136719 16.195312 46.886719 16.132812 47.722656 C 16.136719 48.074219 16.136719 48.074219 16.316406 48.316406 C 16.660156 48.527344 16.800781 48.554688 17.199219 48.460938 C 17.808594 47.949219 18.355469 47.15625 18.621094 46.410156 C 18.582031 45.996094 18.554688 45.828125 18.25 45.535156 C 17.859375 45.320312 17.671875 45.335938 17.289062 45.554688 Z M 20.113281 46.539062 C 19.730469 46.984375 19.441406 47.441406 19.152344 47.949219 C 19.101562 48.039062 19.046875 48.128906 18.992188 48.21875 C 18.6875 48.75 18.6875 48.75 18.632812 49.34375 C 18.738281 49.640625 18.738281 49.640625 19.039062 49.863281 C 19.382812 50.027344 19.382812 50.027344 19.699219 49.945312 C 20.21875 49.640625 20.433594 49.191406 20.722656 48.679688 C 20.78125 48.582031 20.835938 48.484375 20.898438 48.382812 C 21.304688 47.695312 21.304688 47.695312 21.464844 46.921875 C 21.261719 46.550781 21.261719 46.550781 20.949219 46.28125 C 20.429688 46.226562 20.429688 46.226562 20.113281 46.539062 Z M 22.84375 47.808594 C 22.347656 48.195312 22.101562 48.667969 21.804688 49.214844 C 21.746094 49.316406 21.683594 49.421875 21.625 49.527344 C 21.566406 49.628906 21.511719 49.726562 21.453125 49.832031 C 21.378906 49.96875 21.378906 49.96875 21.300781 50.105469 C 21.179688 50.460938 21.230469 50.671875 21.335938 51.027344 C 21.472656 51.28125 21.472656 51.28125 21.722656 51.410156 C 22.105469 51.472656 22.105469 51.472656 22.5 51.28125 C 22.816406 50.929688 23.039062 50.535156 23.277344 50.128906 C 23.351562 50.007812 23.429688 49.886719 23.507812 49.765625 C 23.949219 49.0625 23.949219 49.0625 24.011719 48.261719 C 23.8125 47.933594 23.8125 47.933594 23.492188 47.75 C 23.148438 47.664062 23.148438 47.664062 22.84375 47.808594 Z M 25.214844 49.101562 C 25.003906 49.566406 24.789062 50.035156 24.570312 50.511719 C 24.789062 50.707031 25.007812 50.898438 25.230469 51.089844 C 25.417969 51.25 25.417969 51.25 25.605469 51.414062 C 26.042969 51.699219 26.253906 51.738281 26.765625 51.667969 C 27.039062 51.472656 27.039062 51.472656 27.15625 51.152344 C 27.152344 50.769531 27.128906 50.496094 26.859375 50.203125 C 26.640625 50.023438 26.417969 49.855469 26.183594 49.695312 C 26.105469 49.636719 26.027344 49.582031 25.949219 49.519531 C 25.613281 49.230469 25.613281 49.230469 25.214844 49.101562 Z M 25.214844 49.101562 "/>
<path style=" stroke:none;fill-rule:nonzero;fill:rgb(99.607843%,99.607843%,99.607843%);fill-opacity:1;" d="M 25.214844 9.230469 C 25.359375 9.289062 25.5 9.347656 25.648438 9.40625 C 27.582031 10.277344 28.945312 11.648438 29.78125 13.605469 C 29.859375 13.8125 29.929688 14.019531 30 14.230469 C 30.027344 14.316406 30.058594 14.398438 30.089844 14.484375 C 30.667969 16.519531 30.238281 18.671875 29.238281 20.484375 C 28.707031 21.40625 28.105469 22.027344 27.285156 22.691406 C 27.242188 22.777344 27.199219 22.863281 27.15625 22.949219 C 27.230469 22.976562 27.308594 23.003906 27.386719 23.035156 C 28.113281 23.324219 28.539062 23.570312 28.964844 24.230469 C 29.179688 24.832031 29.0625 25.300781 28.84375 25.882812 C 28.609375 26.34375 28.382812 26.523438 27.929688 26.792969 C 27.578125 26.878906 27.261719 26.90625 26.898438 26.921875 C 26.886719 27.035156 26.875 27.144531 26.863281 27.257812 C 26.722656 27.886719 26.460938 28.316406 25.925781 28.6875 C 25.574219 29 25.523438 29.152344 25.378906 29.582031 C 25.046875 30.484375 24.390625 31.042969 23.542969 31.472656 C 22.496094 31.644531 21.597656 31.621094 20.691406 31.027344 C 20.078125 30.492188 19.75 29.976562 19.507812 29.214844 C 19.332031 28.839844 19.03125 28.648438 18.703125 28.398438 C 18.351562 28.082031 18.246094 27.753906 18.101562 27.308594 C 18.101562 27.179688 18.101562 27.054688 18.101562 26.921875 C 17.976562 26.910156 17.976562 26.910156 17.847656 26.898438 C 17.230469 26.8125 16.78125 26.726562 16.351562 26.257812 C 16.015625 25.808594 15.90625 25.4375 15.90625 24.871094 C 16.027344 24.160156 16.238281 23.777344 16.808594 23.332031 C 17.152344 23.175781 17.484375 23.0625 17.84375 22.949219 C 17.585938 22.613281 17.320312 22.300781 17.019531 22.003906 C 16.910156 21.890625 16.796875 21.78125 16.679688 21.667969 C 16.589844 21.582031 16.589844 21.582031 16.5 21.496094 C 15.140625 20.089844 14.691406 18.164062 14.695312 16.285156 C 14.746094 14.15625 15.582031 12.371094 17.078125 10.863281 C 19.144531 8.949219 22.542969 8.132812 25.214844 9.230469 Z M 17.585938 12.308594 C 16.785156 13.339844 16.148438 14.582031 16.035156 15.898438 C 16.027344 15.984375 16.019531 16.070312 16.007812 16.160156 C 15.929688 17.742188 16.457031 19.289062 17.457031 20.511719 C 17.773438 20.832031 18.097656 21.140625 18.4375 21.4375 C 18.75 21.792969 18.75 21.792969 19.398438 23.078125 C 21.445312 23.078125 23.492188 23.078125 25.601562 23.078125 C 25.816406 22.652344 26.03125 22.230469 26.25 21.792969 C 26.597656 21.40625 26.597656 21.40625 26.953125 21.089844 C 28.257812 19.863281 28.953125 18.3125 29.023438 16.523438 C 28.917969 14.539062 28.109375 12.878906 26.636719 11.539062 C 23.777344 9.4375 20.03125 9.703125 17.585938 12.308594 Z M 17.328125 24.742188 C 17.375 25.164062 17.375 25.164062 17.585938 25.511719 C 17.890625 25.527344 18.195312 25.53125 18.5 25.53125 C 18.59375 25.53125 18.691406 25.53125 18.789062 25.53125 C 19.105469 25.535156 19.421875 25.535156 19.738281 25.535156 C 19.960938 25.535156 20.179688 25.535156 20.398438 25.535156 C 20.859375 25.535156 21.320312 25.535156 21.78125 25.535156 C 22.371094 25.535156 22.964844 25.539062 23.554688 25.539062 C 24.007812 25.542969 24.460938 25.542969 24.914062 25.542969 C 25.132812 25.542969 25.351562 25.542969 25.570312 25.542969 C 25.875 25.546875 26.179688 25.542969 26.484375 25.542969 C 26.621094 25.546875 26.621094 25.546875 26.757812 25.546875 C 27.273438 25.554688 27.273438 25.554688 27.671875 25.257812 C 27.660156 24.929688 27.660156 24.929688 27.542969 24.617188 C 27.066406 24.300781 26.832031 24.324219 26.265625 24.324219 C 26.128906 24.324219 26.128906 24.324219 25.992188 24.320312 C 25.695312 24.320312 25.398438 24.320312 25.097656 24.320312 C 24.890625 24.320312 24.683594 24.320312 24.476562 24.320312 C 24.042969 24.316406 23.609375 24.316406 23.175781 24.320312 C 22.621094 24.320312 22.066406 24.316406 21.507812 24.3125 C 21.082031 24.3125 20.652344 24.3125 20.226562 24.3125 C 20.023438 24.3125 19.816406 24.3125 19.613281 24.308594 C 19.324219 24.308594 19.039062 24.308594 18.753906 24.3125 C 18.589844 24.3125 18.425781 24.3125 18.257812 24.3125 C 17.820312 24.363281 17.644531 24.449219 17.328125 24.742188 Z M 19.527344 26.921875 C 19.660156 27.46875 19.660156 27.46875 20.042969 27.820312 C 20.730469 28.046875 21.472656 27.976562 22.191406 27.980469 C 22.480469 27.980469 22.769531 27.984375 23.058594 27.988281 C 23.246094 27.988281 23.429688 27.992188 23.613281 27.992188 C 23.78125 27.992188 23.949219 27.992188 24.121094 27.996094 C 24.726562 27.933594 25.050781 27.726562 25.472656 27.308594 C 25.472656 27.179688 25.472656 27.054688 25.472656 26.921875 C 23.511719 26.921875 21.546875 26.921875 19.527344 26.921875 Z M 21.078125 29.230469 C 21.324219 29.71875 21.398438 29.867188 21.851562 30.128906 C 22.363281 30.285156 22.59375 30.269531 23.105469 30.097656 C 23.574219 29.855469 23.574219 29.855469 23.921875 29.488281 C 23.921875 29.402344 23.921875 29.316406 23.921875 29.230469 C 22.984375 29.230469 22.042969 29.230469 21.078125 29.230469 Z M 21.078125 29.230469 "/>
<path style=" stroke:none;fill-rule:nonzero;fill:rgb(99.607843%,99.607843%,99.607843%);fill-opacity:1;" d="M 22.886719 11.792969 C 23.148438 12.050781 23.148438 12.050781 23.179688 12.4375 C 23.148438 12.820312 23.148438 12.820312 22.886719 13.078125 C 22.625 13.140625 22.359375 13.195312 22.097656 13.246094 C 20.9375 13.5 20.226562 13.902344 19.550781 14.875 C 19.292969 15.300781 19.175781 15.710938 19.078125 16.191406 C 19.058594 16.296875 19.039062 16.398438 19.015625 16.507812 C 19 16.605469 18.980469 16.699219 18.964844 16.800781 C 18.878906 17.050781 18.878906 17.050781 18.492188 17.308594 C 18.144531 17.257812 18.144531 17.257812 17.84375 17.179688 C 17.464844 16.265625 17.679688 15.53125 17.972656 14.617188 C 18.535156 13.421875 19.589844 12.488281 20.820312 12.007812 C 21.488281 11.785156 22.183594 11.714844 22.886719 11.792969 Z M 22.886719 11.792969 "/>
<path style=" stroke:none;fill-rule:nonzero;fill:rgb(99.607843%,99.607843%,99.607843%);fill-opacity:1;" d="M 34.136719 10.382812 C 34.398438 10.640625 34.398438 10.640625 34.484375 10.992188 C 34.382812 11.480469 34.3125 11.519531 33.910156 11.785156 C 33.6875 11.917969 33.460938 12.050781 33.234375 12.179688 C 33.105469 12.261719 32.976562 12.347656 32.84375 12.433594 C 31.699219 13.152344 31.699219 13.152344 31.132812 13.070312 C 31.015625 13.027344 30.898438 12.988281 30.777344 12.949219 C 30.679688 12.597656 30.679688 12.597656 30.648438 12.179688 C 31.066406 11.644531 31.667969 11.332031 32.246094 10.992188 C 32.390625 10.90625 32.390625 10.90625 32.539062 10.816406 C 33.082031 10.496094 33.484375 10.277344 34.136719 10.382812 Z M 34.136719 10.382812 "/>
<path style=" stroke:none;fill-rule:nonzero;fill:rgb(99.607843%,99.607843%,99.607843%);fill-opacity:1;" d="M 11.183594 10.324219 C 11.871094 10.417969 12.382812 10.75 12.972656 11.105469 C 13.148438 11.207031 13.148438 11.207031 13.332031 11.308594 C 14.183594 11.816406 14.183594 11.816406 14.375 12.34375 C 14.351562 12.691406 14.351562 12.691406 14.222656 12.941406 C 13.824219 13.152344 13.476562 13.070312 13.058594 12.949219 C 12.636719 12.742188 12.246094 12.496094 11.847656 12.242188 C 11.742188 12.179688 11.636719 12.113281 11.527344 12.042969 C 10.761719 11.570312 10.761719 11.570312 10.601562 11.410156 C 10.578125 11.035156 10.578125 11.035156 10.601562 10.640625 C 10.863281 10.382812 10.863281 10.382812 11.183594 10.324219 Z M 11.183594 10.324219 "/>
<path style=" stroke:none;fill-rule:nonzero;fill:rgb(99.607843%,99.607843%,99.607843%);fill-opacity:1;" d="M 29.351562 5.640625 C 29.613281 5.898438 29.613281 5.898438 29.667969 6.222656 C 29.589844 6.851562 29.308594 7.304688 28.988281 7.84375 C 28.929688 7.949219 28.871094 8.050781 28.8125 8.15625 C 28.277344 9.09375 28.277344 9.09375 27.929688 9.359375 C 27.453125 9.320312 27.453125 9.320312 27.027344 9.230469 C 26.878906 8.628906 26.898438 8.335938 27.214844 7.800781 C 27.285156 7.683594 27.351562 7.566406 27.425781 7.441406 C 27.5 7.320312 27.570312 7.199219 27.648438 7.074219 C 27.71875 6.953125 27.792969 6.828125 27.867188 6.699219 C 28.53125 5.578125 28.53125 5.578125 29.351562 5.640625 Z M 29.351562 5.640625 "/>
<path style=" stroke:none;fill-rule:nonzero;fill:rgb(99.607843%,99.607843%,99.607843%);fill-opacity:1;" d="M 16.136719 5.609375 C 16.820312 5.875 17.042969 6.457031 17.382812 7.074219 C 17.492188 7.257812 17.492188 7.257812 17.601562 7.441406 C 18.109375 8.339844 18.109375 8.339844 18.082031 8.933594 C 18.046875 9.03125 18.011719 9.128906 17.972656 9.230469 C 17.554688 9.335938 17.554688 9.335938 17.070312 9.359375 C 16.597656 8.875 16.273438 8.28125 15.9375 7.699219 C 15.859375 7.566406 15.859375 7.566406 15.777344 7.433594 C 15.476562 6.910156 15.28125 6.515625 15.386719 5.898438 C 15.777344 5.640625 15.777344 5.640625 16.136719 5.609375 Z M 16.136719 5.609375 "/>
<path style=" stroke:none;fill-rule:nonzero;fill:rgb(99.607843%,99.607843%,99.607843%);fill-opacity:1;" d="M 34.066406 16.746094 C 34.226562 16.742188 34.390625 16.742188 34.554688 16.738281 C 34.789062 16.738281 34.789062 16.738281 35.027344 16.734375 C 35.242188 16.734375 35.242188 16.734375 35.457031 16.734375 C 35.820312 16.792969 35.820312 16.792969 36.066406 17.035156 C 36.207031 17.308594 36.207031 17.308594 36.175781 17.652344 C 36.078125 17.949219 36.078125 17.949219 35.949219 18.078125 C 35.347656 18.109375 34.746094 18.101562 34.144531 18.101562 C 33.976562 18.101562 33.804688 18.105469 33.632812 18.105469 C 33.46875 18.105469 33.308594 18.105469 33.140625 18.105469 C 32.917969 18.105469 32.917969 18.105469 32.6875 18.109375 C 32.328125 18.078125 32.328125 18.078125 32.070312 17.820312 C 32.035156 17.4375 32.035156 17.4375 32.070312 17.050781 C 32.558594 16.566406 33.40625 16.746094 34.066406 16.746094 Z M 34.066406 16.746094 "/>
<path style=" stroke:none;fill-rule:nonzero;fill:rgb(99.607843%,99.607843%,99.607843%);fill-opacity:1;" d="M 9.960938 16.761719 C 10.117188 16.761719 10.273438 16.761719 10.433594 16.761719 C 10.59375 16.761719 10.757812 16.761719 10.925781 16.761719 C 11.089844 16.761719 11.253906 16.761719 11.421875 16.761719 C 11.578125 16.761719 11.730469 16.761719 11.890625 16.761719 C 12.035156 16.761719 12.179688 16.761719 12.328125 16.761719 C 12.671875 16.792969 12.671875 16.792969 12.929688 17.050781 C 12.964844 17.4375 12.964844 17.4375 12.929688 17.820312 C 12.503906 18.246094 11.957031 18.113281 11.375 18.117188 C 11.207031 18.117188 11.035156 18.117188 10.863281 18.117188 C 10.691406 18.117188 10.523438 18.121094 10.347656 18.125 C 10.1875 18.125 10.027344 18.125 9.859375 18.125 C 9.710938 18.125 9.5625 18.125 9.410156 18.125 C 9.292969 18.109375 9.171875 18.09375 9.050781 18.078125 C 8.792969 17.691406 8.792969 17.691406 8.824219 17.363281 C 9.023438 16.722656 9.347656 16.761719 9.960938 16.761719 Z M 9.960938 16.761719 "/>
<path style=" stroke:none;fill-rule:nonzero;fill:rgb(99.607843%,99.607843%,99.607843%);fill-opacity:1;" d="M 22.5 3.941406 C 22.886719 3.972656 22.886719 3.972656 23.148438 4.230469 C 23.210938 4.800781 23.195312 5.378906 23.195312 5.953125 C 23.199219 6.113281 23.203125 6.273438 23.203125 6.441406 C 23.207031 6.59375 23.207031 6.75 23.207031 6.90625 C 23.207031 7.046875 23.207031 7.1875 23.210938 7.335938 C 23.148438 7.691406 23.148438 7.691406 22.90625 7.941406 C 22.628906 8.078125 22.628906 8.078125 22.28125 7.980469 C 21.984375 7.820312 21.984375 7.820312 21.851562 7.691406 C 21.820312 7.117188 21.828125 6.542969 21.828125 5.96875 C 21.828125 5.726562 21.828125 5.726562 21.824219 5.476562 C 21.824219 5.324219 21.824219 5.167969 21.824219 5.007812 C 21.824219 4.867188 21.824219 4.722656 21.820312 4.574219 C 21.867188 4.070312 21.996094 3.984375 22.5 3.941406 Z M 22.5 3.941406 "/>
</g>
</svg>
