<?xml version="1.0" encoding="UTF-8"?>
<svg version="1.1" xmlns="http://www.w3.org/2000/svg" width="351" height="356">
<path d="M0 0 C9.75465324 7.35904819 16.69643258 16.87582734 19.75 28.8125 C19.875 31.6875 19.875 31.6875 19.75 33.8125 C20.46776611 34.00755127 21.18553223 34.20260254 21.92504883 34.40356445 C25.04775618 35.96100496 26.41656952 37.80779357 28.49702454 40.54597473 C32.75285863 45.84891993 36.62464327 49.01579796 43.49072266 49.97119141 C50.1849031 50.47041689 56.858577 50.30945105 63.5625 50.125 C65.91207381 50.10798232 68.26169815 50.0968639 70.61132812 50.09179688 C76.32706972 50.06675391 82.03620763 49.96174916 87.75 49.8125 C87.75 53.4425 87.75 57.0725 87.75 60.8125 C80.19235341 61.18645105 72.64020509 61.45687429 65.07543945 61.63647461 C62.50938031 61.71140193 59.94395058 61.81339351 57.38012695 61.9440918 C34.62532396 63.07407715 34.62532396 63.07407715 28.13305664 57.45727539 C26.18840363 55.46106018 24.41660954 53.3947625 22.65560913 51.23580933 C19.83649696 47.79799817 18.37860219 46.04068977 14.09204102 44.48461914 C10.41210298 44.13208645 6.99869034 44.1276184 3.3125 44.375 C2.09240234 44.39498047 0.87230469 44.41496094 -0.38476562 44.43554688 C-3.34887841 44.49366673 -6.29215037 44.61943561 -9.25 44.8125 C-6.35863212 50.01696218 -4.15391304 52.00580462 1.75 53.8125 C5.21033126 54.24797816 8.65746544 54.24877506 12.140625 54.25195312 C15.36331433 54.34045501 17.28447116 54.42070951 19.796875 56.53515625 C21.04845149 59.52560334 20.73120155 60.7277293 19.75 63.8125 C16.90098316 67.50005252 13.6221755 70.76813708 10.34228516 74.07128906 C8.75733865 75.68005108 7.21353981 77.32224167 5.66796875 78.96875 C4.65596809 79.9996806 3.64171357 81.02840452 2.625 82.0546875 C1.71492188 82.9916748 0.80484375 83.92866211 -0.1328125 84.89404297 C-3.86562209 87.19138145 -5.46827718 87.17547811 -9.66564941 86.43954468 C-14.85004602 85.18164712 -19.91116232 83.60542147 -24.984375 81.9609375 C-27.43875618 81.18475066 -29.89318466 80.4087134 -32.34765625 79.6328125 C-36.18918883 78.40734734 -40.02946379 77.17809503 -43.86865234 75.9453125 C-47.59096675 74.75106267 -51.31898491 73.57516714 -55.046875 72.3984375 C-56.19589294 72.02455902 -57.34491089 71.65068054 -58.52874756 71.26547241 C-59.60046204 70.92827179 -60.67217651 70.59107117 -61.77636719 70.24365234 C-62.71518738 69.94244476 -63.65400757 69.64123718 -64.62127686 69.3309021 C-67.5753433 68.74834009 -69.40408605 68.84393968 -72.25 69.8125 C-72.91 70.8025 -73.57 71.7925 -74.25 72.8125 C-59.10811831 79.41986656 -43.84018697 85.70740334 -28.55053711 91.96289062 C-27.344813 92.45659149 -27.344813 92.45659149 -26.11473083 92.96026611 C-24.51615307 93.61322243 -22.91652109 94.26360415 -21.31581116 94.91131592 C-17.33913397 96.52437762 -13.39236727 98.1808249 -9.47460938 99.93261719 C-8.70832214 100.26824677 -7.94203491 100.60387634 -7.15252686 100.94967651 C-5.70866337 101.58402117 -4.27123077 102.2332992 -2.84210205 102.900177 C0.44881962 104.3297609 2.36613879 104.89441329 5.91455078 104.13720703 C6.85024902 103.70005371 7.78594727 103.26290039 8.75 102.8125 C9.58998535 102.44511719 10.4299707 102.07773437 11.29541016 101.69921875 C12.11831543 101.30347656 12.9412207 100.90773438 13.7890625 100.5 C14.69914062 100.06429687 15.60921875 99.62859375 16.546875 99.1796875 C17.48015625 98.72851562 18.4134375 98.27734375 19.375 97.8125 C20.31601563 97.36132812 21.25703125 96.91015625 22.2265625 96.4453125 C26.95665112 94.22688911 26.95665112 94.22688911 31.55471802 91.7571106 C34.23863612 90.60224416 36.24236086 90.5718101 39.16113281 90.58544922 C40.24195129 90.58560028 41.32276978 90.58575134 42.43634033 90.58590698 C43.59687927 90.59622955 44.75741821 90.60655212 45.953125 90.6171875 C47.74251495 90.62143234 47.74251495 90.62143234 49.5680542 90.62576294 C53.37880476 90.63695947 57.18932045 90.66206347 61 90.6875 C63.58332994 90.69753046 66.16666356 90.7066562 68.75 90.71484375 C75.08342385 90.73689715 81.4166721 90.77142374 87.75 90.8125 C87.75 94.7725 87.75 98.7325 87.75 102.8125 C86.25855469 102.80089844 84.76710937 102.78929687 83.23046875 102.77734375 C77.62394023 102.74447427 72.01858768 102.76489473 66.41210938 102.80029297 C63.99935444 102.80833549 61.58650721 102.8024918 59.17382812 102.78173828 C43.91767116 102.66156126 32.71098684 103.54654455 19.75 111.8125 C17.4394949 113.05174586 15.10024864 114.21113436 12.75 115.375 C11.2959375 116.11943359 11.2959375 116.11943359 9.8125 116.87890625 C3.41462739 118.82927813 -2.62115922 116.58222341 -8.53515625 113.99609375 C-9.21739258 113.7078624 -9.89962891 113.41963104 -10.60253906 113.12266541 C-12.8431176 112.17406635 -15.07762902 111.21195885 -17.3125 110.25 C-19.70268026 109.23440299 -22.09439197 108.22247188 -24.4861908 107.21069336 C-26.15469286 106.50463836 -27.82270551 105.79742579 -29.49024963 105.08911133 C-35.6107993 102.49230418 -41.75157459 99.94837666 -47.90625 97.43359375 C-49.21655434 96.89819221 -49.21655434 96.89819221 -50.55332947 96.35197449 C-53.97005993 94.95714108 -57.38746276 93.56397115 -60.80569458 92.17282104 C-86.25066932 81.81183068 -86.25066932 81.81183068 -89.25 78.8125 C-90.07373377 72.31518423 -87.07596363 68.67172285 -83.484375 63.5390625 C-80.6109637 60.03269696 -78.4452866 58.45771043 -74.25 56.8125 C-73.26 56.8125 -72.27 56.8125 -71.25 56.8125 C-71.4665625 56.06226563 -71.683125 55.31203125 -71.90625 54.5390625 C-75.65061839 40.77504166 -75.10206606 28.24515042 -68.0625 15.5 C-61.34629294 4.83556242 -51.72946614 -3.4461756 -39.33984375 -6.71484375 C-25.34014641 -8.85639037 -12.07717094 -7.85655598 0 0 Z M-53.25 14.8125 C-55.6723509 17.63857605 -57.52718932 20.51923605 -59.25 23.8125 C-59.58773437 24.41320312 -59.92546875 25.01390625 -60.2734375 25.6328125 C-64.17932582 33.91042903 -63.34117302 44.60636052 -60.5 53.0625 C-59.04043865 56.88516067 -57.63426447 58.55481789 -54.25 60.8125 C-52.06003758 61.78579628 -52.06003758 61.78579628 -49.68432617 62.53344727 C-48.78626755 62.83287735 -47.88820892 63.13230743 -46.9629364 63.44081116 C-42.87188011 64.75514073 -38.78040387 66.06668497 -34.67944336 67.34985352 C-32.5183379 68.03322439 -30.36229174 68.732806 -28.21166992 69.44848633 C-25.10330702 70.48254568 -21.98292496 71.46685217 -18.85546875 72.44140625 C-17.89795212 72.76919571 -16.94043549 73.09698517 -15.9539032 73.43470764 C-10.96155095 75.02719897 -10.96155095 75.02719897 -6.1065979 73.72360229 C-3.24177148 71.34122341 -1.31994931 68.91742397 0.75 65.8125 C-0.03503906 65.544375 -0.82007813 65.27625 -1.62890625 65 C-9.85672202 61.93097424 -15.50762261 58.63265345 -19.3359375 50.5078125 C-20.87957326 46.30175909 -21.89258958 42.31062708 -21.25 37.8125 C-20.11401367 36.18041992 -20.11401367 36.18041992 -18.25 34.8125 C-15.4309082 34.38012695 -15.4309082 34.38012695 -12.05078125 34.30078125 C-10.84228516 34.26533203 -9.63378906 34.22988281 -8.38867188 34.19335938 C-7.12603516 34.17080078 -5.86339844 34.14824219 -4.5625 34.125 C-3.28826172 34.09083984 -2.01402344 34.05667969 -0.70117188 34.02148438 C2.44913103 33.93889216 5.59915157 33.86977665 8.75 33.8125 C8.3144737 32.2307124 7.86836966 30.65183537 7.41796875 29.07421875 C7.17071045 28.19467529 6.92345215 27.31513184 6.66870117 26.40893555 C3.85493791 18.45667078 -3.30675943 11.49992898 -10.62109375 7.5234375 C-26.07798784 0.46758108 -40.70996431 3.49492062 -53.25 14.8125 Z " fill="#FEFEFE" transform="translate(168.25,218.1875)"/>
<path d="M0 0 C13.28907483 11.15954666 21.46354977 26.74924484 23.28515625 44.00390625 C24.71356238 60.99173625 19.37639524 77.8334976 8.50610352 90.93286133 C-0.41495129 100.93162746 -11.69940567 107.74519746 -24.71484375 111.00390625 C-25.44960938 111.19210938 -26.184375 111.3803125 -26.94140625 111.57421875 C-43.46541193 114.13427597 -60.28500914 112.03796666 -74.41796875 102.71875 C-89.29259836 91.61337177 -98.71995504 77.85566529 -102.2109375 59.54296875 C-104.66546379 42.30420269 -100.57527889 26.49586243 -90.76171875 12.1484375 C-88.84395696 9.65308211 -86.85053842 7.31445312 -84.71484375 5.00390625 C-84.14636719 4.38128906 -83.57789063 3.75867188 -82.9921875 3.1171875 C-60.5700097 -18.81219518 -24.2203074 -17.80802458 0 0 Z M-71.71484375 9.00390625 C-70.39484375 10.65390625 -69.07484375 12.30390625 -67.71484375 14.00390625 C-69.20582033 17.79911935 -71.47185224 19.61433356 -74.71484375 22.00390625 C-75.33359375 21.34390625 -75.95234375 20.68390625 -76.58984375 20.00390625 C-78.47121802 17.77545135 -78.47121802 17.77545135 -80.71484375 18.00390625 C-86.23227012 25.74159817 -90.71484375 34.36414565 -90.71484375 44.00390625 C-87.41484375 44.00390625 -84.11484375 44.00390625 -80.71484375 44.00390625 C-80.71484375 47.63390625 -80.71484375 51.26390625 -80.71484375 55.00390625 C-84.01484375 55.00390625 -87.31484375 55.00390625 -90.71484375 55.00390625 C-90.16556232 64.52478442 -86.42161119 73.394883 -80.71484375 81.00390625 C-79.84859375 80.53984375 -79.84859375 80.53984375 -78.96484375 80.06640625 C-78.22234375 79.71578125 -77.47984375 79.36515625 -76.71484375 79.00390625 C-76.07546875 78.69453125 -75.43609375 78.38515625 -74.77734375 78.06640625 C-72.71484375 78.00390625 -72.71484375 78.00390625 -69.96484375 80.44140625 C-69.22234375 81.28703125 -68.47984375 82.13265625 -67.71484375 83.00390625 C-68.91865823 85.49752196 -70.16913097 87.68533708 -71.71484375 90.00390625 C-63.32150957 95.73019966 -55.86605355 99.7024691 -45.71484375 101.00390625 C-45.71484375 97.70390625 -45.71484375 94.40390625 -45.71484375 91.00390625 C-41.75484375 91.00390625 -37.79484375 91.00390625 -33.71484375 91.00390625 C-33.71484375 94.30390625 -33.71484375 97.60390625 -33.71484375 101.00390625 C-24.39272418 99.03376758 -14.02632119 96.74981038 -7.71484375 89.00390625 C-9.03484375 87.68390625 -10.35484375 86.36390625 -11.71484375 85.00390625 C-10.44002285 82.16007502 -9.26347297 79.86636607 -6.71484375 78.00390625 C-3.72230829 78.29350646 -1.36755878 79.65816564 1.28515625 81.00390625 C6.45072316 73.37608579 11.28515625 64.44564443 11.28515625 55.00390625 C7.98515625 55.00390625 4.68515625 55.00390625 1.28515625 55.00390625 C1.28515625 51.37390625 1.28515625 47.74390625 1.28515625 44.00390625 C4.58515625 44.00390625 7.88515625 44.00390625 11.28515625 44.00390625 C9.99042471 34.16394656 6.79461502 26.26809441 1.28515625 18.00390625 C-1.20845946 19.20772073 -3.39627458 20.45819347 -5.71484375 22.00390625 C-7.69484375 20.02390625 -9.67484375 18.04390625 -11.71484375 16.00390625 C-10.51102927 13.51029054 -9.26055653 11.32247542 -7.71484375 9.00390625 C-15.80671385 3.73804718 -23.8667221 -0.99609375 -33.71484375 -0.99609375 C-33.71484375 2.30390625 -33.71484375 5.60390625 -33.71484375 9.00390625 C-37.67484375 9.00390625 -41.63484375 9.00390625 -45.71484375 9.00390625 C-45.71484375 5.70390625 -45.71484375 2.40390625 -45.71484375 -0.99609375 C-55.5629654 -0.99609375 -63.62297365 3.73804718 -71.71484375 9.00390625 Z " fill="#FEFEFE" transform="translate(305.71484375,36.99609375)"/>
<path d="M0 0 C0.83402344 -0.04898438 1.66804688 -0.09796875 2.52734375 -0.1484375 C6.1650335 0.60264174 7.937836 2.48130574 10.0625 5.375 C11.50143012 7.84120687 12.8317597 10.35110599 14.16113281 12.87792969 C18.32664321 21.37204727 18.32664321 21.37204727 25.51171875 26.90625 C28.54800222 27.10747115 31.09628199 27.02714722 34.0625 26.375 C34.5265625 25.4159375 34.5265625 25.4159375 35 24.4375 C36.0625 22.375 36.0625 22.375 37.0625 21.375 C42.29877327 21.08331647 47.53762881 21.06099125 52.78125 21.02490234 C54.54863646 21.0083331 56.31595565 20.98103003 58.08300781 20.94287109 C60.62600593 20.88820852 63.1674317 20.86624667 65.7109375 20.8515625 C66.50164642 20.82889313 67.29235535 20.80622375 68.10702515 20.78286743 C70.34130859 20.79150391 70.34130859 20.79150391 74.0625 21.375 C76.73208405 24.81587246 77.43946231 27.42503594 77.45068359 31.72851562 C77.46014008 32.77309937 77.46959656 33.81768311 77.4793396 34.8939209 C77.47326691 36.0117395 77.46719421 37.12955811 77.4609375 38.28125 C77.46380768 39.43870728 77.46667786 40.59616455 77.46963501 41.78869629 C77.47167419 44.23299652 77.46615459 46.67731312 77.45361328 49.12158203 C77.4375585 52.86137406 77.45346791 56.60008531 77.47265625 60.33984375 C77.47067379 62.71614822 77.46683007 65.09245201 77.4609375 67.46875 C77.46701019 68.5865686 77.47308289 69.70438721 77.4793396 70.8560791 C77.46515488 72.42295471 77.46515488 72.42295471 77.45068359 74.02148438 C77.44829681 74.9368396 77.44591003 75.85219482 77.44345093 76.79528809 C76.97488358 79.96831821 76.02162721 81.84463442 74.0625 84.375 C71.10859084 84.86757882 68.73389699 85.03046249 65.78125 84.96875 C64.9713562 84.96879028 64.1614624 84.96883057 63.32702637 84.96887207 C61.61556229 84.96351318 59.90409916 84.94591435 58.19287109 84.91699219 C55.57182704 84.8751489 52.95335278 84.87592076 50.33203125 84.8828125 C48.66925296 84.87231951 47.00648793 84.85938081 45.34375 84.84375 C44.16709778 84.84344788 44.16709778 84.84344788 42.9666748 84.84313965 C37.60520783 84.72641257 37.60520783 84.72641257 35.05664062 83.07617188 C33.42453352 80.28331277 33.88448738 77.5198896 34.0625 74.375 C26.04133951 74.08427254 26.04133951 74.08427254 18.81640625 76.9296875 C17.05572617 78.76016603 17.05572617 78.76016603 15.625 80.68359375 C12.80466442 83.73660701 9.71788584 84.32221063 5.65258789 84.6496582 C-1.72251974 84.69947428 -1.72251974 84.69947428 -4.65698242 84.69067383 C-6.86492315 84.68751442 -9.07152154 84.71099663 -11.27929688 84.73632812 C-12.69531082 84.7386016 -14.11132834 84.73930439 -15.52734375 84.73828125 C-16.80472412 84.74126221 -18.08210449 84.74424316 -19.39819336 84.74731445 C-24.37397948 84.22389072 -27.66071939 82.65178061 -31.1875 79.125 C-34.71676485 73.57901239 -35.3889035 67.22450047 -36.0625 60.8125 C-36.18661255 59.64037964 -36.18661255 59.64037964 -36.31323242 58.44458008 C-38.30343387 38.35643165 -38.30343387 38.35643165 -33.9375 32.375 C-30.69696829 29.03320168 -27.48438841 26.48496928 -22.67578125 26.27734375 C-21.87527344 26.28894531 -21.07476562 26.30054687 -20.25 26.3125 C-19.03763672 26.32603516 -19.03763672 26.32603516 -17.80078125 26.33984375 C-17.18589844 26.35144531 -16.57101563 26.36304687 -15.9375 26.375 C-16.2675 25.735625 -16.5975 25.09625 -16.9375 24.4375 C-18.65969479 19.16327847 -18.6273495 14.36789855 -16.8125 9.125 C-14.30718261 5.4505345 -11.42516495 2.18529751 -7.0546875 0.76171875 C-4.68372729 0.32864668 -2.40938893 0.09652406 0 0 Z M-6.9375 15.375 C-5.11590016 21.85911267 -5.11590016 21.85911267 -2.6875 28.125 C-1.68553152 31.13090545 -2.23016912 33.33347723 -2.9375 36.375 C-5.62743592 37.27164531 -7.32480321 37.51882504 -10.09765625 37.5859375 C-10.89107422 37.61429688 -11.68449219 37.64265625 -12.50195312 37.671875 C-14.17099487 37.72407333 -15.84030412 37.76831013 -17.50976562 37.8046875 C-18.30189453 37.835625 -19.09402344 37.8665625 -19.91015625 37.8984375 C-20.63468994 37.91825684 -21.35922363 37.93807617 -22.10571289 37.95849609 C-24.34979762 38.24772821 -24.34979762 38.24772821 -25.9375 41.375 C-26.01515301 46.0600652 -25.42531793 50.71824953 -24.9375 55.375 C-24.87014648 56.05933105 -24.80279297 56.74366211 -24.73339844 57.44873047 C-24.5273075 59.48903075 -24.29926175 61.52554973 -24.0625 63.5625 C-23.92070312 64.79355469 -23.77890625 66.02460937 -23.6328125 67.29296875 C-22.88970177 70.5868697 -22.57801526 71.41835152 -19.9375 73.375 C-15.74475351 74.12883622 -11.5028925 74.02297065 -7.25 74.0625 C-6.09048828 74.11599609 -4.93097656 74.16949219 -3.73632812 74.22460938 C2.8272983 74.33330707 2.8272983 74.33330707 8.60791016 71.58056641 C10.56949773 69.59682402 12.30844961 67.54009707 14.0625 65.375 C16.29897631 64.25676185 17.71141529 64.18103939 20.1953125 64.05859375 C21.28416748 64.00143188 21.28416748 64.00143188 22.39501953 63.94311523 C23.77729736 63.87846069 23.77729736 63.87846069 25.1875 63.8125 C28.11625 63.668125 31.045 63.52375 34.0625 63.375 C34.0625 55.125 34.0625 46.875 34.0625 38.375 C28.97728387 38.08671993 28.97728387 38.08671993 23.89160156 37.80688477 C16.40255274 37.36074873 16.40255274 37.36074873 14.0625 36.375 C12.96411133 34.1027832 12.96411133 34.1027832 12.0625 31.375 C10.3955252 28.04562131 8.57278673 24.80865805 6.75 21.5625 C6.27626953 20.67884766 5.80253906 19.79519531 5.31445312 18.88476562 C4.84330078 18.05009766 4.37214844 17.21542969 3.88671875 16.35546875 C3.46479248 15.59129639 3.04286621 14.82712402 2.6081543 14.03979492 C1.14452625 12.10929169 1.14452625 12.10929169 -1.50073242 12.0324707 C-4.34649219 12.43249084 -5.18451591 13.1607043 -6.9375 15.375 Z M45.0625 32.375 C45.0625 45.905 45.0625 59.435 45.0625 73.375 C51.6625 73.375 58.2625 73.375 65.0625 73.375 C65.0625 59.845 65.0625 46.315 65.0625 32.375 C58.4625 32.375 51.8625 32.375 45.0625 32.375 Z " fill="#FEFEFE" transform="translate(54.9375,33.625)"/>
<path d="M0 0 C1.97806641 -0.04253906 1.97806641 -0.04253906 3.99609375 -0.0859375 C7.5625 0.375 7.5625 0.375 9.98828125 2.1328125 C12.40398908 5.57354772 12.28596635 8.22699531 12.5625 12.375 C15.92273704 11.98427476 18.1986626 11.61149431 21.0625 9.75 C24.40990832 7.90892543 25.91115671 8.39647624 29.5625 9.375 C34.30151897 12.75173217 38.15476495 16.33632474 39.3125 22.125 C38.54539795 25.44910888 37.36762041 27.51689269 35.5625 30.375 C35.31053871 33.08453551 35.31053871 33.08453551 35.5625 35.375 C38.4921875 35.5703125 38.4921875 35.5703125 41.421875 35.765625 C44.50056223 36.64203961 45.67448227 37.79095807 47.5625 40.375 C48.12890625 43.90625 48.12890625 43.90625 48.125 47.875 C48.14691406 49.1846875 48.16882813 50.494375 48.19140625 51.84375 C47.5625 55.375 47.5625 55.375 45.265625 57.765625 C41.95824284 59.73476004 39.28546596 60.49900801 35.5625 61.375 C36.10973683 64.74962715 36.6174 66.45735 38.5625 69.375 C39.09094972 73.64746613 39.05501793 75.65958364 36.5859375 79.24609375 C35.27496094 80.51646484 35.27496094 80.51646484 33.9375 81.8125 C33.07898438 82.67746094 32.22046875 83.54242188 31.3359375 84.43359375 C28.04257172 86.73894979 26.50067252 86.93759607 22.5625 86.375 C20.515625 85.46484375 20.515625 85.46484375 18.8125 84.3125 C17.74 83.673125 16.6675 83.03375 15.5625 82.375 C13.37878991 83.18772599 13.37878991 83.18772599 12.78125 85.37109375 C12.5440625 86.17675781 12.306875 86.98242188 12.0625 87.8125 C10.77890091 92.15859909 10.77890091 92.15859909 8.5625 94.375 C5.70389702 94.62714344 2.9842894 94.7452778 0.125 94.75 C-0.65166016 94.77449219 -1.42832031 94.79898438 -2.22851562 94.82421875 C-7.89519556 94.85350392 -7.89519556 94.85350392 -10.4296875 92.6171875 C-11.98334489 89.1606009 -12.12344177 86.14369873 -12.4375 82.375 C-16.23053725 83.37693437 -19.15286341 84.18524227 -22.4375 86.375 C-26.38009884 86.94748695 -27.9313098 86.73574964 -31.2109375 84.3984375 C-32.06945312 83.52445312 -32.92796875 82.65046875 -33.8125 81.75 C-34.68648437 80.89148438 -35.56046875 80.03296875 -36.4609375 79.1484375 C-38.79287249 75.87635481 -38.9698534 74.30789655 -38.4375 70.375 C-37.47317924 68.68743867 -36.47539581 67.01833504 -35.4375 65.375 C-35.4375 64.055 -35.4375 62.735 -35.4375 61.375 C-36.48550781 60.99408203 -36.48550781 60.99408203 -37.5546875 60.60546875 C-38.46476563 60.26128906 -39.37484375 59.91710937 -40.3125 59.5625 C-41.21742188 59.22605469 -42.12234375 58.88960937 -43.0546875 58.54296875 C-45.4375 57.375 -45.4375 57.375 -47.4375 54.375 C-47.703125 51.37890625 -47.703125 51.37890625 -47.6875 47.9375 C-47.69265625 46.80441406 -47.6978125 45.67132813 -47.703125 44.50390625 C-47.44428736 41.45495116 -47.2910133 39.78900684 -45.4375 37.375 C-43.0546875 36.328125 -43.0546875 36.328125 -40.3125 35.625 C-39.40242187 35.38265625 -38.49234375 35.1403125 -37.5546875 34.890625 C-36.85601562 34.72046875 -36.15734375 34.5503125 -35.4375 34.375 C-35.9354837 30.64012223 -36.31241756 28.56262365 -38.4375 25.375 C-39.125 22.25 -39.125 22.25 -38.4375 18.375 C-35.14303326 13.94426382 -31.77077195 10.04122613 -26.359375 8.49609375 C-23.29137905 8.36894419 -22.26518642 8.58632022 -19.8125 10.3125 C-16.52786492 12.72263334 -16.52786492 12.72263334 -12.4375 12.375 C-12.32792969 11.67632812 -12.21835938 10.97765625 -12.10546875 10.2578125 C-11.94691406 9.34773438 -11.78835937 8.43765625 -11.625 7.5 C-11.47417969 6.59507813 -11.32335937 5.69015625 -11.16796875 4.7578125 C-9.52317996 -0.60754131 -4.71320376 0.00903778 0 0 Z M-0.4375 11.375 C-0.6334375 11.97828125 -0.829375 12.5815625 -1.03125 13.203125 C-2.67561257 17.59754222 -3.99948631 20.66780823 -8.25 22.9375 C-12.04904402 24.48972134 -15.32852614 24.85840869 -19.4375 24.375 C-20.4275 23.715 -21.4175 23.055 -22.4375 22.375 C-23.4275 22.375 -24.4175 22.375 -25.4375 22.375 C-25.128125 23.096875 -24.81875 23.81875 -24.5 24.5625 C-22.56885288 29.67436001 -22.09511991 32.48842344 -24.375 37.5625 C-25.94171714 40.85424086 -25.94171714 40.85424086 -26.4375 44.375 C-29.4075 45.035 -32.3775 45.695 -35.4375 46.375 C-35.1075 47.365 -34.7775 48.355 -34.4375 49.375 C-33.365 49.54 -32.2925 49.705 -31.1875 49.875 C-28.25690322 50.57131948 -27.54532495 51.21457114 -25.828125 53.76953125 C-22.10338488 61.58520784 -22.62843658 65.32235152 -25.4375 73.375 C-24.73625 73.065625 -24.035 72.75625 -23.3125 72.4375 C-16.95700768 70.0887311 -12.95351281 70.20366625 -6.71875 72.8515625 C-2.86912766 75.42237194 -1.67564683 79.05072599 -0.4375 83.375 C0.2225 83.375 0.8825 83.375 1.5625 83.375 C1.71332031 82.47007812 1.71332031 82.47007812 1.8671875 81.546875 C2.76856915 77.7190899 3.44475765 75.14381749 6.77734375 72.8515625 C13.02778143 70.20100096 17.07169247 70.08491896 23.4375 72.4375 C24.13875 72.746875 24.84 73.05625 25.5625 73.375 C25.05646008 71.20625748 24.56266187 69.37532373 23.5625 67.375 C22.95459837 61.41756398 24.02837768 56.23927275 27.5625 51.375 C30.25501597 49.74613061 32.46212553 49.15009362 35.5625 48.375 C35.5625 47.715 35.5625 47.055 35.5625 46.375 C34.325 46.045 33.0875 45.715 31.8125 45.375 C28.40082704 44.08654904 26.807276 42.90522095 25.0625 39.6875 C22.88563344 34.4476088 22.74999828 29.81250515 24.5625 24.375 C24.8925 23.715 25.2225 23.055 25.5625 22.375 C23.39375748 22.88103992 21.56282373 23.37483813 19.5625 24.375 C14.15607116 24.33174857 8.96000441 23.64756142 4.5625 20.375 C2.91179261 17.47983407 1.68006125 14.51074538 0.5625 11.375 C0.2325 11.375 -0.0975 11.375 -0.4375 11.375 Z " fill="#FEFEFE" transform="translate(172.4375,111.625)"/>
<path d="M0 0 C4.3890815 0.51035831 7.33708062 1.52214277 11 4 C10.7208374 4.80703369 10.7208374 4.80703369 10.43603516 5.63037109 C8.52513663 11.24461755 6.87399383 16.88811002 5.375 22.625 C5.1584375 23.43195313 4.941875 24.23890625 4.71875 25.0703125 C4.50992188 25.864375 4.30109375 26.6584375 4.0859375 27.4765625 C3.9007959 28.17861816 3.7156543 28.88067383 3.52490234 29.60400391 C-0.21482262 46.6745438 0.26491933 68.17900776 5 85 C5.3403125 86.22847656 5.680625 87.45695312 6.03125 88.72265625 C11.34537624 106.08333218 20.28820429 121.90456053 32.1796875 135.58984375 C34.89509842 139.18514105 34.89509842 139.18514105 35 142 C33.890625 143.703125 33.890625 143.703125 32.25 145.25 C31.71890625 145.77078125 31.1878125 146.2915625 30.640625 146.828125 C29 148 29 148 26 148 C4.60117663 126.5582071 -9.9370639 93.29367885 -11 63 C-11.0515625 61.72640625 -11.103125 60.4528125 -11.15625 59.140625 C-11.68890285 39.54912511 -9.18717417 17.60485796 0 0 Z " fill="#FEFEFE" transform="translate(48,126)"/>
<path d="M0 0 C9.33603952 29.25292382 1.14463281 63.25352976 -12 90 C-17.47555072 100.54550508 -24.57667469 109.76692495 -32 119 C-35.59905908 118.44449305 -36.99909799 117.25112752 -39.25 114.4375 C-39.77078125 113.79683594 -40.2915625 113.15617187 -40.828125 112.49609375 C-41.21484375 112.00238281 -41.6015625 111.50867188 -42 111 C-41.61070312 110.59652344 -41.22140625 110.19304687 -40.8203125 109.77734375 C-26.21201372 93.92363701 -17.18917944 74.75671775 -12 54 C-11.76539063 53.0615625 -11.53078125 52.123125 -11.2890625 51.15625 C-7.82391333 34.88511477 -9.09947603 18.36962933 -11 2 C-7.14537365 0.64394032 -4.1043504 -0.24143238 0 0 Z " fill="#FEFEFE" transform="translate(305,153)"/>
<path d="M0 0 C3.57770548 1.38297859 6.74845193 2.95616979 10 5 C9.39399422 9.34708149 7.77628629 12.53735838 5.6875 16.375 C1.86036383 23.67164186 -0.21902586 30.96646612 -2 39 C-2.1750708 39.76779785 -2.3501416 40.5355957 -2.53051758 41.32666016 C-5.18042606 56.41584265 -4.10327936 73.56548168 1 88 C1.40863281 89.18851562 1.81726563 90.37703125 2.23828125 91.6015625 C3.95701203 96.31609955 5.74478307 100.7815952 8.375 105.0625 C10 108 10 108 10.1875 110.1875 C8.16493997 113.2745653 5.28300975 114.38729346 2 116 C1.34 116 0.68 116 0 116 C-15.55438785 86.62806661 -20.86728965 56.24206707 -10.99707031 23.99169922 C-8.22595541 15.4447115 -4.60627752 7.71347064 0 0 Z " fill="#FEFEFE" transform="translate(79,122)"/>
<path d="M0 0 C6.94850448 25.93281138 0.37566993 54.90750215 -12.45703125 77.828125 C-17.23252902 85.9349708 -23.22443664 93.47713831 -30 100 C-34.2742558 98.4169423 -36.26531794 95.49431596 -39 92 C-38.39865234 91.35998047 -38.39865234 91.35998047 -37.78515625 90.70703125 C-21.9924956 73.33868564 -10.5606925 50.89412638 -10 27 C-9.97292969 26.24460938 -9.94585937 25.48921875 -9.91796875 24.7109375 C-9.78208186 17.12597849 -10.43563879 9.55840907 -11 2 C-7.17679443 0.57741188 -4.08718695 -0.24042276 0 0 Z " fill="#FEFEFE" transform="translate(280,158)"/>
<path d="M0 0 C3.86599248 2.15027101 5.89308913 4.30584896 7.8125 8.375 C9.18509644 13.21048679 9.30126832 17.07329842 7.1875 21.6875 C4.87393126 25.72017884 1.97790155 28.29229923 -2.1875 30.375 C-7.41590334 30.89613171 -11.82786754 31.01773534 -16.625 28.75 C-20.3856784 25.26449319 -22.86240565 22.78998657 -23.5703125 17.53125 C-23.74587207 12.80284556 -23.5634833 9.25229436 -21.6875 4.875 C-15.46855837 -1.34394163 -8.33122978 -3.66512512 0 0 Z M-12.1875 12.375 C-11.86551034 15.47426819 -11.86551034 15.47426819 -11.1875 18.375 C-8.84216049 19.14456136 -8.84216049 19.14456136 -6.1875 19.375 C-4.1875 18.375 -4.1875 18.375 -3.1875 16.375 C-3.42955349 13.05681015 -3.42955349 13.05681015 -5.1875 10.375 C-9.148668 9.98409667 -9.148668 9.98409667 -12.1875 12.375 Z " fill="#FEFEFE" transform="translate(180.1875,144.625)"/>
<path d="M0 0 C-1.65 3.3 -3.3 6.6 -5 10 C-6.32 9.67 -7.64 9.34 -9 9 C-13.73974481 8.47431921 -17.08243804 8.52422713 -21.375 10.75 C-24.92783342 13.79528579 -26.60201187 15.57861382 -27.875 20.125 C-28.03814784 25.18258295 -26.68321843 29.27367481 -25 34 C-25.90027588 35.03531726 -26.82093035 36.05294165 -27.75 37.0625 C-28.26046875 37.63097656 -28.7709375 38.19945312 -29.296875 38.78515625 C-31 40 -31 40 -33.06640625 39.890625 C-36.32758413 38.3885067 -37.60793924 35.15664482 -39 32 C-41.31968012 24.55260593 -40.73746246 16.89478006 -37.18359375 9.99609375 C-32.77264301 2.55716363 -26.83391255 -1.48008831 -18.49609375 -3.65234375 C-11.87578591 -4.57442105 -5.72792247 -3.46690044 0 0 Z " fill="#FEFEFE" transform="translate(155,235)"/>
<path d="M0 0 C1.30976807 -0.00515625 2.61953613 -0.0103125 3.96899414 -0.015625 C11.8961866 0.04048608 19.41819123 0.72779686 27.1875 2.3125 C26.3125 11.0625 26.3125 11.0625 25.1875 13.3125 C24.05441406 13.20421875 24.05441406 13.20421875 22.8984375 13.09375 C4.66327565 11.55635931 -12.79778653 12.02999256 -30.8125 15.3125 C-32.10493536 11.1928623 -33.07502625 7.64418317 -32.8125 3.3125 C-21.92418551 0.59446607 -11.18961568 0.00266479 0 0 Z " fill="#FEFEFE" transform="translate(172.8125,44.6875)"/>
<path d="M0 0 C3.96 0 7.92 0 12 0 C12.17426207 4.55302754 12.30062038 9.10407758 12.38452148 13.65966797 C12.41952406 15.2059107 12.46714551 16.75192509 12.52807617 18.29736328 C13.08474817 32.78954677 13.08474817 32.78954677 8.8125 37.71875 C7.57154721 38.84628829 6.30181657 39.94331649 5 41 C4.03227134 41.97912472 3.0741612 42.96791182 2.12890625 43.96875 C1.28199219 44.8040625 0.43507813 45.639375 -0.4375 46.5 C-1.30246094 47.3559375 -2.16742188 48.211875 -3.05859375 49.09375 C-3.69925781 49.7228125 -4.33992187 50.351875 -5 51 C-9.2742558 49.4169423 -11.26531794 46.49431596 -14 43 C-13.07316406 42.40960938 -12.14632812 41.81921875 -11.19140625 41.2109375 C-5.71519992 37.14071249 -1.67094852 33.34602303 -0.28613281 26.43994141 C0.69301741 17.68890993 0.39447201 8.77679195 0 0 Z " fill="#FEFEFE" transform="translate(260,55)"/>
<path d="M0 0 C1.26650391 -0.00773437 2.53300781 -0.01546875 3.83789062 -0.0234375 C10.34371368 -0.00983411 16.09743546 0.2799418 22.3125 2.25 C21.6525 5.88 20.9925 9.51 20.3125 13.25 C19.075 13.085 17.8375 12.92 16.5625 12.75 C3.37058402 11.47939053 -9.45912087 11.70260611 -22.40234375 14.59375 C-25.6875 15.25 -25.6875 15.25 -30.6875 15.25 C-31.6775 11.95 -32.6675 8.65 -33.6875 5.25 C-22.60302798 0.64889841 -11.92827968 -0.0735179 0 0 Z " fill="#FEFEFE" transform="translate(172.6875,70.75)"/>
</svg>
