<?xml version="1.0" encoding="UTF-8"?>
<svg xmlns="http://www.w3.org/2000/svg" xmlns:xlink="http://www.w3.org/1999/xlink" width="px" height="55px" viewBox="0 0 54 54" version="1.1">
<g id="surface1">
<path style=" stroke:none;fill-rule:nonzero;fill:rgb(99.607843%,99.607843%,99.607843%);fill-opacity:1;" d="M 25.882812 33.097656 C 27.386719 34.210938 28.453125 35.65625 28.921875 37.464844 C 28.941406 37.902344 28.941406 37.902344 28.921875 38.226562 C 29.035156 38.253906 29.144531 38.285156 29.257812 38.3125 C 29.738281 38.550781 29.949219 38.832031 30.269531 39.246094 C 30.921875 40.050781 31.519531 40.53125 32.574219 40.675781 C 33.605469 40.75 34.632812 40.726562 35.664062 40.699219 C 36.023438 40.695312 36.386719 40.695312 36.746094 40.695312 C 37.628906 40.691406 38.503906 40.675781 39.382812 40.652344 C 39.382812 41.203125 39.382812 41.753906 39.382812 42.320312 C 38.222656 42.375 37.058594 42.417969 35.894531 42.445312 C 35.5 42.457031 35.105469 42.472656 34.710938 42.492188 C 31.210938 42.664062 31.210938 42.664062 30.210938 41.8125 C 29.914062 41.507812 29.640625 41.195312 29.371094 40.867188 C 28.9375 40.347656 28.710938 40.078125 28.050781 39.84375 C 27.488281 39.789062 26.960938 39.789062 26.394531 39.828125 C 26.207031 39.828125 26.019531 39.832031 25.824219 39.835938 C 25.371094 39.84375 24.917969 39.863281 24.460938 39.894531 C 24.90625 40.683594 25.246094 40.984375 26.152344 41.257812 C 26.6875 41.324219 27.214844 41.324219 27.753906 41.324219 C 28.25 41.339844 28.542969 41.351562 28.929688 41.671875 C 29.121094 42.125 29.074219 42.308594 28.921875 42.773438 C 28.484375 43.335938 27.980469 43.832031 27.476562 44.332031 C 27.230469 44.574219 26.996094 44.824219 26.757812 45.074219 C 26.601562 45.230469 26.445312 45.386719 26.289062 45.542969 C 26.148438 45.683594 26.007812 45.828125 25.863281 45.972656 C 25.289062 46.320312 25.042969 46.320312 24.398438 46.207031 C 23.601562 46.015625 22.820312 45.777344 22.039062 45.527344 C 21.664062 45.410156 21.285156 45.292969 20.90625 45.175781 C 20.316406 44.988281 19.726562 44.800781 19.136719 44.617188 C 18.5625 44.433594 17.988281 44.257812 17.414062 44.078125 C 17.238281 44.019531 17.0625 43.964844 16.878906 43.90625 C 16.714844 43.855469 16.550781 43.804688 16.378906 43.75 C 16.234375 43.707031 16.089844 43.660156 15.941406 43.613281 C 15.488281 43.523438 15.207031 43.539062 14.769531 43.683594 C 14.667969 43.835938 14.566406 43.984375 14.460938 44.140625 C 16.792969 45.144531 19.140625 46.097656 21.492188 47.046875 C 21.675781 47.121094 21.675781 47.121094 21.867188 47.195312 C 22.113281 47.296875 22.359375 47.394531 22.605469 47.492188 C 23.21875 47.738281 23.824219 47.988281 24.425781 48.253906 C 24.542969 48.304688 24.664062 48.355469 24.785156 48.410156 C 25.007812 48.503906 25.226562 48.601562 25.449219 48.703125 C 25.953125 48.921875 26.25 49.007812 26.792969 48.890625 C 26.9375 48.824219 27.082031 48.757812 27.230469 48.691406 C 27.359375 48.636719 27.488281 48.578125 27.621094 48.523438 C 27.75 48.460938 27.875 48.402344 28.007812 48.339844 C 28.144531 48.273438 28.285156 48.207031 28.429688 48.140625 C 28.574219 48.070312 28.71875 48.003906 28.867188 47.933594 C 29.011719 47.863281 29.15625 47.796875 29.304688 47.726562 C 30.03125 47.390625 30.03125 47.390625 30.738281 47.015625 C 31.152344 46.839844 31.460938 46.835938 31.910156 46.835938 C 32.074219 46.835938 32.242188 46.835938 32.414062 46.835938 C 32.59375 46.839844 32.769531 46.839844 32.953125 46.839844 C 33.230469 46.84375 33.230469 46.84375 33.511719 46.84375 C 34.097656 46.84375 34.683594 46.847656 35.269531 46.851562 C 35.667969 46.851562 36.0625 46.855469 36.460938 46.855469 C 37.4375 46.859375 38.410156 46.863281 39.382812 46.871094 C 39.382812 47.472656 39.382812 48.070312 39.382812 48.691406 C 39.15625 48.6875 38.925781 48.6875 38.6875 48.6875 C 37.828125 48.679688 36.964844 48.683594 36.101562 48.6875 C 35.730469 48.691406 35.359375 48.691406 34.988281 48.6875 C 32.640625 48.667969 30.917969 48.800781 28.921875 50.054688 C 28.566406 50.246094 28.207031 50.421875 27.847656 50.597656 C 27.621094 50.710938 27.621094 50.710938 27.394531 50.824219 C 26.410156 51.121094 25.480469 50.78125 24.570312 50.386719 C 24.464844 50.34375 24.363281 50.300781 24.253906 50.253906 C 23.910156 50.109375 23.566406 49.964844 23.222656 49.820312 C 22.851562 49.664062 22.484375 49.511719 22.117188 49.359375 C 21.859375 49.25 21.605469 49.144531 21.347656 49.035156 C 20.40625 48.640625 19.460938 48.257812 18.515625 47.875 C 18.3125 47.792969 18.3125 47.792969 18.105469 47.710938 C 17.582031 47.5 17.054688 47.289062 16.53125 47.078125 C 12.617188 45.503906 12.617188 45.503906 12.152344 45.050781 C 12.027344 44.066406 12.488281 43.511719 13.039062 42.734375 C 13.484375 42.203125 13.816406 41.964844 14.460938 41.714844 C 14.613281 41.714844 14.765625 41.714844 14.921875 41.714844 C 14.890625 41.601562 14.855469 41.484375 14.820312 41.367188 C 14.246094 39.28125 14.332031 37.378906 15.414062 35.445312 C 16.445312 33.828125 17.925781 32.574219 19.832031 32.078125 C 21.984375 31.753906 24.027344 31.902344 25.882812 33.097656 Z M 17.691406 35.34375 C 17.320312 35.769531 17.035156 36.207031 16.769531 36.707031 C 16.71875 36.800781 16.664062 36.890625 16.613281 36.984375 C 16.011719 38.238281 16.140625 39.863281 16.578125 41.144531 C 16.800781 41.722656 17.019531 41.976562 17.539062 42.320312 C 17.875 42.46875 17.875 42.46875 18.242188 42.582031 C 18.378906 42.625 18.515625 42.671875 18.660156 42.71875 C 19.289062 42.917969 19.917969 43.117188 20.550781 43.3125 C 20.882812 43.414062 21.214844 43.523438 21.542969 43.628906 C 22.023438 43.785156 22.503906 43.9375 22.984375 44.085938 C 23.132812 44.132812 23.277344 44.183594 23.429688 44.234375 C 24.199219 44.476562 24.199219 44.476562 24.945312 44.277344 C 25.386719 43.917969 25.679688 43.550781 26 43.078125 C 25.878906 43.039062 25.757812 42.996094 25.632812 42.957031 C 24.367188 42.488281 23.5 41.988281 22.910156 40.757812 C 22.671875 40.121094 22.515625 39.515625 22.617188 38.832031 C 22.789062 38.582031 22.789062 38.582031 23.078125 38.375 C 23.511719 38.3125 23.511719 38.3125 24.03125 38.296875 C 24.214844 38.292969 24.402344 38.289062 24.59375 38.28125 C 24.789062 38.277344 24.984375 38.277344 25.183594 38.273438 C 25.378906 38.265625 25.574219 38.261719 25.777344 38.257812 C 26.261719 38.242188 26.746094 38.234375 27.230469 38.226562 C 27.164062 37.984375 27.09375 37.746094 27.027344 37.507812 C 26.988281 37.371094 26.949219 37.238281 26.910156 37.101562 C 26.476562 35.894531 25.375 34.839844 24.25 34.238281 C 21.871094 33.167969 19.621094 33.625 17.691406 35.34375 Z M 17.691406 35.34375 "/>
<path style=" stroke:none;fill-rule:nonzero;fill:rgb(99.607843%,99.607843%,99.607843%);fill-opacity:1;" d="M 47.03125 5.613281 C 49.078125 7.304688 50.335938 9.667969 50.617188 12.285156 C 50.835938 14.863281 50.015625 17.417969 48.339844 19.40625 C 46.96875 20.921875 45.234375 21.957031 43.230469 22.449219 C 43.117188 22.476562 43.003906 22.507812 42.886719 22.535156 C 40.347656 22.925781 37.757812 22.605469 35.585938 21.191406 C 33.296875 19.507812 31.84375 17.421875 31.308594 14.644531 C 30.929688 12.027344 31.558594 9.628906 33.070312 7.453125 C 33.363281 7.074219 33.671875 6.722656 34 6.371094 C 34.085938 6.277344 34.175781 6.183594 34.265625 6.085938 C 37.714844 2.757812 43.308594 2.910156 47.03125 5.613281 Z M 36 6.976562 C 36.203125 7.226562 36.40625 7.476562 36.617188 7.734375 C 36.386719 8.3125 36.039062 8.585938 35.539062 8.949219 C 35.441406 8.847656 35.347656 8.75 35.25 8.644531 C 34.960938 8.308594 34.960938 8.308594 34.617188 8.34375 C 33.765625 9.515625 33.078125 10.824219 33.078125 12.285156 C 33.585938 12.285156 34.09375 12.285156 34.617188 12.285156 C 34.617188 12.835938 34.617188 13.386719 34.617188 13.953125 C 34.109375 13.953125 33.601562 13.953125 33.078125 13.953125 C 33.160156 15.398438 33.738281 16.746094 34.617188 17.898438 C 34.75 17.828125 34.75 17.828125 34.882812 17.757812 C 35 17.703125 35.113281 17.648438 35.230469 17.59375 C 35.328125 17.546875 35.425781 17.5 35.527344 17.453125 C 35.847656 17.445312 35.847656 17.445312 36.269531 17.8125 C 36.382812 17.941406 36.496094 18.070312 36.617188 18.203125 C 36.429688 18.582031 36.238281 18.914062 36 19.265625 C 37.292969 20.132812 38.4375 20.734375 40 20.933594 C 40 20.433594 40 19.929688 40 19.414062 C 40.609375 19.414062 41.21875 19.414062 41.847656 19.414062 C 41.847656 19.917969 41.847656 20.417969 41.847656 20.933594 C 43.28125 20.632812 44.875 20.289062 45.847656 19.113281 C 45.644531 18.914062 45.441406 18.710938 45.230469 18.503906 C 45.425781 18.074219 45.609375 17.726562 46 17.445312 C 46.460938 17.488281 46.824219 17.695312 47.230469 17.898438 C 48.027344 16.742188 48.769531 15.386719 48.769531 13.953125 C 48.261719 13.953125 47.753906 13.953125 47.230469 13.953125 C 47.230469 13.40625 47.230469 12.855469 47.230469 12.285156 C 47.738281 12.285156 48.246094 12.285156 48.769531 12.285156 C 48.570312 10.792969 48.078125 9.597656 47.230469 8.34375 C 46.847656 8.523438 46.511719 8.714844 46.152344 8.949219 C 45.847656 8.648438 45.542969 8.347656 45.230469 8.039062 C 45.414062 7.660156 45.609375 7.328125 45.847656 6.976562 C 44.601562 6.179688 43.359375 5.460938 41.847656 5.460938 C 41.847656 5.960938 41.847656 6.460938 41.847656 6.976562 C 41.238281 6.976562 40.628906 6.976562 40 6.976562 C 40 6.476562 40 5.976562 40 5.460938 C 38.484375 5.460938 37.246094 6.179688 36 6.976562 Z M 36 6.976562 "/>
<path style=" stroke:none;fill-rule:nonzero;fill:rgb(99.607843%,99.607843%,99.607843%);fill-opacity:1;" d="M 8.453125 5.101562 C 8.582031 5.09375 8.707031 5.085938 8.839844 5.078125 C 9.398438 5.191406 9.671875 5.476562 10 5.914062 C 10.222656 6.289062 10.425781 6.671875 10.628906 7.054688 C 11.269531 8.34375 11.269531 8.34375 12.375 9.183594 C 12.84375 9.210938 13.234375 9.199219 13.691406 9.101562 C 13.765625 8.957031 13.765625 8.957031 13.835938 8.808594 C 14 8.496094 14 8.496094 14.152344 8.34375 C 14.960938 8.296875 15.765625 8.296875 16.570312 8.289062 C 16.84375 8.285156 17.117188 8.28125 17.386719 8.277344 C 17.777344 8.269531 18.171875 8.265625 18.5625 8.261719 C 18.683594 8.261719 18.804688 8.257812 18.929688 8.253906 C 19.273438 8.253906 19.273438 8.253906 19.847656 8.34375 C 20.257812 8.863281 20.367188 9.261719 20.367188 9.914062 C 20.367188 10.070312 20.371094 10.230469 20.371094 10.394531 C 20.371094 10.5625 20.371094 10.734375 20.367188 10.90625 C 20.371094 11.082031 20.371094 11.257812 20.371094 11.4375 C 20.371094 11.808594 20.371094 12.179688 20.367188 12.550781 C 20.367188 13.117188 20.367188 13.6875 20.371094 14.253906 C 20.371094 14.613281 20.371094 14.972656 20.367188 15.335938 C 20.371094 15.503906 20.371094 15.671875 20.371094 15.847656 C 20.371094 16.085938 20.371094 16.085938 20.367188 16.328125 C 20.367188 16.46875 20.367188 16.605469 20.367188 16.75 C 20.292969 17.230469 20.148438 17.515625 19.847656 17.898438 C 19.390625 17.972656 19.027344 18 18.570312 17.988281 C 18.449219 17.988281 18.324219 17.988281 18.195312 17.988281 C 17.929688 17.988281 17.667969 17.984375 17.40625 17.980469 C 17 17.976562 16.597656 17.976562 16.195312 17.976562 C 15.941406 17.972656 15.683594 17.972656 15.429688 17.96875 C 15.246094 17.96875 15.246094 17.96875 15.0625 17.96875 C 14.238281 17.953125 14.238281 17.953125 13.84375 17.703125 C 13.59375 17.277344 13.664062 16.859375 13.691406 16.382812 C 12.457031 16.339844 12.457031 16.339844 11.347656 16.769531 C 11.074219 17.046875 11.074219 17.046875 10.855469 17.339844 C 10.421875 17.800781 9.945312 17.890625 9.320312 17.941406 C 8.1875 17.949219 8.1875 17.949219 7.734375 17.945312 C 7.394531 17.945312 7.054688 17.949219 6.714844 17.953125 C 6.5 17.953125 6.28125 17.953125 6.0625 17.953125 C 5.867188 17.953125 5.671875 17.953125 5.46875 17.957031 C 4.703125 17.875 4.195312 17.636719 3.652344 17.101562 C 3.109375 16.261719 3.007812 15.296875 2.902344 14.324219 C 2.882812 14.148438 2.882812 14.148438 2.867188 13.964844 C 2.558594 10.917969 2.558594 10.917969 3.230469 10.011719 C 3.730469 9.503906 4.222656 9.117188 4.964844 9.085938 C 5.085938 9.089844 5.210938 9.089844 5.335938 9.089844 C 5.523438 9.09375 5.523438 9.09375 5.714844 9.097656 C 5.808594 9.097656 5.902344 9.097656 6 9.101562 C 5.949219 9.003906 5.898438 8.90625 5.847656 8.808594 C 5.582031 8.007812 5.585938 7.28125 5.867188 6.484375 C 6.25 5.925781 6.695312 5.433594 7.367188 5.214844 C 7.730469 5.148438 8.082031 5.113281 8.453125 5.101562 Z M 7.382812 7.433594 C 7.664062 8.417969 7.664062 8.417969 8.039062 9.367188 C 8.191406 9.824219 8.109375 10.15625 8 10.617188 C 7.585938 10.753906 7.324219 10.792969 6.898438 10.800781 C 6.777344 10.804688 6.65625 10.808594 6.527344 10.816406 C 6.273438 10.824219 6.015625 10.828125 5.757812 10.835938 C 5.636719 10.839844 5.515625 10.84375 5.390625 10.847656 C 5.277344 10.851562 5.164062 10.855469 5.050781 10.859375 C 4.707031 10.902344 4.707031 10.902344 4.460938 11.375 C 4.449219 12.085938 4.539062 12.792969 4.617188 13.5 C 4.625 13.605469 4.636719 13.707031 4.648438 13.816406 C 4.679688 14.125 4.714844 14.433594 4.75 14.742188 C 4.773438 14.929688 4.792969 15.117188 4.816406 15.308594 C 4.929688 15.808594 4.976562 15.933594 5.382812 16.230469 C 6.03125 16.34375 6.683594 16.328125 7.335938 16.335938 C 7.515625 16.34375 7.691406 16.351562 7.878906 16.359375 C 8.886719 16.375 8.886719 16.375 9.777344 15.957031 C 10.078125 15.65625 10.34375 15.34375 10.617188 15.015625 C 10.960938 14.847656 11.175781 14.835938 11.558594 14.816406 C 11.726562 14.808594 11.726562 14.808594 11.898438 14.800781 C 12.109375 14.789062 12.109375 14.789062 12.328125 14.78125 C 12.777344 14.757812 13.226562 14.734375 13.691406 14.714844 C 13.691406 13.460938 13.691406 12.210938 13.691406 10.921875 C 12.910156 10.878906 12.910156 10.878906 12.128906 10.835938 C 10.976562 10.765625 10.976562 10.765625 10.617188 10.617188 C 10.445312 10.273438 10.445312 10.273438 10.308594 9.859375 C 10.050781 9.355469 9.769531 8.863281 9.492188 8.371094 C 9.417969 8.238281 9.34375 8.101562 9.269531 7.964844 C 9.195312 7.839844 9.125 7.710938 9.050781 7.582031 C 8.984375 7.464844 8.921875 7.347656 8.851562 7.230469 C 8.628906 6.9375 8.628906 6.9375 8.222656 6.925781 C 7.785156 6.984375 7.65625 7.097656 7.382812 7.433594 Z M 15.382812 10.011719 C 15.382812 12.0625 15.382812 14.117188 15.382812 16.230469 C 16.398438 16.230469 17.414062 16.230469 18.460938 16.230469 C 18.460938 14.179688 18.460938 12.125 18.460938 10.011719 C 17.445312 10.011719 16.429688 10.011719 15.382812 10.011719 Z M 15.382812 10.011719 "/>
<path style=" stroke:none;fill-rule:nonzero;fill:rgb(99.607843%,99.607843%,99.607843%);fill-opacity:1;" d="M 26.527344 16.933594 C 26.832031 16.925781 26.832031 16.925781 27.144531 16.917969 C 27.691406 16.988281 27.691406 16.988281 28.066406 17.253906 C 28.4375 17.777344 28.417969 18.179688 28.460938 18.808594 C 28.976562 18.75 29.328125 18.691406 29.769531 18.410156 C 30.285156 18.132812 30.515625 18.207031 31.078125 18.355469 C 31.804688 18.867188 32.398438 19.410156 32.578125 20.289062 C 32.457031 20.792969 32.277344 21.105469 32 21.539062 C 31.960938 21.949219 31.960938 21.949219 32 22.296875 C 32.449219 22.328125 32.449219 22.328125 32.902344 22.355469 C 33.375 22.488281 33.554688 22.664062 33.847656 23.054688 C 33.933594 23.59375 33.933594 23.59375 33.933594 24.195312 C 33.9375 24.390625 33.9375 24.589844 33.941406 24.796875 C 33.847656 25.332031 33.847656 25.332031 33.492188 25.695312 C 32.984375 25.992188 32.574219 26.109375 32 26.242188 C 32.085938 26.753906 32.164062 27.011719 32.460938 27.453125 C 32.542969 28.101562 32.539062 28.410156 32.15625 28.953125 C 31.957031 29.144531 31.957031 29.144531 31.75 29.339844 C 31.617188 29.472656 31.484375 29.605469 31.351562 29.738281 C 30.84375 30.089844 30.605469 30.117188 30 30.035156 C 29.683594 29.894531 29.683594 29.894531 29.421875 29.722656 C 29.257812 29.625 29.09375 29.527344 28.921875 29.425781 C 28.585938 29.550781 28.585938 29.550781 28.496094 29.882812 C 28.457031 30.003906 28.421875 30.125 28.382812 30.25 C 28.1875 30.910156 28.1875 30.910156 27.847656 31.246094 C 27.40625 31.285156 26.988281 31.304688 26.546875 31.304688 C 26.429688 31.308594 26.308594 31.3125 26.1875 31.316406 C 25.3125 31.320312 25.3125 31.320312 24.925781 30.980469 C 24.683594 30.457031 24.664062 30 24.617188 29.425781 C 24.03125 29.578125 23.582031 29.703125 23.078125 30.035156 C 22.46875 30.121094 22.230469 30.089844 21.726562 29.734375 C 21.59375 29.601562 21.464844 29.46875 21.328125 29.332031 C 21.191406 29.203125 21.058594 29.070312 20.917969 28.9375 C 20.5625 28.441406 20.535156 28.203125 20.617188 27.605469 C 20.765625 27.351562 20.917969 27.097656 21.078125 26.847656 C 21.078125 26.648438 21.078125 26.449219 21.078125 26.242188 C 20.914062 26.183594 20.914062 26.183594 20.75 26.125 C 20.609375 26.074219 20.472656 26.019531 20.328125 25.964844 C 20.1875 25.914062 20.046875 25.863281 19.90625 25.8125 C 19.539062 25.636719 19.539062 25.636719 19.230469 25.179688 C 19.191406 24.726562 19.191406 24.726562 19.191406 24.203125 C 19.191406 24.03125 19.191406 23.859375 19.191406 23.683594 C 19.230469 23.21875 19.253906 22.96875 19.539062 22.601562 C 19.90625 22.441406 19.90625 22.441406 20.328125 22.335938 C 20.46875 22.300781 20.605469 22.261719 20.75 22.222656 C 20.859375 22.199219 20.964844 22.171875 21.078125 22.144531 C 21 21.578125 20.941406 21.265625 20.617188 20.78125 C 20.507812 20.308594 20.507812 20.308594 20.617188 19.71875 C 21.121094 19.046875 21.640625 18.453125 22.472656 18.21875 C 22.945312 18.203125 23.101562 18.234375 23.480469 18.496094 C 23.984375 18.863281 23.984375 18.863281 24.617188 18.808594 C 24.632812 18.703125 24.648438 18.597656 24.667969 18.488281 C 24.691406 18.351562 24.714844 18.210938 24.742188 18.070312 C 24.761719 17.933594 24.785156 17.796875 24.8125 17.652344 C 25.0625 16.839844 25.804688 16.933594 26.527344 16.933594 Z M 26.460938 18.65625 C 26.429688 18.75 26.402344 18.839844 26.371094 18.933594 C 26.117188 19.601562 25.914062 20.066406 25.257812 20.410156 C 24.675781 20.648438 24.171875 20.703125 23.539062 20.628906 C 23.386719 20.527344 23.234375 20.429688 23.078125 20.324219 C 22.925781 20.324219 22.773438 20.324219 22.617188 20.324219 C 22.664062 20.433594 22.710938 20.542969 22.757812 20.65625 C 23.058594 21.433594 23.128906 21.859375 22.777344 22.628906 C 22.539062 23.128906 22.539062 23.128906 22.460938 23.664062 C 22.003906 23.761719 21.546875 23.863281 21.078125 23.964844 C 21.128906 24.117188 21.179688 24.265625 21.230469 24.421875 C 21.394531 24.445312 21.5625 24.472656 21.730469 24.496094 C 22.179688 24.601562 22.292969 24.699219 22.554688 25.089844 C 23.128906 26.273438 23.046875 26.839844 22.617188 28.0625 C 22.722656 28.015625 22.832031 27.96875 22.941406 27.917969 C 23.921875 27.5625 24.535156 27.582031 25.496094 27.980469 C 26.085938 28.371094 26.269531 28.921875 26.460938 29.578125 C 26.5625 29.578125 26.664062 29.578125 26.769531 29.578125 C 26.792969 29.441406 26.792969 29.441406 26.816406 29.300781 C 26.953125 28.722656 27.058594 28.332031 27.570312 27.980469 C 28.53125 27.582031 29.15625 27.5625 30.132812 27.917969 C 30.242188 27.964844 30.351562 28.011719 30.460938 28.0625 C 30.382812 27.734375 30.308594 27.457031 30.152344 27.152344 C 30.058594 26.246094 30.226562 25.460938 30.769531 24.726562 C 31.183594 24.476562 31.523438 24.386719 32 24.269531 C 32 24.167969 32 24.070312 32 23.964844 C 31.808594 23.917969 31.621094 23.867188 31.421875 23.816406 C 30.898438 23.621094 30.652344 23.441406 30.382812 22.953125 C 30.050781 22.15625 30.027344 21.453125 30.308594 20.628906 C 30.359375 20.527344 30.410156 20.429688 30.460938 20.324219 C 30.128906 20.402344 29.847656 20.476562 29.539062 20.628906 C 28.707031 20.621094 27.90625 20.519531 27.230469 20.023438 C 26.976562 19.582031 26.789062 19.132812 26.617188 18.65625 C 26.566406 18.65625 26.515625 18.65625 26.460938 18.65625 Z M 26.460938 18.65625 "/>
<path style=" stroke:none;fill-rule:nonzero;fill:rgb(99.607843%,99.607843%,99.607843%);fill-opacity:1;" d="M 7.382812 19.113281 C 8.058594 19.191406 8.511719 19.34375 9.078125 19.71875 C 9.035156 19.839844 9.035156 19.839844 8.988281 19.964844 C 8.695312 20.816406 8.441406 21.675781 8.210938 22.542969 C 8.179688 22.667969 8.144531 22.789062 8.109375 22.914062 C 8.078125 23.035156 8.046875 23.15625 8.011719 23.28125 C 7.984375 23.386719 7.957031 23.492188 7.925781 23.601562 C 7.351562 26.191406 7.425781 29.453125 8.152344 32.003906 C 8.207031 32.191406 8.257812 32.378906 8.3125 32.570312 C 9.128906 35.203125 10.507812 37.601562 12.335938 39.679688 C 12.753906 40.226562 12.753906 40.226562 12.769531 40.652344 C 12.597656 40.910156 12.597656 40.910156 12.347656 41.144531 C 12.265625 41.222656 12.183594 41.300781 12.097656 41.382812 C 11.847656 41.5625 11.847656 41.5625 11.382812 41.5625 C 8.09375 38.308594 5.855469 33.261719 5.691406 28.667969 C 5.683594 28.476562 5.675781 28.28125 5.667969 28.082031 C 5.585938 25.113281 5.972656 21.78125 7.382812 19.113281 Z M 7.382812 19.113281 "/>
<path style=" stroke:none;fill-rule:nonzero;fill:rgb(99.607843%,99.607843%,99.607843%);fill-opacity:1;" d="M 46.921875 23.207031 C 48.359375 27.644531 47.097656 32.800781 45.078125 36.859375 C 44.234375 38.460938 43.140625 39.859375 42 41.257812 C 41.445312 41.175781 41.230469 40.992188 40.882812 40.566406 C 40.804688 40.46875 40.722656 40.371094 40.640625 40.273438 C 40.582031 40.195312 40.523438 40.121094 40.460938 40.046875 C 40.519531 39.984375 40.582031 39.921875 40.644531 39.859375 C 42.890625 37.453125 44.277344 34.546875 45.078125 31.398438 C 45.113281 31.257812 45.148438 31.113281 45.1875 30.96875 C 45.71875 28.5 45.523438 25.996094 45.230469 23.511719 C 45.824219 23.304688 46.292969 23.171875 46.921875 23.207031 Z M 46.921875 23.207031 "/>
<path style=" stroke:none;fill-rule:nonzero;fill:rgb(99.607843%,99.607843%,99.607843%);fill-opacity:1;" d="M 12.152344 18.503906 C 12.703125 18.714844 13.191406 18.953125 13.691406 19.265625 C 13.597656 19.921875 13.351562 20.40625 13.027344 20.988281 C 12.441406 22.097656 12.121094 23.203125 11.847656 24.421875 C 11.820312 24.539062 11.792969 24.652344 11.765625 24.773438 C 11.355469 27.0625 11.523438 29.664062 12.308594 31.855469 C 12.371094 32.035156 12.433594 32.214844 12.5 32.398438 C 12.761719 33.117188 13.039062 33.792969 13.441406 34.441406 C 13.691406 34.886719 13.691406 34.886719 13.722656 35.21875 C 13.410156 35.6875 12.964844 35.855469 12.460938 36.101562 C 12.359375 36.101562 12.257812 36.101562 12.152344 36.101562 C 9.761719 31.644531 8.945312 27.035156 10.460938 22.144531 C 10.886719 20.847656 11.445312 19.675781 12.152344 18.503906 Z M 12.152344 18.503906 "/>
<path style=" stroke:none;fill-rule:nonzero;fill:rgb(99.607843%,99.607843%,99.607843%);fill-opacity:1;" d="M 43.078125 23.964844 C 44.144531 27.898438 43.132812 32.296875 41.160156 35.773438 C 40.425781 37 39.503906 38.144531 38.460938 39.136719 C 37.804688 38.894531 37.496094 38.453125 37.078125 37.921875 C 37.167969 37.824219 37.167969 37.824219 37.265625 37.726562 C 39.695312 35.089844 41.453125 31.6875 41.539062 28.0625 C 41.542969 27.945312 41.546875 27.832031 41.550781 27.714844 C 41.570312 26.5625 41.472656 25.417969 41.382812 24.269531 C 41.972656 24.054688 42.449219 23.929688 43.078125 23.964844 Z M 43.078125 23.964844 "/>
<path style=" stroke:none;fill-rule:nonzero;fill:rgb(99.607843%,99.607843%,99.607843%);fill-opacity:1;" d="M 27.722656 21.9375 C 28.316406 22.261719 28.628906 22.589844 28.921875 23.207031 C 29.132812 23.941406 29.152344 24.527344 28.828125 25.226562 C 28.472656 25.839844 28.027344 26.230469 27.382812 26.546875 C 26.582031 26.625 25.902344 26.640625 25.164062 26.296875 C 24.585938 25.769531 24.203125 25.394531 24.09375 24.597656 C 24.066406 23.878906 24.097656 23.339844 24.382812 22.675781 C 25.339844 21.734375 26.4375 21.382812 27.722656 21.9375 Z M 25.847656 23.816406 C 25.894531 24.285156 25.894531 24.285156 26 24.726562 C 26.359375 24.839844 26.359375 24.839844 26.769531 24.875 C 27.078125 24.726562 27.078125 24.726562 27.230469 24.421875 C 27.195312 23.917969 27.195312 23.917969 26.921875 23.511719 C 26.3125 23.453125 26.3125 23.453125 25.847656 23.816406 Z M 25.847656 23.816406 "/>
<path style=" stroke:none;fill-rule:nonzero;fill:rgb(99.607843%,99.607843%,99.607843%);fill-opacity:1;" d="M 23.847656 35.644531 C 23.59375 36.148438 23.339844 36.648438 23.078125 37.164062 C 22.875 37.113281 22.671875 37.0625 22.460938 37.011719 C 21.730469 36.929688 21.21875 36.9375 20.558594 37.277344 C 20.011719 37.738281 19.753906 38.007812 19.558594 38.699219 C 19.53125 39.464844 19.742188 40.085938 20 40.804688 C 19.863281 40.960938 19.71875 41.113281 19.578125 41.269531 C 19.5 41.355469 19.417969 41.441406 19.339844 41.527344 C 19.078125 41.714844 19.078125 41.714844 18.757812 41.695312 C 18.257812 41.46875 18.058594 40.980469 17.847656 40.5 C 17.488281 39.371094 17.578125 38.207031 18.125 37.164062 C 18.804688 36.035156 19.71875 35.421875 21 35.09375 C 22.019531 34.953125 22.964844 35.121094 23.847656 35.644531 Z M 23.847656 35.644531 "/>
<path style=" stroke:none;fill-rule:nonzero;fill:rgb(99.607843%,99.607843%,99.607843%);fill-opacity:1;" d="M 26.585938 6.777344 C 26.789062 6.777344 26.988281 6.777344 27.195312 6.777344 C 28.417969 6.785156 29.574219 6.890625 30.769531 7.128906 C 30.632812 8.457031 30.632812 8.457031 30.460938 8.796875 C 30.289062 8.78125 30.289062 8.78125 30.109375 8.765625 C 27.304688 8.53125 24.617188 8.601562 21.847656 9.101562 C 21.648438 8.476562 21.5 7.9375 21.539062 7.28125 C 23.214844 6.867188 24.863281 6.777344 26.585938 6.777344 Z M 26.585938 6.777344 "/>
<path style=" stroke:none;fill-rule:nonzero;fill:rgb(99.607843%,99.607843%,99.607843%);fill-opacity:1;" d="M 40 8.34375 C 40.609375 8.34375 41.21875 8.34375 41.847656 8.34375 C 41.871094 9.035156 41.890625 9.722656 41.90625 10.414062 C 41.910156 10.648438 41.917969 10.882812 41.925781 11.117188 C 42.011719 13.316406 42.011719 13.316406 41.355469 14.0625 C 41.164062 14.234375 40.96875 14.402344 40.769531 14.5625 C 40.621094 14.710938 40.472656 14.859375 40.328125 15.011719 C 40.195312 15.140625 40.066406 15.265625 39.933594 15.394531 C 39.800781 15.527344 39.667969 15.65625 39.53125 15.789062 C 39.429688 15.886719 39.332031 15.980469 39.230469 16.078125 C 38.574219 15.839844 38.265625 15.394531 37.847656 14.863281 C 37.988281 14.777344 38.132812 14.6875 38.277344 14.59375 C 39.121094 13.976562 39.742188 13.402344 39.957031 12.351562 C 40.105469 11.027344 40.0625 9.675781 40 8.34375 Z M 40 8.34375 "/>
<path style=" stroke:none;fill-rule:nonzero;fill:rgb(99.607843%,99.607843%,99.607843%);fill-opacity:1;" d="M 26.566406 10.730469 C 26.761719 10.730469 26.957031 10.730469 27.15625 10.726562 C 28.160156 10.730469 29.042969 10.773438 30 11.074219 C 29.898438 11.625 29.796875 12.175781 29.691406 12.742188 C 29.5 12.714844 29.3125 12.691406 29.117188 12.664062 C 27.085938 12.472656 25.113281 12.507812 23.121094 12.945312 C 22.617188 13.046875 22.617188 13.046875 21.847656 13.046875 C 21.695312 12.542969 21.542969 12.042969 21.382812 11.527344 C 23.089844 10.832031 24.730469 10.71875 26.566406 10.730469 Z M 26.566406 10.730469 "/>
</g>
</svg>
