<?xml version="1.0" encoding="UTF-8"?>
<svg version="1.1" xmlns="http://www.w3.org/2000/svg" width="412" height="370">
<path d="M0 0 C3.90071754 3.34347218 6.32867155 7.17275527 8 12 C8 15.69230655 7.2837529 17.51194501 5.4375 20.6875 C-0.30593443 26.13639933 -8.46026472 26.82191636 -16 28 C-16.23074219 29.01320312 -16.46148437 30.02640625 -16.69921875 31.0703125 C-19.81989314 44.09989892 -19.81989314 44.09989892 -25 49 C-25.33 49.66 -25.66 50.32 -26 51 C-25.27039062 51.28875 -24.54078125 51.5775 -23.7890625 51.875 C-22.08734487 52.56140711 -20.39242434 53.26542555 -18.7109375 54 C-13.27702164 56.32622485 -8.21390258 57.65893909 -2.34765625 58.41015625 C0.39260142 59.09864029 1.3099147 59.76177893 3 62 C3.67927319 63.47621575 4.30220299 64.97929997 4.875 66.5 C6.1320072 69.41568962 6.81112776 70.83736001 9.25 72.9375 C15.11398019 75.20312871 21.67397656 77.27760865 28 76 C29.96986348 74.89436541 29.96986348 74.89436541 31.875 73.5 C36.45435162 70.33592043 40.57123335 70.01626376 46 71 C50.41140177 73.20570089 53.22130155 75.93882534 56 80 C56 80.66 56 81.32 56 82 C58.9129693 83.23042908 61.83224302 84.27570004 64.85546875 85.19140625 C76.98529749 88.96392116 84.42461625 94.41224391 92.4921875 104.30078125 C94.85703284 106.96582716 97.55066605 109.22023462 100.265625 111.51953125 C103.96341709 114.6759799 103.96341709 114.6759799 104.4375 118.875 C104.37907414 122.4454694 104.19622257 122.80377743 101.5 125.5 C100.675 125.995 99.85 126.49 99 127 C99.27643926 130.39373305 99.6641466 131.6936592 102.22265625 134.02734375 C103.15980469 134.65769531 104.09695312 135.28804687 105.0625 135.9375 C106.05378906 136.62457031 107.04507813 137.31164062 108.06640625 138.01953125 C109.03449219 138.67308594 110.00257813 139.32664062 111 140 C112.50923396 141.02824233 114.01058011 142.06826075 115.5 143.125 C116.1084375 143.54007813 116.716875 143.95515625 117.34375 144.3828125 C122.24740125 149.1708116 122.47809821 154.69280002 122.625 161.125 C122.67624564 162.71105245 122.73081903 164.29700161 122.7890625 165.8828125 C122.80662598 166.57777832 122.82418945 167.27274414 122.84228516 167.98876953 C123.0066749 170.08512043 123.43511441 171.9778569 124 174 C124.70382813 174.08894531 125.40765625 174.17789063 126.1328125 174.26953125 C134.13662994 175.7219211 138.90468488 178.84566912 144.97460938 183.9362793 C153.28723242 190.87081805 161.25009758 193.49034643 172 193 C172.99 192.835 173.98 192.67 175 192.5 C181.62354905 191.39607516 187.2170715 191.14471433 193 195 C196.27871176 198.41566041 196.63179447 201.63336947 197.1875 206.25 C197.34605469 207.51328125 197.50460937 208.7765625 197.66796875 210.078125 C197.77753906 211.04234375 197.88710938 212.0065625 198 213 C205.01588009 211.93545315 212.35804027 210.51918776 218 206 C220.74602711 201.16429128 221.82595371 195.97951909 222.73461914 190.53320312 C224.1226047 182.73086719 224.1226047 182.73086719 226.93261719 180.39013672 C232.5533701 177.7244905 238.03823753 177.52682518 244.1796875 177.46875 C247.03493215 177.2605355 247.03493215 177.2605355 248.7109375 175.41015625 C250.34733468 172.35058941 251.5602281 169.18784859 252.75 165.9375 C255.3856858 159.03203677 258.82561145 153.10960267 263 147 C268.44230758 138.82014614 268.31696475 131.91383817 266.5625 122.625 C264.46349575 110.41036924 263.3295925 98.11734583 270 87 C270.66 86.34 271.32 85.68 272 85 C274.3431213 85.25561323 276.67843403 85.59270772 279 86 C279.99 86 280.98 86 282 86 C283.97723715 83.71383487 283.97723715 83.71383487 285.875 80.8125 C292.00542332 72.08027589 299.50796449 65.54961149 308.30078125 59.58984375 C311.34367335 56.74281597 311.9366478 53.8794144 312.23046875 49.80078125 C313.02568198 37.97394793 313.02568198 37.97394793 309.59375 27.3046875 C307.83420005 25.86427161 306.07033375 24.92808065 304 24 C305.45044271 19.89041233 307.51110752 16.56741255 310 13 C314.85107712 14.2705202 318.81264312 16.05823912 322 20 C327.34087961 29.97792238 327.38755483 46.83726698 324.84375 57.6484375 C321.79765181 66.13802597 316.08593716 70.83893541 309 76 C300.49148766 82.77271383 295.23808408 90.12073353 290.296875 99.77734375 C289 102 289 102 287 103 C282.94857881 103.25860135 281.45662331 103.30441554 278 101 C278.43411433 112.53275995 278.43411433 112.53275995 280.0625 123.9375 C282.61609072 136.72479901 279.78845343 145.82035638 272.75 156.5625 C268.59879043 163.0891582 265.12779757 169.59045068 262.28222656 176.78540039 C260.17748386 182.02318328 258.04749742 185.68623749 253.2421875 188.76953125 C249.51112737 190.185536 246.06850312 190.55375716 242.125 190.6875 C241.43664062 190.72166016 240.74828125 190.75582031 240.0390625 190.79101562 C238.35991387 190.87264091 236.67998832 190.9380157 235 191 C234.74605469 192.134375 234.49210937 193.26875 234.23046875 194.4375 C233.88310278 195.95839966 233.53543007 197.47922929 233.1875 199 C233.02185547 199.74378906 232.85621094 200.48757813 232.68554688 201.25390625 C229.52429458 214.97254827 229.52429458 214.97254827 225.53125 217.6640625 C224.03078125 218.13972656 224.03078125 218.13972656 222.5 218.625 C221.35144531 219.00269531 220.20289063 219.38039063 219.01953125 219.76953125 C218.38354004 219.96240723 217.74754883 220.1552832 217.09228516 220.35400391 C214.77738132 221.06873384 212.49040286 221.84936557 210.19921875 222.63671875 C208.52932928 223.19735233 206.85875762 223.75595816 205.1875 224.3125 C204.39988281 224.57949707 203.61226562 224.84649414 202.80078125 225.12158203 C197.69795178 226.75272639 193.35647742 227.71226673 188 227 C184.19010678 223.20556274 184.25254613 217.80253161 183.8125 212.6875 C183.73064453 211.85154297 183.64878906 211.01558594 183.56445312 210.15429688 C183.36527231 208.10390612 183.18112718 206.05206438 183 204 C182.01644531 204.32355469 181.03289062 204.64710938 180.01953125 204.98046875 C175.87878837 206.15744291 171.97382493 206.34640697 167.6875 206.3125 C166.93911865 206.30686035 166.1907373 206.3012207 165.41967773 206.29541016 C153.04870593 206.02493323 143.35584372 201.28126283 134.4375 192.75 C130.72996077 189.29137683 128.0307104 188.15322493 123.07421875 187.41796875 C119.80993292 186.76019364 117.58048565 185.02752444 115 183 C114.4225 182.566875 113.845 182.13375 113.25 181.6875 C109.28251399 176.33139389 109.59494825 168.92725258 109.375 162.5625 C109.33632812 161.64017578 109.29765625 160.71785156 109.2578125 159.76757812 C109.16431324 157.51190857 109.0785609 155.25623084 109 153 C108.2884375 152.74863281 107.576875 152.49726563 106.84375 152.23828125 C98.90328642 148.78068928 90.80943627 142.45634718 86.1875 135.125 C84.25923986 130.0506312 84.40478229 126.01120469 86.5 121.0625 C86.995 120.051875 87.49 119.04125 88 118 C87.41992188 117.43152344 86.83984375 116.86304688 86.2421875 116.27734375 C85.46101563 115.50519531 84.67984375 114.73304688 83.875 113.9375 C83.04484375 113.11765625 82.2146875 112.2978125 81.359375 111.453125 C79.41662552 109.43318018 77.78415062 107.43223319 76.125 105.1875 C72.42147832 100.74736627 67.35656179 99.65711817 62 98 C52.8888509 94.81044422 47.08233507 91.4054003 42 83 C41.40574219 83.34933594 40.81148438 83.69867188 40.19921875 84.05859375 C30.05270284 89.62892052 21.69930211 89.75196572 10.71923828 86.89233398 C3.68756392 84.84107622 -1.21502424 81.72635353 -5.5 75.8125 C-7 73 -7 73 -7 70 C-8.0725 69.938125 -9.145 69.87625 -10.25 69.8125 C-20.64543318 68.48777223 -31.66655911 62.96760297 -38.5625 55.0625 C-40.3716213 51.20828506 -40.81193443 49.20729661 -40 45 C-38.6015625 43.52734375 -38.6015625 43.52734375 -36.8125 42 C-32.05998821 37.7936438 -30.89910561 32.52154973 -29.23828125 26.62109375 C-27.61046494 21.86088642 -25.70569152 18.35807218 -21.73828125 15.19921875 C-18.28146012 13.68531848 -14.90356101 13.20010828 -11.1875 12.8125 C-10.49462891 12.73064453 -9.80175781 12.64878906 -9.08789062 12.56445312 C-7.39313016 12.36575707 -5.69669806 12.18140797 -4 12 C-3.79503906 11.21753906 -3.59007812 10.43507812 -3.37890625 9.62890625 C-3.10949219 8.61699219 -2.84007812 7.60507813 -2.5625 6.5625 C-2.29566406 5.55316406 -2.02882812 4.54382813 -1.75390625 3.50390625 C-1 1 -1 1 0 0 Z " fill="#FEFEFE" transform="translate(61,120)"/>
<path d="M0 0 C8.33452305 7.77156515 12.96510472 16.98992324 13.8125 28.37109375 C14.39053746 46.70047499 5.57168233 60.17963335 -4.36206055 74.77246094 C-8.25942268 80.55655293 -11.83437341 86.51806955 -15.37890625 92.5234375 C-15.93473389 93.46380859 -16.49056152 94.40417969 -17.06323242 95.37304688 C-19.2248382 99.05953717 -21.31842798 102.70922918 -23.1953125 106.55078125 C-24.44140625 108.9609375 -24.44140625 108.9609375 -26.44140625 109.9609375 C-29.75390625 110.5234375 -29.75390625 110.5234375 -33.44140625 109.9609375 C-34.68652344 108.51196289 -34.68652344 108.51196289 -35.80078125 106.55859375 C-36.22657471 105.82922607 -36.65236816 105.0998584 -37.09106445 104.34838867 C-37.53667725 103.56052979 -37.98229004 102.7726709 -38.44140625 101.9609375 C-39.38674415 100.3534152 -40.3334064 98.74667114 -41.28125 97.140625 C-42.31387398 95.37243782 -43.34642267 93.60420667 -44.37890625 91.8359375 C-49.02838811 83.89646746 -53.87550802 76.11893946 -58.87890625 68.3984375 C-68.42603001 53.55009642 -75.21938888 40.80072989 -72.328125 22.6796875 C-69.62848748 11.35785968 -63.38044959 1.83451135 -53.50390625 -4.3515625 C-35.7134563 -14.27108611 -15.80098094 -13.19697928 0 0 Z M-53.44140625 11.9609375 C-58.63515635 18.92748763 -60.64922478 26.83973706 -60.35546875 35.4921875 C-58.57663604 47.66730917 -49.92336194 58.51285906 -43.30078125 68.57421875 C-39.95964692 73.66247838 -36.76875804 78.84255437 -33.61401367 84.0480957 C-31.60415714 87.58381126 -31.60415714 87.58381126 -28.44140625 89.9609375 C-28.13549561 89.444104 -27.82958496 88.92727051 -27.5144043 88.39477539 C-22.00274183 79.10057935 -16.44521469 69.86302586 -10.50390625 60.8359375 C-3.3969713 49.9754806 2.74389351 40.15553548 1.1640625 26.7734375 C-0.91413629 17.11986893 -6.63979568 10.47935219 -14.640625 5.03125 C-26.68601006 -2.12804611 -44.48252506 1.50501089 -53.44140625 11.9609375 Z " fill="#FEFEFE" transform="translate(296.44140625,197.0390625)"/>
<path d="M0 0 C8.88517337 6.32153016 15.66268994 15.08406072 17.9921875 25.86328125 C20.81532484 47.44995336 10.82775019 62.53876013 -0.46777344 79.76855469 C-3.78619336 84.85067461 -6.93805184 90.00968278 -10 95.25 C-10.41515869 95.95745361 -10.83031738 96.66490723 -11.25805664 97.39379883 C-13.0343396 100.43235667 -14.77849632 103.47872793 -16.46875 106.56640625 C-16.9740625 107.47261719 -17.479375 108.37882812 -18 109.3125 C-18.40863281 110.075625 -18.81726563 110.83875 -19.23828125 111.625 C-20.6875 113.3125 -20.6875 113.3125 -23.04296875 114.25 C-26.64325825 114.33508808 -27.91187774 113.62185291 -30.6875 111.3125 C-32.41592571 108.83404599 -33.75574874 106.18954896 -35.125 103.5 C-39.02485659 96.15851809 -43.24523654 89.11116507 -47.75 82.125 C-48.94672577 80.26048803 -50.14334244 78.39590602 -51.33984375 76.53125 C-52.19425049 75.2009375 -52.19425049 75.2009375 -53.06591797 73.84375 C-62.96921412 58.38494625 -71.20884906 44.39851303 -67.546875 25.37109375 C-63.99151858 12.71725705 -56.9542334 3.85703009 -45.6875 -2.6875 C-30.93447234 -10.01032741 -13.81100939 -8.40364809 0 0 Z M-48.6875 16.3125 C-54.20891054 23.46779733 -56.80709896 31.26846687 -55.6875 40.3125 C-53.44389823 49.91933175 -47.90330232 58.09171582 -42.6875 66.3125 C-42.11515625 67.21693848 -41.5428125 68.12137695 -40.953125 69.05322266 C-37.37546813 74.70062167 -33.78167889 80.33741428 -30.17041016 85.96337891 C-29.1059893 87.64955893 -28.09584506 89.37046395 -27.12255859 91.11083984 C-26.64898926 91.8373877 -26.17541992 92.56393555 -25.6875 93.3125 C-25.0275 93.3125 -24.3675 93.3125 -23.6875 93.3125 C-22.11951201 90.86079275 -20.67116961 88.41066722 -19.25 85.875 C-15.68056967 79.63950962 -11.95912366 73.5578425 -8 67.5625 C0.56246682 54.51707412 6.55202011 44.37313915 5.3125 28.3125 C3.43950852 20.69642019 -1.56661521 13.90736964 -8.1875 9.73828125 C-22.41066261 2.35154948 -37.69310794 4.01877069 -48.6875 16.3125 Z " fill="#FEFEFE" transform="translate(351.6875,67.6875)"/>
<path d="M0 0 C9.58247164 7.21737116 15.61458494 16.94265426 17.453125 28.84765625 C19.03703761 49.64624638 8.48661586 64.34199232 -2.46191406 80.93334961 C-8.19290691 89.68866356 -13.34253809 98.75348725 -18.42456055 107.89672852 C-21.20218906 112.72510125 -21.20218906 112.72510125 -24.359375 113.84765625 C-27.546875 113.84765625 -27.546875 113.84765625 -29.90234375 111.9453125 C-33.38595547 108.21962924 -35.62461725 103.73640056 -38.046875 99.28515625 C-42.20839926 91.80786635 -46.57591609 84.54745171 -51.296875 77.41015625 C-72.1583692 45.74483768 -72.1583692 45.74483768 -68.484375 25.72265625 C-66.92878755 19.2648276 -64.38968594 14.22553107 -60.546875 8.84765625 C-59.969375 7.96078125 -59.391875 7.07390625 -58.796875 6.16015625 C-43.10631269 -9.96625501 -18.69571772 -11.96408351 0 0 Z M-49.546875 14.84765625 C-54.97975315 23.02069784 -57.50312581 30.04955008 -56.546875 39.84765625 C-53.57714464 52.4642814 -45.47351297 63.69109428 -38.27685547 74.27856445 C-34.68227149 79.57441786 -31.38125564 85.01288102 -28.140625 90.53125 C-27.6146875 91.29566406 -27.08875 92.06007813 -26.546875 92.84765625 C-25.886875 92.84765625 -25.226875 92.84765625 -24.546875 92.84765625 C-23.87205078 91.62755859 -23.87205078 91.62755859 -23.18359375 90.3828125 C-19.34906168 83.55135155 -15.34655203 76.89712959 -11.046875 70.34765625 C1.82336836 51.24214113 1.82336836 51.24214113 4.453125 28.84765625 C2.54391689 20.69636654 -1.90909273 13.76076324 -9.046875 9.27734375 C-22.50531062 2.26774186 -38.68067875 3.2459751 -49.546875 14.84765625 Z " fill="#FEFEFE" transform="translate(115.546875,28.15234375)"/>
<path d="M0 0 C7.28847942 5.46635956 13.55281818 15.88620023 15 25 C16.45132443 44.19894888 10.00429084 56.74847764 -0.32226562 72.42773438 C-3.20317305 76.84467859 -5.97644083 81.32764753 -8.75 85.8125 C-9.2951123 86.69019043 -9.84022461 87.56788086 -10.40185547 88.47216797 C-14.25838814 94.71133195 -17.91270899 101.03583773 -21.4140625 107.48046875 C-23 110 -23 110 -26 112 C-28.875 112.125 -28.875 112.125 -32 111 C-33.24291992 109.40820313 -33.24291992 109.40820313 -34.41796875 107.40625 C-35.06427246 106.31981201 -35.06427246 106.31981201 -35.72363281 105.21142578 C-36.14483398 104.48165527 -36.56603516 103.75188477 -37 103 C-37.36706055 102.37464355 -37.73412109 101.74928711 -38.11230469 101.10498047 C-38.83952277 99.86168283 -39.56337107 98.61640926 -40.28417969 97.36938477 C-45.29230933 88.7090522 -50.58979697 80.25252155 -56.00170898 71.83935547 C-66.31888295 55.78252252 -74.55044521 41.4158225 -70.3046875 21.78515625 C-66.5962849 10.67552999 -59.48517748 1.13789647 -49.15234375 -4.57421875 C-32.57037629 -12.36305676 -14.8633801 -10.54496561 0 0 Z M-51.72265625 13.81640625 C-56.55514416 19.69375641 -58.57104482 25.99641828 -59.375 33.5 C-57.74729959 48.69187054 -47.94083086 61.30195019 -39.74462891 73.72021484 C-36.41170733 78.77414334 -33.26929771 83.88726962 -30.28369141 89.15527344 C-29.86007324 89.7640332 -29.43645508 90.37279297 -29 91 C-28.34 91 -27.68 91 -27 91 C-25.32610991 88.48916487 -23.77487349 85.97528205 -22.25 83.375 C-19.01473644 77.94718476 -15.74213571 72.55812489 -12.30078125 67.2578125 C-11.67977539 66.29955566 -11.05876953 65.34129883 -10.41894531 64.35400391 C-9.20990956 62.49529429 -7.99471181 60.64057374 -6.77246094 58.79052734 C-0.61468909 49.28246234 4.45946548 39.36896289 2.44140625 27.796875 C0.11862492 18.91868858 -3.71321842 12.34749032 -11.56640625 7.375 C-25.79804269 -0.09077649 -40.62012138 2.10965179 -51.72265625 13.81640625 Z " fill="#FEFEFE" transform="translate(212,107)"/>
<path d="M0 0 C3.2734375 1.7578125 3.2734375 1.7578125 6.375 4.125 C7.41398437 4.89070313 8.45296875 5.65640625 9.5234375 6.4453125 C12.50384838 9.51974265 13.04609589 10.73869074 13 15 C12.258569 18.057321 11.19758161 20.94415472 10.0625 23.875 C9.77181641 24.65875 9.48113281 25.4425 9.18164062 26.25 C8.46698004 28.17138255 7.73518875 30.08637826 7 32 C7.66 32.66 8.32 33.32 9 34 C11.91952568 33.98251781 14.72297885 33.86055367 17.625 33.625 C18.42679688 33.56828125 19.22859375 33.5115625 20.0546875 33.453125 C22.03715498 33.31152018 24.01869051 33.15697741 26 33 C25.67 32.34 25.34 31.68 25 31 C24.55051936 24.81964117 24.55051936 24.81964117 26.0625 22.0625 C29.18894506 20.34799787 31.46175793 20.66302456 35 21 C36.59193836 21.47188633 38.17505217 21.97418276 39.75 22.5 C46.4290481 24.64829138 52.69346364 24.5800941 59.5625 23.375 C62.90377354 21.49017903 62.87344443 19.59089589 64 16 C67.31650854 12.27903919 69.48594619 10.6793945 74.5 10.375 C79.49588536 10.66986676 81.66407123 12.33861476 85 16 C86.8567713 19.72613089 87.22472924 22.67373665 87.125 26.8125 C87.10695313 27.78832031 87.08890625 28.76414062 87.0703125 29.76953125 C87.04710937 30.50558594 87.02390625 31.24164063 87 32 C88.093125 32.268125 89.18625 32.53625 90.3125 32.8125 C95.63539446 34.52665245 95.63539446 34.52665245 97 37 C96.85789833 40.83674512 96.40480502 43.3460842 94.375 46.625 C92.75879264 48.92218535 92.75879264 48.92218535 93.125 51.625 C94.05694123 54.15455478 95.0651089 55.19061535 97 57 C97.60585937 56.80664062 98.21171875 56.61328125 98.8359375 56.4140625 C104.84913438 54.54534593 110.80902284 53.1497529 117 52 C116.67 56.29 116.34 60.58 116 65 C100.24321035 71.70501687 100.24321035 71.70501687 93 70 C86.34373535 66.88970906 81.17642967 60.51168083 78 54 C77.6603254 49.74345268 78.18299416 46.8611374 80 43 C79.36578125 42.46890625 78.7315625 41.9378125 78.078125 41.390625 C75.53954807 38.47030718 75.24589772 36.55188248 74.75 32.75 C74.60046875 31.67234375 74.4509375 30.5946875 74.296875 29.484375 C74.19890625 28.66453125 74.1009375 27.8446875 74 27 C73.01 28.36125 73.01 28.36125 72 29.75 C68.17946426 34.35423538 62.83804575 36.89463472 57 38 C55.02255614 38.09248018 53.04209892 38.12999268 51.0625 38.125 C50.04285156 38.12757812 49.02320313 38.13015625 47.97265625 38.1328125 C45.20411275 38.00911936 42.69460465 37.62526738 40 37 C39.87625 37.78375 39.7525 38.5675 39.625 39.375 C39 42 39 42 37 44 C32.47720576 45.17483135 27.8512547 45.88159162 23.25 46.6875 C21.33574219 47.04424805 21.33574219 47.04424805 19.3828125 47.40820312 C18.14789063 47.62798828 16.91296875 47.84777344 15.640625 48.07421875 C14.51172852 48.27619873 13.38283203 48.47817871 12.21972656 48.6862793 C8.87551392 49.01212956 6.25649217 48.79835825 3 48 C0.98828125 46.29296875 0.98828125 46.29296875 -0.6875 44.1875 C-1.24824219 43.50042969 -1.80898437 42.81335938 -2.38671875 42.10546875 C-2.91910156 41.41066406 -3.45148438 40.71585938 -4 40 C-4.56332031 39.33613281 -5.12664062 38.67226562 -5.70703125 37.98828125 C-7.52112258 35.19863627 -7.12505004 32.86097674 -6.66015625 29.66015625 C-5.38990111 24.54155419 -3.19249225 19.78141299 -1 15 C-6.3086849 15.58174845 -6.3086849 15.58174845 -11 18 C-11.99 18 -12.98 18 -14 18 C-14.33872513 16.58461283 -14.67074624 15.16762037 -15 13.75 C-15.185625 12.96109375 -15.37125 12.1721875 -15.5625 11.359375 C-16 9 -16 9 -16 5 C-14.65767194 4.14772822 -13.30034127 3.31906988 -11.9375 2.5 C-11.18339844 2.0359375 -10.42929688 1.571875 -9.65234375 1.09375 C-6.1509901 -0.35010717 -3.76375742 -0.43412218 0 0 Z " fill="#FEFEFE" transform="translate(157,41)"/>
<path d="M0 0 C3.90289058 2.92716794 6.21878313 6.21422467 7.265625 10.93359375 C8.13490459 17.94578245 7.96547587 23.51330328 3.69140625 29.31640625 C-0.23194092 33.76644934 -4.41137809 36.50642225 -10.34765625 37.26953125 C-16.6300823 37.36044914 -21.72475558 36.99160424 -26.734375 32.93359375 C-31.28307348 28.05715062 -33.6418601 23.09961906 -33.890625 16.4140625 C-33.47969871 9.89060767 -31.75805094 5.48021091 -26.921875 0.99609375 C-18.42359639 -5.70327917 -9.05351925 -5.56669089 0 0 Z M-19.171875 11.05859375 C-21.00274359 14.42739196 -21.37688222 16.15886381 -20.734375 19.93359375 C-18.67188675 22.86867318 -17.19158255 23.77794863 -13.796875 24.93359375 C-10.64432871 25.181474 -10.64432871 25.181474 -7.921875 23.37109375 C-5.27368588 20.42025445 -4.734375 18.88320317 -4.734375 14.93359375 C-6.46782375 11.20515411 -6.46782375 11.20515411 -9.734375 8.93359375 C-14.92727736 8.34062175 -14.92727736 8.34062175 -19.171875 11.05859375 Z " fill="#FEFEFE" transform="translate(279.734375,213.06640625)"/>
<path d="M0 0 C4.65691145 2.81558035 7.6560708 6.50056202 9.625 11.5625 C10.6394744 17.94857985 10.83559649 24.33935171 7.625 30.125 C3.49988899 35.50959868 -1.55778909 38.55340579 -8.25 39.625 C-14.44583944 39.94958943 -20.33119634 38.23562967 -25.04296875 34.09765625 C-30.30074938 28.03810263 -30.94340685 22.98368666 -30.8125 15.12109375 C-30.05182284 8.93380009 -27.39199875 5.02303009 -22.6171875 1.12890625 C-15.99238891 -2.87646361 -7.06960724 -2.93889803 0 0 Z M-16.375 12.5625 C-18.72049674 16.08074511 -18.95491403 17.42025694 -18.375 21.5625 C-15.91905875 24.88524404 -14.4493356 26.33868008 -10.375 27.1875 C-6.3006644 26.33868008 -4.83094125 24.88524404 -2.375 21.5625 C-1.62484805 18.51941709 -1.62484805 18.51941709 -2.375 15.5625 C-4.47254258 12.57753556 -5.86852636 11.71022148 -9.375 10.6875 C-12.53314262 10.55591072 -13.83213491 10.7461678 -16.375 12.5625 Z " fill="#FEFEFE" transform="translate(194.375,122.4375)"/>
<path d="M0 0 C4.97392313 2.21168719 7.97838838 5.59650718 10.546875 10.34765625 C12.50693586 16.22783883 12.37503027 22.95036468 10.359375 28.78515625 C6.87390262 33.71289306 3.32734707 37.38642465 -2.453125 39.34765625 C-9.70977057 40.20973816 -15.87509343 40.27209261 -21.87109375 35.765625 C-26.33043253 31.76873617 -28.38291432 28.28246091 -29.453125 22.34765625 C-29.55030093 15.64251724 -28.37365556 10.79283758 -24.453125 5.34765625 C-17.35101045 -1.22179971 -9.41104496 -2.50261864 0 0 Z M-14.328125 13.47265625 C-16.63517587 16.17505408 -16.63517587 16.17505408 -17.078125 19.34765625 C-16.22930508 23.42199185 -14.77586904 24.891715 -11.453125 27.34765625 C-8.41004209 28.0978082 -8.41004209 28.0978082 -5.453125 27.34765625 C-2.46816056 25.25011367 -1.60084648 23.85412989 -0.578125 20.34765625 C-0.44653572 17.18951363 -0.6367928 15.89052134 -2.453125 13.34765625 C-6.99388524 10.32048275 -9.88737085 10.1903597 -14.328125 13.47265625 Z " fill="#FEFEFE" transform="translate(335.453125,84.65234375)"/>
<path d="M0 0 C4.52460109 3.44731512 8.80303354 7.53410061 10.625 13 C11.11319183 19.50609496 11.52962405 25.47966944 7.625 31 C3.56024612 35.72390316 -0.06250025 38.60647849 -6.3671875 39.35546875 C-13.73163897 39.67011621 -18.80804663 38.98963968 -24.375 34 C-28.54473183 29.83026817 -30.32408818 25.51291566 -30.41015625 19.57421875 C-29.96788226 12.46547336 -28.2185185 7.63025461 -22.875 2.6875 C-15.84921128 -2.05490739 -8.15374215 -2.4159236 0 0 Z M-15.3125 13.0625 C-17.54647653 15.83235609 -17.54647653 15.83235609 -18 19 C-17.15118008 23.0743356 -15.69774404 24.54405875 -12.375 27 C-9.33191709 27.75015195 -9.33191709 27.75015195 -6.375 27 C-3.43992057 24.93751175 -2.53064512 23.45720755 -1.375 20.0625 C-1.13480392 16.91911765 -1.13480392 16.91911765 -2.875 14.1875 C-7.12147067 10.47183816 -10.61535818 9.76450681 -15.3125 13.0625 Z " fill="#FEFEFE" transform="translate(99.375,45)"/>
</svg>
