<?xml version="1.0" encoding="UTF-8"?>
<svg xmlns="http://www.w3.org/2000/svg" xmlns:xlink="http://www.w3.org/1999/xlink" width="px" height="55px" viewBox="0 0 61 55" version="1.1">
<g id="surface1">
<path style=" stroke:none;fill-rule:nonzero;fill:rgb(99.607843%,99.607843%,99.607843%);fill-opacity:1;" d="M 9.03125 17.835938 C 9.609375 18.335938 9.96875 18.902344 10.214844 19.621094 C 10.214844 20.171875 10.109375 20.441406 9.835938 20.914062 C 8.984375 21.722656 7.777344 21.824219 6.664062 22 C 6.628906 22.152344 6.59375 22.300781 6.558594 22.457031 C 6.097656 24.394531 6.097656 24.394531 5.332031 25.121094 C 5.28125 25.21875 5.230469 25.316406 5.183594 25.417969 C 5.289062 25.460938 5.398438 25.503906 5.507812 25.550781 C 5.761719 25.652344 6.011719 25.753906 6.261719 25.863281 C 7.066406 26.210938 7.816406 26.410156 8.683594 26.519531 C 9.089844 26.621094 9.226562 26.722656 9.476562 27.054688 C 9.578125 27.273438 9.667969 27.496094 9.753906 27.722656 C 9.9375 28.15625 10.039062 28.367188 10.402344 28.679688 C 11.269531 29.015625 12.242188 29.324219 13.175781 29.136719 C 13.46875 28.972656 13.46875 28.972656 13.75 28.761719 C 14.429688 28.292969 15.039062 28.246094 15.84375 28.390625 C 16.496094 28.71875 16.910156 29.125 17.324219 29.730469 C 17.324219 29.828125 17.324219 29.925781 17.324219 30.027344 C 17.753906 30.210938 18.1875 30.367188 18.632812 30.5 C 20.429688 31.0625 21.53125 31.871094 22.726562 33.34375 C 23.074219 33.738281 23.476562 34.074219 23.875 34.414062 C 24.425781 34.882812 24.425781 34.882812 24.496094 35.507812 C 24.484375 36.039062 24.457031 36.09375 24.058594 36.492188 C 23.9375 36.566406 23.816406 36.640625 23.6875 36.714844 C 23.730469 37.21875 23.789062 37.414062 24.167969 37.761719 C 24.304688 37.855469 24.445312 37.949219 24.585938 38.042969 C 24.734375 38.148438 24.878906 38.25 25.03125 38.355469 C 25.175781 38.453125 25.316406 38.546875 25.464844 38.648438 C 25.691406 38.800781 25.910156 38.957031 26.132812 39.113281 C 26.222656 39.175781 26.3125 39.238281 26.40625 39.300781 C 27.132812 40.011719 27.164062 40.832031 27.1875 41.789062 C 27.195312 42.023438 27.203125 42.261719 27.210938 42.496094 C 27.214844 42.597656 27.214844 42.703125 27.21875 42.808594 C 27.242188 43.121094 27.308594 43.402344 27.390625 43.703125 C 27.496094 43.714844 27.597656 43.730469 27.707031 43.742188 C 28.890625 43.957031 29.597656 44.421875 30.496094 45.179688 C 31.726562 46.210938 32.90625 46.601562 34.496094 46.527344 C 34.644531 46.503906 34.789062 46.476562 34.941406 46.453125 C 35.921875 46.289062 36.75 46.25 37.605469 46.824219 C 38.09375 47.332031 38.144531 47.808594 38.226562 48.496094 C 38.25 48.683594 38.273438 48.871094 38.296875 49.066406 C 38.3125 49.210938 38.332031 49.351562 38.347656 49.5 C 39.386719 49.339844 40.472656 49.132812 41.308594 48.460938 C 41.714844 47.742188 41.875 46.96875 42.007812 46.160156 C 42.214844 45 42.214844 45 42.628906 44.652344 C 43.464844 44.257812 44.273438 44.226562 45.183594 44.21875 C 45.605469 44.1875 45.605469 44.1875 45.855469 43.914062 C 46.097656 43.457031 46.277344 42.988281 46.453125 42.503906 C 46.84375 41.476562 47.351562 40.597656 47.972656 39.6875 C 48.777344 38.472656 48.757812 37.445312 48.5 36.066406 C 48.1875 34.25 48.019531 32.421875 49.007812 30.769531 C 49.105469 30.671875 49.203125 30.574219 49.304688 30.472656 C 49.648438 30.511719 49.996094 30.5625 50.339844 30.621094 C 50.488281 30.621094 50.632812 30.621094 50.785156 30.621094 C 51.078125 30.28125 51.078125 30.28125 51.359375 29.851562 C 52.265625 28.550781 53.375 27.582031 54.679688 26.695312 C 55.128906 26.273438 55.214844 25.847656 55.261719 25.242188 C 55.378906 23.484375 55.378906 23.484375 54.871094 21.898438 C 54.609375 21.683594 54.347656 21.542969 54.042969 21.40625 C 54.257812 20.792969 54.5625 20.300781 54.929688 19.769531 C 55.648438 19.960938 56.234375 20.226562 56.707031 20.8125 C 57.496094 22.292969 57.503906 24.800781 57.128906 26.40625 C 56.675781 27.667969 55.832031 28.367188 54.78125 29.136719 C 53.523438 30.140625 52.742188 31.234375 52.011719 32.667969 C 51.820312 33 51.820312 33 51.523438 33.148438 C 50.925781 33.1875 50.703125 33.195312 50.191406 32.851562 C 50.257812 34.566406 50.257812 34.566406 50.496094 36.261719 C 50.875 38.160156 50.457031 39.515625 49.414062 41.109375 C 48.800781 42.082031 48.285156 43.046875 47.863281 44.117188 C 47.554688 44.894531 47.238281 45.441406 46.527344 45.898438 C 45.972656 46.109375 45.464844 46.164062 44.878906 46.183594 C 44.777344 46.1875 44.675781 46.195312 44.570312 46.199219 C 44.324219 46.210938 44.074219 46.21875 43.824219 46.230469 C 43.789062 46.398438 43.75 46.566406 43.710938 46.742188 C 43.660156 46.964844 43.609375 47.191406 43.558594 47.417969 C 43.53125 47.53125 43.507812 47.640625 43.484375 47.753906 C 43.015625 49.792969 43.015625 49.792969 42.421875 50.191406 C 42.199219 50.265625 42.199219 50.265625 41.972656 50.335938 C 41.804688 50.390625 41.632812 50.449219 41.460938 50.507812 C 41.363281 50.535156 41.269531 50.5625 41.175781 50.59375 C 40.832031 50.699219 40.492188 50.816406 40.152344 50.933594 C 39.90625 51.015625 39.660156 51.097656 39.410156 51.179688 C 39.292969 51.222656 39.179688 51.261719 39.058594 51.300781 C 38.300781 51.542969 37.660156 51.6875 36.867188 51.582031 C 36.300781 51.015625 36.3125 50.214844 36.246094 49.453125 C 36.234375 49.328125 36.222656 49.203125 36.210938 49.078125 C 36.179688 48.773438 36.152344 48.46875 36.125 48.164062 C 35.980469 48.210938 35.835938 48.257812 35.683594 48.308594 C 35.070312 48.484375 34.492188 48.511719 33.859375 48.507812 C 33.75 48.503906 33.636719 48.503906 33.523438 48.503906 C 31.691406 48.464844 30.257812 47.757812 28.9375 46.488281 C 28.386719 45.976562 27.988281 45.804688 27.253906 45.695312 C 26.769531 45.597656 26.441406 45.34375 26.058594 45.039062 C 25.972656 44.976562 25.886719 44.910156 25.800781 44.84375 C 25.210938 44.050781 25.257812 42.949219 25.226562 42.003906 C 25.21875 41.867188 25.214844 41.726562 25.207031 41.585938 C 25.195312 41.25 25.179688 40.917969 25.167969 40.582031 C 25.066406 40.542969 24.960938 40.507812 24.851562 40.46875 C 23.675781 39.953125 22.476562 39.015625 21.792969 37.925781 C 21.507812 37.167969 21.527344 36.570312 21.839844 35.832031 C 21.910156 35.683594 21.984375 35.53125 22.0625 35.378906 C 21.976562 35.292969 21.890625 35.210938 21.800781 35.121094 C 21.683594 35.007812 21.570312 34.894531 21.449219 34.773438 C 21.328125 34.652344 21.203125 34.53125 21.078125 34.40625 C 20.789062 34.105469 20.546875 33.808594 20.300781 33.472656 C 19.753906 32.8125 19.003906 32.652344 18.210938 32.40625 C 16.863281 31.929688 16.003906 31.425781 15.25 30.175781 C 15.160156 30.226562 15.074219 30.28125 14.984375 30.332031 C 13.480469 31.160156 12.246094 31.179688 10.617188 30.753906 C 9.578125 30.449219 8.851562 29.988281 8.21875 29.105469 C 7.996094 28.6875 7.996094 28.6875 7.996094 28.242188 C 7.835938 28.234375 7.675781 28.226562 7.515625 28.214844 C 5.976562 28.019531 4.34375 27.199219 3.320312 26.023438 C 3.054688 25.449219 2.988281 25.152344 3.109375 24.527344 C 3.316406 24.308594 3.316406 24.308594 3.582031 24.082031 C 4.285156 23.457031 4.457031 22.671875 4.703125 21.796875 C 4.945312 21.085938 5.226562 20.566406 5.8125 20.097656 C 6.324219 19.871094 6.824219 19.800781 7.375 19.742188 C 7.476562 19.730469 7.582031 19.71875 7.6875 19.707031 C 7.9375 19.675781 8.1875 19.648438 8.4375 19.621094 C 8.46875 19.503906 8.5 19.390625 8.53125 19.269531 C 8.570312 19.117188 8.609375 18.96875 8.652344 18.8125 C 8.691406 18.664062 8.730469 18.511719 8.773438 18.359375 C 8.882812 17.988281 8.882812 17.988281 9.03125 17.835938 Z M 9.03125 17.835938 "/>
<path style=" stroke:none;fill-rule:nonzero;fill:rgb(99.607843%,99.607843%,99.607843%);fill-opacity:1;" d="M 43.890625 29.289062 C 45.125 30.445312 45.808594 31.816406 45.9375 33.507812 C 46.019531 36.230469 44.714844 38.234375 43.246094 40.40625 C 42.667969 41.265625 42.136719 42.148438 41.613281 43.042969 C 41.53125 43.183594 41.449219 43.324219 41.363281 43.464844 C 41.042969 44.015625 40.734375 44.558594 40.457031 45.128906 C 40.273438 45.488281 40.273438 45.488281 39.976562 45.636719 C 39.484375 45.71875 39.484375 45.71875 38.9375 45.636719 C 38.753906 45.417969 38.753906 45.417969 38.589844 45.128906 C 38.527344 45.019531 38.464844 44.914062 38.398438 44.800781 C 38.332031 44.683594 38.265625 44.566406 38.199219 44.445312 C 38.058594 44.207031 37.917969 43.96875 37.777344 43.730469 C 37.625 43.464844 37.472656 43.203125 37.320312 42.941406 C 36.632812 41.761719 35.914062 40.605469 35.171875 39.457031 C 33.757812 37.25 32.753906 35.355469 33.183594 32.660156 C 33.582031 30.976562 34.507812 29.5625 35.96875 28.644531 C 38.601562 27.167969 41.550781 27.328125 43.890625 29.289062 Z M 35.976562 31.066406 C 35.210938 32.101562 34.910156 33.277344 34.953125 34.566406 C 35.21875 36.375 36.5 37.988281 37.480469 39.484375 C 37.972656 40.238281 38.445312 41.007812 38.914062 41.785156 C 39.210938 42.308594 39.210938 42.308594 39.679688 42.664062 C 39.726562 42.585938 39.769531 42.507812 39.816406 42.429688 C 40.632812 41.046875 41.457031 39.675781 42.335938 38.332031 C 43.386719 36.71875 44.296875 35.257812 44.0625 33.269531 C 43.753906 31.835938 42.90625 30.847656 41.722656 30.039062 C 39.941406 28.972656 37.304688 29.511719 35.976562 31.066406 Z M 35.976562 31.066406 "/>
<path style=" stroke:none;fill-rule:nonzero;fill:rgb(99.607843%,99.607843%,99.607843%);fill-opacity:1;" d="M 52.070312 10.0625 C 53.386719 11 54.390625 12.304688 54.734375 13.90625 C 55.152344 17.113281 53.671875 19.359375 52 21.917969 C 51.507812 22.675781 51.042969 23.441406 50.589844 24.21875 C 50.527344 24.324219 50.464844 24.429688 50.402344 24.539062 C 50.140625 24.992188 49.882812 25.445312 49.632812 25.902344 C 49.558594 26.039062 49.480469 26.171875 49.40625 26.3125 C 49.34375 26.425781 49.285156 26.539062 49.222656 26.65625 C 49.007812 26.90625 49.007812 26.90625 48.660156 27.042969 C 48.125 27.058594 47.9375 26.953125 47.527344 26.609375 C 47.269531 26.238281 47.074219 25.847656 46.871094 25.445312 C 46.292969 24.355469 45.667969 23.308594 45 22.269531 C 44.824219 21.992188 44.644531 21.714844 44.46875 21.4375 C 44.34375 21.238281 44.34375 21.238281 44.214844 21.039062 C 42.746094 18.742188 41.527344 16.660156 42.070312 13.832031 C 42.597656 11.953125 43.636719 10.636719 45.304688 9.664062 C 47.488281 8.574219 50.027344 8.8125 52.070312 10.0625 Z M 44.863281 12.488281 C 44.042969 13.550781 43.660156 14.710938 43.824219 16.054688 C 44.15625 17.480469 44.976562 18.695312 45.75 19.917969 C 45.835938 20.054688 45.917969 20.1875 46.007812 20.328125 C 46.535156 21.164062 47.070312 22.003906 47.601562 22.839844 C 47.761719 23.089844 47.910156 23.347656 48.054688 23.605469 C 48.125 23.714844 48.195312 23.820312 48.265625 23.933594 C 48.363281 23.933594 48.460938 23.933594 48.5625 23.933594 C 48.796875 23.566406 49.007812 23.203125 49.21875 22.828125 C 49.75 21.898438 50.300781 20.996094 50.886719 20.105469 C 52.152344 18.164062 53.039062 16.65625 52.855469 14.269531 C 52.578125 13.136719 51.839844 12.128906 50.859375 11.507812 C 48.753906 10.410156 46.488281 10.660156 44.863281 12.488281 Z M 44.863281 12.488281 "/>
<path style=" stroke:none;fill-rule:nonzero;fill:rgb(99.607843%,99.607843%,99.607843%);fill-opacity:1;" d="M 17.109375 4.183594 C 18.527344 5.257812 19.417969 6.703125 19.691406 8.472656 C 19.925781 11.566406 18.363281 13.75 16.742188 16.214844 C 15.894531 17.515625 15.132812 18.863281 14.378906 20.222656 C 13.96875 20.941406 13.96875 20.941406 13.5 21.109375 C 13.027344 21.109375 13.027344 21.109375 12.679688 20.824219 C 12.164062 20.273438 11.832031 19.605469 11.472656 18.945312 C 10.859375 17.832031 10.210938 16.753906 9.511719 15.691406 C 6.425781 10.984375 6.425781 10.984375 6.96875 8.007812 C 7.199219 7.046875 7.574219 6.300781 8.144531 5.5 C 8.230469 5.367188 8.3125 5.238281 8.402344 5.101562 C 10.726562 2.703125 14.339844 2.40625 17.109375 4.183594 Z M 9.773438 6.390625 C 8.96875 7.605469 8.59375 8.652344 8.734375 10.109375 C 9.175781 11.984375 10.375 13.652344 11.441406 15.226562 C 11.972656 16.011719 12.460938 16.820312 12.941406 17.640625 C 13.019531 17.753906 13.097656 17.871094 13.175781 17.988281 C 13.273438 17.988281 13.371094 17.988281 13.472656 17.988281 C 13.574219 17.804688 13.574219 17.804688 13.675781 17.621094 C 14.242188 16.605469 14.835938 15.617188 15.472656 14.640625 C 17.378906 11.800781 17.378906 11.800781 17.765625 8.472656 C 17.484375 7.261719 16.824219 6.230469 15.769531 5.5625 C 13.777344 4.523438 11.378906 4.667969 9.773438 6.390625 Z M 9.773438 6.390625 "/>
<path style=" stroke:none;fill-rule:nonzero;fill:rgb(99.607843%,99.607843%,99.607843%);fill-opacity:1;" d="M 31.386719 15.90625 C 32.46875 16.71875 33.394531 18.265625 33.609375 19.621094 C 33.824219 22.476562 32.871094 24.339844 31.339844 26.671875 C 30.914062 27.328125 30.503906 27.996094 30.09375 28.660156 C 30.011719 28.792969 29.929688 28.921875 29.847656 29.058594 C 29.277344 29.984375 28.734375 30.925781 28.21875 31.882812 C 27.984375 32.257812 27.984375 32.257812 27.539062 32.554688 C 27.113281 32.574219 27.113281 32.574219 26.652344 32.40625 C 26.464844 32.167969 26.464844 32.167969 26.292969 31.871094 C 26.195312 31.710938 26.195312 31.710938 26.097656 31.546875 C 26.035156 31.4375 25.972656 31.328125 25.910156 31.214844 C 25.855469 31.125 25.800781 31.03125 25.746094 30.933594 C 25.636719 30.75 25.53125 30.566406 25.425781 30.378906 C 24.683594 29.09375 23.898438 27.835938 23.097656 26.585938 C 21.570312 24.199219 20.351562 22.0625 20.980469 19.144531 C 21.527344 17.492188 22.582031 16.074219 24.109375 15.226562 C 26.566406 14.066406 29.1875 14.339844 31.386719 15.90625 Z M 23.730469 17.960938 C 23.015625 18.832031 22.714844 19.769531 22.597656 20.886719 C 22.839844 23.144531 24.289062 25.019531 25.503906 26.863281 C 25.996094 27.613281 26.460938 28.375 26.90625 29.160156 C 26.96875 29.25 27.03125 29.339844 27.09375 29.433594 C 27.191406 29.433594 27.289062 29.433594 27.390625 29.433594 C 27.636719 29.058594 27.867188 28.683594 28.09375 28.300781 C 28.574219 27.492188 29.058594 26.691406 29.566406 25.902344 C 29.660156 25.761719 29.75 25.617188 29.847656 25.472656 C 30.023438 25.195312 30.203125 24.917969 30.386719 24.644531 C 31.296875 23.230469 32.046875 21.757812 31.75 20.039062 C 31.40625 18.71875 30.839844 17.742188 29.675781 17 C 27.570312 15.890625 25.375 16.21875 23.730469 17.960938 Z M 23.730469 17.960938 "/>
<path style=" stroke:none;fill-rule:nonzero;fill:rgb(99.607843%,99.607843%,99.607843%);fill-opacity:1;" d="M 23.246094 6.09375 C 23.730469 6.355469 23.730469 6.355469 24.1875 6.707031 C 24.34375 6.820312 24.496094 6.933594 24.65625 7.050781 C 25.097656 7.507812 25.175781 7.691406 25.167969 8.324219 C 25.058594 8.777344 24.902344 9.207031 24.734375 9.644531 C 24.691406 9.761719 24.648438 9.875 24.605469 9.996094 C 24.5 10.28125 24.390625 10.566406 24.28125 10.851562 C 24.378906 10.949219 24.476562 11.046875 24.578125 11.148438 C 25.011719 11.144531 25.425781 11.128906 25.855469 11.09375 C 25.972656 11.085938 26.09375 11.074219 26.214844 11.066406 C 26.507812 11.046875 26.800781 11.023438 27.09375 11 C 27.046875 10.902344 26.996094 10.804688 26.945312 10.703125 C 26.878906 9.785156 26.878906 9.785156 27.105469 9.375 C 27.566406 9.121094 27.902344 9.167969 28.425781 9.214844 C 28.664062 9.285156 28.898438 9.359375 29.128906 9.4375 C 30.121094 9.757812 31.046875 9.75 32.0625 9.570312 C 32.558594 9.289062 32.554688 9.007812 32.722656 8.472656 C 33.210938 7.917969 33.53125 7.683594 34.277344 7.636719 C 35.015625 7.679688 35.335938 7.929688 35.832031 8.472656 C 36.105469 9.027344 36.160156 9.464844 36.144531 10.082031 C 36.140625 10.226562 36.140625 10.371094 36.136719 10.519531 C 36.132812 10.628906 36.128906 10.738281 36.125 10.851562 C 36.289062 10.890625 36.449219 10.929688 36.617188 10.972656 C 37.40625 11.226562 37.40625 11.226562 37.605469 11.59375 C 37.585938 12.164062 37.519531 12.539062 37.21875 13.023438 C 36.980469 13.367188 36.980469 13.367188 37.03125 13.769531 C 37.171875 14.144531 37.320312 14.296875 37.605469 14.566406 C 37.695312 14.539062 37.785156 14.511719 37.878906 14.480469 C 38.769531 14.203125 39.652344 13.996094 40.566406 13.824219 C 40.519531 14.460938 40.46875 15.101562 40.417969 15.757812 C 38.085938 16.753906 38.085938 16.753906 37.015625 16.5 C 36.027344 16.039062 35.265625 15.089844 34.792969 14.121094 C 34.742188 13.488281 34.820312 13.058594 35.089844 12.488281 C 34.996094 12.40625 34.902344 12.328125 34.804688 12.246094 C 34.429688 11.8125 34.386719 11.527344 34.3125 10.960938 C 34.289062 10.800781 34.269531 10.640625 34.246094 10.476562 C 34.230469 10.355469 34.214844 10.234375 34.203125 10.109375 C 34.054688 10.308594 34.054688 10.308594 33.90625 10.515625 C 33.339844 11.203125 32.550781 11.578125 31.683594 11.742188 C 31.390625 11.757812 31.097656 11.761719 30.804688 11.761719 C 30.65625 11.761719 30.503906 11.761719 30.347656 11.761719 C 29.9375 11.746094 29.566406 11.6875 29.167969 11.59375 C 29.148438 11.710938 29.128906 11.828125 29.113281 11.949219 C 29.019531 12.335938 29.019531 12.335938 28.722656 12.636719 C 28.054688 12.808594 27.367188 12.914062 26.6875 13.035156 C 26.402344 13.085938 26.402344 13.085938 26.113281 13.140625 C 25.933594 13.175781 25.75 13.207031 25.5625 13.242188 C 25.394531 13.269531 25.226562 13.300781 25.054688 13.332031 C 24.558594 13.378906 24.171875 13.347656 23.6875 13.230469 C 23.390625 12.976562 23.390625 12.976562 23.144531 12.664062 C 23.058594 12.5625 22.976562 12.457031 22.890625 12.351562 C 22.8125 12.25 22.734375 12.148438 22.652344 12.039062 C 22.570312 11.941406 22.484375 11.84375 22.398438 11.742188 C 22.132812 11.328125 22.191406 10.980469 22.257812 10.503906 C 22.445312 9.742188 22.773438 9.035156 23.097656 8.324219 C 22.3125 8.410156 22.3125 8.410156 21.617188 8.769531 C 21.46875 8.769531 21.324219 8.769531 21.171875 8.769531 C 21.121094 8.558594 21.074219 8.347656 21.023438 8.136719 C 20.996094 8.019531 20.96875 7.902344 20.941406 7.78125 C 20.875 7.433594 20.875 7.433594 20.875 6.835938 C 21.074219 6.710938 21.277344 6.589844 21.476562 6.464844 C 21.589844 6.398438 21.699219 6.328125 21.816406 6.257812 C 22.335938 6.042969 22.6875 6.03125 23.246094 6.09375 Z M 23.246094 6.09375 "/>
<path style=" stroke:none;fill-rule:nonzero;fill:rgb(99.607843%,99.607843%,99.607843%);fill-opacity:1;" d="M 41.417969 31.671875 C 41.996094 32.105469 42.335938 32.597656 42.492188 33.296875 C 42.621094 34.339844 42.597656 35.167969 41.964844 36.03125 C 41.382812 36.691406 40.765625 37.097656 39.886719 37.210938 C 38.953125 37.226562 38.199219 37.171875 37.457031 36.566406 C 36.785156 35.84375 36.4375 35.105469 36.398438 34.113281 C 36.460938 33.140625 36.714844 32.488281 37.429688 31.820312 C 38.6875 30.824219 40.078125 30.84375 41.417969 31.671875 Z M 38.578125 33.316406 C 38.308594 33.816406 38.253906 34.074219 38.347656 34.636719 C 38.652344 35.070312 38.871094 35.207031 39.375 35.378906 C 39.839844 35.414062 39.839844 35.414062 40.242188 35.144531 C 40.636719 34.707031 40.714844 34.480469 40.714844 33.890625 C 40.460938 33.335938 40.460938 33.335938 39.976562 33 C 39.207031 32.910156 39.207031 32.910156 38.578125 33.316406 Z M 38.578125 33.316406 "/>
<path style=" stroke:none;fill-rule:nonzero;fill:rgb(99.607843%,99.607843%,99.607843%);fill-opacity:1;" d="M 28.777344 18.199219 C 29.46875 18.617188 29.914062 19.167969 30.203125 19.917969 C 30.355469 20.867188 30.382812 21.816406 29.90625 22.679688 C 29.296875 23.480469 28.546875 23.929688 27.558594 24.089844 C 26.640625 24.136719 25.769531 23.882812 25.070312 23.269531 C 24.292969 22.367188 24.199219 21.617188 24.214844 20.449219 C 24.328125 19.527344 24.722656 18.945312 25.429688 18.367188 C 26.410156 17.773438 27.730469 17.761719 28.777344 18.199219 Z M 26.355469 20.066406 C 26.007812 20.589844 25.972656 20.789062 26.058594 21.40625 C 26.421875 21.898438 26.640625 22.117188 27.242188 22.242188 C 27.847656 22.117188 28.0625 21.898438 28.425781 21.40625 C 28.539062 20.953125 28.539062 20.953125 28.425781 20.511719 C 28.117188 20.070312 27.910156 19.941406 27.390625 19.789062 C 26.921875 19.769531 26.730469 19.796875 26.355469 20.066406 Z M 26.355469 20.066406 "/>
<path style=" stroke:none;fill-rule:nonzero;fill:rgb(99.607843%,99.607843%,99.607843%);fill-opacity:1;" d="M 49.667969 12.582031 C 50.402344 12.914062 50.847656 13.414062 51.226562 14.121094 C 51.519531 14.996094 51.5 15.996094 51.199219 16.863281 C 50.683594 17.59375 50.160156 18.140625 49.304688 18.433594 C 48.230469 18.5625 47.316406 18.570312 46.429688 17.898438 C 45.769531 17.304688 45.464844 16.789062 45.304688 15.90625 C 45.292969 14.910156 45.464844 14.1875 46.046875 13.378906 C 47.097656 12.402344 48.273438 12.210938 49.667969 12.582031 Z M 47.546875 14.585938 C 47.203125 14.988281 47.203125 14.988281 47.136719 15.460938 C 47.265625 16.066406 47.480469 16.285156 47.972656 16.648438 C 48.421875 16.761719 48.421875 16.761719 48.859375 16.648438 C 49.300781 16.335938 49.429688 16.128906 49.582031 15.609375 C 49.601562 15.136719 49.574219 14.945312 49.304688 14.566406 C 48.632812 14.117188 48.203125 14.097656 47.546875 14.585938 Z M 47.546875 14.585938 "/>
<path style=" stroke:none;fill-rule:nonzero;fill:rgb(99.607843%,99.607843%,99.607843%);fill-opacity:1;" d="M 14.714844 6.6875 C 15.382812 7.203125 16.015625 7.808594 16.285156 8.621094 C 16.359375 9.589844 16.421875 10.476562 15.84375 11.296875 C 15.242188 12 14.703125 12.429688 13.769531 12.539062 C 12.679688 12.585938 11.929688 12.484375 11.105469 11.742188 C 10.488281 11.125 10.222656 10.480469 10.210938 9.597656 C 10.277344 8.542969 10.535156 7.824219 11.328125 7.089844 C 12.367188 6.382812 13.507812 6.328125 14.714844 6.6875 Z M 12.445312 8.632812 C 12.117188 9.042969 12.117188 9.042969 12.046875 9.511719 C 12.175781 10.121094 12.390625 10.335938 12.882812 10.703125 C 13.332031 10.8125 13.332031 10.8125 13.769531 10.703125 C 14.203125 10.394531 14.339844 10.175781 14.507812 9.671875 C 14.546875 9.203125 14.546875 9.203125 14.289062 8.796875 C 13.660156 8.246094 13.140625 8.140625 12.445312 8.632812 Z M 12.445312 8.632812 "/>
</g>
</svg>
