<?xml version="1.0" encoding="UTF-8"?>
<svg version="1.1" xmlns="http://www.w3.org/2000/svg" width="477" height="363">
<path d="M0 0 C0.68618467 -0.00579339 1.37236934 -0.01158677 2.07934749 -0.01755571 C4.3899581 -0.03566376 6.7005442 -0.04650111 9.01119995 -0.05725098 C10.66352055 -0.06842328 12.31583888 -0.07993651 13.96815491 -0.09176636 C19.40548538 -0.12836561 24.84283923 -0.1535511 30.28024292 -0.1763916 C31.20516084 -0.18033747 32.13007876 -0.18428333 33.0830245 -0.18834877 C41.80592575 -0.22477336 50.52883505 -0.25621955 59.25178719 -0.27745819 C70.40996995 -0.3050267 81.56751658 -0.35577369 92.72543442 -0.43793249 C100.57011452 -0.49373836 108.41462211 -0.52269645 116.25949371 -0.5319314 C120.94485308 -0.53818742 125.62946703 -0.55629499 130.31460953 -0.60331726 C134.72583415 -0.64704053 139.13590725 -0.65745513 143.54731178 -0.64268875 C145.16300991 -0.64301697 146.77875809 -0.65525986 148.3942585 -0.68053818 C162.11457199 -0.88382496 162.11457199 -0.88382496 166.5614624 3.10766602 C167.14925917 3.74580986 167.73705593 4.3839537 168.34266472 5.04143524 C170.87772964 7.6642906 173.74747702 9.60789759 176.74996948 11.64489746 C200.50406281 28.20703849 227.821558 49.6792485 233.66110229 79.52478027 C238.65154506 109.36222487 236.50032036 140.52602491 234.94520187 170.58300686 C234.28656989 183.58829217 234.01508911 196.59446702 233.75775146 209.61281967 C233.36551521 228.77610019 232.84771478 247.93830267 231.94746399 267.08500862 C231.85256276 269.13749447 231.76386117 271.19027755 231.68174744 273.24331474 C231.56758204 276.03823001 231.42880521 278.83076971 231.28219604 281.62414551 C231.25292023 282.43924843 231.22364441 283.25435135 231.19348145 284.09415436 C230.97919136 287.65766893 230.67961902 289.79648615 228.49099731 292.67292786 C225.92209537 294.50666221 224.54603167 294.63439745 221.41305542 294.5579834 C220.01119995 294.53864746 220.01119995 294.53864746 218.58102417 294.5189209 C217.12889526 294.46864746 217.12889526 294.46864746 215.64743042 294.4173584 C214.66387573 294.39931152 213.68032104 294.38126465 212.66696167 294.3626709 C210.24279259 294.31559965 207.82060983 294.24986582 205.39743042 294.1673584 C205.4236145 294.8379126 205.44979858 295.5084668 205.47677612 296.19934082 C205.5810028 299.25093968 205.64583665 302.30216382 205.70993042 305.3548584 C205.77277222 306.93750488 205.77277222 306.93750488 205.83688354 308.55212402 C205.85299683 309.57370605 205.86911011 310.59528809 205.88571167 311.64782715 C205.92498779 313.05391235 205.92498779 313.05391235 205.96505737 314.48840332 C205.1329677 318.41550867 203.55347806 319.71301142 200.39743042 322.1673584 C197.27215671 322.8970331 194.22016994 322.84259315 191.02218628 322.80227661 C189.59999362 322.81397654 189.59999362 322.81397654 188.14906979 322.82591283 C184.9697435 322.84586805 181.79160949 322.83005397 178.61227417 322.81433105 C176.33395691 322.82110557 174.05564513 322.83000777 171.77734375 322.84088135 C165.58728265 322.8637006 159.39763762 322.85482719 153.20756912 322.83898592 C146.73430497 322.8263407 140.26107681 322.83806321 133.78781128 322.84591675 C122.2197412 322.85560048 110.65188414 322.84004713 99.0838474 322.81462006 C88.59615878 322.7922813 78.10874686 322.79616147 67.62106323 322.81921387 C55.44070366 322.84597433 43.26056128 322.85593013 31.08016682 322.84115255 C24.63294644 322.83335112 18.18591668 322.83233567 11.7387085 322.84883499 C5.67782461 322.86326177 -0.38253593 322.85329004 -6.44336319 322.82436371 C-8.66981257 322.81774342 -10.89630588 322.81966655 -13.12273788 322.83067703 C-16.15819816 322.84430621 -19.19197307 322.8272475 -22.22732544 322.80227661 C-23.11205064 322.81343022 -23.99677584 322.82458383 -24.90831089 322.83607543 C-28.93853518 322.77159963 -31.13695368 322.44712303 -34.64883995 320.33701134 C-37.583205 315.57641465 -37.29384908 311.31108418 -37.23748779 305.81799316 C-37.24528775 304.65752 -37.2530877 303.49704683 -37.26112401 302.30140781 C-37.27761747 299.08398848 -37.27168215 295.86751225 -37.25619292 292.65011644 C-37.24488408 289.17899586 -37.26233973 285.70800317 -37.27609253 282.23690796 C-37.29833465 275.43856584 -37.29351955 268.6404996 -37.27902932 261.84214664 C-37.26774085 256.31739966 -37.26620447 250.79273005 -37.27164841 245.26797485 C-37.27241457 244.48189333 -37.27318074 243.6958118 -37.27397012 242.88590962 C-37.27556873 241.28903792 -37.2771898 239.69216625 -37.27883308 238.09529459 C-37.29309342 223.11871375 -37.27669342 208.14228588 -37.24983124 193.16573012 C-37.22749217 180.31300615 -37.23137222 167.46050798 -37.25442505 154.60778809 C-37.28117806 139.68509039 -37.2917201 124.76252679 -37.27636373 109.83980846 C-37.27477097 108.24878631 -37.27319912 106.65776414 -37.27164841 105.06674194 C-37.27087703 104.28391313 -37.27010565 103.50108431 -37.2693109 102.69453341 C-37.26499239 97.17593103 -37.27228368 91.65741367 -37.28404617 86.13882446 C-37.29806422 79.41413407 -37.29428617 72.68973552 -37.26764245 65.96507859 C-37.25449452 62.5334595 -37.24936768 59.10232709 -37.26588821 55.67071152 C-37.27949762 51.95222595 -37.26248046 48.23512061 -37.23748779 44.51672363 C-37.2486414 43.42966912 -37.25979501 42.34261461 -37.27128661 41.22261906 C-37.1758173 33.92878882 -37.1758173 33.92878882 -34.21310997 29.99349976 C-31.38147045 28.01269376 -30.14411024 27.56924418 -26.73928833 27.67907715 C-25.40994263 27.70324707 -25.40994263 27.70324707 -24.05374146 27.72790527 C-23.14172974 27.7697998 -22.22971802 27.81169434 -21.29006958 27.8548584 C-20.35872192 27.87741699 -19.42737427 27.89997559 -18.46780396 27.92321777 C-16.17772998 27.98193762 -13.89099083 28.06398982 -11.60256958 28.1673584 C-11.61828003 27.52709717 -11.63399048 26.88683594 -11.650177 26.22717285 C-11.71274073 23.31149208 -11.75162766 20.39595285 -11.79006958 17.4798584 C-11.8152063 16.47245605 -11.84034302 15.46505371 -11.86624146 14.42712402 C-11.95930202 5.02800709 -11.95930202 5.02800709 -8.60256958 1.1673584 C-5.71990185 -0.27397547 -3.22259877 0.02133532 0 0 Z M5.39743042 16.1673584 C5.39743042 20.1273584 5.39743042 24.0873584 5.39743042 28.1673584 C7.75688309 28.04625198 7.75688309 28.04625198 10.16400146 27.92269897 C25.18948792 27.18046401 40.20402401 26.67168445 55.24445915 26.38239861 C62.97402107 26.22809847 70.68550581 25.99765264 78.40524292 25.57165527 C133.95331074 22.57456993 133.95331074 22.57456993 153.33826947 39.85204816 C162.06014058 47.90207662 169.63976996 57.07299192 176.73071289 66.56680298 C180.15342126 71.06961956 184.03676755 74.59759829 188.39743042 78.1673584 C189.75609569 79.4485527 191.10299187 80.74267712 192.42477417 82.06188965 C193.07123901 82.70706543 193.71770386 83.35224121 194.38375854 84.01696777 C195.34958862 84.98859863 195.34958862 84.98859863 196.33493042 85.9798584 C197.00588745 86.64694824 197.67684448 87.31403809 198.36813354 88.00134277 C199.00557495 88.64007324 199.64301636 89.27880371 200.29977417 89.93688965 C200.87203735 90.51028076 201.44430054 91.08367187 202.03390503 91.67443848 C204.98699152 94.90776415 204.54991133 98.2126549 204.5556488 102.35525513 C204.56058678 103.10425406 204.56552476 103.85325299 204.57061237 104.62494886 C204.58603378 107.14770936 204.59436051 109.67044433 204.60275269 112.1932373 C204.61232757 113.99646735 204.62233741 115.79969514 204.63275146 117.60292053 C204.65984888 122.50965597 204.68083221 127.41640107 204.70075345 132.32317019 C204.72258323 137.44681858 204.7499866 142.57043703 204.77680969 147.69406128 C204.82677734 157.40149494 204.87170103 167.10894519 204.91483206 176.81641138 C204.96416968 187.86584408 205.01910067 198.91524674 205.07451165 209.96465039 C205.1883942 232.69885837 205.29521954 255.43309516 205.39743042 278.1673584 C208.36743042 278.1673584 211.33743042 278.1673584 214.39743042 278.1673584 C215.792447 252.72674143 216.82378876 227.29202852 217.45434856 201.82053661 C217.75534162 189.98351628 218.16465058 178.17082298 218.84835815 166.34924316 C223.35734383 102.78633832 223.35734383 102.78633832 197.02661133 47.05593872 C177.04409895 24.92041958 154.17231451 12.26506632 124.25091976 10.60637945 C110.90870619 10.06897429 97.63683065 10.85539168 84.34053916 11.91768807 C75.70666728 12.59532833 67.06879441 12.90577363 58.41469443 13.19826567 C40.71056474 13.8042429 23.06195058 14.84351536 5.39743042 16.1673584 Z M-19.60256958 44.1673584 C-19.60256958 130.6273584 -19.60256958 217.0873584 -19.60256958 306.1673584 C49.36743042 306.1673584 118.33743042 306.1673584 189.39743042 306.1673584 C189.39743042 240.4973584 189.39743042 174.8273584 189.39743042 107.1673584 C160.19243042 106.6723584 160.19243042 106.6723584 130.39743042 106.1673584 C115.73644667 91.50637465 125.76112467 64.8979304 125.39743042 44.1673584 C77.54743042 44.1673584 29.69743042 44.1673584 -19.60256958 44.1673584 Z M142.39743042 56.1673584 C142.39743042 67.7173584 142.39743042 79.2673584 142.39743042 91.1673584 C153.94743042 91.1673584 165.49743042 91.1673584 177.39743042 91.1673584 C172.89311155 85.84497429 172.89311155 85.84497429 168.16183472 80.80236816 C167.60493454 80.24231583 167.04803436 79.68226349 166.47425842 79.10523987 C165.60671684 78.24073463 165.60671684 78.24073463 164.72164917 77.35876465 C164.11102127 76.74718002 163.50039337 76.1355954 162.8712616 75.50547791 C161.59434657 74.227888 160.31619049 72.95153737 159.03683472 71.6763916 C157.06926476 69.71423584 155.1071631 67.7467232 153.14547729 65.77868652 C151.90035559 64.53422464 150.65492426 63.29007246 149.40914917 62.04626465 C148.82066696 61.45575821 148.23218475 60.86525177 147.62586975 60.2568512 C145.37687476 57.46314669 145.37687476 57.46314669 142.39743042 56.1673584 Z " fill="#FEFEFE" transform="translate(136.60256958007813,21.8326416015625)"/>
<path d="M0 0 C0.92045609 -0.00335861 1.84091217 -0.00671722 2.78926086 -0.01017761 C5.84340755 -0.01970549 8.89749952 -0.02163169 11.95166016 -0.02270508 C14.06914289 -0.02591654 16.1866254 -0.02928052 18.30410767 -0.03279114 C22.74782831 -0.03878712 27.1915295 -0.04063057 31.63525391 -0.04003906 C37.33403258 -0.03993745 43.03268664 -0.05358676 48.73143578 -0.07081127 C53.10656306 -0.08192133 57.48166013 -0.08395857 61.85680008 -0.08342934 C63.95797785 -0.08461107 66.05915636 -0.08904361 68.16032028 -0.0967617 C71.09785473 -0.10654084 74.03511758 -0.10369164 76.97265625 -0.09765625 C78.2788517 -0.10608551 78.2788517 -0.10608551 79.61143494 -0.11468506 C80.41338791 -0.11049057 81.21534088 -0.10629608 82.04159546 -0.10197449 C82.73587332 -0.10251925 83.43015118 -0.10306402 84.14546776 -0.1036253 C86.4977163 0.19351834 88.08945665 0.92969588 90.11572266 2.14526367 C92.41124251 5.35899147 92.59949199 8.27510902 92.11572266 12.14526367 C90.24862355 14.44801923 88.75924525 15.82350238 86.11572266 17.14526367 C83.1520893 17.25440903 80.21159828 17.30260197 77.24731445 17.30639648 C76.32846466 17.31136139 75.40961487 17.31632629 74.46292114 17.32144165 C71.41358703 17.33608427 68.36430495 17.34286902 65.31494141 17.34838867 C63.19985451 17.35413871 61.08476764 17.35989646 58.96968079 17.36566162 C54.53015906 17.37617781 50.09065548 17.38201633 45.65112305 17.38549805 C39.9613575 17.39098186 34.27183138 17.415005 28.58214092 17.44347 C24.21126098 17.46209124 19.84043874 17.46730173 15.46952248 17.46883392 C13.37195337 17.4718625 11.27438534 17.47989791 9.17685509 17.4930191 C6.24182292 17.51006748 3.307376 17.50820213 0.37231445 17.50170898 C-0.49488724 17.51092377 -1.36208893 17.52013855 -2.25556946 17.52963257 C-6.94766257 17.49710414 -10.08314486 17.21596573 -13.88427734 14.14526367 C-15.4301461 11.05352616 -15.17787256 8.55096815 -14.88427734 5.14526367 C-10.57364368 -0.3148723 -6.55124722 -0.00339367 0 0 Z " fill="#FEFEFE" transform="translate(207.88427734375,206.854736328125)"/>
<path d="M0 0 C0.92045609 -0.00335861 1.84091217 -0.00671722 2.78926086 -0.01017761 C5.84340755 -0.01970549 8.89749952 -0.02163169 11.95166016 -0.02270508 C14.06914289 -0.02591654 16.1866254 -0.02928052 18.30410767 -0.03279114 C22.74782831 -0.03878712 27.1915295 -0.04063057 31.63525391 -0.04003906 C37.33403258 -0.03993745 43.03268664 -0.05358676 48.73143578 -0.07081127 C53.10656306 -0.08192133 57.48166013 -0.08395857 61.85680008 -0.08342934 C63.95797785 -0.08461107 66.05915636 -0.08904361 68.16032028 -0.0967617 C71.09785473 -0.10654084 74.03511758 -0.10369164 76.97265625 -0.09765625 C78.2788517 -0.10608551 78.2788517 -0.10608551 79.61143494 -0.11468506 C80.41338791 -0.11049057 81.21534088 -0.10629608 82.04159546 -0.10197449 C82.73587332 -0.10251925 83.43015118 -0.10306402 84.14546776 -0.1036253 C87.28689408 0.29320983 89.48096192 1.32914273 91.42822266 3.83276367 C92.43431214 7.21688285 91.92014664 9.74193141 91.11572266 13.14526367 C89.536863 15.20464584 88.42429843 15.99097579 86.11572266 17.14526367 C83.14669481 17.24918522 80.20093374 17.29206559 77.23144531 17.29052734 C76.31098923 17.29388596 75.39053314 17.29724457 74.44218445 17.30070496 C71.38803776 17.31023284 68.3339458 17.31215903 65.27978516 17.31323242 C63.16230242 17.31644388 61.04481991 17.31980787 58.92733765 17.32331848 C54.483617 17.32931446 50.03991582 17.33115792 45.59619141 17.33056641 C39.89741273 17.33046479 34.19875867 17.3441141 28.50000954 17.36133862 C24.12488225 17.37244867 19.74978518 17.37448591 15.37464523 17.37395668 C13.27346746 17.37513841 11.17228896 17.37957095 9.07112503 17.38728905 C6.13359058 17.39706818 3.19632773 17.39421899 0.25878906 17.38818359 C-1.04740639 17.39661285 -1.04740639 17.39661285 -2.37998962 17.4052124 C-3.1819426 17.40101791 -3.98389557 17.39682343 -4.81015015 17.39250183 C-5.50442801 17.3930466 -6.19870586 17.39359137 -6.91402245 17.39415264 C-9.30056306 17.09267711 -10.84811177 16.42120735 -12.88427734 15.14526367 C-15.36466641 11.42468007 -15.34764937 9.54729797 -14.88427734 5.14526367 C-10.57364368 -0.3148723 -6.55124722 -0.00339367 0 0 Z " fill="#FEFEFE" transform="translate(207.88427734375,254.854736328125)"/>
<path d="M0 0 C1.43964363 -0.0131424 1.43964363 -0.0131424 2.90837097 -0.02655029 C6.08195153 -0.04856298 9.25413957 -0.03398437 12.42773438 -0.01708984 C14.63204211 -0.02045742 16.83634804 -0.02530955 19.04064941 -0.03158569 C23.66090571 -0.03895959 28.28067876 -0.02823441 32.90087891 -0.00488281 C38.82638258 0.0236047 44.75075401 0.00720357 50.67621613 -0.02274513 C55.22813464 -0.04080381 59.77978425 -0.03506652 64.33171082 -0.02210617 C66.51661818 -0.01876823 68.70154988 -0.02287281 70.88642883 -0.03450394 C73.9392676 -0.04718863 76.99026717 -0.02786788 80.04296875 0 C81.4005555 -0.01518173 81.4005555 -0.01518173 82.78556824 -0.03067017 C88.89746804 0.07281299 88.89746804 0.07281299 92.07873535 2.99990845 C93.86829519 6.2832791 94.21224042 7.96294043 93.52148438 11.64697266 C91.52187093 14.3640049 89.91513176 16.32290339 86.52708435 17.11073685 C84.04865571 17.29878884 81.61440048 17.32249315 79.12890625 17.29394531 C78.19011124 17.30270691 77.25131622 17.31146851 76.28407288 17.32049561 C73.18565441 17.34247435 70.08866696 17.32794185 66.99023438 17.31103516 C64.83459194 17.31440372 62.67895136 17.31925667 60.52331543 17.32553101 C56.00738425 17.33290029 51.49194785 17.32219459 46.97607422 17.29882812 C41.18857186 17.27034081 35.40222881 17.28674441 29.61476898 17.31669044 C25.16403474 17.3347616 20.71357518 17.32900612 16.26283264 17.31605148 C14.12899132 17.31271699 11.99512503 17.31680604 9.86131287 17.32844925 C6.87822455 17.34115452 3.89701121 17.32178461 0.9140625 17.29394531 C0.03287247 17.30406647 -0.84831757 17.31418762 -1.75621033 17.32461548 C-6.15036365 17.24867512 -7.94265875 17.06010714 -11.53039551 14.29403687 C-13.47851562 11.64697266 -13.47851562 11.64697266 -14.04101562 8.64697266 C-12.45718408 0.19987107 -7.38414408 -0.08257601 0 0 Z " fill="#FEFEFE" transform="translate(206.478515625,281.35302734375)"/>
<path d="M0 0 C0.94040131 -0.0071553 1.88080261 -0.01431061 2.84970093 -0.02168274 C5.95295025 -0.03856859 9.05475487 -0.01916881 12.15795898 0.00219727 C14.31599548 0.00136863 16.47403191 -0.00109055 18.63206482 -0.00511169 C23.15220158 -0.00796954 27.67184278 0.00673192 32.19189453 0.03417969 C37.98834368 0.06828244 43.78390785 0.06223711 49.58039951 0.04351711 C54.03536875 0.03295416 58.49013167 0.04187827 62.94508171 0.05690193 C65.08253301 0.06208798 67.22000582 0.06159683 69.3574543 0.05535698 C72.34294182 0.04991262 75.32715738 0.07025471 78.3125 0.09765625 C79.19728531 0.09113037 80.08207062 0.08460449 80.9936676 0.07788086 C86.96462503 0.17116784 86.96462503 0.17116784 90.11289978 2.48085022 C92.05027464 5.29817573 92.52179543 7.21299579 92.59155273 10.63110352 C91.45375401 12.95841908 90.42314559 14.79951066 88.59155273 16.63110352 C85.5384705 16.74775801 82.50771972 16.79913866 79.45361328 16.80810547 C78.49428894 16.81467667 77.5349646 16.82124786 76.54656982 16.82801819 C73.35713635 16.84780413 70.16775007 16.85942542 66.97827148 16.86938477 C65.89195749 16.87346029 64.8056435 16.87753582 63.6864109 16.88173485 C57.93710137 16.90261801 52.18781586 16.91691009 46.43847656 16.92626953 C40.48956834 16.93733982 34.54103358 16.9717407 28.5922575 17.01144123 C24.02754505 17.03754535 19.4629224 17.04595584 14.89814186 17.04955101 C12.70483693 17.05443289 10.51153643 17.06609207 8.31830406 17.084589 C5.25112431 17.10884871 2.18492142 17.10803941 -0.88232422 17.10107422 C-2.24698067 17.12028931 -2.24698067 17.12028931 -3.63920593 17.13989258 C-9.76223477 17.08909878 -9.76223477 17.08909878 -12.96867371 14.8165741 C-15.11901899 11.5525078 -15.01162462 9.45122677 -14.40844727 5.63110352 C-10.26647729 -0.07667893 -6.53677198 -0.08657976 0 0 Z " fill="#FEFEFE" transform="translate(207.408447265625,180.368896484375)"/>
<path d="M0 0 C2.46146852 1.61268627 2.9235466 2.75814262 3.8125 5.5703125 C4.07549231 10.38088016 2.34129934 13.46523479 0.1875 17.6875 C-0.21686279 18.50750488 -0.62122559 19.32750977 -1.0378418 20.17236328 C-2.3391241 22.7918762 -3.66644615 25.39678375 -5 28 C-5.66708984 29.31556885 -5.66708984 29.31556885 -6.34765625 30.65771484 C-7.65847362 33.2358786 -8.98157689 35.80716324 -10.3125 38.375 C-10.72024658 39.16479248 -11.12799316 39.95458496 -11.5480957 40.76831055 C-17.14201356 51.36749398 -17.14201356 51.36749398 -21.9375 53 C-26.8362444 53 -29.29368943 50.6941328 -32.71875 47.328125 C-33.6538054 46.30934317 -34.58068533 45.28300801 -35.5 44.25 C-35.98122314 43.71286377 -36.46244629 43.17572754 -36.95825195 42.62231445 C-38.31679909 41.09149531 -39.65892914 39.54615216 -41 38 C-41.60199219 37.30777344 -42.20398438 36.61554688 -42.82421875 35.90234375 C-45.08349274 33.06044896 -46.00528122 30.9693689 -46.625 27.375 C-45.8209941 23.03336816 -44.56754825 21.5593281 -41 19 C-38.125 18.3125 -38.125 18.3125 -35 19 C-31.25603978 21.50641688 -28.49693846 24.2545923 -26 28 C-24.79019885 25.89666551 -23.58192354 23.79248548 -22.375 21.6875 C-22.01253174 21.05610107 -21.65006348 20.42470215 -21.27661133 19.77416992 C-18.52802847 14.96884085 -15.89087906 10.11236771 -13.32421875 5.20703125 C-9.90110967 -0.49815054 -6.48486458 -1.62121614 0 0 Z " fill="#FEFEFE" transform="translate(175,252)"/>
<path d="M0 0 C1.90625 0.375 1.90625 0.375 4.40625 1.875 C6.48948539 5.34705899 6.42559125 8.46447735 5.90625 12.375 C4.87490922 15.44998015 3.44104905 18.24684848 1.92578125 21.109375 C1.51591476 21.90982239 1.10604828 22.71026978 0.6837616 23.53497314 C-0.18192469 25.21633143 -1.05558747 26.89360434 -1.93676758 28.56689453 C-3.27934667 31.12137859 -4.59139633 33.68989241 -5.90039062 36.26171875 C-6.74822993 37.89935512 -7.5977822 39.53610602 -8.44921875 41.171875 C-8.83901413 41.93546326 -9.22880951 42.69905151 -9.63041687 43.48577881 C-11.88137509 47.71884132 -13.89543718 50.79700717 -18.09375 53.375 C-22.27607084 53.4496843 -24.30311981 53.09399591 -27.421875 50.2578125 C-30.47479055 46.9638773 -33.43010199 43.60460924 -36.34375 40.1875 C-36.88515625 39.55908203 -37.4265625 38.93066406 -37.984375 38.28320312 C-41.8632871 33.74972461 -43.52639689 31.46322402 -43.4375 25.3515625 C-43.09375 23.375 -43.09375 23.375 -40.96875 20.875 C-37.53690756 19.08447351 -35.90795233 18.67443223 -32.09375 19.375 C-28.39089452 22.04105595 -25.30397186 25.15100036 -22.09375 28.375 C-21.75118164 27.66891602 -21.40861328 26.96283203 -21.05566406 26.23535156 C-19.49349978 23.0276935 -17.91878751 19.82635531 -16.34375 16.625 C-15.80492187 15.51382813 -15.26609375 14.40265625 -14.7109375 13.2578125 C-13.91816406 11.65292969 -13.91816406 11.65292969 -13.109375 10.015625 C-12.62758789 9.03110352 -12.14580078 8.04658203 -11.64941406 7.03222656 C-8.53461386 1.71184279 -6.08955354 -0.36355543 0 0 Z " fill="#FEFEFE" transform="translate(172.09375,171.625)"/>
<path d="M0 0 C1.9375 0.34765625 1.9375 0.34765625 4.375 1.97265625 C6.32293788 4.93352182 6.71831541 6.80276704 6.9375 10.34765625 C5.99436742 12.8596824 5.03186401 14.959089 3.75 17.28515625 C3.39703857 17.95321289 3.04407715 18.62126953 2.68041992 19.30957031 C1.88755069 20.81007575 1.08875702 22.30746049 0.28515625 23.80224609 C-1.21590497 26.63740266 -2.65674254 29.49905454 -4.09375 32.3671875 C-5.14535303 34.44425366 -6.19743404 36.52107789 -7.25 38.59765625 C-7.74846436 39.59788818 -8.24692871 40.59812012 -8.76049805 41.62866211 C-13.37539663 50.60629159 -13.37539663 50.60629159 -18.0625 53.34765625 C-21.78798478 53.96857038 -23.36679688 53.83894011 -26.46875 51.6484375 C-30.9150141 47.70438696 -34.39794469 43.00621391 -38.0625 38.34765625 C-38.89974609 37.34412109 -38.89974609 37.34412109 -39.75390625 36.3203125 C-42.08514264 33.39132319 -43.05627462 31.38846707 -43.625 27.66015625 C-43.0625 24.34765625 -43.0625 24.34765625 -41.5625 21.91015625 C-38.68577635 20.11220397 -36.40714578 19.72330877 -33.01953125 19.88671875 C-29.736952 20.65986117 -28.16703471 22.83390645 -26.0625 25.34765625 C-24.74781774 26.37205283 -23.41737488 27.3770421 -22.0625 28.34765625 C-21.68440186 27.60604248 -21.30630371 26.86442871 -20.91674805 26.1003418 C-19.50679568 23.34160777 -18.09169915 20.58559295 -16.6730957 17.83129883 C-15.7605016 16.05559008 -14.85384728 14.27683277 -13.94726562 12.49804688 C-13.37041016 11.37978516 -12.79355469 10.26152344 -12.19921875 9.109375 C-11.67030029 8.07772217 -11.14138184 7.04606934 -10.59643555 5.9831543 C-7.7104117 1.02459511 -5.99347459 -0.25340058 0 0 Z " fill="#FEFEFE" transform="translate(172.0625,91.65234375)"/>
<path d="M0 0 C1.04647705 -0.00004028 2.0929541 -0.00008057 3.17114258 -0.00012207 C5.38010678 0.0052311 7.58907062 0.02280496 9.79785156 0.05175781 C13.17572339 0.09360411 16.5516002 0.09282553 19.9296875 0.0859375 C22.07813883 0.09643064 24.2265799 0.10936941 26.375 0.125 C27.88767456 0.12530212 27.88767456 0.12530212 29.4309082 0.12561035 C38.26278863 0.27440301 38.26278863 0.27440301 42.1875 3.59375 C43.61412219 6.44699437 43.49783868 8.42829549 43.1875 11.59375 C40.31123191 16.21632371 40.31123191 16.21632371 37.32174683 17.22039795 C35.10518542 17.60814961 33.03931068 17.73452788 30.78955078 17.75488281 C29.92830597 17.76449036 29.06706116 17.7740979 28.17971802 17.78399658 C27.2567392 17.78824646 26.33376038 17.79249634 25.3828125 17.796875 C23.94770828 17.80542511 23.94770828 17.80542511 22.48361206 17.81414795 C20.46125388 17.82358484 18.43888042 17.83012672 16.41650391 17.83398438 C13.33078079 17.84369249 10.24572322 17.87472944 7.16015625 17.90625 C5.19271228 17.9127803 3.22526355 17.91803067 1.2578125 17.921875 C0.33888214 17.9342218 -0.58004822 17.9465686 -1.52682495 17.95928955 C-6.69839437 17.94139962 -10.35638246 17.53230153 -14.8125 14.59375 C-16.38185594 11.45503812 -16.16451103 9.05519178 -15.8125 5.59375 C-11.57841242 -0.57835019 -6.85373249 -0.11142722 0 0 Z " fill="#FEFEFE" transform="translate(208.8125,132.40625)"/>
<path d="M0 0 C1.0686731 -0.00478363 2.13734619 -0.00956726 3.23840332 -0.01449585 C5.49439977 -0.01789331 7.75044555 -0.0087018 10.00634766 0.01220703 C13.45717264 0.0389727 16.9047448 0.01245179 20.35546875 -0.01953125 C22.54948634 -0.01622713 24.7435019 -0.00982085 26.9375 0 C27.96782349 -0.01012115 28.99814697 -0.02024231 30.05969238 -0.03067017 C34.8370758 0.04739655 37.20679517 0.09542717 41.12304688 3.01806641 C42.96875 5.6640625 42.96875 5.6640625 43.53125 8.6640625 C42.78928103 12.62123033 42.02171454 13.98269785 38.96875 16.6640625 C35.17448211 17.42481281 31.42093559 17.34023168 27.5625 17.29296875 C25.88722229 17.29658669 25.88722229 17.29658669 24.17810059 17.30027771 C21.81775358 17.2992986 19.4573838 17.2858899 17.09716797 17.26098633 C13.48195473 17.22668778 9.86918616 17.24032334 6.25390625 17.25976562 C3.96092708 17.25286714 1.66795423 17.24319475 -0.625 17.23046875 C-2.24855408 17.23790855 -2.24855408 17.23790855 -3.90490723 17.24549866 C-4.91275269 17.22966232 -5.92059814 17.21382599 -6.95898438 17.19750977 C-8.28657776 17.1882119 -8.28657776 17.1882119 -9.64099121 17.1787262 C-12.82983254 16.49211399 -14.03549312 15.19805339 -16.03125 12.6640625 C-16.71708879 8.47282547 -16.60977191 6.50444975 -14.18554688 2.98291016 C-9.5728086 -0.40809512 -5.59079823 -0.05491997 0 0 Z " fill="#FEFEFE" transform="translate(209.03125,106.3359375)"/>
<path d="M0 0 C4.3090636 3.88920612 7.9118211 8.37991781 11.5625 12.875 C12.12646484 13.55691406 12.69042969 14.23882812 13.27148438 14.94140625 C22 25.66063596 22 25.66063596 22 31.1875 C20.8130882 34.52568943 19.93378506 35.99267338 17 38 C13.04439652 38.57536051 10.92426818 38.62862181 7.58203125 36.35546875 C4.72231951 33.74668482 2.41448857 30.91241498 0.125 27.8125 C-0.74392389 26.64778959 -1.61372014 25.48372952 -2.484375 24.3203125 C-2.90783203 23.75344727 -3.33128906 23.18658203 -3.76757812 22.60253906 C-4.8659364 21.17432517 -6.03058281 19.79765338 -7.203125 18.4296875 C-12.41957364 12.34383075 -12.41957364 12.34383075 -12.625 7.6875 C-12.01517743 4.08954685 -11.64770524 2.45157893 -9 0 C-5.37580435 -1.20806522 -3.66716248 -1.0268055 0 0 Z " fill="#FEFEFE" transform="translate(402,227)"/>
<path d="M0 0 C1.24245483 -0.00361794 1.24245483 -0.00361794 2.51000977 -0.00730896 C4.25834956 -0.00633103 6.00672052 0.00705004 7.75488281 0.03198242 C10.42880588 0.06629469 13.09942392 0.05264065 15.7734375 0.03320312 C17.47397238 0.04010179 19.17449874 0.04977436 20.875 0.0625 C22.07201538 0.0550602 22.07201538 0.0550602 23.29321289 0.04747009 C26.91793994 0.12425481 29.0154341 0.30634881 31.93725586 2.53930664 C33.55383217 4.79093832 34.00535855 5.88532944 34 8.62890625 C34.02191406 9.28890625 34.04382813 9.94890625 34.06640625 10.62890625 C33.05883888 13.83309565 31.22813713 14.83533454 28.4375 16.62890625 C25.57561354 17.03140509 23.10733806 17.21431076 20.25 17.1953125 C19.07981323 17.20461037 19.07981323 17.20461037 17.88598633 17.21409607 C16.24203739 17.22117745 14.59801649 17.21804956 12.95410156 17.20532227 C10.44461733 17.19144561 7.93885767 17.22555728 5.4296875 17.26367188 C3.82812409 17.26462309 2.22655604 17.26276412 0.625 17.2578125 C-0.49394653 17.27769981 -0.49394653 17.27769981 -1.63549805 17.29798889 C-5.60266509 17.22738571 -7.38983189 16.76533275 -10.5390625 14.27709961 C-12.5625 11.62890625 -12.5625 11.62890625 -13.125 8.62890625 C-11.67149594 0.87688459 -7.11514632 -0.11821164 0 0 Z " fill="#FEFEFE" transform="translate(31.5625,188.37109375)"/>
<path d="M0 0 C1.24245483 -0.00361794 1.24245483 -0.00361794 2.51000977 -0.00730896 C4.25834956 -0.00633103 6.00672052 0.00705004 7.75488281 0.03198242 C10.42880588 0.06629469 13.09942392 0.05264065 15.7734375 0.03320312 C17.47397238 0.04010179 19.17449874 0.04977436 20.875 0.0625 C22.07201538 0.0550602 22.07201538 0.0550602 23.29321289 0.04747009 C26.91793994 0.12425481 29.0154341 0.30634881 31.93725586 2.53930664 C33.55383217 4.79093832 34.00535855 5.88532944 34 8.62890625 C34.02191406 9.28890625 34.04382813 9.94890625 34.06640625 10.62890625 C33.05816477 13.8352394 31.23172695 14.83641791 28.4375 16.62890625 C25.56318252 17.01949359 23.08283223 17.1911559 20.21484375 17.16015625 C19.04109947 17.16589661 19.04109947 17.16589661 17.84364319 17.17175293 C16.19547228 17.17446602 14.54725788 17.16714702 12.89916992 17.15039062 C10.37906946 17.12894089 7.86181003 17.1502248 5.34179688 17.17578125 C3.73697289 17.17313843 2.13215067 17.16801438 0.52734375 17.16015625 C-0.22378189 17.16825317 -0.97490753 17.1763501 -1.74879456 17.18469238 C-5.2061301 17.12279844 -7.19743034 16.90061993 -10.00561523 14.81054688 C-12.22662941 11.69827109 -12.5625 9.43238602 -12.5625 5.62890625 C-9.50134447 0.02137951 -5.90421109 -0.09809306 0 0 Z " fill="#FEFEFE" transform="translate(415.5625,188.37109375)"/>
<path d="M0 0 C2.4375 2.125 2.4375 2.125 4 5 C3.7921428 10.6456698 2.03660185 14.0214686 -1.5 18.25 C-1.9441626 18.80212158 -2.3883252 19.35424316 -2.84594727 19.9230957 C-3.76505688 21.06191798 -4.69031249 22.19580681 -5.62158203 23.32470703 C-6.95172712 24.94133041 -8.25817537 26.57426144 -9.55859375 28.21484375 C-17.16594021 37.72090395 -17.16594021 37.72090395 -21.875 38.4375 C-25 38 -25 38 -27.875 35.875 C-30 33 -30 33 -30.5625 30.0625 C-29.42841559 23.88804042 -24.46660629 18.90756034 -20.625 14.0625 C-20.13966797 13.44930908 -19.65433594 12.83611816 -19.15429688 12.2043457 C-17.77383889 10.4660682 -16.38833349 8.73199084 -15 7 C-14.35804687 6.19820312 -13.71609375 5.39640625 -13.0546875 4.5703125 C-8.92969617 -0.42528001 -6.37525708 -1.82150202 0 0 Z " fill="#FEFEFE" transform="translate(75,227)"/>
<path d="M0 0 C5.7298239 1.71788016 9.97681844 8.96861113 13.66015625 13.50390625 C14.22412109 14.18582031 14.78808594 14.86773437 15.36914062 15.5703125 C24.09765625 26.28954221 24.09765625 26.28954221 24.09765625 32.37890625 C23.09765625 35.62890625 23.09765625 35.62890625 21.47265625 37.56640625 C18.07145754 39.08799515 15.78482894 39.14640417 12.09765625 38.62890625 C7.73118411 34.78611573 4.17975714 30.2083627 0.53515625 25.69140625 C-0.31079102 24.6559668 -0.31079102 24.6559668 -1.17382812 23.59960938 C-9.70280699 13.07554773 -9.70280699 13.07554773 -10.40234375 8.00390625 C-9.90234375 4.62890625 -9.90234375 4.62890625 -8.40234375 2.19140625 C-5.5826295 0.42908484 -3.30586784 0.11172913 0 0 Z " fill="#FEFEFE" transform="translate(54.90234375,128.37109375)"/>
<path d="M0 0 C1.98828125 0.46459961 1.98828125 0.46459961 4.55078125 2.58959961 C6.25570807 5.99945324 6.42093028 7.68582458 5.98828125 11.46459961 C4.58222514 13.75127541 3.25557663 15.61978196 1.55078125 17.65209961 C1.10210693 18.20945801 0.65343262 18.76681641 0.19116211 19.34106445 C-0.73844988 20.49185717 -1.67463396 21.63737074 -2.6171875 22.77758789 C-3.95028586 24.39028216 -5.26491648 26.0161542 -6.57421875 27.64819336 C-15.21213847 38.34614327 -15.21213847 38.34614327 -19.38671875 38.96459961 C-23.01171875 38.46459961 -23.01171875 38.46459961 -25.94921875 36.33959961 C-28.40954131 32.91005907 -28.44552186 31.59605781 -28.01171875 27.46459961 C-26.20755276 24.07429373 -23.76911111 21.20040256 -21.37304688 18.20532227 C-19.83301497 16.23609209 -18.37045446 14.21842607 -16.90234375 12.19506836 C-15.79468708 10.72111924 -14.68531438 9.2484581 -13.57421875 7.77709961 C-13.06157471 7.05731934 -12.54893066 6.33753906 -12.02075195 5.59594727 C-8.38691545 0.91796992 -5.9515963 -0.3295735 0 0 Z " fill="#FEFEFE" transform="translate(418.01171875,128.535400390625)"/>
</svg>
