<?xml version="1.0" encoding="UTF-8"?>
<svg xmlns="http://www.w3.org/2000/svg" xmlns:xlink="http://www.w3.org/1999/xlink" width="px" height="55px" viewBox="0 0 72 55" version="1.1">
<g id="surface1">
<path style=" stroke:none;fill-rule:nonzero;fill:rgb(99.607843%,99.607843%,99.607843%);fill-opacity:1;" d="M 20.621094 3.308594 C 20.722656 3.308594 20.828125 3.304688 20.933594 3.304688 C 21.28125 3.300781 21.628906 3.300781 21.980469 3.300781 C 22.230469 3.296875 22.476562 3.296875 22.726562 3.292969 C 23.546875 3.289062 24.367188 3.285156 25.191406 3.28125 C 25.328125 3.28125 25.46875 3.28125 25.613281 3.28125 C 26.929688 3.273438 28.246094 3.269531 29.5625 3.265625 C 31.246094 3.261719 32.929688 3.253906 34.617188 3.242188 C 35.800781 3.234375 36.984375 3.230469 38.167969 3.226562 C 38.875 3.226562 39.582031 3.222656 40.289062 3.214844 C 40.957031 3.210938 41.621094 3.207031 42.285156 3.210938 C 42.53125 3.210938 42.773438 3.207031 43.019531 3.203125 C 45.089844 3.175781 45.089844 3.175781 45.761719 3.777344 C 45.847656 3.875 45.9375 3.972656 46.03125 4.070312 C 46.414062 4.46875 46.84375 4.765625 47.296875 5.074219 C 50.882812 7.582031 55.007812 10.835938 55.890625 15.355469 C 56.640625 19.878906 56.316406 24.601562 56.082031 29.152344 C 55.984375 31.125 55.941406 33.09375 55.902344 35.066406 C 55.84375 37.972656 55.765625 40.875 55.628906 43.777344 C 55.617188 44.085938 55.601562 44.398438 55.589844 44.707031 C 55.574219 45.132812 55.550781 45.554688 55.53125 45.976562 C 55.523438 46.101562 55.519531 46.226562 55.515625 46.351562 C 55.484375 46.890625 55.4375 47.214844 55.109375 47.652344 C 54.722656 47.929688 54.511719 47.949219 54.039062 47.9375 C 53.828125 47.933594 53.828125 47.933594 53.613281 47.933594 C 53.394531 47.925781 53.394531 47.925781 53.167969 47.917969 C 53.019531 47.914062 52.871094 47.910156 52.71875 47.910156 C 52.355469 47.902344 51.988281 47.890625 51.621094 47.878906 C 51.625 47.980469 51.628906 48.082031 51.632812 48.1875 C 51.648438 48.648438 51.660156 49.113281 51.667969 49.574219 C 51.679688 49.8125 51.679688 49.8125 51.6875 50.058594 C 51.691406 50.214844 51.695312 50.367188 51.695312 50.527344 C 51.703125 50.742188 51.703125 50.742188 51.707031 50.957031 C 51.582031 51.554688 51.34375 51.75 50.867188 52.121094 C 50.394531 52.230469 49.933594 52.222656 49.453125 52.21875 C 49.238281 52.21875 49.238281 52.21875 49.019531 52.222656 C 48.539062 52.222656 48.058594 52.222656 47.578125 52.21875 C 47.234375 52.21875 46.890625 52.222656 46.546875 52.222656 C 45.613281 52.226562 44.679688 52.226562 43.746094 52.222656 C 42.769531 52.222656 41.789062 52.222656 40.8125 52.222656 C 39.066406 52.226562 37.320312 52.222656 35.574219 52.21875 C 33.992188 52.214844 32.410156 52.214844 30.828125 52.21875 C 28.988281 52.222656 27.148438 52.226562 25.3125 52.222656 C 24.335938 52.222656 23.363281 52.222656 22.390625 52.222656 C 21.476562 52.226562 20.5625 52.226562 19.648438 52.222656 C 19.3125 52.21875 18.972656 52.21875 18.636719 52.222656 C 18.179688 52.222656 17.722656 52.222656 17.265625 52.21875 C 17.128906 52.21875 16.996094 52.222656 16.859375 52.222656 C 16.25 52.210938 15.917969 52.164062 15.390625 51.84375 C 14.945312 51.121094 14.988281 50.476562 15 49.644531 C 14.996094 49.46875 14.996094 49.292969 14.996094 49.109375 C 14.992188 48.625 14.992188 48.136719 14.996094 47.648438 C 14.996094 47.121094 14.996094 46.597656 14.992188 46.070312 C 14.988281 45.042969 14.988281 44.011719 14.992188 42.980469 C 14.992188 42.144531 14.996094 41.308594 14.992188 40.46875 C 14.992188 40.351562 14.992188 40.230469 14.992188 40.109375 C 14.992188 39.867188 14.992188 39.625 14.992188 39.382812 C 14.988281 37.113281 14.992188 34.84375 14.996094 32.574219 C 15 30.628906 15 28.679688 14.996094 26.734375 C 14.992188 24.472656 14.992188 22.210938 14.992188 19.949219 C 14.992188 19.710938 14.992188 19.46875 14.992188 19.226562 C 14.992188 19.109375 14.992188 18.988281 14.992188 18.867188 C 14.996094 18.03125 14.992188 17.195312 14.992188 16.359375 C 14.988281 15.339844 14.988281 14.320312 14.992188 13.300781 C 14.996094 12.78125 14.996094 12.261719 14.996094 11.742188 C 14.992188 11.179688 14.996094 10.617188 15 10.054688 C 14.996094 9.886719 14.996094 9.722656 14.992188 9.554688 C 15.007812 8.449219 15.007812 8.449219 15.453125 7.851562 C 15.882812 7.550781 16.070312 7.484375 16.582031 7.5 C 16.785156 7.503906 16.785156 7.503906 16.988281 7.507812 C 17.125 7.515625 17.265625 7.523438 17.40625 7.527344 C 17.546875 7.53125 17.6875 7.535156 17.832031 7.539062 C 18.175781 7.546875 18.523438 7.558594 18.867188 7.574219 C 18.867188 7.480469 18.863281 7.382812 18.859375 7.28125 C 18.851562 6.839844 18.84375 6.398438 18.839844 5.957031 C 18.835938 5.804688 18.832031 5.652344 18.828125 5.492188 C 18.8125 4.070312 18.8125 4.070312 19.320312 3.484375 C 19.757812 3.265625 20.132812 3.3125 20.621094 3.308594 Z M 21.433594 5.757812 C 21.433594 6.359375 21.433594 6.957031 21.433594 7.574219 C 21.789062 7.558594 21.789062 7.558594 22.152344 7.539062 C 24.421875 7.425781 26.6875 7.347656 28.957031 7.304688 C 30.125 7.28125 31.289062 7.246094 32.453125 7.183594 C 40.839844 6.726562 40.839844 6.726562 43.765625 9.347656 C 45.082031 10.566406 46.226562 11.957031 47.296875 13.394531 C 47.8125 14.074219 48.398438 14.609375 49.054688 15.152344 C 49.261719 15.34375 49.464844 15.542969 49.664062 15.742188 C 49.761719 15.839844 49.859375 15.9375 49.960938 16.039062 C 50.105469 16.183594 50.105469 16.183594 50.253906 16.335938 C 50.355469 16.4375 50.457031 16.539062 50.5625 16.640625 C 50.65625 16.738281 50.753906 16.835938 50.851562 16.933594 C 50.941406 17.023438 51.027344 17.109375 51.113281 17.199219 C 51.5625 17.6875 51.496094 18.1875 51.496094 18.816406 C 51.496094 18.929688 51.496094 19.042969 51.496094 19.160156 C 51.5 19.542969 51.5 19.925781 51.503906 20.308594 C 51.503906 20.582031 51.503906 20.851562 51.507812 21.125 C 51.511719 21.871094 51.515625 22.613281 51.515625 23.355469 C 51.519531 24.132812 51.523438 24.910156 51.527344 25.6875 C 51.535156 27.15625 51.542969 28.628906 51.550781 30.097656 C 51.558594 31.773438 51.566406 33.445312 51.574219 35.121094 C 51.589844 38.566406 51.605469 42.011719 51.621094 45.453125 C 52.070312 45.453125 52.519531 45.453125 52.980469 45.453125 C 53.191406 41.601562 53.347656 37.746094 53.441406 33.886719 C 53.488281 32.09375 53.550781 30.304688 53.652344 28.511719 C 54.332031 18.882812 54.332031 18.882812 50.359375 10.4375 C 47.34375 7.082031 43.890625 5.167969 39.375 4.914062 C 37.359375 4.832031 35.355469 4.953125 33.351562 5.113281 C 32.046875 5.214844 30.742188 5.261719 29.4375 5.308594 C 26.765625 5.398438 24.101562 5.558594 21.433594 5.757812 Z M 17.660156 10 C 17.660156 23.101562 17.660156 36.199219 17.660156 49.695312 C 28.070312 49.695312 38.480469 49.695312 49.207031 49.695312 C 49.207031 39.746094 49.207031 29.796875 49.207031 19.546875 C 44.800781 19.46875 44.800781 19.46875 40.300781 19.394531 C 38.089844 17.171875 39.601562 13.140625 39.546875 10 C 32.324219 10 25.101562 10 17.660156 10 Z M 42.113281 11.816406 C 42.113281 13.566406 42.113281 15.316406 42.113281 17.121094 C 43.855469 17.121094 45.601562 17.121094 47.394531 17.121094 C 46.714844 16.316406 46.714844 16.316406 46.003906 15.550781 C 45.917969 15.464844 45.835938 15.382812 45.746094 15.292969 C 45.617188 15.164062 45.617188 15.164062 45.484375 15.027344 C 45.390625 14.9375 45.296875 14.84375 45.203125 14.75 C 45.011719 14.554688 44.816406 14.359375 44.625 14.167969 C 44.328125 13.871094 44.03125 13.574219 43.734375 13.273438 C 43.546875 13.085938 43.359375 12.898438 43.171875 12.707031 C 43.082031 12.621094 42.992188 12.53125 42.902344 12.4375 C 42.5625 12.015625 42.5625 12.015625 42.113281 11.816406 Z M 42.113281 11.816406 "/>
<path style=" stroke:none;fill-rule:nonzero;fill:rgb(99.607843%,99.607843%,99.607843%);fill-opacity:1;" d="M 31.378906 31.339844 C 31.519531 31.339844 31.65625 31.339844 31.800781 31.339844 C 32.261719 31.339844 32.722656 31.339844 33.183594 31.339844 C 33.503906 31.335938 33.820312 31.335938 34.140625 31.335938 C 34.8125 31.335938 35.484375 31.335938 36.152344 31.335938 C 37.015625 31.335938 37.875 31.332031 38.734375 31.332031 C 39.394531 31.328125 40.054688 31.328125 40.714844 31.328125 C 41.03125 31.328125 41.351562 31.328125 41.667969 31.328125 C 42.109375 31.324219 42.554688 31.324219 42.996094 31.328125 C 43.195312 31.324219 43.195312 31.324219 43.394531 31.324219 C 43.515625 31.324219 43.636719 31.324219 43.761719 31.328125 C 43.867188 31.324219 43.972656 31.324219 44.078125 31.324219 C 44.433594 31.371094 44.675781 31.484375 44.980469 31.667969 C 45.328125 32.152344 45.355469 32.59375 45.28125 33.183594 C 45 33.53125 44.777344 33.738281 44.378906 33.9375 C 43.929688 33.957031 43.484375 33.964844 43.039062 33.964844 C 42.898438 33.964844 42.761719 33.964844 42.617188 33.964844 C 42.15625 33.96875 41.699219 33.96875 41.238281 33.96875 C 40.917969 33.972656 40.597656 33.972656 40.28125 33.972656 C 39.609375 33.972656 38.941406 33.976562 38.269531 33.976562 C 37.410156 33.976562 36.550781 33.980469 35.691406 33.984375 C 35.035156 33.988281 34.375 33.988281 33.714844 33.988281 C 33.398438 33.988281 33.082031 33.988281 32.765625 33.992188 C 32.320312 33.996094 31.878906 33.996094 31.433594 33.992188 C 31.304688 33.996094 31.171875 33.996094 31.039062 33.996094 C 30.328125 33.992188 29.855469 33.949219 29.28125 33.484375 C 29.050781 33.015625 29.085938 32.636719 29.132812 32.121094 C 29.78125 31.292969 30.390625 31.339844 31.378906 31.339844 Z M 31.378906 31.339844 "/>
<path style=" stroke:none;fill-rule:nonzero;fill:rgb(99.607843%,99.607843%,99.607843%);fill-opacity:1;" d="M 31.378906 38.613281 C 31.519531 38.613281 31.65625 38.613281 31.800781 38.613281 C 32.261719 38.613281 32.722656 38.609375 33.183594 38.609375 C 33.503906 38.609375 33.820312 38.609375 34.140625 38.609375 C 34.8125 38.609375 35.484375 38.609375 36.152344 38.609375 C 37.015625 38.609375 37.875 38.605469 38.734375 38.605469 C 39.394531 38.601562 40.054688 38.601562 40.714844 38.601562 C 41.03125 38.601562 41.351562 38.601562 41.667969 38.601562 C 42.109375 38.597656 42.554688 38.597656 42.996094 38.597656 C 43.195312 38.597656 43.195312 38.597656 43.394531 38.597656 C 43.515625 38.597656 43.636719 38.597656 43.761719 38.597656 C 43.867188 38.597656 43.972656 38.597656 44.078125 38.597656 C 44.554688 38.660156 44.886719 38.816406 45.179688 39.195312 C 45.332031 39.707031 45.253906 40.089844 45.132812 40.605469 C 44.894531 40.917969 44.726562 41.039062 44.378906 41.210938 C 43.929688 41.226562 43.484375 41.234375 43.035156 41.234375 C 42.898438 41.234375 42.757812 41.234375 42.617188 41.234375 C 42.15625 41.238281 41.691406 41.238281 41.230469 41.238281 C 40.914062 41.238281 40.59375 41.238281 40.273438 41.238281 C 39.601562 41.238281 38.933594 41.242188 38.261719 41.238281 C 37.402344 41.238281 36.539062 41.242188 35.679688 41.246094 C 35.019531 41.246094 34.359375 41.246094 33.699219 41.246094 C 33.382812 41.246094 33.066406 41.246094 32.746094 41.25 C 32.304688 41.25 31.859375 41.25 31.417969 41.25 C 31.21875 41.25 31.21875 41.25 31.019531 41.25 C 30.898438 41.25 30.777344 41.25 30.652344 41.25 C 30.546875 41.25 30.441406 41.25 30.335938 41.25 C 29.976562 41.203125 29.742188 41.101562 29.433594 40.910156 C 29.058594 40.34375 29.0625 40.0625 29.132812 39.394531 C 29.78125 38.566406 30.390625 38.613281 31.378906 38.613281 Z M 31.378906 38.613281 "/>
<path style=" stroke:none;fill-rule:nonzero;fill:rgb(99.607843%,99.607843%,99.607843%);fill-opacity:1;" d="M 31.167969 42.628906 C 31.382812 42.628906 31.382812 42.628906 31.605469 42.625 C 32.085938 42.621094 32.5625 42.625 33.042969 42.625 C 33.375 42.625 33.707031 42.625 34.039062 42.625 C 34.738281 42.625 35.433594 42.625 36.132812 42.628906 C 37.027344 42.632812 37.921875 42.628906 38.816406 42.625 C 39.503906 42.625 40.191406 42.625 40.878906 42.625 C 41.207031 42.625 41.535156 42.625 41.867188 42.625 C 42.328125 42.621094 42.789062 42.625 43.25 42.628906 C 43.453125 42.625 43.453125 42.625 43.664062 42.625 C 44.585938 42.640625 44.585938 42.640625 45.066406 43.082031 C 45.335938 43.582031 45.386719 43.835938 45.28125 44.394531 C 44.980469 44.804688 44.738281 45.101562 44.226562 45.222656 C 43.851562 45.25 43.484375 45.253906 43.109375 45.25 C 42.96875 45.25 42.828125 45.253906 42.679688 45.253906 C 42.214844 45.257812 41.746094 45.253906 41.277344 45.253906 C 40.953125 45.253906 40.628906 45.253906 40.300781 45.253906 C 39.621094 45.253906 38.9375 45.253906 38.257812 45.25 C 37.382812 45.246094 36.511719 45.25 35.636719 45.253906 C 34.964844 45.253906 34.292969 45.253906 33.621094 45.253906 C 33.300781 45.253906 32.976562 45.253906 32.65625 45.253906 C 32.203125 45.257812 31.753906 45.253906 31.304688 45.25 C 31.171875 45.25 31.039062 45.253906 30.902344 45.253906 C 30.238281 45.242188 29.96875 45.214844 29.425781 44.796875 C 29.132812 44.394531 29.132812 44.394531 29.046875 43.9375 C 29.285156 42.660156 30.050781 42.617188 31.167969 42.628906 Z M 31.167969 42.628906 "/>
<path style=" stroke:none;fill-rule:nonzero;fill:rgb(99.607843%,99.607843%,99.607843%);fill-opacity:1;" d="M 31.308594 27.328125 C 31.449219 27.328125 31.589844 27.328125 31.738281 27.324219 C 32.207031 27.324219 32.671875 27.324219 33.140625 27.328125 C 33.46875 27.328125 33.792969 27.328125 34.121094 27.328125 C 34.800781 27.328125 35.484375 27.328125 36.167969 27.332031 C 37.042969 27.339844 37.914062 27.339844 38.789062 27.335938 C 39.464844 27.332031 40.136719 27.335938 40.808594 27.335938 C 41.128906 27.339844 41.453125 27.339844 41.777344 27.335938 C 42.226562 27.335938 42.675781 27.339844 43.128906 27.34375 C 43.261719 27.34375 43.394531 27.339844 43.53125 27.339844 C 44.433594 27.355469 44.433594 27.355469 44.910156 27.703125 C 45.203125 28.132812 45.273438 28.421875 45.28125 28.9375 C 45.109375 29.292969 44.957031 29.570312 44.679688 29.847656 C 44.21875 29.867188 43.761719 29.875 43.300781 29.875 C 43.15625 29.875 43.011719 29.878906 42.859375 29.878906 C 42.378906 29.882812 41.898438 29.882812 41.417969 29.882812 C 41.253906 29.886719 41.089844 29.886719 40.921875 29.886719 C 40.050781 29.890625 39.183594 29.890625 38.316406 29.894531 C 37.417969 29.894531 36.519531 29.898438 35.621094 29.90625 C 34.933594 29.910156 34.246094 29.910156 33.554688 29.910156 C 33.226562 29.914062 32.894531 29.914062 32.5625 29.917969 C 32.097656 29.921875 31.636719 29.921875 31.171875 29.917969 C 30.96875 29.921875 30.96875 29.921875 30.757812 29.925781 C 29.832031 29.917969 29.832031 29.917969 29.347656 29.574219 C 29.023438 29.078125 29.042969 28.761719 29.132812 28.183594 C 29.757812 27.316406 30.320312 27.316406 31.308594 27.328125 Z M 31.308594 27.328125 "/>
<path style=" stroke:none;fill-rule:nonzero;fill:rgb(99.607843%,99.607843%,99.607843%);fill-opacity:1;" d="M 26.414062 38.183594 C 26.785156 38.425781 26.855469 38.601562 26.992188 39.027344 C 27.03125 39.753906 26.769531 40.222656 26.445312 40.863281 C 26.382812 40.984375 26.320312 41.109375 26.257812 41.238281 C 26.0625 41.636719 25.863281 42.03125 25.660156 42.425781 C 25.558594 42.625 25.558594 42.625 25.457031 42.828125 C 25.257812 43.21875 25.058594 43.605469 24.859375 43.996094 C 24.796875 44.117188 24.734375 44.234375 24.671875 44.359375 C 23.828125 45.964844 23.828125 45.964844 23.105469 46.210938 C 22.363281 46.210938 21.992188 45.863281 21.476562 45.351562 C 21.335938 45.199219 21.195312 45.042969 21.054688 44.886719 C 20.984375 44.804688 20.910156 44.722656 20.835938 44.640625 C 20.632812 44.40625 20.429688 44.171875 20.226562 43.9375 C 20.136719 43.835938 20.042969 43.730469 19.949219 43.621094 C 19.609375 43.191406 19.472656 42.875 19.378906 42.328125 C 19.5 41.671875 19.6875 41.449219 20.226562 41.0625 C 20.660156 40.957031 20.660156 40.957031 21.132812 41.0625 C 21.695312 41.441406 22.113281 41.855469 22.492188 42.425781 C 22.671875 42.105469 22.855469 41.785156 23.039062 41.46875 C 23.09375 41.371094 23.148438 41.277344 23.203125 41.179688 C 23.617188 40.449219 24.015625 39.714844 24.402344 38.972656 C 24.921875 38.105469 25.4375 37.9375 26.414062 38.183594 Z M 26.414062 38.183594 "/>
<path style=" stroke:none;fill-rule:nonzero;fill:rgb(99.607843%,99.607843%,99.607843%);fill-opacity:1;" d="M 25.976562 26.003906 C 26.265625 26.0625 26.265625 26.0625 26.640625 26.289062 C 26.957031 26.8125 26.945312 27.285156 26.867188 27.878906 C 26.710938 28.34375 26.496094 28.769531 26.265625 29.203125 C 26.207031 29.324219 26.144531 29.445312 26.078125 29.570312 C 25.949219 29.824219 25.816406 30.078125 25.683594 30.332031 C 25.480469 30.71875 25.285156 31.109375 25.085938 31.496094 C 24.957031 31.746094 24.828125 31.992188 24.699219 32.242188 C 24.640625 32.359375 24.582031 32.472656 24.523438 32.59375 C 24.183594 33.234375 23.878906 33.699219 23.246094 34.089844 C 22.613281 34.101562 22.308594 34.046875 21.835938 33.617188 C 21.375 33.121094 20.929688 32.609375 20.492188 32.09375 C 20.410156 31.996094 20.328125 31.902344 20.242188 31.804688 C 19.65625 31.117188 19.40625 30.769531 19.417969 29.84375 C 19.472656 29.546875 19.472656 29.546875 19.792969 29.167969 C 20.308594 28.894531 20.554688 28.832031 21.132812 28.9375 C 21.691406 29.34375 22.15625 29.816406 22.640625 30.304688 C 22.691406 30.195312 22.746094 30.089844 22.796875 29.980469 C 23.035156 29.492188 23.273438 29.007812 23.507812 28.523438 C 23.589844 28.355469 23.671875 28.1875 23.757812 28.011719 C 23.875 27.769531 23.875 27.769531 23.996094 27.519531 C 24.070312 27.371094 24.144531 27.222656 24.21875 27.070312 C 24.6875 26.261719 25.058594 25.949219 25.976562 26.003906 Z M 25.976562 26.003906 "/>
<path style=" stroke:none;fill-rule:nonzero;fill:rgb(99.607843%,99.607843%,99.607843%);fill-opacity:1;" d="M 25.972656 13.886719 C 26.265625 13.9375 26.265625 13.9375 26.632812 14.1875 C 26.925781 14.632812 26.984375 14.917969 27.019531 15.453125 C 26.875 15.835938 26.730469 16.152344 26.539062 16.503906 C 26.484375 16.605469 26.429688 16.707031 26.375 16.8125 C 26.257812 17.039062 26.136719 17.265625 26.015625 17.492188 C 25.789062 17.921875 25.570312 18.355469 25.355469 18.789062 C 25.195312 19.105469 25.035156 19.421875 24.878906 19.734375 C 24.800781 19.886719 24.726562 20.039062 24.648438 20.195312 C 23.953125 21.554688 23.953125 21.554688 23.246094 21.96875 C 22.683594 22.0625 22.445312 22.042969 21.976562 21.710938 C 21.304688 21.113281 20.78125 20.402344 20.226562 19.695312 C 20.101562 19.542969 20.101562 19.542969 19.972656 19.390625 C 19.621094 18.945312 19.472656 18.640625 19.386719 18.078125 C 19.472656 17.574219 19.472656 17.574219 19.699219 17.207031 C 20.132812 16.933594 20.476562 16.875 20.988281 16.898438 C 21.484375 17.015625 21.71875 17.347656 22.039062 17.726562 C 22.234375 17.882812 22.4375 18.035156 22.640625 18.183594 C 22.699219 18.070312 22.753906 17.957031 22.8125 17.839844 C 23.027344 17.421875 23.242188 17.003906 23.453125 16.589844 C 23.59375 16.320312 23.730469 16.050781 23.867188 15.78125 C 23.953125 15.609375 24.039062 15.441406 24.128906 15.265625 C 24.210938 15.109375 24.289062 14.953125 24.371094 14.792969 C 24.808594 14.042969 25.066406 13.847656 25.972656 13.886719 Z M 25.972656 13.886719 "/>
<path style=" stroke:none;fill-rule:nonzero;fill:rgb(99.607843%,99.607843%,99.607843%);fill-opacity:1;" d="M 31.519531 20.0625 C 31.675781 20.0625 31.835938 20.0625 31.996094 20.0625 C 32.332031 20.0625 32.664062 20.066406 32.996094 20.070312 C 33.507812 20.074219 34.015625 20.074219 34.527344 20.074219 C 34.851562 20.074219 35.175781 20.078125 35.5 20.082031 C 35.726562 20.082031 35.726562 20.082031 35.960938 20.082031 C 37.292969 20.101562 37.292969 20.101562 37.886719 20.605469 C 38.101562 21.039062 38.085938 21.339844 38.039062 21.816406 C 37.605469 22.519531 37.605469 22.519531 37.152344 22.671875 C 36.816406 22.730469 36.507812 22.75 36.167969 22.75 C 36.035156 22.753906 35.90625 22.753906 35.773438 22.757812 C 35.632812 22.757812 35.492188 22.757812 35.351562 22.757812 C 35.132812 22.757812 35.132812 22.757812 34.914062 22.761719 C 34.605469 22.761719 34.300781 22.761719 33.996094 22.765625 C 33.53125 22.765625 33.066406 22.769531 32.601562 22.773438 C 32.300781 22.777344 32.003906 22.777344 31.707031 22.777344 C 31.570312 22.777344 31.429688 22.78125 31.289062 22.78125 C 30.507812 22.78125 29.957031 22.71875 29.28125 22.273438 C 29.046875 21.796875 29.078125 21.433594 29.132812 20.910156 C 29.769531 19.972656 30.484375 20.042969 31.519531 20.0625 Z M 31.519531 20.0625 "/>
<path style=" stroke:none;fill-rule:nonzero;fill:rgb(99.607843%,99.607843%,99.607843%);fill-opacity:1;" d="M 31.550781 16.113281 C 31.714844 16.109375 31.875 16.109375 32.039062 16.109375 C 32.382812 16.109375 32.722656 16.109375 33.0625 16.113281 C 33.582031 16.117188 34.105469 16.113281 34.625 16.109375 C 34.957031 16.109375 35.285156 16.109375 35.617188 16.113281 C 35.773438 16.109375 35.929688 16.109375 36.089844 16.105469 C 36.808594 16.117188 37.167969 16.125 37.757812 16.570312 C 38.039062 16.96875 38.039062 16.96875 38.121094 17.425781 C 38.011719 18.023438 37.894531 18.230469 37.433594 18.636719 C 36.859375 18.75 36.292969 18.738281 35.710938 18.730469 C 35.460938 18.730469 35.460938 18.730469 35.203125 18.734375 C 34.84375 18.734375 34.488281 18.730469 34.132812 18.726562 C 33.585938 18.722656 33.042969 18.722656 32.496094 18.726562 C 32.148438 18.726562 31.804688 18.722656 31.457031 18.722656 C 31.210938 18.722656 31.210938 18.722656 30.960938 18.722656 C 30.808594 18.722656 30.660156 18.71875 30.5 18.71875 C 30.300781 18.714844 30.300781 18.714844 30.097656 18.714844 C 29.617188 18.609375 29.433594 18.414062 29.132812 18.03125 C 29.027344 17.394531 29.042969 17.097656 29.410156 16.5625 C 30.105469 16.050781 30.707031 16.101562 31.550781 16.113281 Z M 31.550781 16.113281 "/>
<path style=" stroke:none;fill-rule:nonzero;fill:rgb(99.607843%,99.607843%,99.607843%);fill-opacity:1;" d="M 60.679688 34.394531 C 61.328125 34.984375 61.875 35.664062 62.425781 36.34375 C 62.507812 36.449219 62.59375 36.550781 62.683594 36.65625 C 64 38.28125 64 38.28125 64 39.121094 C 63.820312 39.625 63.6875 39.847656 63.246094 40.152344 C 62.648438 40.238281 62.328125 40.246094 61.824219 39.902344 C 61.390625 39.507812 61.042969 39.078125 60.699219 38.609375 C 60.566406 38.429688 60.4375 38.253906 60.304688 38.078125 C 60.242188 37.992188 60.175781 37.90625 60.109375 37.820312 C 59.945312 37.601562 59.769531 37.394531 59.59375 37.1875 C 58.804688 36.265625 58.804688 36.265625 58.773438 35.558594 C 58.867188 35.011719 58.921875 34.765625 59.320312 34.394531 C 59.867188 34.210938 60.125 34.238281 60.679688 34.394531 Z M 60.679688 34.394531 "/>
<path style=" stroke:none;fill-rule:nonzero;fill:rgb(99.607843%,99.607843%,99.607843%);fill-opacity:1;" d="M 4.765625 28.542969 C 4.953125 28.539062 4.953125 28.539062 5.144531 28.539062 C 5.40625 28.539062 5.671875 28.542969 5.933594 28.546875 C 6.339844 28.550781 6.742188 28.550781 7.144531 28.546875 C 7.402344 28.546875 7.660156 28.546875 7.914062 28.550781 C 8.097656 28.550781 8.097656 28.550781 8.28125 28.546875 C 8.828125 28.558594 9.144531 28.585938 9.585938 28.925781 C 9.828125 29.265625 9.898438 29.433594 9.894531 29.847656 C 9.898438 29.949219 9.902344 30.046875 9.90625 30.152344 C 9.753906 30.636719 9.476562 30.789062 9.054688 31.0625 C 8.625 31.121094 8.253906 31.148438 7.820312 31.144531 C 7.644531 31.148438 7.644531 31.148438 7.464844 31.148438 C 7.214844 31.148438 6.96875 31.148438 6.71875 31.148438 C 6.339844 31.144531 5.960938 31.152344 5.582031 31.15625 C 5.34375 31.15625 5.101562 31.15625 4.859375 31.15625 C 4.691406 31.160156 4.691406 31.160156 4.515625 31.160156 C 3.917969 31.152344 3.648438 31.082031 3.171875 30.703125 C 2.867188 30.304688 2.867188 30.304688 2.78125 29.847656 C 3.003906 28.675781 3.691406 28.523438 4.765625 28.542969 Z M 4.765625 28.542969 "/>
<path style=" stroke:none;fill-rule:nonzero;fill:rgb(99.607843%,99.607843%,99.607843%);fill-opacity:1;" d="M 62.726562 28.542969 C 62.914062 28.539062 62.914062 28.539062 63.105469 28.539062 C 63.371094 28.539062 63.632812 28.542969 63.898438 28.546875 C 64.300781 28.550781 64.703125 28.550781 65.105469 28.546875 C 65.363281 28.546875 65.621094 28.546875 65.878906 28.550781 C 66.058594 28.550781 66.058594 28.550781 66.242188 28.546875 C 66.789062 28.558594 67.105469 28.585938 67.546875 28.925781 C 67.792969 29.265625 67.859375 29.433594 67.859375 29.847656 C 67.863281 29.949219 67.863281 30.046875 67.867188 30.152344 C 67.714844 30.636719 67.441406 30.789062 67.019531 31.0625 C 66.585938 31.121094 66.210938 31.144531 65.777344 31.140625 C 65.601562 31.140625 65.601562 31.140625 65.417969 31.144531 C 65.171875 31.144531 64.921875 31.140625 64.671875 31.140625 C 64.292969 31.136719 63.914062 31.140625 63.53125 31.144531 C 63.289062 31.144531 63.046875 31.140625 62.804688 31.140625 C 62.691406 31.140625 62.578125 31.144531 62.460938 31.144531 C 61.941406 31.136719 61.640625 31.101562 61.214844 30.785156 C 60.882812 30.3125 60.832031 29.96875 60.832031 29.394531 C 61.292969 28.542969 61.835938 28.527344 62.726562 28.542969 Z M 62.726562 28.542969 "/>
<path style=" stroke:none;fill-rule:nonzero;fill:rgb(99.607843%,99.607843%,99.607843%);fill-opacity:1;" d="M 11.320312 34.394531 C 11.6875 34.714844 11.6875 34.714844 11.925781 35.152344 C 11.894531 36.007812 11.628906 36.519531 11.09375 37.160156 C 11.027344 37.242188 10.960938 37.328125 10.890625 37.414062 C 10.753906 37.585938 10.613281 37.757812 10.472656 37.929688 C 10.269531 38.171875 10.074219 38.421875 9.878906 38.667969 C 8.730469 40.109375 8.730469 40.109375 8.019531 40.21875 C 7.546875 40.152344 7.546875 40.152344 7.113281 39.828125 C 6.792969 39.394531 6.792969 39.394531 6.707031 38.949219 C 6.878906 38.011719 7.628906 37.257812 8.207031 36.523438 C 8.28125 36.433594 8.355469 36.339844 8.429688 36.242188 C 8.636719 35.980469 8.847656 35.71875 9.054688 35.453125 C 9.152344 35.332031 9.25 35.210938 9.351562 35.085938 C 9.972656 34.328125 10.359375 34.117188 11.320312 34.394531 Z M 11.320312 34.394531 "/>
<path style=" stroke:none;fill-rule:nonzero;fill:rgb(99.607843%,99.607843%,99.607843%);fill-opacity:1;" d="M 8.289062 19.449219 C 9.152344 19.710938 9.792969 20.808594 10.347656 21.496094 C 10.433594 21.597656 10.519531 21.703125 10.605469 21.808594 C 11.925781 23.433594 11.925781 23.433594 11.925781 24.355469 C 11.773438 24.847656 11.773438 24.847656 11.527344 25.140625 C 11.015625 25.371094 10.667969 25.382812 10.113281 25.304688 C 9.453125 24.722656 8.917969 24.027344 8.367188 23.34375 C 8.238281 23.1875 8.238281 23.1875 8.109375 23.027344 C 6.824219 21.429688 6.824219 21.429688 6.71875 20.664062 C 6.792969 20.152344 6.792969 20.152344 7.019531 19.78125 C 7.445312 19.515625 7.789062 19.46875 8.289062 19.449219 Z M 8.289062 19.449219 "/>
<path style=" stroke:none;fill-rule:nonzero;fill:rgb(99.607843%,99.607843%,99.607843%);fill-opacity:1;" d="M 63.097656 19.476562 C 63.394531 19.546875 63.394531 19.546875 63.78125 19.867188 C 64.039062 20.382812 64.066406 20.640625 64 21.210938 C 63.789062 21.558594 63.585938 21.839844 63.332031 22.148438 C 63.261719 22.234375 63.195312 22.320312 63.125 22.40625 C 62.984375 22.578125 62.84375 22.753906 62.699219 22.925781 C 62.5 23.171875 62.300781 23.417969 62.105469 23.664062 C 60.800781 25.285156 60.800781 25.285156 60.167969 25.378906 C 59.621094 25.304688 59.621094 25.304688 59.179688 24.980469 C 58.808594 24.460938 58.800781 24.261719 58.867188 23.636719 C 59.140625 23.121094 59.507812 22.6875 59.871094 22.234375 C 60.101562 21.933594 60.324219 21.628906 60.542969 21.324219 C 60.710938 21.097656 60.878906 20.875 61.046875 20.652344 C 61.125 20.542969 61.203125 20.433594 61.28125 20.324219 C 61.832031 19.613281 62.199219 19.425781 63.097656 19.476562 Z M 63.097656 19.476562 "/>
</g>
</svg>
