<svg width="72" height="55" viewBox="0 0 72 55" fill="none" xmlns="http://www.w3.org/2000/svg">
<path d="M20.6193 3.30799C20.7228 3.30711 20.8264 3.30623 20.9331 3.30533C21.2819 3.30259 21.6307 3.30094 21.9794 3.29932C22.2288 3.29762 22.4782 3.29588 22.7277 3.29409C23.5484 3.28854 24.3691 3.28472 25.1899 3.28126C25.3295 3.28067 25.4691 3.28007 25.6129 3.27945C26.9296 3.27393 28.2462 3.26917 29.5629 3.26595C31.2472 3.26177 32.9313 3.25409 34.6155 3.24164C35.7996 3.23318 36.9837 3.22879 38.1679 3.22739C38.8751 3.22645 39.5822 3.2237 40.2894 3.21658C40.9552 3.20995 41.6209 3.20838 42.2868 3.21061C42.5307 3.21056 42.7745 3.20871 43.0184 3.20488C45.0894 3.17408 45.0894 3.17408 45.7606 3.77885C45.8493 3.87554 45.9381 3.97223 46.0295 4.07184C46.4121 4.46925 46.8453 4.76373 47.2985 5.07237C50.884 7.58178 55.0074 10.8351 55.8889 15.3572C56.6421 19.878 56.3174 24.5998 56.0827 29.1539C55.9833 31.1244 55.9423 33.095 55.9034 35.0675C55.8442 37.971 55.7661 40.8744 55.6302 43.7754C55.6159 44.0864 55.6025 44.3974 55.5901 44.7085C55.5728 45.132 55.5519 45.5551 55.5298 45.9783C55.5254 46.1018 55.5209 46.2253 55.5164 46.3526C55.484 46.8925 55.4388 47.2166 55.1085 47.6524C54.7207 47.9302 54.513 47.9496 54.0401 47.938C53.8285 47.9351 53.8285 47.9351 53.6126 47.9321C53.3934 47.9245 53.3934 47.9245 53.1698 47.9167C53.0213 47.9139 52.8729 47.9112 52.7199 47.9084C52.354 47.9013 51.9884 47.8913 51.6226 47.8788C51.6266 47.9804 51.6305 48.082 51.6346 48.1867C51.6503 48.649 51.6601 49.1113 51.6698 49.5739C51.6793 49.8137 51.6793 49.8137 51.689 50.0583C51.6914 50.2131 51.6938 50.3679 51.6963 50.5274C51.7023 50.7404 51.7023 50.7404 51.7083 50.9577C51.5827 51.5528 51.3443 51.7494 50.8679 52.1212C50.3962 52.2318 49.9355 52.2235 49.4528 52.2174C49.2381 52.2192 49.2381 52.2192 49.0191 52.221C48.5392 52.224 48.0595 52.2216 47.5796 52.2193C47.2357 52.2203 46.8918 52.2216 46.5479 52.2233C45.6136 52.2267 44.6793 52.2254 43.7449 52.223C42.7678 52.2211 41.7907 52.2228 40.8136 52.224C39.0675 52.2255 37.3214 52.2231 35.5753 52.2193C33.9923 52.2159 32.4093 52.2165 30.8262 52.22C28.9877 52.224 27.1491 52.2256 25.3106 52.2233C24.3374 52.2221 23.3643 52.222 22.3911 52.2245C21.4763 52.2267 20.5615 52.2252 19.6467 52.2208C19.3106 52.2198 18.9745 52.2201 18.6385 52.2217C18.1803 52.2238 17.7224 52.2212 17.2642 52.2174C17.1306 52.2191 16.9971 52.2208 16.8595 52.2226C16.2512 52.2128 15.9193 52.1636 15.3892 51.8439C14.9463 51.1226 14.99 50.4763 14.9985 49.6441C14.9973 49.4682 14.9961 49.2924 14.9949 49.1112C14.9924 48.6237 14.9933 48.1364 14.9957 47.6489C14.9974 47.123 14.9947 46.5971 14.9927 46.0712C14.9893 45.0411 14.99 44.0111 14.9922 42.981C14.9939 42.144 14.9942 41.3069 14.9933 40.4698C14.9932 40.3507 14.9931 40.2316 14.993 40.1089C14.9928 39.8669 14.9925 39.625 14.9923 39.383C14.9901 37.1139 14.9926 34.8447 14.9966 32.5755C15 30.6281 14.9994 28.6808 14.9959 26.7334C14.9919 24.4724 14.9903 22.2114 14.9926 19.9504C14.9929 19.7093 14.9931 19.4683 14.9933 19.2272C14.9935 19.1086 14.9936 18.99 14.9937 18.8678C14.9943 18.0316 14.9932 17.1955 14.9915 16.3593C14.9894 15.3404 14.9899 14.3216 14.9939 13.3027C14.9959 12.7828 14.9967 12.2629 14.9942 11.7429C14.9922 11.1795 14.9947 10.6163 14.9985 10.0529C14.9968 9.88824 14.9951 9.72354 14.9934 9.55384C15.0078 8.44872 15.0078 8.44872 15.455 7.85246C15.8824 7.55234 16.0692 7.48515 16.5831 7.50179C16.7838 7.50545 16.7838 7.50545 16.9885 7.50919C17.1262 7.51554 17.2638 7.52188 17.4057 7.52842C17.5462 7.53184 17.6868 7.53526 17.8317 7.53878C18.1773 7.54768 18.5225 7.56011 18.8679 7.57577C18.8655 7.47876 18.8632 7.38175 18.8607 7.2818C18.8513 6.84003 18.8454 6.39829 18.8396 5.95645C18.8358 5.80382 18.832 5.65118 18.8281 5.49392C18.8141 4.06981 18.8141 4.06981 19.3208 3.48486C19.7559 3.26648 20.1328 3.31122 20.6193 3.30799ZM21.434 5.75759C21.434 6.35759 21.434 6.95759 21.434 7.57577C21.7901 7.55742 21.7901 7.55742 22.1534 7.5387C24.4214 7.42624 26.6878 7.34915 28.958 7.30532C30.1248 7.28194 31.2888 7.24703 32.454 7.18248C40.8386 6.72838 40.8386 6.72838 43.7647 9.34618C45.0812 10.5659 46.2253 11.9554 47.2956 13.3939C47.8122 14.0761 48.3984 14.6107 49.0566 15.1515C49.2617 15.3456 49.465 15.5417 49.6645 15.7416C49.7621 15.8394 49.8597 15.9371 49.9602 16.0378C50.106 16.1851 50.106 16.1851 50.2547 16.3352C50.356 16.4363 50.4573 16.5374 50.5616 16.6415C50.6578 16.7383 50.754 16.8351 50.8532 16.9348C50.9396 17.0217 51.0259 17.1085 51.1149 17.1981C51.5607 17.688 51.4947 18.1887 51.4956 18.8164C51.4963 18.9298 51.4971 19.0433 51.4978 19.1603C51.5002 19.5425 51.5014 19.9247 51.5027 20.307C51.5041 20.5802 51.5056 20.8534 51.5072 21.1266C51.5113 21.8701 51.5145 22.6135 51.5175 23.357C51.5208 24.1333 51.5249 24.9096 51.529 25.6859C51.5365 27.1567 51.5433 28.6275 51.5498 30.0984C51.5572 31.7725 51.5655 33.4467 51.5739 35.1208C51.5911 38.5654 51.6072 42.01 51.6226 45.4546C52.0709 45.4546 52.5192 45.4546 52.9811 45.4546C53.1917 41.5999 53.3474 37.7462 53.4425 33.8869C53.488 32.0934 53.5498 30.3036 53.653 28.5124C54.3336 18.8817 54.3336 18.8817 50.3591 10.4377C47.3429 7.08381 43.8905 5.16633 39.3741 4.91502C37.3602 4.83359 35.3569 4.95275 33.3499 5.1137C32.0467 5.21637 30.7428 5.26341 29.4366 5.30773C26.7642 5.39954 24.1003 5.55701 21.434 5.75759ZM17.6604 10C17.6604 23.1 17.6604 36.2 17.6604 49.697C28.0709 49.697 38.4815 49.697 49.2075 49.697C49.2075 39.747 49.2075 29.797 49.2075 19.5455C44.7992 19.4705 44.7992 19.4705 40.3019 19.394C38.0889 17.1726 39.6021 13.141 39.5472 10C32.3245 10 25.1019 10 17.6604 10ZM42.1132 11.8182C42.1132 13.5682 42.1132 15.3182 42.1132 17.1212C43.8566 17.1212 45.6 17.1212 47.3962 17.1212C46.7163 16.3148 46.7163 16.3148 46.0022 15.5508C45.9181 15.4659 45.834 15.3811 45.7474 15.2936C45.6165 15.1626 45.6165 15.1626 45.4829 15.029C45.3907 14.9364 45.2986 14.8437 45.2036 14.7482C45.0109 14.5546 44.8179 14.3613 44.6248 14.168C44.3278 13.8708 44.0317 13.5726 43.7356 13.2745C43.5476 13.0859 43.3596 12.8974 43.1716 12.7089C43.0827 12.6195 42.9939 12.53 42.9024 12.4378C42.5629 12.0145 42.5629 12.0145 42.1132 11.8182Z" fill="#FEFEFE"/>
<path d="M31.3788 31.3416C31.5177 31.3411 31.6566 31.3406 31.7998 31.3401C32.2608 31.3386 32.7218 31.3383 33.1828 31.3382C33.5024 31.3377 33.822 31.3372 34.1416 31.3367C34.8124 31.3357 35.4831 31.3355 36.1539 31.3356C37.0141 31.3356 37.8743 31.3335 38.7345 31.3309C39.3948 31.3292 40.0552 31.3289 40.7156 31.329C41.0328 31.3288 41.35 31.3281 41.6671 31.327C42.1105 31.3255 42.5539 31.3259 42.9973 31.3268C43.1944 31.3256 43.1944 31.3256 43.3956 31.3242C43.5166 31.3249 43.6377 31.3255 43.7624 31.3262C43.8672 31.3261 43.972 31.326 44.08 31.3259C44.435 31.3709 44.6753 31.4825 44.9811 31.6667C45.3276 32.1536 45.356 32.5954 45.283 33.1818C45.0012 33.5307 44.7764 33.7391 44.3774 33.9394C43.93 33.9559 43.4862 33.9632 43.0387 33.9638C42.9 33.9646 42.7613 33.9653 42.6184 33.9661C42.1582 33.9683 41.6979 33.9693 41.2376 33.9702C40.9184 33.971 40.5991 33.9719 40.2798 33.9728C39.6097 33.9744 38.9396 33.9753 38.2695 33.9758C37.4107 33.9766 36.5519 33.9803 35.693 33.9846C35.0333 33.9874 34.3735 33.9882 33.7138 33.9884C33.3972 33.9889 33.0806 33.9901 32.7639 33.9921C32.3209 33.9947 31.878 33.9944 31.435 33.9934C31.3041 33.9948 31.1732 33.9962 31.0383 33.9976C30.3301 33.9927 29.8568 33.9501 29.283 33.4848C29.0497 33.0164 29.0878 32.6372 29.1321 32.1212C29.7827 31.2939 30.3899 31.3411 31.3788 31.3416Z" fill="#FEFEFE"/>
<path d="M31.3788 38.6144C31.5177 38.6139 31.6566 38.6133 31.7998 38.6128C32.2608 38.6114 32.7218 38.6111 33.1828 38.6109C33.5024 38.6104 33.822 38.6099 34.1416 38.6094C34.8124 38.6085 35.4831 38.6082 36.1539 38.6083C37.0141 38.6083 37.8743 38.6062 38.7344 38.6036C39.3948 38.6019 40.0552 38.6016 40.7156 38.6017C41.0328 38.6015 41.3499 38.6009 41.6671 38.5997C42.1105 38.5982 42.5539 38.5987 42.9973 38.5996C43.1944 38.5983 43.1944 38.5983 43.3956 38.597C43.5166 38.5976 43.6377 38.5983 43.7624 38.5989C43.8672 38.5988 43.972 38.5987 44.08 38.5987C44.5541 38.6588 44.8853 38.8157 45.1792 39.1951C45.3311 39.7078 45.2535 40.0904 45.1321 40.6061C44.8938 40.9181 44.7258 41.0372 44.3774 41.2121C43.9292 41.2279 43.4846 41.2344 43.0363 41.2341C42.8974 41.2346 42.7585 41.2352 42.6153 41.2357C42.1543 41.2371 41.6933 41.2374 41.2323 41.2376C40.9127 41.2381 40.5931 41.2386 40.2734 41.2391C39.6027 41.24 38.9319 41.2403 38.2612 41.2402C37.401 41.2402 36.5408 41.2423 35.6806 41.2449C35.0202 41.2466 34.3599 41.2469 33.6995 41.2468C33.3823 41.247 33.0651 41.2476 32.748 41.2488C32.3046 41.2503 31.8612 41.2498 31.4178 41.2489C31.2207 41.2502 31.2207 41.2502 31.0195 41.2515C30.8985 41.2509 30.7774 41.2502 30.6527 41.2496C30.5479 41.2497 30.4431 41.2498 30.3351 41.2498C29.9749 41.2042 29.7413 41.1024 29.434 40.9091C29.0596 40.3454 29.0621 40.0609 29.1321 39.3939C29.7827 38.5667 30.3899 38.6138 31.3788 38.6144Z" fill="#FEFEFE"/>
<path d="M31.1666 42.6292C31.3839 42.6273 31.3839 42.6273 31.6056 42.6252C32.0846 42.6219 32.5634 42.6241 33.0424 42.6267C33.3752 42.6261 33.7079 42.6254 34.0406 42.6245C34.738 42.6233 35.4353 42.625 36.1327 42.6285C37.0271 42.6328 37.9214 42.6303 38.8158 42.6258C39.5029 42.6231 40.1899 42.6239 40.877 42.6259C41.2068 42.6264 41.5366 42.6258 41.8664 42.624C42.3272 42.6221 42.7877 42.625 43.2485 42.6292C43.4534 42.6269 43.4534 42.6269 43.6625 42.6246C44.585 42.6403 44.585 42.6403 45.0652 43.0838C45.3354 43.5813 45.3873 43.8357 45.283 44.3939C44.9812 44.8056 44.7387 45.1024 44.2273 45.2218C43.8532 45.2503 43.4857 45.2539 43.1105 45.2495C42.9688 45.2509 42.8271 45.2522 42.6811 45.2536C42.2135 45.2569 41.746 45.2547 41.2783 45.2521C40.9529 45.2526 40.6275 45.2534 40.3022 45.2543C39.6205 45.2554 38.9389 45.2538 38.2573 45.2503C37.3837 45.246 36.5103 45.2484 35.6367 45.253C34.9649 45.2557 34.2931 45.2549 33.6213 45.2529C33.2992 45.2524 32.9771 45.253 32.6551 45.2548C32.2048 45.2567 31.7548 45.2538 31.3045 45.2495C31.1715 45.2511 31.0385 45.2526 30.9015 45.2542C30.2382 45.2427 29.9677 45.2141 29.4261 44.795C29.1321 44.3939 29.1321 44.3939 29.0472 43.9394C29.2862 42.6595 30.052 42.6167 31.1666 42.6292Z" fill="#FEFEFE"/>
<path d="M31.3069 27.3286C31.4489 27.3275 31.5908 27.3265 31.7371 27.3253C32.2055 27.3228 32.6737 27.3257 33.1421 27.329C33.4678 27.3288 33.7936 27.3285 34.1193 27.3279C34.8016 27.3274 35.4838 27.3296 36.1661 27.3338C37.041 27.339 37.9158 27.3381 38.7908 27.3352C39.4632 27.3336 40.1356 27.335 40.8081 27.3373C41.1307 27.338 41.4534 27.338 41.776 27.337C42.2266 27.3362 42.6771 27.3393 43.1277 27.3434C43.2612 27.3424 43.3948 27.3414 43.5324 27.3404C44.4337 27.3546 44.4337 27.3546 44.9089 27.7045C45.2013 28.1314 45.2725 28.4215 45.283 28.9394C45.1113 29.292 44.9557 29.571 44.6793 29.8485C44.2184 29.8662 43.7609 29.874 43.2999 29.8753C43.1551 29.8763 43.0103 29.8773 42.8611 29.8783C42.3797 29.8813 41.8983 29.8831 41.4169 29.8846C41.2529 29.8852 41.0889 29.8858 40.92 29.8865C40.0522 29.8896 39.1843 29.8918 38.3165 29.8932C37.4186 29.8949 36.5207 29.9001 35.6228 29.9061C34.9337 29.9101 34.2447 29.9113 33.5557 29.9119C33.2247 29.9126 32.8936 29.9144 32.5625 29.9172C32.0996 29.9209 31.6367 29.9208 31.1738 29.9197C30.9678 29.9226 30.9678 29.9226 30.7576 29.9256C29.8334 29.9179 29.8334 29.9179 29.3494 29.5736C29.0248 29.079 29.041 28.7606 29.1321 28.1818C29.7573 27.317 30.3203 27.3155 31.3069 27.3286Z" fill="#FEFEFE"/>
<path d="M26.4151 38.1818C26.7866 38.4262 26.8564 38.5997 26.9906 39.0258C27.0303 39.7547 26.7685 40.222 26.4434 40.8617C26.3824 40.986 26.3213 41.1102 26.2584 41.2382C26.062 41.6351 25.8617 42.0298 25.6604 42.4242C25.5597 42.6236 25.5597 42.6236 25.457 42.8269C25.2591 43.2175 25.0594 43.6071 24.8585 43.9962C24.797 44.1159 24.7354 44.2355 24.672 44.3588C23.8276 45.9648 23.8276 45.9648 23.1038 46.2121C22.3643 46.2121 21.9934 45.8627 21.4764 45.3527C21.3353 45.1984 21.1954 45.0429 21.0566 44.8864C20.984 44.805 20.9113 44.7236 20.8365 44.6397C20.6314 44.4078 20.4288 44.1736 20.2264 43.9394C20.1356 43.8345 20.0447 43.7296 19.9511 43.6216C19.61 43.191 19.4709 42.8741 19.3774 42.3295C19.4987 41.6717 19.6879 41.4484 20.2264 41.0606C20.6604 40.9564 20.6604 40.9564 21.1321 41.0606C21.6972 41.4404 22.1137 41.8567 22.4906 42.4242C22.6732 42.1055 22.8556 41.7867 23.0377 41.4678C23.0925 41.3721 23.1472 41.2765 23.2035 41.1779C23.6184 40.4498 24.0165 39.714 24.4039 38.9708C24.9206 38.1063 25.4363 37.9362 26.4151 38.1818Z" fill="#FEFEFE"/>
<path d="M25.9764 26.0038C26.2641 26.0606 26.2641 26.0606 26.6415 26.2879C26.956 26.8139 26.9463 27.2863 26.8679 27.8788C26.7122 28.3447 26.4958 28.7685 26.2671 29.2022C26.2052 29.3235 26.1434 29.4447 26.0796 29.5697C25.9489 29.8244 25.8171 30.0786 25.6841 30.3321C25.4814 30.7191 25.2834 31.1083 25.0858 31.498C24.9578 31.7461 24.8296 31.9941 24.7011 32.242C24.6422 32.3576 24.5834 32.4733 24.5228 32.5925C24.183 33.2339 23.879 33.7003 23.2453 34.0909C22.614 34.1022 22.308 34.0483 21.8373 33.6186C21.3764 33.1195 20.9304 32.6105 20.4906 32.0928C20.4088 31.9976 20.3271 31.9024 20.2429 31.8043C19.6574 31.1174 19.4064 30.7709 19.4198 29.8449C19.4717 29.5455 19.4717 29.5455 19.7924 29.1667C20.3105 28.8954 20.5563 28.8332 21.1321 28.9394C21.691 29.3433 22.1569 29.8145 22.6415 30.303C22.6932 30.196 22.7449 30.0891 22.7982 29.9788C23.034 29.4928 23.2717 29.0078 23.5094 28.5227C23.5908 28.3544 23.6721 28.186 23.7559 28.0125C23.8756 27.7694 23.8756 27.7694 23.9976 27.5213C24.0704 27.3721 24.1431 27.223 24.218 27.0693C24.6882 26.2632 25.0572 25.9487 25.9764 26.0038Z" fill="#FEFEFE"/>
<path d="M25.9717 13.8867C26.2642 13.9394 26.2642 13.9394 26.6321 14.1856C26.9261 14.6342 26.9858 14.9174 27.0189 15.4545C26.8765 15.8351 26.7312 16.1532 26.5377 16.5057C26.4845 16.6069 26.4312 16.7081 26.3763 16.8124C26.2566 17.0397 26.136 17.2666 26.0147 17.4931C25.7882 17.9227 25.5707 18.3563 25.3538 18.7908C25.195 19.1055 25.0362 19.4202 24.8774 19.7348C24.8021 19.8864 24.7269 20.0379 24.6494 20.1941C23.9528 21.5543 23.9528 21.5543 23.2453 21.9697C22.6829 22.0638 22.4446 22.0441 21.9764 21.7122C21.3053 21.1146 20.7796 20.4028 20.2264 19.697C20.1 19.5449 20.1 19.5449 19.9711 19.3898C19.6192 18.946 19.4726 18.6425 19.3868 18.0776C19.4717 17.5757 19.4717 17.5757 19.6981 17.2064C20.1323 16.934 20.4763 16.8751 20.9876 16.8998C21.4831 17.017 21.7201 17.3464 22.0377 17.7273C22.2362 17.8825 22.437 18.0347 22.6415 18.1818C22.6986 18.0694 22.7557 17.9571 22.8145 17.8413C23.0273 17.4233 23.2409 17.0057 23.455 16.5884C23.5928 16.3194 23.7296 16.0499 23.8665 15.7803C23.9535 15.6109 24.0406 15.4415 24.1303 15.2669C24.2101 15.1106 24.29 14.9543 24.3722 14.7932C24.8079 14.0419 25.067 13.8483 25.9717 13.8867Z" fill="#FEFEFE"/>
<path d="M31.5189 20.0616C31.6768 20.0616 31.8348 20.0616 31.9975 20.0615C32.331 20.0624 32.6644 20.065 32.9978 20.0694C33.5077 20.0757 34.0172 20.0756 34.5271 20.0746C34.8514 20.0762 35.1757 20.0781 35.5 20.0805C35.7283 20.0806 35.7283 20.0806 35.9613 20.0806C37.2944 20.1031 37.2944 20.1031 37.8868 20.6061C38.1021 21.0384 38.0846 21.3386 38.0377 21.8182C37.6036 22.5186 37.6036 22.5186 37.1523 22.6707C36.8178 22.7295 36.5059 22.7486 36.1664 22.7517C36.0364 22.7532 35.9064 22.7546 35.7724 22.7561C35.6331 22.7568 35.4938 22.7574 35.3502 22.7581C35.1336 22.7594 35.1336 22.7594 34.9126 22.7607C34.6074 22.7621 34.3021 22.7631 33.9968 22.7637C33.5311 22.7652 33.0654 22.7699 32.5997 22.7746C32.3027 22.7756 32.0057 22.7764 31.7087 22.777C31.57 22.7789 31.4313 22.7807 31.2884 22.7827C30.5078 22.78 29.9556 22.718 29.283 22.2727C29.0461 21.7972 29.0789 21.4336 29.1321 20.9091C29.7712 19.9739 30.4843 20.0447 31.5189 20.0616Z" fill="#FEFEFE"/>
<path d="M31.5519 16.1115C31.7132 16.1108 31.8745 16.1101 32.0407 16.1093C32.3812 16.1088 32.7218 16.1102 33.0623 16.1134C33.5832 16.1174 34.1035 16.1134 34.6244 16.1085C34.9556 16.109 35.2868 16.11 35.6179 16.1115C35.7734 16.11 35.929 16.1084 36.0892 16.1069C36.8103 16.1187 37.168 16.126 37.7591 16.5688C38.0377 16.9697 38.0377 16.9697 38.1226 17.4242C38.0106 18.0238 37.8948 18.2301 37.434 18.6364C36.8612 18.7516 36.2947 18.7388 35.7123 18.7317C35.4594 18.7322 35.4594 18.7322 35.2014 18.7328C34.8451 18.7326 34.4889 18.7306 34.1326 18.7268C33.5869 18.7216 33.0416 18.7237 32.4959 18.7266C32.1498 18.7256 31.8037 18.7241 31.4575 18.7222C31.2125 18.7233 31.2125 18.7233 30.9625 18.7245C30.8103 18.7221 30.6582 18.7197 30.5015 18.7172C30.3011 18.7158 30.3011 18.7158 30.0966 18.7143C29.6153 18.6103 29.4333 18.4142 29.1321 18.0303C29.0286 17.3953 29.0448 17.097 29.4107 16.5635C30.1069 16.0497 30.708 16.1032 31.5519 16.1115Z" fill="#FEFEFE"/>
<path d="M60.6793 34.3939C61.3297 34.9832 61.8735 35.6636 62.4245 36.3447C62.5097 36.448 62.5948 36.5513 62.6825 36.6578C64 38.2819 64 38.2819 64 39.1193C63.8208 39.6251 63.6881 39.8474 63.2453 40.1515C62.6482 40.2387 62.3282 40.2468 61.8237 39.9023C61.3921 39.5071 61.0437 39.0776 60.6981 38.608C60.567 38.4315 60.4357 38.2551 60.3043 38.0788C60.2403 37.993 60.1764 37.9071 60.1106 37.8186C59.9448 37.6022 59.769 37.3936 59.592 37.1863C58.8046 36.2642 58.8046 36.2642 58.7736 35.5587C58.8656 35.0136 58.9211 34.7654 59.3208 34.3939C59.8678 34.2109 60.1257 34.2384 60.6793 34.3939Z" fill="#FEFEFE"/>
<path d="M4.76415 28.5411C4.95169 28.5405 4.95169 28.5405 5.14302 28.54C5.40692 28.5401 5.67083 28.5422 5.9347 28.5459C6.33831 28.5511 6.74142 28.5491 7.14505 28.5461C7.40173 28.5472 7.65842 28.5486 7.9151 28.5506C8.09578 28.5494 8.09578 28.5494 8.28011 28.5483C8.82724 28.5599 9.14384 28.5875 9.58487 28.9258C9.82888 29.267 9.89704 29.4328 9.89623 29.8485C9.89954 29.9485 9.90284 30.0485 9.90625 30.1515C9.75417 30.637 9.47783 30.7889 9.05661 31.0606C8.62462 31.1216 8.25205 31.1493 7.82076 31.1464C7.64412 31.1478 7.64412 31.1478 7.46392 31.1493C7.21578 31.1504 6.96763 31.1499 6.71949 31.148C6.3407 31.1458 5.96247 31.151 5.58373 31.1568C5.34198 31.1569 5.10024 31.1567 4.85849 31.1559C4.68959 31.1589 4.68959 31.1589 4.51728 31.162C3.91847 31.1513 3.64871 31.0813 3.17335 30.7043C2.86793 30.303 2.86793 30.303 2.78302 29.8485C3.00242 28.6739 3.69017 28.5232 4.76415 28.5411Z" fill="#FEFEFE"/>
<path d="M62.7264 28.5411C62.914 28.5405 62.914 28.5405 63.1053 28.54C63.3692 28.5401 63.6331 28.5421 63.897 28.5459C64.3006 28.5511 64.7037 28.549 65.1073 28.5461C65.364 28.5471 65.6207 28.5486 65.8774 28.5505C66.058 28.5494 66.058 28.5494 66.2424 28.5483C66.7895 28.5599 67.1061 28.5875 67.5471 28.9258C67.7911 29.267 67.8593 29.4328 67.8585 29.8485C67.8618 29.9485 67.8651 30.0485 67.8685 30.1515C67.7163 30.6373 67.4406 30.789 67.0189 31.0606C66.585 31.1198 66.2106 31.1458 65.7777 31.1411C65.6005 31.142 65.6005 31.142 65.4198 31.1428C65.171 31.1433 64.9222 31.1421 64.6735 31.1396C64.2931 31.1364 63.9131 31.1396 63.5327 31.1435C63.2905 31.1431 63.0482 31.1423 62.806 31.1411C62.6926 31.1423 62.5793 31.1435 62.4624 31.1448C61.9406 31.1354 61.64 31.1018 61.2161 30.7851C60.8809 30.3135 60.8302 29.9702 60.8302 29.3939C61.2922 28.5443 61.8352 28.5262 62.7264 28.5411Z" fill="#FEFEFE"/>
<path d="M11.3208 34.3939C11.6887 34.7159 11.6887 34.7159 11.9245 35.1515C11.8932 36.0069 11.6282 36.5184 11.0943 37.1591C11.0273 37.2427 10.9603 37.3264 10.8912 37.4126C10.7524 37.5851 10.6128 37.7569 10.4722 37.928C10.2714 38.1729 10.0742 38.4203 9.87795 38.6689C8.72967 40.1092 8.72967 40.1092 8.01887 40.2178C7.54717 40.1515 7.54717 40.1515 7.11321 39.8295C6.79246 39.3939 6.79246 39.3939 6.70755 38.9489C6.87873 38.0133 7.62768 37.2587 8.20755 36.5246C8.28081 36.4317 8.35407 36.3388 8.42954 36.2431C8.63791 35.9797 8.84705 35.717 9.05661 35.4545C9.15351 35.3331 9.2504 35.2116 9.35024 35.0864C9.97288 34.3295 10.3585 34.118 11.3208 34.3939Z" fill="#FEFEFE"/>
<path d="M8.28715 19.4502C9.15202 19.7104 9.79308 20.809 10.3491 21.4962C10.4342 21.5995 10.5193 21.7029 10.607 21.8093C11.9245 23.4334 11.9245 23.4334 11.9245 24.3561C11.7736 24.8485 11.7736 24.8485 11.5283 25.142C11.0149 25.3726 10.6698 25.3814 10.1132 25.303C9.45412 24.7208 8.91805 24.0272 8.36792 23.3428C8.24023 23.1859 8.24023 23.1859 8.10996 23.0259C6.82257 21.4313 6.82257 21.4313 6.71698 20.6629C6.79245 20.1515 6.79245 20.1515 7.01887 19.7822C7.44448 19.5152 7.78815 19.4671 8.28715 19.4502Z" fill="#FEFEFE"/>
<path d="M63.0961 19.4751C63.3962 19.5455 63.3962 19.5455 63.783 19.8674C64.0404 20.3841 64.0653 20.6396 64 21.2121C63.7878 21.5586 63.5875 21.8417 63.3302 22.1496C63.2625 22.2341 63.1947 22.3185 63.125 22.4055C62.9846 22.5799 62.8433 22.7535 62.7011 22.9262C62.4998 23.1706 62.3014 23.4169 62.1038 23.6642C60.7999 25.2851 60.7999 25.2851 60.1698 25.3788C59.6226 25.303 59.6226 25.303 59.1792 24.9811C58.8079 24.4614 58.8024 24.2623 58.8679 23.6364C59.1403 23.1227 59.5083 22.6872 59.87 22.2334C60.1024 21.9351 60.3232 21.6294 60.5448 21.3228C60.712 21.0995 60.8795 20.8763 61.0472 20.6534C61.1246 20.5444 61.2019 20.4353 61.2817 20.3229C61.8302 19.6141 62.1978 19.4251 63.0961 19.4751Z" fill="#FEFEFE"/>
</svg>
