<svg xmlns="http://www.w3.org/2000/svg" xmlns:xlink="http://www.w3.org/1999/xlink" width="1080" zoomAndPan="magnify" viewBox="0 0 810 809.999993" height="1080" preserveAspectRatio="xMidYMid meet" version="1.0"><defs><clipPath id="2f3945b87b"><path d="M 38 16.164062 L 724 16.164062 L 724 182 L 38 182 Z M 38 16.164062 " clip-rule="nonzero"/></clipPath><clipPath id="c6ccacba4a"><path d="M 117 209 L 646 209 L 646 793.914062 L 117 793.914062 Z M 117 209 " clip-rule="nonzero"/></clipPath><clipPath id="4de8af3f80"><path d="M 409 432 L 771 432 L 771 793.914062 L 409 793.914062 Z M 409 432 " clip-rule="nonzero"/></clipPath></defs><g clip-path="url(#2f3945b87b)"><path fill="#000000" d="M 381.292969 16.304688 L 38.730469 181.734375 L 723.859375 181.734375 Z M 381.292969 16.304688 " fill-opacity="1" fill-rule="nonzero"/></g><g clip-path="url(#c6ccacba4a)"><path fill="#000000" d="M 381.292969 613.042969 C 381.347656 594.136719 383.933594 575.585938 389.054688 557.390625 L 228.289062 557.390625 C 227.375 557.390625 226.46875 557.300781 225.574219 557.121094 C 224.679688 556.945312 223.808594 556.679688 222.964844 556.332031 C 222.121094 555.980469 221.320312 555.550781 220.5625 555.046875 C 219.800781 554.539062 219.097656 553.960938 218.453125 553.316406 C 217.808594 552.667969 217.230469 551.964844 216.722656 551.207031 C 216.214844 550.445312 215.789062 549.644531 215.4375 548.800781 C 215.089844 547.957031 214.824219 547.085938 214.644531 546.191406 C 214.46875 545.296875 214.378906 544.390625 214.378906 543.476562 L 214.378906 265.210938 C 214.378906 264.296875 214.46875 263.394531 214.644531 262.496094 C 214.824219 261.601562 215.089844 260.730469 215.4375 259.886719 C 215.789062 259.042969 216.214844 258.242188 216.722656 257.480469 C 217.230469 256.722656 217.808594 256.019531 218.453125 255.375 C 219.097656 254.726562 219.800781 254.152344 220.5625 253.644531 C 221.320312 253.136719 222.121094 252.707031 222.964844 252.359375 C 223.808594 252.007812 224.679688 251.746094 225.574219 251.566406 C 226.46875 251.386719 227.375 251.296875 228.289062 251.296875 L 534.296875 251.296875 C 535.210938 251.296875 536.117188 251.386719 537.011719 251.566406 C 537.90625 251.746094 538.777344 252.007812 539.621094 252.359375 C 540.464844 252.707031 541.265625 253.136719 542.027344 253.644531 C 542.785156 254.152344 543.488281 254.726562 544.132812 255.375 C 544.78125 256.019531 545.355469 256.722656 545.863281 257.480469 C 546.371094 258.242188 546.800781 259.042969 547.148438 259.886719 C 547.5 260.730469 547.761719 261.601562 547.941406 262.496094 C 548.117188 263.394531 548.207031 264.296875 548.207031 265.210938 L 548.207031 408.519531 C 556.246094 406.867188 564.355469 405.703125 572.535156 405.023438 C 580.714844 404.34375 588.902344 404.15625 597.105469 404.453125 C 605.308594 404.753906 613.460938 405.542969 621.566406 406.816406 C 629.675781 408.09375 637.675781 409.847656 645.574219 412.078125 L 645.574219 209.558594 L 117.011719 209.558594 L 117.011719 793.914062 L 486.296875 793.914062 C 482.335938 791.648438 478.453125 789.25 474.648438 786.730469 C 470.84375 784.207031 467.125 781.5625 463.496094 778.792969 C 459.863281 776.027344 456.328125 773.144531 452.886719 770.144531 C 449.445312 767.144531 446.105469 764.039062 442.867188 760.820312 C 439.628906 757.601562 436.5 754.28125 433.480469 750.855469 C 430.460938 747.433594 427.554688 743.914062 424.769531 740.296875 C 421.980469 736.683594 419.3125 732.984375 416.765625 729.191406 C 414.21875 725.402344 411.800781 721.535156 409.507812 717.585938 C 407.214844 713.636719 405.054688 709.617188 403.027344 705.527344 C 401 701.4375 399.105469 697.285156 397.351562 693.070312 C 395.59375 688.855469 393.980469 684.589844 392.503906 680.269531 C 391.027344 675.949219 389.695312 671.585938 388.503906 667.175781 C 387.316406 662.769531 386.269531 658.328125 385.371094 653.851562 C 384.472656 649.375 383.722656 644.871094 383.121094 640.347656 C 382.519531 635.820312 382.0625 631.28125 381.757812 626.726562 C 381.453125 622.167969 381.300781 617.609375 381.292969 613.042969 Z M 381.292969 613.042969 " fill-opacity="1" fill-rule="nonzero"/></g><path fill="#000000" d="M 395.203125 279.125 L 520.390625 279.125 L 520.390625 390.429688 L 395.203125 390.429688 Z M 395.203125 279.125 " fill-opacity="1" fill-rule="nonzero"/><path fill="#000000" d="M 395.203125 529.5625 L 398.832031 529.5625 C 401.617188 523.242188 404.703125 517.070312 408.09375 511.050781 C 411.488281 505.035156 415.167969 499.199219 419.136719 493.542969 C 423.105469 487.890625 427.34375 482.445312 431.851562 477.210938 C 436.359375 471.976562 441.113281 466.976562 446.117188 462.210938 C 451.117188 457.449219 456.339844 452.941406 461.789062 448.695312 C 467.234375 444.445312 472.878906 440.476562 478.71875 436.789062 C 484.554688 433.097656 490.5625 429.703125 496.738281 426.609375 C 502.910156 423.511719 509.222656 420.730469 515.671875 418.257812 L 395.203125 418.257812 Z M 395.203125 529.5625 " fill-opacity="1" fill-rule="nonzero"/><path fill="#000000" d="M 242.199219 418.257812 L 367.382812 418.257812 L 367.382812 529.5625 L 242.199219 529.5625 Z M 242.199219 418.257812 " fill-opacity="1" fill-rule="nonzero"/><g clip-path="url(#4de8af3f80)"><path fill="#000000" d="M 589.9375 432.171875 C 586.976562 432.171875 584.019531 432.242188 581.0625 432.386719 C 578.109375 432.535156 575.15625 432.75 572.214844 433.042969 C 569.269531 433.332031 566.332031 433.695312 563.40625 434.128906 C 560.476562 434.5625 557.5625 435.070312 554.660156 435.644531 C 551.757812 436.222656 548.871094 436.871094 546 437.589844 C 543.128906 438.308594 540.277344 439.101562 537.445312 439.960938 C 534.613281 440.816406 531.804688 441.746094 529.019531 442.742188 C 526.234375 443.742188 523.472656 444.804688 520.738281 445.9375 C 518.003906 447.070312 515.300781 448.269531 512.625 449.535156 C 509.949219 450.800781 507.308594 452.132812 504.695312 453.527344 C 502.085938 454.921875 499.511719 456.382812 496.976562 457.902344 C 494.4375 459.425781 491.9375 461.007812 489.476562 462.652344 C 487.015625 464.296875 484.597656 466 482.21875 467.765625 C 479.84375 469.527344 477.511719 471.347656 475.222656 473.226562 C 472.9375 475.105469 470.695312 477.039062 468.503906 479.027344 C 466.308594 481.011719 464.167969 483.054688 462.074219 485.148438 C 459.980469 487.238281 457.941406 489.382812 455.953125 491.578125 C 453.96875 493.769531 452.035156 496.011719 450.15625 498.300781 C 448.28125 500.585938 446.460938 502.917969 444.699219 505.296875 C 442.933594 507.675781 441.230469 510.09375 439.585938 512.554688 C 437.941406 515.015625 436.359375 517.515625 434.839844 520.054688 C 433.316406 522.59375 431.859375 525.167969 430.464844 527.78125 C 429.070312 530.390625 427.738281 533.035156 426.472656 535.710938 C 425.207031 538.386719 424.007812 541.089844 422.878906 543.824219 C 421.746094 546.5625 420.679688 549.320312 419.683594 552.109375 C 418.6875 554.894531 417.757812 557.707031 416.898438 560.539062 C 416.039062 563.371094 415.25 566.222656 414.53125 569.09375 C 413.8125 571.964844 413.164062 574.851562 412.585938 577.757812 C 412.007812 580.660156 411.503906 583.574219 411.070312 586.503906 C 410.636719 589.429688 410.273438 592.367188 409.984375 595.3125 C 409.691406 598.261719 409.476562 601.210938 409.332031 604.167969 C 409.183594 607.125 409.113281 610.082031 409.113281 613.042969 C 409.113281 616.003906 409.183594 618.960938 409.332031 621.917969 C 409.476562 624.875 409.691406 627.824219 409.984375 630.769531 C 410.273438 633.71875 410.636719 636.652344 411.070312 639.582031 C 411.503906 642.511719 412.007812 645.425781 412.585938 648.328125 C 413.164062 651.230469 413.8125 654.121094 414.53125 656.992188 C 415.25 659.863281 416.039062 662.714844 416.898438 665.546875 C 417.757812 668.378906 418.6875 671.191406 419.683594 673.976562 C 420.679688 676.765625 421.746094 679.523438 422.878906 682.257812 C 424.007812 684.996094 425.207031 687.699219 426.472656 690.375 C 427.738281 693.050781 429.070312 695.695312 430.464844 698.304688 C 431.859375 700.914062 433.316406 703.492188 434.839844 706.03125 C 436.359375 708.570312 437.941406 711.070312 439.585938 713.53125 C 441.230469 715.992188 442.933594 718.410156 444.699219 720.789062 C 446.460938 723.164062 448.28125 725.5 450.15625 727.785156 C 452.035156 730.074219 453.96875 732.316406 455.953125 734.507812 C 457.941406 736.703125 459.980469 738.84375 462.074219 740.9375 C 464.167969 743.03125 466.308594 745.074219 468.503906 747.058594 C 470.695312 749.046875 472.9375 750.980469 475.222656 752.859375 C 477.511719 754.738281 479.84375 756.558594 482.21875 758.320312 C 484.597656 760.085938 487.015625 761.789062 489.476562 763.433594 C 491.9375 765.078125 494.4375 766.660156 496.976562 768.183594 C 499.511719 769.703125 502.085938 771.164062 504.695312 772.558594 C 507.308594 773.953125 509.949219 775.285156 512.625 776.550781 C 515.300781 777.816406 518.003906 779.015625 520.738281 780.148438 C 523.472656 781.28125 526.234375 782.34375 529.019531 783.34375 C 531.804688 784.339844 534.613281 785.265625 537.445312 786.125 C 540.277344 786.984375 543.128906 787.773438 546 788.496094 C 548.871094 789.214844 551.757812 789.863281 554.660156 790.441406 C 557.5625 791.015625 560.476562 791.523438 563.40625 791.957031 C 566.332031 792.390625 569.269531 792.753906 572.214844 793.042969 C 575.15625 793.335938 578.109375 793.550781 581.0625 793.695312 C 584.019531 793.84375 586.976562 793.914062 589.9375 793.914062 C 592.894531 793.914062 595.855469 793.84375 598.808594 793.695312 C 601.765625 793.550781 604.714844 793.335938 607.660156 793.042969 C 610.605469 792.753906 613.542969 792.390625 616.46875 791.957031 C 619.394531 791.523438 622.3125 791.015625 625.214844 790.441406 C 628.117188 789.863281 631.003906 789.214844 633.875 788.496094 C 636.742188 787.773438 639.59375 786.984375 642.425781 786.125 C 645.257812 785.265625 648.066406 784.339844 650.855469 783.34375 C 653.640625 782.34375 656.402344 781.28125 659.136719 780.148438 C 661.871094 779.015625 664.574219 777.816406 667.25 776.550781 C 669.925781 775.285156 672.566406 773.953125 675.175781 772.558594 C 677.785156 771.164062 680.359375 769.703125 682.898438 768.183594 C 685.4375 766.660156 687.9375 765.078125 690.398438 763.433594 C 692.859375 761.789062 695.277344 760.085938 697.652344 758.320312 C 700.03125 756.558594 702.363281 754.738281 704.652344 752.859375 C 706.9375 750.980469 709.179688 749.046875 711.371094 747.058594 C 713.5625 745.074219 715.707031 743.03125 717.800781 740.9375 C 719.890625 738.84375 721.929688 736.703125 723.917969 734.507812 C 725.90625 732.316406 727.839844 730.074219 729.714844 727.785156 C 731.59375 725.5 733.414062 723.164062 735.175781 720.789062 C 736.9375 718.410156 738.644531 715.992188 740.285156 713.53125 C 741.929688 711.070312 743.511719 708.570312 745.035156 706.03125 C 746.554688 703.492188 748.015625 700.914062 749.410156 698.304688 C 750.804688 695.695312 752.136719 693.050781 753.398438 690.375 C 754.664062 687.699219 755.863281 684.996094 756.996094 682.257812 C 758.128906 679.523438 759.195312 676.765625 760.191406 673.976562 C 761.1875 671.191406 762.117188 668.378906 762.976562 665.546875 C 763.832031 662.714844 764.621094 659.863281 765.34375 656.992188 C 766.0625 654.121094 766.710938 651.230469 767.285156 648.328125 C 767.863281 645.425781 768.371094 642.511719 768.804688 639.582031 C 769.238281 636.652344 769.601562 633.71875 769.890625 630.769531 C 770.179688 627.824219 770.398438 624.875 770.542969 621.917969 C 770.6875 618.960938 770.761719 616.003906 770.761719 613.042969 C 770.757812 610.082031 770.683594 607.125 770.535156 604.171875 C 770.386719 601.214844 770.164062 598.265625 769.871094 595.320312 C 769.578125 592.375 769.214844 589.441406 768.777344 586.515625 C 768.339844 583.585938 767.832031 580.671875 767.253906 577.769531 C 766.671875 574.871094 766.023438 571.984375 765.300781 569.113281 C 764.578125 566.242188 763.789062 563.394531 762.929688 560.5625 C 762.066406 557.730469 761.136719 554.921875 760.140625 552.136719 C 759.140625 549.351562 758.074219 546.59375 756.941406 543.859375 C 755.808594 541.125 754.605469 538.421875 753.339844 535.746094 C 752.074219 533.074219 750.742188 530.429688 749.347656 527.820312 C 747.953125 525.210938 746.492188 522.640625 744.972656 520.101562 C 743.449219 517.5625 741.867188 515.066406 740.222656 512.605469 C 738.578125 510.144531 736.875 507.726562 735.113281 505.351562 C 733.347656 502.972656 731.527344 500.640625 729.652344 498.355469 C 727.773438 496.066406 725.84375 493.828125 723.855469 491.636719 C 721.871094 489.441406 719.828125 487.300781 717.738281 485.207031 C 715.644531 483.117188 713.503906 481.074219 711.3125 479.089844 C 709.121094 477.101562 706.882812 475.167969 704.59375 473.289062 C 702.308594 471.414062 699.976562 469.59375 697.601562 467.828125 C 695.226562 466.066406 692.808594 464.363281 690.347656 462.71875 C 687.890625 461.074219 685.390625 459.488281 682.855469 457.96875 C 680.316406 456.445312 677.746094 454.984375 675.136719 453.589844 C 672.527344 452.191406 669.886719 450.863281 667.210938 449.59375 C 664.539062 448.328125 661.835938 447.128906 659.101562 445.996094 C 656.371094 444.859375 653.613281 443.792969 650.828125 442.796875 C 648.042969 441.796875 645.234375 440.867188 642.402344 440.003906 C 639.574219 439.144531 636.722656 438.355469 633.855469 437.632812 C 630.984375 436.910156 628.101562 436.261719 625.199219 435.679688 C 622.296875 435.101562 619.386719 434.59375 616.457031 434.15625 C 613.53125 433.71875 610.597656 433.355469 607.652344 433.0625 C 604.710938 432.765625 601.761719 432.546875 598.804688 432.398438 C 595.851562 432.25 592.894531 432.175781 589.9375 432.171875 Z M 603.847656 626.957031 L 603.847656 738.261719 L 576.027344 738.261719 L 576.027344 626.957031 L 450.839844 626.957031 L 450.839844 599.128906 L 576.027344 599.128906 L 576.027344 473.910156 L 603.847656 473.910156 L 603.847656 599.128906 L 729.03125 599.128906 L 729.03125 626.957031 Z M 603.847656 626.957031 " fill-opacity="1" fill-rule="nonzero"/></g><path fill="#000000" d="M 242.199219 279.125 L 367.382812 279.125 L 367.382812 390.429688 L 242.199219 390.429688 Z M 242.199219 279.125 " fill-opacity="1" fill-rule="nonzero"/></svg>