<?xml version="1.0" encoding="UTF-8"?>
<svg xmlns="http://www.w3.org/2000/svg" xmlns:xlink="http://www.w3.org/1999/xlink" width="810pt" height="809.999993pt" viewBox="0 0 810 809.999993" version="1.2">
<defs>
<clipPath id="clip1">
  <path d="M 202 40.246094 L 785.394531 40.246094 L 785.394531 581 L 202 581 Z M 202 40.246094 "/>
</clipPath>
<clipPath id="clip2">
  <path d="M 24.839844 30.695312 L 773.960938 30.695312 L 773.960938 779.195312 L 24.839844 779.195312 Z M 24.839844 30.695312 "/>
</clipPath>
</defs>
<g id="surface1">
<g clip-path="url(#clip1)" clip-rule="nonzero">
<path style=" stroke:none;fill-rule:nonzero;fill:rgb(96.859741%,41.178894%,0%);fill-opacity:1;" d="M 215.707031 317.960938 C 199.484375 334.175781 197.9375 359.941406 212.097656 377.976562 L 364.210938 571.699219 C 368.4375 577.082031 374.898438 580.222656 381.746094 580.222656 L 407.332031 580.222656 C 414.242188 580.222656 420.761719 577.019531 424.980469 571.542969 L 775.519531 116.875 C 792.195312 95.25 787.199219 64.046875 764.601562 48.703125 C 743.902344 34.648438 715.832031 39.085938 700.480469 58.835938 L 413.898438 427.480469 C 405.378906 438.433594 389.027344 439.03125 379.734375 428.722656 L 281.441406 319.671875 C 264.0625 300.394531 234.0625 299.609375 215.707031 317.960938 "/>
</g>
<g clip-path="url(#clip2)" clip-rule="nonzero">
<path style=" stroke:none;fill-rule:nonzero;fill:rgb(96.859741%,41.178894%,0%);fill-opacity:1;" d="M 702.039062 404.941406 C 702.039062 571.796875 566.222656 707.546875 399.28125 707.546875 C 232.34375 707.546875 96.527344 571.796875 96.527344 404.941406 C 96.527344 238.089844 232.34375 102.34375 399.28125 102.34375 C 465.449219 102.34375 526.714844 123.683594 576.585938 159.824219 L 620.710938 103.0625 C 556.878906 56.085938 480.035156 30.695312 399.28125 30.695312 C 299.265625 30.695312 205.234375 69.621094 134.511719 140.308594 C 63.789062 210.992188 24.839844 304.976562 24.839844 404.941406 C 24.839844 504.910156 63.789062 598.890625 134.511719 669.578125 C 205.234375 740.265625 299.265625 779.195312 399.28125 779.195312 C 499.300781 779.195312 593.328125 740.265625 664.050781 669.578125 C 734.773438 598.890625 773.722656 504.910156 773.722656 404.941406 C 773.722656 343.871094 759.15625 285.042969 731.71875 232.382812 L 682.039062 296.820312 C 694.945312 330.414062 702.039062 366.863281 702.039062 404.941406 "/>
</g>
</g>
</svg>
