<!-- src/assets/sprite.svg -->
<svg xmlns="http://www.w3.org/2000/svg" style="display: none;">
<symbol id="whatsapp" viewBox="0 0 16 16">
  <path fill="currentColor" d="M12.903 3.034c-1.309-1.313-3.053-2.034-4.906-2.034-3.825 0-6.938 3.112-6.938 6.938 0 1.222 0.319 2.416 0.925 3.469l-0.984 3.594 3.678-0.966c1.013 0.553 2.153 0.844 3.316 0.844h0.003c3.822 0 7.003-3.113 7.003-6.938 0-1.853-0.787-3.594-2.097-4.906zM7.997 13.709c-1.038 0-2.053-0.278-2.938-0.803l-0.209-0.125-2.181 0.572 0.581-2.128-0.138-0.219c-0.578-0.919-0.881-1.978-0.881-3.069 0-3.178 2.587-5.766 5.769-5.766 1.541 0 2.988 0.6 4.075 1.691s1.756 2.538 1.753 4.078c0 3.181-2.653 5.769-5.831 5.769zM11.159 9.391c-0.172-0.088-1.025-0.506-1.184-0.563-0.159-0.059-0.275-0.088-0.391 0.088s-0.447 0.563-0.55 0.681c-0.1 0.116-0.203 0.131-0.375 0.044-1.019-0.509-1.688-0.909-2.359-2.063-0.178-0.306 0.178-0.284 0.509-0.947 0.056-0.116 0.028-0.216-0.016-0.303s-0.391-0.941-0.534-1.287c-0.141-0.338-0.284-0.291-0.391-0.297-0.1-0.006-0.216-0.006-0.331-0.006s-0.303 0.044-0.463 0.216c-0.159 0.175-0.606 0.594-0.606 1.447s0.622 1.678 0.706 1.794c0.088 0.116 1.222 1.866 2.963 2.619 1.1 0.475 1.531 0.516 2.081 0.434 0.334-0.050 1.025-0.419 1.169-0.825s0.144-0.753 0.1-0.825c-0.041-0.078-0.156-0.122-0.328-0.206z"></path>
</symbol>
<symbol id="call" viewBox="0 0 16 16">
<path fill="currentColor" d="M15.543 11.306l-3.5-1.5c-0.087-0.038-0.188-0.060-0.294-0.060-0.234 0-0.442 0.107-0.58 0.274l-0.001 0.001-1.55 1.894c-2.443-1.17-4.367-3.095-5.507-5.468l-0.030-0.070 1.894-1.55c0.169-0.138 0.276-0.347 0.276-0.58 0-0.106-0.022-0.208-0.062-0.299l0.002 0.005-1.5-3.5c-0.119-0.269-0.384-0.453-0.692-0.453-0.059 0-0.117 0.007-0.172 0.020l0.005-0.001-3.25 0.75c-0.335 0.079-0.581 0.376-0.581 0.731 0 0 0 0 0 0v-0c0 8.016 6.497 14.5 14.5 14.5 0 0 0 0 0 0 0.354 0 0.651-0.246 0.73-0.576l0.001-0.005 0.75-3.25c0.012-0.050 0.018-0.107 0.018-0.166 0-0.31-0.185-0.576-0.451-0.694l-0.005-0.002z"></path>
</symbol>
<symbol id="instagram" viewBox="0 0 16 16">
<path fill="currentColor" d="M8.003 4.406c-1.987 0-3.591 1.603-3.591 3.591s1.603 3.591 3.591 3.591 3.591-1.603 3.591-3.591-1.603-3.591-3.591-3.591zM8.003 10.331c-1.284 0-2.334-1.047-2.334-2.334s1.047-2.334 2.334-2.334 2.334 1.047 2.334 2.334-1.050 2.334-2.334 2.334zM12.578 4.259c0 0.466-0.375 0.838-0.838 0.838-0.466 0-0.838-0.375-0.838-0.838s0.375-0.837 0.838-0.837 0.838 0.375 0.838 0.837zM14.956 5.109c-0.053-1.122-0.309-2.116-1.131-2.934-0.819-0.819-1.813-1.075-2.934-1.131-1.156-0.066-4.622-0.066-5.778 0-1.119 0.053-2.112 0.309-2.934 1.128s-1.075 1.813-1.131 2.934c-0.066 1.156-0.066 4.622 0 5.778 0.053 1.122 0.309 2.116 1.131 2.934s1.813 1.075 2.934 1.131c1.156 0.066 4.622 0.066 5.778 0 1.122-0.053 2.116-0.309 2.934-1.131 0.819-0.819 1.075-1.813 1.131-2.934 0.066-1.156 0.066-4.619 0-5.775zM13.463 12.125c-0.244 0.613-0.716 1.084-1.331 1.331-0.922 0.366-3.109 0.281-4.128 0.281s-3.209 0.081-4.128-0.281c-0.612-0.244-1.084-0.716-1.331-1.331-0.366-0.922-0.281-3.109-0.281-4.128s-0.081-3.209 0.281-4.128c0.244-0.612 0.716-1.084 1.331-1.331 0.922-0.366 3.109-0.281 4.128-0.281s3.209-0.081 4.128 0.281c0.613 0.244 1.084 0.716 1.331 1.331 0.366 0.922 0.281 3.109 0.281 4.128s0.084 3.209-0.281 4.128z"></path>
</symbol>
<symbol id="linkedin" viewBox="0 0 16 16">
<path fill="currentColor" d="M14 1h-12.003c-0.55 0-0.997 0.453-0.997 1.009v11.981c0 0.556 0.447 1.009 0.997 1.009h12.003c0.55 0 1-0.453 1-1.009v-11.981c0-0.556-0.45-1.009-1-1.009zM5.231 13h-2.075v-6.681h2.078v6.681zM4.194 5.406c-0.666 0-1.203-0.541-1.203-1.203s0.538-1.203 1.203-1.203c0.662 0 1.203 0.541 1.203 1.203 0 0.666-0.537 1.203-1.203 1.203zM13.009 13h-2.075v-3.25c0-0.775-0.016-1.772-1.078-1.772-1.081 0-1.247 0.844-1.247 1.716v3.306h-2.075v-6.681h1.991v0.912h0.028c0.278-0.525 0.956-1.078 1.966-1.078 2.1 0 2.491 1.384 2.491 3.184v3.662z"></path>
</symbol>
<symbol id="twitter" viewBox="0 0 16 16" >
<path fill="currentColor" d="M14.355 4.741c0.010 0.142 0.010 0.284 0.010 0.426 0 4.335-3.299 9.33-9.33 9.33-1.858 0-3.584-0.538-5.036-1.472 0.264 0.030 0.518 0.041 0.792 0.041 1.533 0 2.944-0.518 4.071-1.401-1.442-0.030-2.65-0.975-3.066-2.274 0.203 0.030 0.406 0.051 0.619 0.051 0.294 0 0.589-0.041 0.863-0.112-1.503-0.305-2.629-1.624-2.629-3.218v-0.041c0.437 0.244 0.944 0.396 1.482 0.416-0.883-0.589-1.462-1.594-1.462-2.731 0-0.609 0.162-1.167 0.447-1.655 1.614 1.99 4.041 3.289 6.761 3.431-0.051-0.244-0.081-0.497-0.081-0.751 0-1.807 1.462-3.279 3.279-3.279 0.944 0 1.797 0.396 2.396 1.036 0.741-0.142 1.452-0.416 2.081-0.792-0.244 0.761-0.761 1.401-1.442 1.807 0.66-0.071 1.3-0.254 1.888-0.508-0.447 0.65-1.005 1.228-1.645 1.695z"></path>
</symbol>
<symbol id="facebook" viewBox="0 0 16 16" >
<path fill="currentColor" d="M11.723 9l0.444-2.896h-2.778v-1.879c0-0.792 0.388-1.564 1.633-1.564h1.263v-2.465s-1.146-0.196-2.242-0.196c-2.288 0-3.784 1.387-3.784 3.897v2.207h-2.543v2.896h2.543v7h3.13v-7z"></path>
</symbol>
<symbol id="rightArrow" viewBox="0 0 16 16" >
<path fill="currentColor" d="M12.706 7.294c0.391 0.391 0.391 1.025 0 1.416l-6 6c-0.391 0.391-1.025 0.391-1.416 0s-0.391-1.025 0-1.416l5.294-5.294-5.291-5.294c-0.391-0.391-0.391-1.025 0-1.416s1.025-0.391 1.416 0l6 6z"></path>
</symbol>
<symbol id="star" viewBox="0 0 16 16" >
<path fill="currentColor" d="M14.469 6h-4.597l-1.397-4.169c-0.069-0.203-0.259-0.331-0.475-0.331s-0.406 0.128-0.475 0.331l-1.397 4.169h-4.628c-0.275 0-0.5 0.225-0.5 0.5 0 0.028 0.003 0.059 0.009 0.084 0.006 0.109 0.056 0.231 0.209 0.353l3.778 2.662-1.45 4.216c-0.072 0.203 0 0.431 0.172 0.563 0.091 0.066 0.175 0.122 0.281 0.122 0.103 0 0.225-0.053 0.313-0.113l3.687-2.628 3.688 2.628c0.088 0.063 0.209 0.113 0.313 0.113 0.106 0 0.191-0.053 0.278-0.122 0.175-0.131 0.244-0.356 0.172-0.563l-1.45-4.216 3.747-2.688 0.091-0.078c0.081-0.088 0.162-0.206 0.162-0.334 0-0.275-0.256-0.5-0.531-0.5z"></path>
</symbol>
<symbol id="quots" viewBox="0 0 16 16" >
<path fill="currentColor" d="M14.5 1h-4c-0.828 0-1.5 0.672-1.5 1.5v4c0 0.828 0.672 1.5 1.5 1.5h2.5v2c0 1.103-0.897 2-2 2h-0.25c-0.416 0-0.75 0.334-0.75 0.75v1.5c0 0.416 0.334 0.75 0.75 0.75h0.25c2.762 0 5-2.238 5-5v-7.5c0-0.828-0.672-1.5-1.5-1.5zM5.5 1h-4c-0.828 0-1.5 0.672-1.5 1.5v4c0 0.828 0.672 1.5 1.5 1.5h2.5v2c0 1.103-0.897 2-2 2h-0.25c-0.416 0-0.75 0.334-0.75 0.75v1.5c0 0.416 0.334 0.75 0.75 0.75h0.25c2.763 0 5-2.238 5-5v-7.5c0-0.828-0.672-1.5-1.5-1.5z"></path>
</symbol>
<symbol id="check" viewBox="0 0 16 16" >
<path fill="currentColor" d="M5.267 6.733l-0.933 0.933 3 3 6.667-6.667-0.933-0.933-5.733 5.7-2.067-2.033zM12.667 12.667h-9.333v-9.333h6.667v-1.333h-6.667c-0.733 0-1.333 0.6-1.333 1.333v9.333c0 0.733 0.6 1.333 1.333 1.333h9.333c0.733 0 1.333-0.6 1.333-1.333v-5.333h-1.333v5.333z"></path>
</symbol>
<symbol id="dedicatedAdvisor" viewBox="0 0 13 16" >
<path fill="currentColor" d="M1.044 9.063c0.308-0.009 0.61 0.002 0.916 0.030 0.032 0.003 0.064 0.005 0.097 0.008 0.322 0.032 0.322 0.032 0.442 0.148 0.003 0.087 0.003 0.174 0 0.261 0.157 0.027 0.314 0.054 0.471 0.080 0.053 0.009 0.107 0.018 0.16 0.027 0.51 0.088 0.96 0.086 1.474 0.012 0.047-0.006 0.093-0.012 0.142-0.019 0.067-0.010 0.067-0.010 0.136-0.019 0.040-0.006 0.081-0.011 0.122-0.017 0.106-0.018 0.106-0.018 0.174-0.081 0.127-0.090 0.266-0.101 0.417-0.126 0.033-0.006 0.066-0.011 0.1-0.017 0.069-0.012 0.139-0.023 0.209-0.035 0.105-0.017 0.211-0.036 0.316-0.054 0.068-0.011 0.136-0.023 0.203-0.034 0.031-0.005 0.062-0.011 0.094-0.016 0.37-0.060 0.665-0.049 1.019 0.077 0.071 0.024 0.142 0.048 0.213 0.071 0.11 0.037 0.219 0.075 0.328 0.113 0.457 0.158 0.838 0.264 1.322 0.223 0.046-0.003 0.093-0.005 0.14-0.008 0.134-0.008 0.267-0.018 0.4-0.029 0.045-0.004 0.091-0.007 0.137-0.011 0.11-0.009 0.219-0.017 0.329-0.027-0.002-0.052-0.002-0.052-0.005-0.105 0.005-0.119 0.005-0.119 0.079-0.231 0.082-0.025 0.082-0.025 0.186-0.040 0.060-0.009 0.060-0.009 0.12-0.017 0.163-0.020 0.327-0.041 0.49-0.060 0.028-0.003 0.057-0.007 0.086-0.010 0.429-0.047 0.429-0.047 0.52 0.025 0.090 0.112 0.081 0.256 0.091 0.395 0.003 0.034 0.006 0.068 0.009 0.102 0.010 0.112 0.018 0.224 0.027 0.336 0.006 0.078 0.013 0.156 0.020 0.233 0.014 0.163 0.027 0.327 0.040 0.49 0.017 0.209 0.034 0.418 0.052 0.627 0.017 0.199 0.033 0.399 0.050 0.598 0.003 0.038 0.006 0.076 0.009 0.115 0.009 0.108 0.018 0.216 0.026 0.324 0.003 0.032 0.005 0.063 0.008 0.096 0.038 0.479 0.038 0.479-0.022 0.585-0.109 0.063-0.209 0.066-0.334 0.077-0.026 0.002-0.052 0.005-0.079 0.007-0.055 0.005-0.11 0.009-0.165 0.014-0.082 0.007-0.165 0.014-0.247 0.021-0.334 0.029-0.664 0.041-1 0.034-0.025-0.049-0.049-0.098-0.075-0.149-0.049 0-0.098 0-0.149 0-0.003 0.038-0.006 0.077-0.009 0.117-0.031 0.161-0.072 0.243-0.177 0.368-0.141 0.090-0.243 0.127-0.41 0.112-0.002 0.045-0.005 0.089-0.007 0.135-0.023 0.175-0.087 0.265-0.217 0.387-0.153 0.082-0.273 0.128-0.448 0.112 0 0.038 0 0.075 0 0.114-0.025 0.169-0.119 0.252-0.248 0.357-0.136 0.080-0.267 0.091-0.423 0.089-0.002 0.032-0.005 0.065-0.007 0.098-0.037 0.152-0.101 0.248-0.217 0.35-0.178 0.106-0.314 0.128-0.515 0.096-0.226-0.059-0.394-0.206-0.567-0.357-0.018 0.016-0.035 0.031-0.053 0.048-0.023 0.020-0.046 0.041-0.070 0.062s-0.046 0.041-0.069 0.062c-0.138 0.107-0.286 0.104-0.454 0.103-0.159-0.021-0.277-0.096-0.397-0.2-0.075-0.112-0.075-0.112-0.075-0.224-0.021 0.002-0.042 0.003-0.064 0.005-0.227 0.011-0.348-0.021-0.532-0.154-0.149-0.157-0.149-0.157-0.149-0.298-0.024 0.002-0.048 0.003-0.072 0.005-0.237 0.010-0.371-0.011-0.562-0.154-0.084-0.111-0.112-0.158-0.112-0.298-0.036 0.003-0.036 0.003-0.072 0.007-0.209 0.011-0.346-0-0.509-0.138-0.126-0.133-0.163-0.243-0.171-0.424 0.003-0.058 0.003-0.058 0.007-0.117-0.048-0.015-0.048-0.015-0.098-0.031-0.159-0.055-0.311-0.121-0.465-0.188-0.099-0.038-0.19-0.062-0.295-0.079 0.002 0.035 0.003 0.071 0.005 0.107-0.005 0.117-0.005 0.117-0.079 0.191-0.328 0.017-0.658-0.016-0.985-0.042-0.095-0.007-0.191-0.014-0.286-0.021-0.061-0.005-0.122-0.009-0.182-0.014-0.028-0.002-0.057-0.004-0.086-0.006-0.196-0.017-0.196-0.017-0.277-0.078-0.060-0.081-0.060-0.118-0.054-0.218 0.002-0.032 0.003-0.064 0.005-0.097 0.002-0.036 0.005-0.072 0.007-0.109 0.002-0.039 0.004-0.077 0.006-0.117 0.006-0.114 0.013-0.227 0.020-0.341 0.007-0.111 0.013-0.222 0.019-0.333 0.020-0.353 0.042-0.706 0.064-1.058 0.011-0.169 0.021-0.339 0.031-0.508 0.008-0.132 0.016-0.263 0.024-0.395 0.004-0.062 0.008-0.125 0.011-0.187 0.005-0.087 0.011-0.174 0.016-0.26 0.001-0.025 0.003-0.051 0.004-0.077 0.010-0.153 0.041-0.285 0.095-0.429zM1.38 9.436c-0.055 0.11-0.051 0.226-0.059 0.347-0.002 0.028-0.004 0.056-0.006 0.085-0.006 0.093-0.012 0.187-0.018 0.28-0.004 0.065-0.008 0.13-0.012 0.195-0.009 0.137-0.017 0.273-0.026 0.41-0.011 0.174-0.022 0.348-0.033 0.522-0.009 0.134-0.017 0.269-0.025 0.403-0.004 0.064-0.008 0.128-0.012 0.192-0.021 0.333-0.040 0.663-0.033 0.997 0.116 0.013 0.232 0.025 0.347 0.037 0.032 0.004 0.064 0.007 0.097 0.011 0.174 0.018 0.344 0.028 0.519 0.028 0.054-0 0.054-0 0.11-0 0.027-0 0.055-0 0.083-0.001-0.019-0.403-0.037-0.807-0.056-1.21-0.009-0.187-0.018-0.375-0.026-0.562-0.008-0.181-0.017-0.362-0.025-0.543-0.003-0.069-0.006-0.138-0.010-0.207-0.004-0.097-0.009-0.194-0.014-0.29-0.001-0.028-0.003-0.056-0.004-0.086-0.001-0.027-0.003-0.054-0.004-0.081-0.001-0.023-0.002-0.046-0.003-0.069-0.010-0.128-0.028-0.256-0.044-0.384-0.246-0.025-0.492-0.049-0.746-0.075zM6.297 9.639c-0.071 0.011-0.143 0.021-0.214 0.030-0.488 0.053-0.488 0.053-0.88 0.322-0.045 0.062-0.089 0.126-0.13 0.191-0.033 0.041-0.067 0.081-0.101 0.121-0.026 0.032-0.052 0.065-0.079 0.098-0.077 0.096-0.152 0.187-0.241 0.273-0.073 0.061-0.073 0.061-0.065 0.142 0.104 0.086 0.104 0.086 0.217 0.068 0.13-0.034 0.227-0.082 0.342-0.15 0.042-0.024 0.083-0.049 0.126-0.074s0.087-0.052 0.13-0.077c0.043-0.025 0.086-0.050 0.13-0.076 0.178-0.104 0.353-0.208 0.523-0.325 0.138-0.086 0.232-0.098 0.396-0.075 0.131 0.032 0.257 0.073 0.385 0.117 0.035 0.012 0.070 0.024 0.106 0.036 0.455 0.16 0.743 0.38 1.055 0.74 0.231 0.266 0.471 0.486 0.756 0.695 0.136 0.1 0.268 0.203 0.4 0.308 0.022 0.017 0.043 0.034 0.065 0.052 0.095 0.075 0.19 0.151 0.283 0.229 0.075 0.070 0.075 0.070 0.157 0.063-0.082-0.747-0.164-1.493-0.261-2.238-0.032 0.003-0.065 0.006-0.098 0.010-0.509 0.027-0.948-0.13-1.427-0.29-0.123-0.040-0.246-0.080-0.369-0.12-0.076-0.025-0.152-0.050-0.228-0.075-0.034-0.011-0.068-0.022-0.103-0.034-0.030-0.010-0.060-0.020-0.090-0.030-0.235-0.068-0.549 0.033-0.788 0.070zM11.292 9.564c-0.045 0.005-0.045 0.005-0.091 0.010-0.031 0.004-0.062 0.007-0.094 0.011-0.047 0.005-0.047 0.005-0.095 0.011-0.078 0.009-0.155 0.018-0.233 0.027-0.015 0.385-0.029 0.769-0.044 1.154-0.007 0.179-0.014 0.357-0.020 0.536-0.007 0.172-0.013 0.345-0.020 0.517-0.002 0.066-0.005 0.131-0.008 0.197-0.004 0.092-0.007 0.184-0.010 0.277-0.001 0.027-0.002 0.054-0.003 0.082-0.006 0.161-0.008 0.322-0.007 0.483 0.158-0.011 0.315-0.023 0.473-0.035 0.045-0.003 0.089-0.006 0.135-0.010 0.043-0.003 0.086-0.006 0.131-0.010 0.059-0.004 0.059-0.004 0.12-0.009 0.101-0.010 0.198-0.027 0.297-0.048-0.025-0.588-0.074-1.174-0.124-1.76-0.009-0.1-0.017-0.2-0.026-0.301-0.010-0.121-0.021-0.242-0.031-0.363-0.004-0.044-0.008-0.089-0.011-0.134-0.019-0.217-0.040-0.433-0.069-0.649-0.092 0-0.178 0.006-0.27 0.016zM2.536 9.921c0.018 0.595 0.041 1.19 0.070 1.785 0.003 0.067 0.006 0.134 0.010 0.201 0.004 0.095 0.009 0.19 0.014 0.284 0.001 0.028 0.003 0.057 0.004 0.086 0.007 0.126 0.014 0.245 0.052 0.366 0.062 0.012 0.123 0.025 0.186 0.037 0.069-0.26 0.117-0.521 0.163-0.786 0.008-0.046 0.016-0.093 0.025-0.14 0.017-0.098 0.034-0.195 0.051-0.293 0.022-0.125 0.044-0.249 0.066-0.374 0.021-0.12 0.042-0.239 0.063-0.359 0.008-0.045 0.016-0.089 0.024-0.135 0.007-0.042 0.014-0.083 0.022-0.126 0.006-0.036 0.013-0.073 0.019-0.11 0.013-0.097 0.016-0.19 0.014-0.288-0.171-0.063-0.337-0.095-0.517-0.117-0.039-0.005-0.039-0.005-0.078-0.010-0.063-0.008-0.125-0.015-0.188-0.023zM10.068 10.033c-0.053 0.007-0.106 0.013-0.158 0.020-0.045 0.006-0.091 0.011-0.138 0.017 0.048 0.542 0.107 1.081 0.174 1.621 0.015 0.125 0.030 0.25 0.045 0.375 0.010 0.080 0.019 0.159 0.029 0.239 0.004 0.037 0.009 0.075 0.014 0.113 0.006 0.051 0.006 0.051 0.013 0.103 0.004 0.030 0.007 0.060 0.011 0.091 0.006 0.069 0.006 0.069 0.050 0.106 0.062 0.002 0.124 0.002 0.186 0 0.027-0.351 0.046-0.702 0.057-1.054 0.002-0.048 0.003-0.096 0.005-0.146 0.004-0.126 0.008-0.252 0.012-0.378 0.004-0.129 0.008-0.259 0.013-0.388 0.008-0.252 0.017-0.504 0.025-0.757-0.112 0-0.227 0.023-0.338 0.037zM4.152 10.070c-0.297 0.037-0.297 0.037-0.422 0.037-0.082 0.336-0.148 0.672-0.204 1.014-0.008 0.048-0.016 0.096-0.025 0.146-0.021 0.126-0.042 0.252-0.063 0.379-0.022 0.13-0.043 0.259-0.065 0.389-0.043 0.253-0.085 0.506-0.127 0.759 0.053 0.032 0.105 0.064 0.159 0.096 0.044 0.027 0.044 0.027 0.089 0.054 0.085 0.044 0.085 0.044 0.171 0.028 0.091-0.039 0.112-0.087 0.157-0.173 0.072-0.137 0.141-0.2 0.282-0.266 0.206-0.031 0.39-0.028 0.578 0.063 0.093 0.086 0.093 0.086 0.156 0.189 0.077 0.093 0.077 0.093 0.179 0.090 0.072-0.003 0.145-0.006 0.217-0.009 0.143 0.004 0.218 0.059 0.324 0.152 0.023 0.030 0.023 0.030 0.047 0.061 0.122 0.095 0.282 0.052 0.429 0.044 0.135 0.008 0.197 0.044 0.307 0.119 0.025 0 0.049 0 0.075 0 0.012 0.029 0.023 0.058 0.035 0.089 0.037 0.095 0.037 0.095 0.077 0.172 0.096 0.019 0.192 0.029 0.289 0.039 0.324 0.095 0.599 0.364 0.862 0.567 0.069 0.053 0.138 0.106 0.207 0.159 0.030 0.023 0.060 0.046 0.091 0.070 0.149 0.113 0.226 0.154 0.415 0.134 0.077-0.037 0.077-0.037 0.112-0.112 0.017-0.106 0.017-0.106-0.037-0.224-0.234-0.277-0.577-0.48-0.868-0.691-0.059-0.043-0.117-0.086-0.176-0.129-0.048-0.035-0.048-0.035-0.096-0.070-0.031-0.023-0.061-0.046-0.092-0.069-0.028-0.020-0.055-0.041-0.084-0.062-0.063-0.060-0.063-0.060-0.087-0.186 0.023-0.098 0.023-0.098 0.061-0.135 0.178-0.017 0.262 0.009 0.401 0.119 0.032 0.025 0.065 0.050 0.098 0.076 0.051 0.041 0.051 0.041 0.102 0.082 0.070 0.055 0.14 0.11 0.21 0.165 0.050 0.040 0.050 0.040 0.102 0.081 0.149 0.117 0.3 0.23 0.452 0.343 0.056 0.042 0.111 0.084 0.165 0.128 0.105 0.082 0.174 0.124 0.308 0.141 0.106-0.007 0.106-0.007 0.175-0.091 0.023-0.146 0.012-0.206-0.073-0.328-0.13-0.149-0.289-0.258-0.449-0.372-0.063-0.046-0.126-0.092-0.19-0.138-0.088-0.063-0.175-0.127-0.263-0.19-0.069-0.050-0.137-0.1-0.205-0.15-0.038-0.028-0.076-0.055-0.116-0.084-0.095-0.091-0.116-0.138-0.122-0.268 0.018-0.037 0.018-0.037 0.037-0.075 0.175-0.022 0.266-0.010 0.409 0.096 0.054 0.044 0.107 0.088 0.16 0.133 0.059 0.048 0.118 0.095 0.177 0.143 0.030 0.025 0.061 0.049 0.092 0.075 0.156 0.126 0.316 0.247 0.477 0.367 0.029 0.023 0.059 0.045 0.089 0.068 0.15 0.112 0.267 0.199 0.461 0.2 0.096-0.053 0.096-0.053 0.149-0.149-0.004-0.141-0.021-0.205-0.117-0.31-0.035-0.028-0.071-0.055-0.107-0.084-0.020-0.016-0.039-0.031-0.060-0.047-0.067-0.053-0.134-0.104-0.202-0.155-0.024-0.019-0.049-0.037-0.074-0.056-0.105-0.080-0.21-0.16-0.315-0.24-0.266-0.202-0.525-0.412-0.782-0.624-0.053-0.043-0.107-0.084-0.161-0.125-0.097-0.082-0.169-0.171-0.247-0.271-0.341-0.42-0.722-0.652-1.256-0.772-0.176 0.015-0.297 0.069-0.449 0.158-0.042 0.024-0.084 0.049-0.127 0.074s-0.087 0.052-0.131 0.078c-0.043 0.026-0.087 0.051-0.13 0.077-0.147 0.086-0.294 0.173-0.44 0.26-0.161 0.095-0.288 0.146-0.476 0.137-0.196-0.060-0.314-0.145-0.448-0.298-0.053-0.107-0.049-0.179-0.037-0.298 0.104-0.199 0.265-0.355 0.417-0.519 0.072-0.065 0.072-0.065 0.068-0.115-0.186-0.005-0.364 0.014-0.548 0.037zM4.15 12.935c-0.018 0.030-0.036 0.060-0.054 0.090-0.018 0.029-0.036 0.059-0.055 0.089-0.016 0.029-0.033 0.058-0.050 0.088-0.015 0.026-0.029 0.052-0.044 0.078-0.046 0.108-0.024 0.184 0.007 0.295 0.12 0.080 0.159 0.095 0.298 0.075 0.068-0.059 0.068-0.059 0.119-0.14 0.018-0.026 0.036-0.052 0.055-0.079 0.098-0.157 0.148-0.263 0.124-0.453-0.077-0.086-0.126-0.109-0.24-0.124-0.1 0.003-0.1 0.003-0.16 0.081zM4.986 13.252c-0.17 0.17-0.315 0.388-0.333 0.631 0.001 0.102 0.001 0.102 0.053 0.173 0.099 0.061 0.14 0.069 0.254 0.042 0.176-0.149 0.333-0.38 0.41-0.597-0.012-0.121-0.019-0.169-0.107-0.254-0.112-0.063-0.166-0.058-0.277 0.005zM5.802 13.538c-0.11 0.13-0.194 0.262-0.277 0.41-0.015 0.026-0.031 0.052-0.047 0.079-0.087 0.154-0.087 0.154-0.103 0.327 0.030 0.087 0.030 0.087 0.117 0.151 0.098 0.048 0.098 0.048 0.19 0.024 0.15-0.089 0.211-0.219 0.295-0.369 0.017-0.028 0.033-0.057 0.050-0.086 0.118-0.2 0.118-0.2 0.164-0.425-0.058-0.108-0.058-0.108-0.149-0.186-0.15-0.016-0.15-0.016-0.24 0.075zM6.589 13.908c-0.144 0.112-0.214 0.25-0.3 0.409-0.017 0.030-0.035 0.060-0.052 0.091-0.016 0.029-0.032 0.058-0.049 0.088-0.022 0.040-0.022 0.040-0.044 0.080-0.034 0.103-0.020 0.164 0.010 0.268 0.040 0.074 0.040 0.074 0.112 0.112 0.11 0.018 0.11 0.018 0.224-0.037 0.091-0.102 0.156-0.217 0.224-0.336 0.022-0.035 0.044-0.070 0.066-0.106 0.128-0.205 0.128-0.205 0.146-0.438-0.058-0.095-0.058-0.095-0.149-0.149-0.1-0.025-0.1-0.025-0.187 0.018zM7.273 14.284c-0.062 0.135-0.123 0.271-0.186 0.41 0.063 0.057 0.127 0.112 0.191 0.168 0.053 0.047 0.053 0.047 0.108 0.094 0.126 0.083 0.187 0.094 0.335 0.073 0.078-0.057 0.078-0.057 0.112-0.149-0.001-0.112-0.008-0.192-0.085-0.277-0.063-0.052-0.127-0.1-0.194-0.147-0.023-0.017-0.045-0.034-0.069-0.051-0.096-0.084-0.096-0.084-0.211-0.122z"></path>
<path fill="currentColor" d="M7.273 2.685c0.041 0.017 0.082 0.034 0.125 0.051 0.558 0.253 0.95 0.653 1.192 1.222 0.022 0.060 0.043 0.121 0.063 0.182 0.008 0.025 0.017 0.049 0.025 0.074 0.167 0.592 0.043 1.218-0.245 1.744-0.153 0.269-0.327 0.45-0.564 0.643-0.012 0.025-0.025 0.049-0.037 0.075 0.022 0.008 0.044 0.016 0.067 0.025 0.209 0.084 0.333 0.157 0.455 0.348 0.062 0.174 0.028 0.312-0.035 0.48-0.068 0.135-0.133 0.187-0.264 0.266-0.102 0.024-0.193 0.032-0.298 0.037-0.003 0.032-0.006 0.065-0.009 0.098-0.041 0.183-0.116 0.307-0.27 0.415-0.101 0.091-0.116 0.135-0.159 0.261-0.095 0.262-0.284 0.425-0.529 0.55-0.302 0.049-0.561 0.042-0.823-0.131-0.176-0.155-0.271-0.305-0.34-0.527-0.051-0.109-0.138-0.165-0.232-0.237-0.101-0.093-0.132-0.187-0.174-0.317 0-0.037 0-0.074 0-0.112-0.036-0.004-0.036-0.004-0.074-0.007-0.179-0.025-0.307-0.050-0.432-0.186-0.096-0.131-0.128-0.239-0.128-0.403 0.036-0.207 0.096-0.318 0.261-0.448 0.098-0.045 0.195-0.079 0.298-0.112-0.075-0.097-0.151-0.188-0.238-0.275-0.032-0.032-0.065-0.065-0.098-0.098-0.026-0.025-0.026-0.025-0.052-0.050-0.391-0.408-0.522-0.969-0.521-1.516 0.015-0.619 0.257-1.138 0.688-1.577 0.596-0.557 1.576-0.794 2.347-0.475zM5.072 3.58c-0.231 0.301-0.415 0.661-0.448 1.044-0.002 0.025-0.005 0.051-0.007 0.077-0.023 0.46 0.129 0.91 0.417 1.266 0.092 0.093 0.184 0.183 0.282 0.269 0.091 0.104 0.091 0.104 0.277 0.477 0.591 0 1.182 0 1.79 0 0.062-0.123 0.123-0.246 0.186-0.373 0.1-0.113 0.1-0.113 0.203-0.205 0.376-0.356 0.577-0.808 0.597-1.329-0.030-0.577-0.263-1.060-0.688-1.45-0.825-0.612-1.905-0.533-2.611 0.224zM4.998 7.198c0.014 0.123 0.014 0.123 0.075 0.224 0.088 0.004 0.175 0.005 0.263 0.005 0.028 0 0.055 0 0.083 0 0.091 0 0.183 0 0.274 0 0.063 0 0.127 0 0.19 0 0.133 0 0.266 0 0.399 0 0.171 0 0.341 0 0.512 0.001 0.131 0 0.262 0 0.392 0 0.063 0 0.126 0 0.189 0 0.088 0 0.176 0 0.264 0 0.039 0 0.039 0 0.079 0.001 0.148 0.003 0.148 0.003 0.263-0.084-0.003-0.095-0.003-0.095-0.037-0.186-0.137-0.091-0.205-0.084-0.369-0.085-0.039-0-0.039-0-0.079-0.001-0.086-0.001-0.172-0-0.258-0-0.060-0-0.119-0-0.179-0-0.125-0-0.25-0-0.375-0-0.16 0-0.321-0-0.481-0.001-0.123-0.001-0.247-0.001-0.37-0-0.059-0-0.118-0-0.177-0.001-0.083-0-0.165-0-0.248 0-0.047-0-0.094-0-0.143-0-0.126 0.015-0.177 0.040-0.268 0.126zM5.632 7.832c0.039 0.159 0.039 0.159 0.149 0.261 0.198 0.066 0.412 0.046 0.62 0.046 0.083 0 0.167 0.002 0.25 0.003 0.053 0 0.107 0 0.16 0.001 0.048 0 0.097 0.001 0.146 0.001 0.174-0.018 0.268-0.078 0.39-0.2 0-0.037 0-0.074 0-0.112-0.566 0-1.132 0-1.716 0zM6.079 8.504c0.071 0.143 0.093 0.185 0.224 0.261 0.147 0.046 0.214 0.041 0.361-0.009 0.135-0.070 0.135-0.070 0.235-0.177 0-0.025 0-0.049 0-0.075-0.271 0-0.542 0-0.821 0z"></path>
<path fill="currentColor" d="M6.601 3.431c0.075 0.075 0.075 0.075 0.084 0.186-0.009 0.112-0.009 0.112-0.084 0.186-0.076 0.019-0.152 0.034-0.228 0.049-0.334 0.074-0.539 0.191-0.735 0.474-0.074 0.123-0.108 0.243-0.135 0.383-0.006 0.030-0.012 0.060-0.018 0.091-0.005 0.028-0.010 0.057-0.015 0.086-0.025 0.073-0.025 0.073-0.137 0.147-0.1-0.014-0.1-0.014-0.186-0.037-0.11-0.265-0.047-0.48 0.037-0.746 0.162-0.348 0.466-0.619 0.821-0.758 0.193-0.066 0.393-0.086 0.596-0.063z"></path>
<path fill="currentColor" d="M9.846 3.021c0.075 0.075 0.075 0.075 0.1 0.177-0.030 0.142-0.050 0.153-0.165 0.231-0.065 0.039-0.13 0.077-0.196 0.114-0.037 0.024-0.074 0.048-0.113 0.073-0.33 0.209-0.33 0.209-0.493 0.185-0.034-0.012-0.068-0.023-0.103-0.035-0.028-0.103-0.028-0.103-0.037-0.224 0.121-0.155 0.295-0.246 0.462-0.345 0.042-0.026 0.042-0.026 0.084-0.052 0.157-0.093 0.273-0.156 0.462-0.125z"></path>
<path fill="currentColor" d="M3.225 3.003c0.199 0.027 0.346 0.125 0.516 0.228 0.051 0.029 0.051 0.029 0.104 0.059 0.246 0.147 0.246 0.147 0.301 0.301-0.006 0.102-0.006 0.102-0.044 0.174-0.115 0.061-0.215 0.037-0.336 0.002-0.122-0.060-0.235-0.132-0.35-0.205-0.031-0.019-0.061-0.038-0.093-0.058-0.22-0.139-0.22-0.139-0.266-0.185-0.007-0.11-0.007-0.11 0-0.224 0.075-0.075 0.075-0.075 0.167-0.092z"></path>
<path fill="currentColor" d="M8.466 1.641c0.075 0.075 0.075 0.075 0.090 0.17-0.023 0.182-0.104 0.314-0.195 0.471-0.017 0.030-0.034 0.060-0.051 0.091-0.155 0.272-0.155 0.272-0.254 0.349-0.138-0.012-0.138-0.012-0.261-0.037-0.043-0.175-0.037-0.26 0.054-0.416 0.020-0.034 0.040-0.069 0.061-0.104s0.043-0.071 0.065-0.107c0.021-0.036 0.042-0.072 0.063-0.109 0.192-0.326 0.192-0.326 0.429-0.308z"></path>
<path fill="currentColor" d="M4.654 1.631c0.197 0.077 0.262 0.247 0.36 0.427 0.031 0.053 0.031 0.053 0.063 0.107 0.146 0.261 0.146 0.261 0.139 0.433-0.010 0.029-0.021 0.057-0.032 0.087-0.121 0.030-0.121 0.030-0.261 0.037-0.136-0.14-0.23-0.313-0.326-0.483-0.023-0.039-0.023-0.039-0.046-0.078-0.087-0.152-0.143-0.267-0.112-0.446 0.112-0.075 0.112-0.075 0.216-0.084z"></path>
<path fill="currentColor" d="M9.825 4.872c0.047-0.001 0.094-0.002 0.142-0.003 0.067-0 0.067-0 0.136-0 0.062-0 0.062-0 0.125-0.001 0.104 0.018 0.104 0.018 0.175 0.088 0.041 0.080 0.041 0.080 0.032 0.18-0.028 0.086-0.028 0.086-0.065 0.124-0.173 0.009-0.347 0.007-0.52 0.007-0.049 0-0.098 0.001-0.149 0.001-0.047 0-0.093 0-0.142 0-0.065 0-0.065 0-0.131 0-0.104-0.009-0.104-0.009-0.178-0.084-0.009-0.112-0.009-0.112 0-0.224 0.141-0.141 0.385-0.088 0.576-0.089z"></path>
<path fill="currentColor" d="M2.873 4.876c0.045-0 0.090-0 0.136-0s0.094 0.001 0.143 0.001c0.047-0 0.094-0.001 0.143-0.001 0.045 0 0.090 0 0.136 0 0.041 0 0.083 0 0.125 0 0.1 0.010 0.1 0.010 0.174 0.084 0.009 0.112 0.009 0.112 0 0.224-0.124 0.124-0.281 0.086-0.449 0.087-0.049-0-0.098-0-0.148-0-0.049 0.001-0.098 0.001-0.148 0.002-0.047 0-0.093 0-0.141 0-0.043 0-0.086 0-0.13 0-0.034-0.005-0.068-0.009-0.103-0.014-0.075-0.112-0.075-0.112-0.065-0.207 0.057-0.187 0.151-0.175 0.328-0.175z"></path>
<path fill="currentColor" d="M6.49 1.147c0.112 0.009 0.112 0.009 0.186 0.084 0.018 0.166 0.014 0.334 0.014 0.501 0.001 0.047 0.002 0.094 0.003 0.142 0 0.045 0 0.089 0 0.136 0 0.041 0.001 0.082 0.001 0.125-0.018 0.104-0.018 0.104-0.088 0.176-0.080 0.040-0.080 0.040-0.18 0.012-0.086-0.047-0.086-0.047-0.124-0.084-0.009-0.167-0.007-0.334-0.007-0.501-0.001-0.071-0.001-0.071-0.001-0.143-0-0.045-0-0.090-0-0.136-0-0.042-0-0.083-0-0.126 0.013-0.147 0.050-0.172 0.196-0.184z"></path>
</symbol>
<symbol id="largestCoverage" viewBox="0 0 18 16" >
<path fill="currentColor" d="M2.638 5.189c0.169 0.145 0.274 0.31 0.346 0.519 0 0.16-0.031 0.238-0.111 0.376-0.248 0.236-0.601 0.265-0.927 0.316-0.010 0.044-0.020 0.088-0.030 0.133-0.135 0.563-0.135 0.563-0.359 0.775-0.014 0.029-0.029 0.057-0.043 0.086 0.032 0.012 0.063 0.025 0.096 0.038 0.074 0.030 0.147 0.060 0.22 0.092 0.235 0.101 0.454 0.158 0.708 0.191 0.119 0.030 0.158 0.058 0.231 0.155 0.029 0.064 0.056 0.129 0.081 0.195 0.054 0.126 0.084 0.188 0.189 0.278 0.254 0.098 0.537 0.188 0.811 0.132 0.085-0.048 0.085-0.048 0.168-0.108 0.198-0.137 0.376-0.151 0.611-0.108 0.191 0.095 0.312 0.214 0.432 0.389 0 0.029 0 0.057 0 0.086 0.126 0.053 0.252 0.098 0.383 0.138 0.525 0.163 0.846 0.399 1.195 0.826 0.102 0.115 0.219 0.213 0.336 0.312 0.16 0.136 0.16 0.136 0.18 0.318-0.003 0.154-0.010 0.17-0.127 0.286-0.036 0.021-0.071 0.043-0.108 0.065 0.012 0.147 0.029 0.203 0.139 0.304 0.041 0.027 0.081 0.055 0.123 0.083 0.043 0.030 0.086 0.059 0.13 0.090 0.042 0.028 0.084 0.057 0.127 0.086 0.065 0.044 0.13 0.089 0.195 0.135 0.026 0.018 0.053 0.036 0.080 0.054 0.212 0.207 0.222 0.446 0.228 0.724 0.002 0.069 0.005 0.137 0.007 0.206 0.001 0.030 0.002 0.060 0.002 0.091 0.007 0.091 0.026 0.172 0.050 0.26 0.030 0.004 0.061 0.008 0.092 0.012 0.346 0.063 0.552 0.198 0.815 0.418 0.359 0.3 0.704 0.413 1.169 0.392 0.043-0.007 0.086-0.014 0.13-0.022 0.286-0.048 0.528-0.059 0.778 0.108 0.142 0.148 0.157 0.287 0.181 0.486 0.007 0.055 0.014 0.109 0.021 0.166 0.005 0.042 0.009 0.083 0.014 0.126 0.303-0.046 0.621-0.107 0.865-0.303 0.119-0.209 0.165-0.433 0.205-0.669 0.060-0.337 0.060-0.337 0.182-0.439 0.243-0.115 0.48-0.124 0.746-0.126 0.123-0.009 0.123-0.009 0.196-0.089 0.071-0.132 0.123-0.269 0.175-0.41 0.114-0.299 0.263-0.555 0.443-0.819 0.235-0.354 0.23-0.652 0.154-1.054-0.091-0.528-0.14-1.060 0.149-1.541 0.029-0.029 0.057-0.057 0.086-0.086 0.101 0.011 0.202 0.026 0.303 0.043 0.043 0 0.086 0 0.13 0 0.085-0.099 0.085-0.099 0.168-0.224 0.265-0.378 0.59-0.66 0.97-0.918 0.132-0.123 0.157-0.247 0.17-0.423 0.034-0.511 0.034-0.511-0.114-0.973-0.076-0.062-0.152-0.103-0.242-0.143 0.063-0.178 0.152-0.321 0.259-0.476 0.21 0.055 0.381 0.132 0.519 0.303 0.231 0.431 0.233 1.161 0.123 1.628-0.132 0.367-0.379 0.57-0.685 0.794-0.368 0.293-0.595 0.611-0.809 1.028-0.056 0.096-0.056 0.096-0.143 0.139-0.175 0.011-0.24 0.013-0.389-0.086 0.019 0.499 0.019 0.499 0.089 0.992 0.11 0.553-0.012 0.946-0.316 1.411-0.18 0.282-0.33 0.563-0.453 0.874-0.091 0.226-0.183 0.385-0.391 0.518-0.161 0.061-0.31 0.077-0.481 0.083-0.030 0.001-0.060 0.003-0.090 0.004-0.073 0.004-0.145 0.006-0.218 0.009-0.011 0.049-0.022 0.098-0.033 0.149-0.015 0.066-0.030 0.132-0.045 0.197-0.007 0.032-0.014 0.064-0.022 0.097-0.137 0.593-0.137 0.593-0.309 0.71-0.065 0.021-0.065 0.021-0.131 0.042-0.050 0.016-0.099 0.033-0.15 0.050-0.027 0.008-0.055 0.017-0.083 0.025-0.1 0.031-0.199 0.065-0.298 0.099-0.072 0.024-0.144 0.048-0.217 0.072-0.034 0.012-0.068 0.023-0.103 0.035-0.221 0.071-0.408 0.112-0.64 0.081-0.165-0.164-0.162-0.398-0.181-0.619-0.004-0.036-0.007-0.072-0.011-0.11-0.009-0.089-0.017-0.177-0.024-0.266-0.043 0.014-0.085 0.028-0.129 0.042-0.179 0.051-0.348 0.059-0.533 0.058-0.032-0-0.065-0-0.098-0.001-0.535-0.012-0.954-0.217-1.34-0.586-0.16-0.15-0.277-0.199-0.491-0.231-0.141-0.028-0.238-0.103-0.349-0.191-0.025-0.019-0.050-0.037-0.076-0.057-0.172-0.232-0.158-0.552-0.168-0.827-0.002-0.040-0.003-0.080-0.005-0.121-0.004-0.098-0.008-0.195-0.011-0.293-0.031-0.011-0.062-0.022-0.093-0.033-0.343-0.15-0.693-0.423-0.893-0.74-0.083-0.219-0.077-0.394 0.014-0.608 0.021-0.044 0.043-0.087 0.065-0.132-0.025-0.025-0.050-0.049-0.076-0.075-0.034-0.033-0.068-0.067-0.102-0.101-0.036-0.035-0.072-0.071-0.109-0.107-0.084-0.087-0.155-0.174-0.226-0.271-0.16-0.192-0.379-0.239-0.611-0.311-0.394-0.138-0.645-0.285-0.865-0.649-0.026 0.015-0.051 0.030-0.078 0.046-0.439 0.241-0.8 0.246-1.275 0.123-0.304-0.089-0.516-0.223-0.701-0.479-0.065-0.122-0.065-0.122-0.065-0.251-0.046-0.003-0.093-0.005-0.141-0.008-0.45-0.057-0.926-0.296-1.224-0.638-0.078-0.167-0.097-0.253-0.062-0.435 0.060-0.064 0.060-0.064 0.138-0.13 0.206-0.182 0.256-0.41 0.328-0.665 0.070-0.206 0.153-0.357 0.324-0.494 0.149-0.065 0.296-0.086 0.456-0.103 0.030-0.004 0.060-0.007 0.091-0.011 0.073-0.009 0.147-0.017 0.22-0.024 0.009-0.034 0.018-0.068 0.027-0.103 0.012-0.044 0.023-0.088 0.035-0.133 0.012-0.044 0.023-0.087 0.035-0.132 0.033-0.108 0.033-0.108 0.076-0.152z"></path>
<path fill="currentColor" d="M12.819 8.521c0.36 0.336 0.561 0.735 0.597 1.227 0.025 0.793-0.356 1.376-0.786 2.007-0.169 0.25-0.323 0.508-0.476 0.768-0.024 0.041-0.048 0.081-0.073 0.123-0.093 0.159-0.184 0.317-0.265 0.483-0.054 0.104-0.054 0.104-0.14 0.147-0.143 0.024-0.143 0.024-0.303 0-0.054-0.063-0.054-0.063-0.102-0.147-0.018-0.032-0.037-0.063-0.056-0.096-0.019-0.034-0.039-0.068-0.058-0.103-0.041-0.070-0.082-0.139-0.123-0.208-0.045-0.076-0.089-0.153-0.134-0.229-0.201-0.343-0.411-0.68-0.627-1.014-0.413-0.642-0.707-1.193-0.582-1.977 0.117-0.49 0.387-0.901 0.814-1.169 0.769-0.429 1.63-0.383 2.314 0.188zM10.508 9.038c-0.225 0.301-0.312 0.643-0.299 1.018 0.077 0.526 0.451 0.995 0.738 1.431 0.144 0.22 0.282 0.444 0.419 0.669 0.087 0.153 0.087 0.153 0.224 0.256 0.013-0.022 0.026-0.045 0.040-0.068 0.238-0.402 0.479-0.801 0.736-1.192 0.307-0.47 0.573-0.894 0.505-1.473-0.090-0.417-0.337-0.705-0.683-0.94-0.521-0.31-1.29-0.152-1.678 0.3z"></path>
<path fill="currentColor" d="M15.208 2.927c0.384 0.273 0.677 0.652 0.778 1.118 0.122 0.933-0.31 1.586-0.798 2.331-0.143 0.22-0.28 0.443-0.412 0.669-0.018 0.031-0.036 0.061-0.054 0.093-0.077 0.131-0.152 0.263-0.225 0.397-0.022 0.039-0.044 0.078-0.066 0.119-0.018 0.033-0.035 0.066-0.054 0.1-0.063 0.073-0.063 0.073-0.165 0.114-0.156 0.004-0.211-0.027-0.331-0.127-0.075-0.107-0.133-0.222-0.192-0.338-0.169-0.317-0.351-0.622-0.546-0.924-0.052-0.081-0.104-0.161-0.155-0.242-0.037-0.058-0.037-0.058-0.075-0.116-0.428-0.668-0.785-1.273-0.626-2.096 0.154-0.547 0.458-0.93 0.945-1.213 0.638-0.317 1.378-0.247 1.976 0.116zM13.103 3.632c-0.239 0.309-0.351 0.647-0.303 1.038 0.097 0.415 0.337 0.769 0.562 1.124 0.025 0.039 0.050 0.078 0.075 0.119 0.155 0.244 0.31 0.488 0.466 0.731 0.046 0.073 0.090 0.147 0.132 0.223 0.020 0.031 0.041 0.063 0.062 0.095 0.029 0 0.057 0 0.086 0 0.068-0.106 0.13-0.212 0.192-0.322 0.154-0.27 0.315-0.533 0.486-0.792 0.37-0.564 0.629-1.003 0.576-1.697-0.081-0.329-0.297-0.623-0.584-0.803-0.615-0.319-1.276-0.247-1.751 0.284z"></path>
<path fill="currentColor" d="M4.997 1.217c0.414 0.312 0.675 0.733 0.755 1.247 0.069 0.899-0.388 1.535-0.861 2.252-0.248 0.379-0.471 0.771-0.69 1.166-0.12 0.209-0.12 0.209-0.257 0.257-0.138 0-0.138 0-0.24-0.082-0.151-0.161-0.247-0.355-0.352-0.547-0.18-0.323-0.369-0.637-0.573-0.946-0.902-1.369-0.902-1.369-0.743-2.235 0.067-0.279 0.177-0.497 0.343-0.73 0.025-0.038 0.050-0.077 0.076-0.116 0.679-0.697 1.734-0.784 2.543-0.266zM2.854 1.859c-0.235 0.353-0.344 0.657-0.303 1.081 0.128 0.546 0.479 1.031 0.79 1.489 0.155 0.229 0.298 0.464 0.438 0.703 0.023 0.033 0.045 0.066 0.069 0.1 0.029 0 0.057 0 0.086 0 0.029-0.053 0.029-0.053 0.059-0.107 0.166-0.295 0.339-0.583 0.525-0.866 0.557-0.826 0.557-0.826 0.67-1.795-0.083-0.352-0.275-0.652-0.584-0.846-0.582-0.303-1.281-0.261-1.751 0.241z"></path>
<path fill="currentColor" d="M9.168 4.627c0.315 0.236 0.586 0.687 0.649 1.081 0.063 0.83-0.216 1.373-0.663 2.051-0.125 0.191-0.245 0.385-0.364 0.579-0.024 0.038-0.047 0.076-0.071 0.115-0.167 0.27-0.325 0.543-0.476 0.822-0.069 0.109-0.069 0.109-0.198 0.195-0.124 0.005-0.124 0.005-0.259-0.043-0.054-0.069-0.054-0.069-0.105-0.155-0.028-0.047-0.028-0.047-0.056-0.095-0.018-0.032-0.036-0.063-0.055-0.096-0.016-0.027-0.032-0.054-0.048-0.082-0.031-0.054-0.063-0.108-0.094-0.162-0.217-0.374-0.446-0.74-0.68-1.104-0.446-0.694-0.802-1.316-0.619-2.164 0.16-0.48 0.468-0.893 0.915-1.14 0.717-0.337 1.483-0.258 2.125 0.198zM6.931 5.224c-0.209 0.254-0.296 0.527-0.331 0.851 0.070 0.657 0.494 1.202 0.849 1.739 0.144 0.219 0.28 0.44 0.409 0.667 0.018 0.026 0.037 0.053 0.056 0.080 0.029 0 0.057 0 0.086 0 0.072-0.109 0.139-0.217 0.205-0.33 0.14-0.235 0.281-0.468 0.43-0.697 0.027-0.041 0.054-0.083 0.081-0.126 0.052-0.080 0.105-0.161 0.158-0.241 0.266-0.411 0.486-0.84 0.398-1.34-0.1-0.384-0.266-0.668-0.606-0.883-0.615-0.323-1.256-0.228-1.736 0.279z"></path>
<path fill="currentColor" d="M6.789 1.773c0.142 0.076 0.142 0.076 0.276 0.178 0.045 0.033 0.090 0.066 0.136 0.1 0.129 0.133 0.152 0.186 0.15 0.37-0.032 0.132-0.078 0.257-0.127 0.384-0.013 0.034-0.025 0.068-0.038 0.103-0.031 0.083-0.063 0.166-0.094 0.249 0.029 0.029 0.057 0.057 0.086 0.086 0.126-0.001 0.247-0.006 0.373-0.016 0.035-0.002 0.069-0.005 0.105-0.007 0.086-0.006 0.171-0.013 0.257-0.020-0.014-0.029-0.029-0.057-0.043-0.086-0.019-0.267-0.019-0.267 0.046-0.386 0.135-0.074 0.233-0.061 0.386-0.046 0.069 0.020 0.137 0.042 0.205 0.065 0.289 0.093 0.56 0.090 0.857 0.038 0.144-0.082 0.143-0.164 0.192-0.319 0.143-0.161 0.237-0.23 0.454-0.243 0.216 0.013 0.31 0.085 0.454 0.243 0.080 0.161 0.096 0.289 0.092 0.468-0.001 0.042-0.002 0.084-0.002 0.128-0.001 0.032-0.002 0.064-0.003 0.096 0.047 0.012 0.095 0.023 0.143 0.035 0.23 0.074 0.23 0.074 0.289 0.181-0.006 0.166-0.026 0.274-0.114 0.416-0.070 0.099-0.070 0.099-0.054 0.216 0.040 0.109 0.084 0.154 0.168 0.232 0.026-0.008 0.052-0.017 0.079-0.025 0.26-0.081 0.518-0.141 0.785-0.191-0.014 0.186-0.029 0.371-0.043 0.562-0.681 0.29-0.681 0.29-0.995 0.216-0.288-0.135-0.511-0.41-0.649-0.692-0.015-0.184 0.008-0.309 0.086-0.476-0.027-0.023-0.055-0.046-0.083-0.070-0.11-0.126-0.122-0.209-0.144-0.374-0.006-0.047-0.013-0.093-0.020-0.141-0.004-0.035-0.008-0.071-0.013-0.107-0.043 0.059-0.043 0.059-0.086 0.119-0.165 0.199-0.396 0.309-0.649 0.357-0.086 0.004-0.171 0.006-0.257 0.005-0.044 0-0.088 0-0.134 0-0.12-0.005-0.228-0.022-0.345-0.049-0.005 0.034-0.011 0.068-0.016 0.103-0.027 0.114-0.027 0.114-0.114 0.2-0.196 0.051-0.396 0.081-0.595 0.116-0.083 0.015-0.083 0.015-0.167 0.031-0.053 0.010-0.107 0.019-0.162 0.029-0.049 0.009-0.098 0.017-0.148 0.026-0.145 0.014-0.258 0.005-0.399-0.030-0.087-0.074-0.087-0.074-0.159-0.165-0.024-0.030-0.048-0.059-0.073-0.090-0.023-0.030-0.046-0.060-0.070-0.091-0.024-0.029-0.049-0.057-0.074-0.087-0.078-0.121-0.061-0.222-0.041-0.36 0.055-0.221 0.15-0.427 0.245-0.634-0.23 0.025-0.23 0.025-0.432 0.13-0.043 0-0.086 0-0.13 0-0.015-0.061-0.029-0.122-0.043-0.184-0.008-0.034-0.016-0.068-0.024-0.103-0.019-0.102-0.019-0.102-0.019-0.275 0.058-0.037 0.117-0.073 0.176-0.108 0.033-0.020 0.065-0.040 0.099-0.061 0.151-0.062 0.255-0.066 0.417-0.047z"></path>
<path fill="currentColor" d="M12.097 9.214c0.169 0.127 0.269 0.269 0.314 0.473 0.038 0.303 0.030 0.544-0.155 0.795-0.17 0.192-0.35 0.311-0.607 0.344-0.272 0.004-0.492-0.012-0.709-0.188-0.197-0.211-0.299-0.425-0.309-0.714 0.018-0.282 0.092-0.473 0.301-0.667 0.367-0.29 0.773-0.284 1.164-0.043zM11.268 9.692c-0.079 0.146-0.095 0.221-0.068 0.384 0.089 0.127 0.153 0.166 0.3 0.216 0.136 0.011 0.136 0.011 0.254-0.068 0.115-0.128 0.138-0.194 0.138-0.365-0.075-0.161-0.075-0.161-0.216-0.259-0.225-0.026-0.225-0.026-0.408 0.092z"></path>
<path fill="currentColor" d="M8.405 5.295c0.201 0.122 0.331 0.281 0.416 0.5 0.044 0.276 0.052 0.553-0.086 0.803-0.178 0.233-0.397 0.364-0.686 0.411-0.268 0.014-0.522-0.060-0.726-0.239-0.227-0.262-0.255-0.481-0.25-0.821 0.033-0.268 0.148-0.437 0.354-0.605 0.286-0.173 0.672-0.176 0.978-0.049zM7.697 5.838c-0.101 0.152-0.112 0.21-0.086 0.389 0.106 0.144 0.17 0.207 0.346 0.243 0.176-0.037 0.24-0.1 0.346-0.243 0.032-0.132 0.032-0.132 0-0.259-0.091-0.129-0.151-0.167-0.303-0.211-0.137-0.006-0.193 0.003-0.303 0.081z"></path>
<path fill="currentColor" d="M14.506 3.661c0.215 0.096 0.345 0.242 0.456 0.447 0.085 0.254 0.079 0.545-0.008 0.797-0.151 0.213-0.304 0.372-0.554 0.457-0.314 0.037-0.58 0.040-0.84-0.155-0.193-0.173-0.282-0.324-0.328-0.58-0.004-0.29 0.047-0.5 0.216-0.735 0.307-0.284 0.65-0.339 1.057-0.231zM13.886 4.243c-0.1 0.117-0.1 0.117-0.119 0.254 0.037 0.176 0.1 0.24 0.243 0.346 0.132 0.032 0.132 0.032 0.259 0 0.129-0.091 0.167-0.151 0.211-0.303 0.006-0.137-0.003-0.193-0.081-0.303-0.196-0.131-0.321-0.137-0.514 0.005z"></path>
<path fill="currentColor" d="M4.297 1.946c0.196 0.149 0.381 0.326 0.459 0.562 0.021 0.281 0.039 0.54-0.13 0.778-0.176 0.204-0.332 0.329-0.605 0.361-0.318 0.014-0.538-0.016-0.779-0.232-0.18-0.18-0.257-0.367-0.261-0.624 0.019-0.307 0.095-0.517 0.326-0.73 0.304-0.205 0.637-0.221 0.989-0.116zM3.635 2.511c-0.097 0.12-0.097 0.12-0.116 0.257 0.037 0.176 0.1 0.24 0.243 0.346 0.132 0.032 0.132 0.032 0.259 0 0.127-0.089 0.166-0.153 0.216-0.3 0.010-0.136 0.010-0.136-0.065-0.254-0.184-0.161-0.335-0.191-0.538-0.049z"></path>
</symbol>
<symbol id="fastService" viewBox="0 0 16 16" >
<path fill="currentColor" d="M7.562 9.806c0.438 0.331 0.75 0.758 0.888 1.295 0.006 0.129 0.006 0.129 0 0.225 0.032 0.009 0.065 0.018 0.098 0.027 0.14 0.070 0.202 0.153 0.295 0.276 0.191 0.238 0.365 0.381 0.674 0.424 0.301 0.022 0.601 0.015 0.902 0.007 0.106-0.001 0.211-0.001 0.317-0.002 0.257-0.001 0.513-0.006 0.77-0.013 0 0.163 0 0.326 0 0.494-0.34 0.017-0.679 0.029-1.019 0.037-0.115 0.003-0.231 0.008-0.346 0.014-1.023 0.051-1.023 0.051-1.314-0.202-0.087-0.090-0.167-0.183-0.246-0.28-0.127-0.155-0.192-0.233-0.385-0.303-0.165-0.016-0.319-0.016-0.484-0.005-0.055 0.001-0.11 0.002-0.166 0.003-0.133 0.003-0.266 0.008-0.398 0.017 0.13 0.234 0.229 0.323 0.494 0.405 0.156 0.020 0.31 0.020 0.467 0.020 0.145 0.004 0.231 0.008 0.344 0.103 0.056 0.134 0.042 0.188-0.002 0.327-0.128 0.166-0.275 0.313-0.423 0.461-0.071 0.072-0.141 0.146-0.21 0.22-0.045 0.046-0.091 0.093-0.137 0.139-0.041 0.042-0.082 0.084-0.124 0.128-0.168 0.103-0.24 0.103-0.428 0.069-0.233-0.057-0.46-0.127-0.688-0.201-0.11-0.035-0.221-0.070-0.331-0.105-0.173-0.055-0.345-0.11-0.518-0.166-0.167-0.054-0.335-0.107-0.502-0.159-0.052-0.017-0.103-0.034-0.156-0.051-0.048-0.015-0.096-0.030-0.146-0.046-0.042-0.014-0.084-0.027-0.128-0.041-0.133-0.026-0.215-0.022-0.343 0.022-0.030 0.044-0.059 0.089-0.090 0.135 0.681 0.297 1.367 0.58 2.054 0.861 0.054 0.022 0.054 0.022 0.109 0.045 0.072 0.029 0.144 0.059 0.216 0.088 0.179 0.072 0.356 0.147 0.532 0.226 0.034 0.015 0.069 0.030 0.104 0.046 0.065 0.029 0.13 0.058 0.194 0.088 0.148 0.064 0.234 0.090 0.394 0.056 0.042-0.020 0.084-0.039 0.127-0.060 0.038-0.017 0.075-0.033 0.114-0.050 0.037-0.018 0.074-0.036 0.112-0.054 0.041-0.020 0.082-0.039 0.124-0.059s0.084-0.041 0.127-0.061c0.042-0.020 0.085-0.041 0.128-0.061 0.213-0.1 0.213-0.1 0.419-0.211 0.121-0.052 0.211-0.053 0.342-0.053 0.049 0 0.097 0 0.147 0 0.052 0 0.104 0.001 0.158 0.001 0.080 0 0.080 0 0.162 0 0.171 0.001 0.343 0.002 0.514 0.003 0.116 0 0.232 0.001 0.348 0.001 0.285 0.001 0.569 0.003 0.854 0.004 0 0.178 0 0.356 0 0.539-0.067-0.001-0.134-0.001-0.203-0.002-0.252-0.001-0.504-0.001-0.756 0.001-0.108 0-0.217 0-0.325-0.001-0.686-0.005-1.189 0.034-1.772 0.406-0.104 0.056-0.209 0.108-0.315 0.16-0.065 0.033-0.065 0.033-0.132 0.068-0.288 0.088-0.559-0.013-0.825-0.13-0.031-0.013-0.061-0.026-0.093-0.039-0.101-0.043-0.201-0.086-0.302-0.129-0.107-0.046-0.215-0.091-0.322-0.137-0.075-0.032-0.15-0.064-0.225-0.095-0.275-0.117-0.551-0.231-0.828-0.344-0.059-0.024-0.059-0.024-0.119-0.049-0.154-0.063-0.307-0.125-0.461-0.188-1.144-0.466-1.144-0.466-1.278-0.6-0.037-0.292 0.098-0.456 0.259-0.686 0.129-0.158 0.226-0.228 0.415-0.302 0.045 0 0.089 0 0.135 0-0.010-0.034-0.019-0.067-0.029-0.102-0.168-0.619-0.144-1.182 0.173-1.755 0.302-0.479 0.734-0.852 1.291-0.998 0.629-0.096 1.225-0.051 1.768 0.302zM5.169 10.472c-0.109 0.127-0.192 0.256-0.27 0.405-0.015 0.027-0.030 0.054-0.046 0.082-0.176 0.372-0.138 0.853-0.010 1.233 0.066 0.172 0.129 0.247 0.281 0.348 0.098 0.044 0.098 0.044 0.205 0.077 0.040 0.013 0.081 0.027 0.122 0.041 0.184 0.059 0.368 0.118 0.552 0.176 0.097 0.031 0.194 0.062 0.291 0.094 0.14 0.046 0.28 0.091 0.42 0.135 0.043 0.015 0.086 0.029 0.13 0.045 0.224 0.072 0.224 0.072 0.443 0.013 0.129-0.107 0.215-0.216 0.308-0.356-0.035-0.012-0.071-0.024-0.107-0.037-0.37-0.138-0.624-0.286-0.796-0.651-0.069-0.189-0.115-0.368-0.086-0.571 0.051-0.073 0.051-0.073 0.135-0.135 0.127-0.019 0.127-0.019 0.279-0.023 0.054-0.002 0.109-0.003 0.165-0.005s0.114-0.002 0.172-0.003c0.057-0.002 0.115-0.003 0.174-0.005 0.142-0.004 0.283-0.007 0.425-0.009-0.020-0.071-0.040-0.142-0.060-0.213-0.011-0.040-0.022-0.079-0.034-0.12-0.126-0.357-0.448-0.67-0.777-0.849-0.695-0.317-1.352-0.181-1.916 0.328z"></path>
<path fill="currentColor" d="M13.74 1.663c0.597 0.502 0.965 1.202 1.047 1.978 0.064 0.763-0.176 1.52-0.664 2.109-0.401 0.449-0.908 0.756-1.493 0.902-0.033 0.008-0.066 0.017-0.1 0.026-0.743 0.115-1.499 0.021-2.134-0.398-0.669-0.499-1.092-1.117-1.249-1.94-0.11-0.775 0.074-1.485 0.515-2.13 0.086-0.112 0.176-0.217 0.272-0.321 0.026-0.028 0.051-0.056 0.077-0.085 1.008-0.986 2.641-0.94 3.73-0.14zM10.517 2.067c0.059 0.074 0.119 0.148 0.18 0.225-0.067 0.171-0.169 0.252-0.315 0.36-0.028-0.030-0.056-0.059-0.084-0.090-0.085-0.1-0.085-0.1-0.185-0.090-0.248 0.348-0.449 0.735-0.449 1.169 0.148 0 0.297 0 0.449 0 0 0.163 0 0.326 0 0.494-0.148 0-0.297 0-0.449 0 0.025 0.428 0.193 0.827 0.449 1.169 0.039-0.021 0.039-0.021 0.079-0.042 0.033-0.016 0.067-0.032 0.101-0.048 0.029-0.014 0.057-0.028 0.087-0.042 0.093-0.003 0.093-0.003 0.216 0.107 0.033 0.038 0.067 0.076 0.101 0.115-0.054 0.112-0.11 0.21-0.18 0.315 0.377 0.257 0.712 0.436 1.169 0.494 0-0.148 0-0.297 0-0.449 0.178 0 0.356 0 0.539 0 0 0.148 0 0.297 0 0.449 0.419-0.089 0.885-0.191 1.169-0.539-0.059-0.059-0.119-0.119-0.18-0.18 0.057-0.128 0.11-0.231 0.225-0.315 0.134 0.013 0.24 0.074 0.36 0.135 0.232-0.343 0.449-0.744 0.449-1.169-0.148 0-0.297 0-0.449 0 0-0.163 0-0.326 0-0.494 0.148 0 0.297 0 0.449 0-0.058-0.442-0.202-0.797-0.449-1.169-0.112 0.054-0.21 0.11-0.315 0.18-0.089-0.089-0.178-0.178-0.27-0.27 0.054-0.112 0.11-0.21 0.18-0.315-0.364-0.237-0.726-0.449-1.169-0.449 0 0.148 0 0.297 0 0.449-0.178 0-0.356 0-0.539 0 0-0.148 0-0.297 0-0.449-0.443 0-0.805 0.213-1.169 0.449z"></path>
<path fill="currentColor" d="M2.469 1.511c0.037-0.002 0.075-0.004 0.114-0.007 0.163 0.034 0.243 0.118 0.339 0.248 0.065 0.111 0.124 0.224 0.184 0.337 0.187 0.382 0.187 0.382 0.51 0.63 0.136 0.009 0.251 0.005 0.384-0.024 0.021-0.043 0.021-0.043 0.042-0.087 0.048-0.093 0.048-0.093 0.093-0.138 0.235-0.013 0.471-0.014 0.706-0.016 0.079-0.001 0.159-0.002 0.238-0.004 0.114-0.002 0.229-0.003 0.343-0.004 0.036-0.001 0.071-0.002 0.108-0.003 0.1 0 0.1 0 0.268 0.027 0.12 0.155 0.152 0.272 0.152 0.465 0 0.047 0.001 0.094 0.001 0.142-0 0.050-0.001 0.1-0.001 0.152s0 0.104 0 0.158c0 0.11-0 0.22-0.001 0.33-0.001 0.168 0 0.336 0.001 0.504-0 0.107-0 0.214-0.001 0.32 0 0.050 0.001 0.1 0.001 0.152-0.001 0.070-0.001 0.070-0.001 0.142-0 0.041-0 0.082-0 0.125-0.021 0.143-0.064 0.227-0.152 0.341-0.133 0.022-0.239 0.029-0.372 0.027-0.036 0-0.073 0-0.11 0-0.077-0-0.154-0.001-0.231-0.002-0.118-0.002-0.235-0.002-0.353-0.002-0.075-0-0.149-0.001-0.224-0.002-0.053-0-0.053-0-0.107-0-0.241-0.005-0.241-0.005-0.356-0.079-0.073-0.126-0.053-0.25-0.045-0.391-0.361-0.013-0.361-0.013-0.685 0.115-0.079 0.082-0.079 0.082-0.143 0.169-0.127 0.137-0.265 0.164-0.448 0.178-0.331 0.002-0.331 0.002-0.463 0.002-0.099-0-0.198 0.001-0.298 0.002-0.064 0-0.127 0-0.191 0-0.057 0-0.115 0-0.174 0-0.224-0.024-0.371-0.094-0.53-0.253-0.159-0.249-0.189-0.535-0.219-0.823-0.006-0.053-0.006-0.053-0.011-0.106-0.089-0.903-0.089-0.903 0.107-1.172 0.146-0.15 0.29-0.265 0.506-0.274 0.036 0.001 0.072 0.001 0.109 0.002 0.054 0.001 0.054 0.001 0.11 0.001 0.028 0.001 0.055 0.001 0.084 0.002-0.015-0.029-0.030-0.057-0.045-0.087-0.077-0.237-0.076-0.453 0.006-0.688 0.113-0.165 0.242-0.312 0.439-0.376 0.107-0.019 0.209-0.030 0.317-0.034zM2.157 2.202c0.082 0.291 0.082 0.291 0.191 0.573 0.045 0.135 0.021 0.234-0.011 0.371-0.121 0.040-0.197 0.051-0.322 0.054-0.036 0.001-0.071 0.003-0.108 0.004-0.075 0.002-0.15 0.004-0.225 0.006-0.036 0.001-0.071 0.003-0.108 0.004-0.033 0.001-0.065 0.002-0.099 0.003-0.101 0.013-0.101 0.013-0.172 0.154-0.003 0.211 0.023 0.42 0.045 0.629 0.003 0.031 0.006 0.062 0.009 0.093 0.009 0.092 0.020 0.183 0.030 0.275 0.006 0.055 0.013 0.111 0.019 0.168 0.033 0.148 0.047 0.185 0.166 0.273 0.188 0.034 0.379 0.029 0.57 0.031 0.052 0.002 0.104 0.005 0.158 0.007 0.295 0.005 0.295 0.005 0.555-0.119 0.088-0.089 0.166-0.182 0.245-0.279 0.101-0.050 0.164-0.054 0.276-0.059 0.049-0.003 0.049-0.003 0.099-0.005 0.062-0.003 0.062-0.003 0.126-0.006 0.132-0.006 0.263-0.013 0.399-0.020 0-0.371 0-0.742 0-1.124-0.229-0.013-0.229-0.013-0.457-0.026-0.337-0.020-0.337-0.020-0.442-0.064-0.049-0.102-0.049-0.102-0.090-0.225-0.075-0.15-0.157-0.295-0.239-0.441-0.021-0.040-0.043-0.079-0.065-0.12-0.021-0.038-0.042-0.075-0.064-0.114-0.019-0.034-0.038-0.069-0.057-0.104-0.066-0.087-0.066-0.087-0.185-0.090-0.128 0.018-0.166 0.051-0.244 0.15zM4.494 2.966c0 0.608 0 1.216 0 1.843 0.297 0 0.593 0 0.899 0 0-0.608 0-1.216 0-1.843-0.297 0-0.593 0-0.899 0z"></path>
<path fill="currentColor" d="M7.75 5.017c0.089-0.002 0.089-0.002 0.18-0.004 0.16 0.021 0.16 0.021 0.269 0.1 0.109 0.155 0.103 0.274 0.116 0.46 0.151-0.018 0.253-0.034 0.382-0.118 0.15-0.083 0.218-0.061 0.382-0.017 0.213 0.152 0.386 0.313 0.438 0.573-0.034 0.149-0.087 0.242-0.169 0.371-0.011 0.122-0.011 0.122 0 0.225 0.132 0.009 0.132 0.009 0.263 0.018 0.138 0.039 0.191 0.091 0.276 0.207 0.025 0.159 0.025 0.159 0.025 0.337 0.001 0.059 0.002 0.118 0.003 0.178-0.028 0.159-0.028 0.159-0.132 0.266-0.149 0.088-0.269 0.123-0.436 0.162 0.025 0.152 0.047 0.228 0.135 0.36 0.024 0.192 0.022 0.282-0.089 0.444-0.059 0.057-0.059 0.057-0.119 0.115-0.039 0.039-0.077 0.078-0.117 0.118-0.148 0.104-0.217 0.113-0.394 0.087-0.092-0.041-0.092-0.041-0.169-0.093-0.048-0.029-0.096-0.057-0.146-0.087-0.098 0.037-0.098 0.037-0.125 0.135-0.011 0.036-0.021 0.072-0.032 0.11-0.058 0.195-0.058 0.195-0.157 0.295-0.128 0.011-0.251 0.017-0.379 0.017-0.035 0.001-0.070 0.002-0.106 0.003-0.255 0.001-0.255 0.001-0.369-0.099-0.070-0.155-0.076-0.291-0.090-0.46-0.17 0.045-0.302 0.081-0.449 0.18-0.177 0.026-0.247 0.016-0.394-0.089-0.039-0.039-0.077-0.079-0.117-0.119-0.039-0.039-0.079-0.077-0.119-0.117-0.105-0.147-0.113-0.218-0.089-0.394 0.043-0.076 0.088-0.151 0.135-0.225 0-0.059 0-0.119 0-0.18-0.047-0.017-0.047-0.017-0.095-0.035-0.041-0.015-0.082-0.031-0.124-0.047-0.041-0.015-0.081-0.030-0.123-0.046-0.107-0.053-0.107-0.053-0.197-0.187-0.012-0.135-0.012-0.135-0.011-0.289-0-0.051-0-0.102-0.001-0.154 0.012-0.137 0.019-0.212 0.102-0.32 0.107-0.047 0.107-0.047 0.23-0.079 0.041-0.011 0.082-0.022 0.124-0.033 0.031-0.008 0.063-0.015 0.095-0.023-0.022-0.168-0.039-0.261-0.135-0.404-0.031-0.14-0.031-0.14 0-0.315 0.148-0.199 0.3-0.375 0.543-0.444 0.138-0.006 0.184 0.004 0.294 0.082 0.148 0.108 0.148 0.108 0.331 0.093 0.005-0.031 0.010-0.063 0.015-0.095 0.007-0.041 0.014-0.082 0.022-0.124 0.007-0.041 0.014-0.081 0.021-0.123 0.074-0.241 0.29-0.213 0.502-0.214zM7.73 5.528c-0.009 0.027-0.018 0.054-0.027 0.082-0.074 0.197-0.133 0.335-0.324 0.438-0.171 0.070-0.318 0.086-0.503 0.065-0.045-0.030-0.089-0.059-0.135-0.090-0.045 0-0.089 0-0.135 0 0.014 0.032 0.028 0.065 0.042 0.098 0.087 0.23 0.108 0.356 0.006 0.584-0.070 0.148-0.070 0.148-0.093 0.306-0.133 0.030-0.267 0.059-0.404 0.090 0.015 0.045 0.030 0.089 0.045 0.135 0.048 0.007 0.096 0.015 0.146 0.022 0.132 0.031 0.164 0.060 0.241 0.175 0.167 0.351 0.144 0.519 0.018 0.881 0.032-0.014 0.063-0.028 0.096-0.042 0.286-0.106 0.466-0.1 0.746 0.019 0.173 0.116 0.227 0.279 0.282 0.473 0.030 0 0.059 0 0.090 0 0.007-0.041 0.007-0.041 0.014-0.082 0.041-0.172 0.071-0.288 0.221-0.391 0.281-0.119 0.463-0.124 0.749-0.019 0.032 0.014 0.063 0.028 0.095 0.042-0.023-0.097-0.045-0.18-0.090-0.27-0.027-0.268 0.021-0.5 0.18-0.719 0.121-0.073 0.22-0.1 0.36-0.135 0-0.030 0-0.059 0-0.090-0.056-0.015-0.111-0.030-0.169-0.045-0.153-0.058-0.225-0.111-0.303-0.256-0.098-0.236-0.104-0.444-0.022-0.688 0.015-0.030 0.030-0.059 0.045-0.090-0.097 0.023-0.18 0.045-0.27 0.090-0.243-0.002-0.477-0.033-0.674-0.18-0.074-0.13-0.13-0.264-0.18-0.404-0.015 0-0.030 0-0.045 0z"></path>
<path fill="currentColor" d="M2.157 5.663c0.197 0.023 0.33 0.068 0.494 0.18-0.013 0.036-0.013 0.036-0.025 0.073-0.086 0.252-0.16 0.506-0.227 0.764-0.010 0.036-0.019 0.073-0.030 0.11-0.009 0.036-0.019 0.071-0.028 0.108-0.008 0.032-0.017 0.063-0.025 0.096-0.168 0.767-0.147 1.734 0.066 2.49 0.015 0.055 0.031 0.11 0.046 0.167 0.239 0.78 0.641 1.491 1.175 2.106 0.122 0.162 0.122 0.162 0.127 0.288-0.050 0.077-0.050 0.077-0.124 0.146-0.024 0.023-0.048 0.047-0.072 0.071-0.074 0.053-0.074 0.053-0.209 0.053-0.962-0.964-1.615-2.459-1.663-3.82-0.002-0.057-0.005-0.114-0.007-0.173-0.024-0.881 0.089-1.867 0.501-2.658z"></path>
<path fill="currentColor" d="M13.708 6.876c0.42 1.315 0.051 2.843-0.539 4.045-0.246 0.474-0.565 0.888-0.899 1.303-0.162-0.025-0.225-0.079-0.326-0.205-0.023-0.029-0.047-0.058-0.071-0.087-0.017-0.022-0.035-0.044-0.053-0.067 0.018-0.018 0.035-0.036 0.053-0.055 0.657-0.713 1.062-1.574 1.295-2.507 0.011-0.042 0.021-0.084 0.032-0.128 0.156-0.731 0.098-1.474 0.013-2.209 0.173-0.061 0.31-0.101 0.494-0.090z"></path>
<path fill="currentColor" d="M3.551 5.483c0.161 0.062 0.303 0.133 0.449 0.225-0.027 0.195-0.1 0.339-0.194 0.511-0.172 0.328-0.265 0.656-0.345 1.017-0.008 0.035-0.016 0.069-0.024 0.105-0.119 0.678-0.071 1.449 0.159 2.098 0.018 0.053 0.037 0.107 0.056 0.162 0.077 0.212 0.158 0.413 0.276 0.605 0.073 0.132 0.073 0.132 0.081 0.23-0.091 0.139-0.22 0.189-0.368 0.261-0.030 0-0.059 0-0.090 0-0.699-1.32-0.938-2.686-0.494-4.135 0.125-0.384 0.287-0.732 0.494-1.078z"></path>
<path fill="currentColor" d="M12.584 7.101c0.312 1.166 0.017 2.468-0.56 3.498-0.215 0.364-0.484 0.703-0.788 0.996-0.192-0.071-0.282-0.203-0.405-0.36 0.027-0.029 0.027-0.029 0.055-0.058 0.71-0.781 1.224-1.789 1.249-2.863 0.001-0.034 0.002-0.068 0.004-0.103 0.006-0.341-0.023-0.681-0.049-1.021 0.172-0.064 0.311-0.101 0.494-0.090z"></path>
<path fill="currentColor" d="M8.098 6.5c0.174 0.097 0.265 0.194 0.351 0.376 0.062 0.217 0.067 0.391-0.028 0.598-0.104 0.181-0.234 0.297-0.421 0.39-0.235 0.023-0.433 0.029-0.649-0.073-0.169-0.157-0.28-0.268-0.312-0.504-0.008-0.213 0-0.372 0.085-0.569 0.279-0.279 0.6-0.384 0.975-0.219zM7.551 7.056c0.014 0.139 0.014 0.139 0.045 0.27 0.105 0.035 0.105 0.035 0.225 0.045 0.090-0.045 0.090-0.045 0.135-0.135-0.011-0.149-0.011-0.149-0.090-0.27-0.178-0.018-0.178-0.018-0.315 0.090z"></path>
<path fill="currentColor" d="M6.966 10.562c-0.074 0.148-0.148 0.297-0.225 0.449-0.059-0.015-0.119-0.030-0.18-0.045-0.213-0.024-0.363-0.021-0.556 0.079-0.16 0.137-0.235 0.217-0.292 0.421-0.007 0.227 0.054 0.411 0.129 0.624-0.040 0.047-0.082 0.092-0.124 0.138-0.023 0.026-0.046 0.051-0.070 0.077-0.077 0.055-0.077 0.055-0.169 0.050-0.147-0.068-0.204-0.213-0.267-0.355-0.104-0.335-0.078-0.679 0.082-0.989 0.198-0.334 0.465-0.516 0.84-0.613 0.298-0.041 0.574 0.008 0.831 0.164z"></path>
<path fill="currentColor" d="M7.767 2.008c0.059-0 0.118-0 0.178-0.001 0.356 0.003 0.694 0.033 1.044 0.105-0.039 0.393-0.039 0.393-0.090 0.494-0.051-0.005-0.051-0.005-0.103-0.010-0.82-0.069-1.604-0.048-2.414 0.1-0.058-0.185-0.102-0.345-0.090-0.539 0.489-0.122 0.972-0.149 1.475-0.149z"></path>
<path fill="currentColor" d="M11.685 2.472c0.178 0 0.356 0 0.539 0 0.008 0.205 0.014 0.409 0.017 0.614 0.002 0.070 0.004 0.139 0.006 0.208 0.025 0.651 0.025 0.651-0.167 0.873-0.056 0.051-0.113 0.1-0.171 0.147-0.043 0.044-0.087 0.088-0.129 0.133-0.038 0.038-0.076 0.075-0.115 0.114s-0.078 0.077-0.118 0.117c-0.029 0.028-0.058 0.057-0.087 0.086-0.192-0.071-0.282-0.202-0.405-0.36 0.042-0.027 0.083-0.053 0.126-0.080 0.246-0.183 0.428-0.353 0.49-0.664 0.044-0.393 0.031-0.794 0.013-1.188z"></path>
<path fill="currentColor" d="M7.761 3.18c0.057-0 0.114-0.001 0.172-0.001 0.292 0.001 0.551 0.014 0.83 0.102-0.030 0.163-0.059 0.326-0.090 0.494-0.056-0.007-0.111-0.015-0.169-0.022-0.593-0.057-1.17-0.047-1.751 0.083-0.148 0.030-0.148 0.030-0.372 0.030-0.045-0.148-0.089-0.297-0.135-0.449 0.498-0.207 0.978-0.239 1.514-0.236z"></path>
</symbol>
<symbol id="shareYourRequirements" viewBox="0 0 21 16" >
<path fill="currentColor" d="M6.021 0.962c0.030-0 0.060-0.001 0.092-0.001 0.102-0.001 0.204-0.001 0.306-0.002 0.073-0 0.146-0.001 0.218-0.002 0.24-0.002 0.479-0.003 0.719-0.004 0.041-0 0.082-0 0.124-0.001 0.384-0.002 0.769-0.003 1.153-0.004 0.492-0.001 0.984-0.003 1.475-0.007 0.346-0.002 0.692-0.004 1.037-0.004 0.207-0 0.413-0.001 0.62-0.003 0.194-0.002 0.389-0.002 0.583-0.002 0.071-0 0.142-0.001 0.214-0.002 0.605-0.009 0.605-0.009 0.801 0.167 0.026 0.028 0.052 0.056 0.079 0.085 0.112 0.116 0.238 0.201 0.371 0.291 1.047 0.73 2.251 1.676 2.508 2.992 0.22 1.315 0.125 2.689 0.057 4.014-0.029 0.573-0.041 1.147-0.052 1.72-0.017 0.845-0.040 1.689-0.080 2.533-0.004 0.090-0.008 0.181-0.012 0.271-0.005 0.123-0.011 0.246-0.018 0.369-0.001 0.036-0.003 0.072-0.004 0.109-0.009 0.157-0.023 0.251-0.119 0.378-0.113 0.081-0.174 0.086-0.312 0.083-0.062-0.001-0.062-0.001-0.125-0.002-0.064-0.002-0.064-0.002-0.129-0.004-0.043-0.001-0.087-0.002-0.131-0.002-0.107-0.002-0.214-0.005-0.32-0.009 0.001 0.030 0.002 0.059 0.004 0.090 0.005 0.134 0.007 0.269 0.010 0.404 0.003 0.070 0.003 0.070 0.006 0.141 0.001 0.045 0.001 0.090 0.002 0.136 0.002 0.062 0.002 0.062 0.004 0.125-0.037 0.173-0.106 0.23-0.245 0.338-0.138 0.032-0.272 0.030-0.413 0.028-0.063 0.001-0.063 0.001-0.127 0.001-0.14 0.001-0.28 0-0.42-0.001-0.1 0-0.201 0.001-0.301 0.001-0.273 0.001-0.546 0.001-0.819-0-0.285-0.001-0.571-0-0.856 0-0.51 0-1.020-0-1.53-0.001-0.462-0.001-0.925-0.001-1.387 0-0.537 0.001-1.074 0.002-1.611 0.001-0.284-0-0.568-0-0.853 0-0.267 0.001-0.534 0-0.801-0.001-0.098-0-0.196-0-0.294 0-0.134 0.001-0.268-0-0.401-0.001-0.039 0-0.078 0.001-0.118 0.001-0.178-0.003-0.275-0.017-0.429-0.11-0.129-0.21-0.117-0.398-0.114-0.64-0-0.051-0.001-0.102-0.001-0.155-0.001-0.142-0-0.284 0-0.425 0-0.153-0-0.306-0.001-0.459-0.001-0.3-0.001-0.599-0-0.899 0-0.244 0.001-0.487 0-0.731-0-0.035-0-0.069-0-0.105-0-0.070-0-0.141-0-0.211-0.001-0.66 0-1.32 0.001-1.98 0.001-0.567 0.001-1.133-0-1.7-0.001-0.658-0.002-1.316-0.001-1.973 0-0.070 0-0.14 0-0.21 0-0.035 0-0.069 0-0.105 0-0.243-0-0.486-0.001-0.73-0.001-0.296-0-0.593 0.001-0.889 0.001-0.151 0.001-0.302 0-0.454-0.001-0.164 0-0.328 0.001-0.492-0-0.048-0.001-0.096-0.001-0.145 0.004-0.321 0.004-0.321 0.135-0.495 0.125-0.087 0.179-0.107 0.329-0.102 0.059 0.001 0.059 0.001 0.118 0.002 0.040 0.002 0.080 0.004 0.122 0.006s0.082 0.002 0.124 0.003c0.101 0.003 0.202 0.006 0.303 0.011-0.001-0.028-0.001-0.056-0.002-0.086-0.003-0.129-0.004-0.257-0.006-0.386-0.001-0.044-0.002-0.089-0.003-0.135-0.004-0.414-0.004-0.414 0.144-0.584 0.127-0.064 0.237-0.051 0.379-0.051zM6.259 1.675c0 0.175 0 0.349 0 0.529 0.104-0.005 0.104-0.005 0.21-0.011 0.662-0.033 1.324-0.055 1.987-0.068 0.341-0.007 0.681-0.017 1.021-0.036 2.448-0.132 2.448-0.132 3.303 0.629 0.384 0.355 0.719 0.759 1.031 1.178 0.151 0.198 0.322 0.354 0.514 0.511 0.060 0.056 0.119 0.114 0.178 0.172 0.028 0.028 0.057 0.057 0.086 0.086 0.043 0.043 0.043 0.043 0.086 0.087 0.030 0.029 0.059 0.059 0.090 0.089 0.028 0.028 0.056 0.056 0.085 0.085 0.025 0.025 0.050 0.051 0.076 0.077 0.13 0.143 0.111 0.288 0.111 0.471 0 0.033 0 0.066 0.001 0.1 0.001 0.111 0.001 0.222 0.001 0.334 0 0.079 0.001 0.159 0.001 0.238 0.001 0.216 0.002 0.433 0.003 0.649 0.001 0.226 0.002 0.452 0.003 0.678 0.002 0.428 0.004 0.856 0.006 1.284 0.002 0.487 0.005 0.974 0.007 1.461 0.005 1.002 0.010 2.004 0.014 3.006 0.131 0 0.262 0 0.397 0 0.061-1.121 0.107-2.242 0.135-3.365 0.013-0.522 0.031-1.042 0.061-1.563 0.199-2.802 0.199-2.802-0.962-5.258-0.881-0.976-1.889-1.533-3.208-1.607-0.588-0.024-1.173 0.011-1.759 0.058-0.381 0.030-0.761 0.044-1.143 0.056-0.78 0.027-1.558 0.073-2.337 0.131zM5.157 2.909c0 3.811 0 7.622 0 11.548 3.040 0 6.080 0 9.212 0 0-2.895 0-5.789 0-8.771-1.287-0.022-1.287-0.022-2.601-0.044-0.646-0.646-0.204-1.819-0.22-2.733-2.109 0-4.218 0-6.391 0zM12.298 3.438c0 0.509 0 1.018 0 1.543 0.509 0 1.018 0 1.543 0-0.199-0.235-0.199-0.235-0.407-0.457-0.025-0.025-0.049-0.049-0.074-0.075-0.038-0.038-0.038-0.038-0.077-0.077-0.027-0.027-0.054-0.054-0.082-0.082-0.056-0.056-0.113-0.113-0.169-0.169-0.087-0.086-0.173-0.173-0.26-0.26-0.055-0.055-0.11-0.11-0.165-0.165-0.026-0.026-0.052-0.052-0.079-0.079-0.099-0.123-0.099-0.123-0.23-0.18z"></path>
<path fill="currentColor" d="M9.163 9.118c0.041-0 0.081-0 0.123-0 0.135-0 0.269-0.001 0.404-0.001 0.093-0 0.187-0 0.28-0 0.196-0 0.392-0 0.588-0 0.251 0 0.502-0.001 0.754-0.001 0.193-0 0.386-0.001 0.579-0.001 0.093-0 0.185-0 0.278-0.001 0.129-0 0.259-0 0.388-0 0.058-0 0.058-0 0.116-0.001 0.035 0 0.071 0 0.107 0.001 0.031-0 0.061-0 0.093-0 0.104 0.013 0.174 0.046 0.263 0.099 0.101 0.142 0.109 0.27 0.088 0.441-0.082 0.101-0.148 0.162-0.264 0.22-0.131 0.005-0.26 0.007-0.391 0.007-0.040 0-0.081 0-0.123 0.001-0.134 0.001-0.269 0.001-0.403 0.001-0.093 0-0.186 0.001-0.28 0.001-0.196 0-0.391 0.001-0.587 0.001-0.251 0-0.502 0.001-0.752 0.003-0.193 0.001-0.385 0.001-0.578 0.001-0.092 0-0.185 0-0.277 0.001-0.129 0.001-0.259 0.001-0.388 0-0.038 0-0.076 0.001-0.116 0.001-0.207-0.001-0.345-0.014-0.513-0.149-0.068-0.136-0.057-0.247-0.044-0.397 0.19-0.241 0.367-0.227 0.656-0.227z"></path>
<path fill="currentColor" d="M9.163 11.233c0.041-0 0.081-0 0.123-0 0.135-0 0.269-0.001 0.404-0.001 0.093-0 0.187-0 0.28-0 0.196-0 0.392-0 0.588-0 0.251 0 0.502-0.001 0.754-0.001 0.193-0 0.386-0.001 0.579-0.001 0.093-0 0.185-0 0.278-0.001 0.129-0 0.259-0 0.388-0 0.058-0 0.058-0 0.116-0.001 0.035 0 0.071 0 0.107 0.001 0.031-0 0.061-0 0.093-0 0.138 0.017 0.235 0.063 0.321 0.174 0.044 0.149 0.022 0.26-0.014 0.41-0.070 0.091-0.119 0.125-0.22 0.176-0.131 0.005-0.261 0.006-0.392 0.006-0.041 0-0.081 0-0.123 0-0.135 0-0.269 0.001-0.404 0.001-0.093 0-0.187 0-0.28 0-0.196 0-0.392 0-0.588 0-0.251 0-0.502 0.001-0.754 0.001-0.193 0-0.386 0.001-0.579 0.001-0.093 0-0.185 0-0.278 0.001-0.129 0-0.259 0-0.388 0-0.058 0-0.058 0-0.116 0.001-0.035-0-0.071-0-0.107-0.001-0.031 0-0.061 0-0.093 0-0.105-0.013-0.173-0.043-0.263-0.099-0.109-0.164-0.109-0.247-0.088-0.441 0.19-0.241 0.367-0.227 0.656-0.227z"></path>
<path fill="currentColor" d="M9.101 12.401c0.063-0.001 0.063-0.001 0.128-0.001 0.14-0.001 0.28-0 0.42 0 0.097-0 0.194-0 0.291-0.001 0.204-0 0.407 0 0.611 0.001 0.261 0.001 0.522 0.001 0.783-0.001 0.201-0.001 0.401-0.001 0.602 0 0.096 0 0.193-0 0.289-0.001 0.135-0.001 0.269 0 0.404 0.002 0.060-0.001 0.060-0.001 0.121-0.001 0.269 0.005 0.269 0.005 0.41 0.134 0.079 0.145 0.094 0.219 0.064 0.381-0.088 0.12-0.159 0.206-0.308 0.241-0.109 0.008-0.217 0.009-0.326 0.008-0.041 0-0.083 0.001-0.125 0.001-0.137 0.001-0.273 0-0.41-0-0.095 0-0.19 0-0.285 0.001-0.199 0-0.398-0-0.597-0.001-0.255-0.001-0.51-0.001-0.765 0.001-0.196 0.001-0.392 0.001-0.589-0-0.094-0-0.188 0-0.282 0.001-0.131 0.001-0.263-0-0.394-0.002-0.039 0-0.078 0.001-0.118 0.001-0.194-0.003-0.273-0.012-0.431-0.134-0.086-0.117-0.086-0.117-0.111-0.249 0.070-0.372 0.293-0.385 0.619-0.381z"></path>
<path fill="currentColor" d="M9.142 7.95c0.041-0 0.083-0.001 0.126-0.001 0.137-0.001 0.274 0 0.41 0.001 0.095-0 0.19-0 0.285-0 0.199-0 0.398 0.001 0.598 0.002 0.255 0.002 0.511 0.001 0.766 0 0.196-0 0.393-0 0.589 0.001 0.094 0 0.188 0 0.283-0 0.132-0 0.263 0.001 0.395 0.002 0.039-0 0.078-0.001 0.118-0.001 0.263 0.004 0.263 0.004 0.402 0.106 0.085 0.124 0.106 0.209 0.109 0.359-0.050 0.103-0.096 0.184-0.176 0.264-0.135 0.005-0.268 0.007-0.403 0.008-0.042 0-0.085 0.001-0.128 0.001-0.141 0.001-0.281 0.001-0.422 0.002-0.048 0-0.096 0-0.145 0.001-0.253 0.001-0.507 0.002-0.76 0.002-0.262 0-0.524 0.002-0.787 0.004-0.201 0.001-0.402 0.002-0.604 0.002-0.097 0-0.193 0.001-0.29 0.002-0.135 0.001-0.27 0.001-0.406 0.001-0.060 0.001-0.060 0.001-0.122 0.002-0.27-0.002-0.27-0.002-0.411-0.102-0.095-0.144-0.090-0.236-0.063-0.405 0.183-0.252 0.347-0.252 0.635-0.248z"></path>
<path fill="currentColor" d="M7.713 11.107c0.109 0.071 0.129 0.122 0.168 0.246 0.012 0.212-0.065 0.348-0.16 0.534-0.018 0.036-0.036 0.072-0.054 0.11-0.057 0.115-0.116 0.23-0.175 0.345-0.029 0.058-0.029 0.058-0.059 0.117-0.058 0.114-0.116 0.227-0.175 0.34-0.018 0.035-0.036 0.070-0.054 0.105-0.247 0.467-0.247 0.467-0.458 0.539-0.216 0-0.324-0.102-0.475-0.25-0.041-0.045-0.082-0.090-0.123-0.136-0.021-0.024-0.042-0.047-0.064-0.072-0.060-0.067-0.119-0.136-0.178-0.204-0.027-0.031-0.053-0.061-0.080-0.092-0.1-0.125-0.14-0.217-0.168-0.376 0.035-0.191 0.091-0.256 0.248-0.369 0.127-0.030 0.127-0.030 0.264 0 0.165 0.11 0.287 0.232 0.397 0.397 0.053-0.093 0.107-0.185 0.16-0.278 0.016-0.028 0.032-0.056 0.048-0.084 0.121-0.212 0.237-0.426 0.351-0.642 0.151-0.251 0.301-0.301 0.587-0.23z"></path>
<path fill="currentColor" d="M7.585 7.565c0.084 0.017 0.084 0.017 0.194 0.083 0.092 0.153 0.089 0.29 0.066 0.463-0.045 0.136-0.109 0.259-0.175 0.385-0.018 0.035-0.036 0.071-0.055 0.107-0.038 0.074-0.077 0.148-0.115 0.222-0.059 0.113-0.117 0.226-0.175 0.339-0.037 0.072-0.075 0.144-0.112 0.216-0.017 0.034-0.034 0.067-0.052 0.102-0.099 0.187-0.188 0.322-0.373 0.436-0.184 0.003-0.274-0.012-0.411-0.137-0.135-0.145-0.265-0.293-0.393-0.444-0.024-0.028-0.048-0.055-0.072-0.084-0.171-0.2-0.244-0.301-0.24-0.57 0.015-0.087 0.015-0.087 0.109-0.197 0.151-0.079 0.223-0.097 0.391-0.066 0.163 0.118 0.299 0.255 0.441 0.397 0.015-0.031 0.030-0.062 0.046-0.094 0.069-0.141 0.138-0.282 0.208-0.424 0.024-0.049 0.048-0.098 0.072-0.148 0.035-0.071 0.035-0.071 0.071-0.143 0.021-0.043 0.042-0.087 0.064-0.131 0.137-0.234 0.245-0.326 0.513-0.31z"></path>
<path fill="currentColor" d="M7.584 4.040c0.085 0.015 0.085 0.015 0.193 0.087 0.086 0.13 0.103 0.213 0.113 0.369-0.042 0.111-0.084 0.203-0.141 0.306-0.016 0.029-0.031 0.059-0.047 0.089-0.035 0.066-0.070 0.132-0.106 0.198-0.066 0.125-0.13 0.251-0.193 0.378-0.046 0.092-0.093 0.183-0.139 0.275-0.022 0.044-0.044 0.088-0.067 0.134-0.203 0.396-0.203 0.396-0.41 0.517-0.164 0.027-0.234 0.022-0.371-0.075-0.196-0.174-0.349-0.381-0.511-0.586-0.037-0.044-0.037-0.044-0.075-0.089-0.103-0.129-0.146-0.217-0.171-0.382 0.025-0.146 0.025-0.146 0.091-0.253 0.127-0.079 0.227-0.096 0.377-0.089 0.145 0.034 0.214 0.13 0.307 0.241 0.058 0.045 0.117 0.089 0.176 0.132 0.017-0.033 0.033-0.065 0.051-0.099 0.062-0.122 0.125-0.243 0.187-0.364 0.040-0.078 0.080-0.157 0.12-0.235 0.025-0.049 0.051-0.099 0.077-0.149 0.023-0.045 0.047-0.091 0.071-0.138 0.127-0.219 0.203-0.275 0.467-0.264z"></path>
<path fill="currentColor" d="M9.204 5.836c0.046 0 0.092 0 0.14 0 0.097 0 0.195 0.001 0.292 0.002 0.149 0.002 0.298 0.002 0.447 0.002 0.095 0 0.189 0.001 0.284 0.002 0.067 0 0.067 0 0.135 0 0.389 0.007 0.389 0.007 0.562 0.153 0.063 0.126 0.058 0.213 0.044 0.353-0.127 0.204-0.127 0.204-0.259 0.248-0.098 0.017-0.189 0.023-0.288 0.024-0.038 0-0.076 0.001-0.115 0.001-0.041 0-0.081 0-0.123 0.001-0.063 0-0.063 0-0.128 0.001-0.089 0-0.178 0.001-0.267 0.001-0.136 0-0.272 0.002-0.408 0.003-0.087 0-0.173 0.001-0.26 0.001-0.040 0.001-0.081 0.001-0.123 0.002-0.228-0.001-0.389-0.019-0.586-0.148-0.069-0.138-0.060-0.244-0.044-0.397 0.187-0.272 0.395-0.251 0.697-0.247z"></path>
<path fill="currentColor" d="M9.213 4.687c0.047-0 0.094-0 0.143-0.001 0.099-0 0.199 0 0.298 0.001 0.152 0.001 0.304 0 0.456-0.001 0.097 0 0.193 0 0.29 0.001 0.045-0 0.091-0.001 0.138-0.001 0.211 0.003 0.315 0.006 0.488 0.134 0.081 0.117 0.081 0.117 0.106 0.249-0.033 0.174-0.067 0.234-0.201 0.353-0.167 0.034-0.333 0.030-0.503 0.028-0.074 0-0.074 0-0.149 0-0.104-0-0.208-0.001-0.312-0.002-0.159-0.002-0.319-0.001-0.478-0-0.101-0-0.202-0.001-0.303-0.001-0.072 0-0.072 0-0.145 0.001-0.044-0.001-0.089-0.001-0.135-0.002-0.059-0-0.059-0-0.118-0.001-0.141-0.030-0.194-0.087-0.282-0.199-0.030-0.185-0.025-0.271 0.081-0.427 0.203-0.149 0.379-0.134 0.625-0.131z"></path>
<path fill="currentColor" d="M17.719 10.006c0.19 0.171 0.349 0.369 0.51 0.568 0.025 0.030 0.050 0.060 0.075 0.091 0.385 0.472 0.385 0.472 0.385 0.716-0.052 0.147-0.091 0.212-0.22 0.3-0.174 0.025-0.268 0.028-0.415-0.072-0.126-0.115-0.228-0.24-0.329-0.377-0.038-0.051-0.077-0.103-0.115-0.154-0.019-0.025-0.037-0.050-0.057-0.076-0.048-0.063-0.1-0.124-0.151-0.184-0.23-0.268-0.23-0.268-0.239-0.473 0.027-0.159 0.043-0.231 0.16-0.339 0.16-0.053 0.235-0.045 0.397 0z"></path>
<path fill="currentColor" d="M1.391 8.303c0.055-0 0.055-0 0.111-0 0.077 0 0.154 0.001 0.231 0.002 0.118 0.002 0.236 0.001 0.353 0 0.075 0 0.15 0.001 0.225 0.001 0.053-0 0.053-0 0.107-0.001 0.16 0.003 0.252 0.011 0.381 0.11 0.071 0.099 0.091 0.147 0.091 0.268 0.001 0.029 0.002 0.058 0.003 0.088-0.044 0.141-0.125 0.185-0.248 0.264-0.126 0.018-0.235 0.026-0.361 0.025-0.052 0-0.052 0-0.104 0.001-0.072 0-0.145 0-0.217-0-0.111-0.001-0.221 0.001-0.332 0.003-0.071 0-0.141-0-0.212-0-0.049 0.001-0.049 0.001-0.1 0.002-0.175-0.003-0.254-0.023-0.392-0.133-0.089-0.117-0.089-0.117-0.114-0.249 0.064-0.342 0.265-0.386 0.579-0.38z"></path>
<path fill="currentColor" d="M18.317 8.303c0.055-0 0.055-0 0.111-0 0.077 0 0.154 0.001 0.231 0.002 0.118 0.002 0.236 0.001 0.353 0 0.075 0 0.15 0.001 0.225 0.001 0.053-0 0.053-0 0.107-0.001 0.16 0.003 0.252 0.011 0.381 0.11 0.071 0.099 0.091 0.147 0.091 0.268 0.001 0.029 0.002 0.058 0.003 0.088-0.044 0.141-0.125 0.185-0.248 0.264-0.127 0.017-0.236 0.025-0.362 0.023-0.052 0-0.052 0-0.105 0.001-0.073 0-0.145-0-0.218-0.001-0.111-0.001-0.222 0-0.333 0.001-0.071-0-0.141-0-0.212-0.001-0.033 0-0.066 0.001-0.1 0.001-0.152-0.003-0.24-0.013-0.364-0.105-0.098-0.137-0.113-0.237-0.113-0.405 0.135-0.247 0.293-0.252 0.554-0.248z"></path>
<path fill="currentColor" d="M3.306 10.006c0.107 0.094 0.107 0.094 0.176 0.22-0.009 0.249-0.087 0.398-0.242 0.584-0.020 0.024-0.039 0.049-0.059 0.074-0.041 0.050-0.081 0.1-0.122 0.15-0.059 0.071-0.116 0.143-0.174 0.216-0.335 0.419-0.335 0.419-0.543 0.451-0.138-0.019-0.138-0.019-0.264-0.113-0.094-0.127-0.094-0.127-0.118-0.256 0.050-0.272 0.269-0.492 0.438-0.705 0.021-0.027 0.043-0.054 0.065-0.082 0.061-0.077 0.122-0.153 0.183-0.229 0.028-0.035 0.057-0.071 0.086-0.107 0.182-0.22 0.294-0.282 0.575-0.201z"></path>
<path fill="currentColor" d="M2.42 5.658c0.253 0.076 0.44 0.395 0.602 0.595 0.025 0.030 0.050 0.060 0.075 0.091 0.385 0.472 0.385 0.472 0.385 0.741-0.044 0.143-0.044 0.143-0.116 0.229-0.15 0.067-0.251 0.070-0.413 0.047-0.192-0.169-0.349-0.371-0.51-0.57-0.037-0.046-0.037-0.046-0.075-0.092-0.376-0.464-0.376-0.464-0.407-0.687 0.022-0.149 0.022-0.149 0.088-0.256 0.124-0.078 0.225-0.092 0.37-0.097z"></path>
<path fill="currentColor" d="M18.425 5.665c0.088 0.020 0.088 0.020 0.201 0.114 0.075 0.15 0.082 0.225 0.063 0.391-0.062 0.101-0.12 0.183-0.196 0.273-0.020 0.025-0.040 0.049-0.060 0.074-0.041 0.051-0.082 0.101-0.124 0.151-0.059 0.071-0.117 0.143-0.174 0.215-0.381 0.472-0.381 0.472-0.565 0.499-0.16-0.022-0.16-0.022-0.289-0.116-0.108-0.151-0.11-0.209-0.091-0.391 0.080-0.149 0.187-0.276 0.293-0.408 0.068-0.087 0.132-0.176 0.197-0.265 0.049-0.065 0.098-0.13 0.147-0.195 0.023-0.032 0.045-0.063 0.068-0.096 0.16-0.206 0.268-0.261 0.53-0.247z"></path>
</symbol>
<symbol id="rightLongArrow" viewBox="0 0 16 16" >
<path d="M9.238 5.116c-0.159 0.156-0.159 0.416-0.003 0.575l1.9 1.903h-7.231c-0.222 0-0.403 0.181-0.403 0.406s0.181 0.406 0.403 0.406h7.228l-1.9 1.903c-0.156 0.159-0.153 0.416 0.003 0.575 0.159 0.156 0.412 0.156 0.572-0.003l2.575-2.594c0.034-0.037 0.063-0.078 0.084-0.128s0.031-0.103 0.031-0.156c0-0.106-0.041-0.206-0.116-0.284l-2.575-2.594c-0.153-0.162-0.409-0.166-0.569-0.009z"></path>
</symbol>
<symbol id="logIn" viewBox="0 0 16 16" >
<path fill="currentColor" d="M8.152 1.281c-2.383-0.006-4.48 1.227-5.678 3.089-0.053 0.083 0.006 0.192 0.105 0.192h1.098c0.075 0 0.145-0.033 0.192-0.091 0.109-0.133 0.227-0.261 0.35-0.383 0.509-0.508 1.102-0.908 1.761-1.186 0.681-0.288 1.406-0.434 2.155-0.434s1.473 0.145 2.155 0.434c0.659 0.278 1.252 0.678 1.761 1.186s0.908 1.1 1.188 1.758c0.289 0.681 0.434 1.405 0.434 2.153s-0.147 1.472-0.434 2.153c-0.278 0.658-0.678 1.25-1.188 1.758s-1.102 0.908-1.761 1.186c-0.633 0.275-1.37 0.434-2.145 0.434-0.003 0-0.007 0-0.010-0h0.001c-0.748 0-1.473-0.147-2.155-0.434-0.684-0.293-1.269-0.693-1.761-1.186l-0-0c-0.123-0.123-0.239-0.252-0.35-0.383-0.047-0.058-0.119-0.091-0.192-0.091h-1.098c-0.098 0-0.159 0.109-0.105 0.192 1.197 1.858 3.284 3.089 5.661 3.089 3.691 0 6.688-2.97 6.725-6.65 0.037-3.739-2.964-6.778-6.708-6.787zM6.172 9.75v-1.188h-4.906c-0.069 0-0.125-0.056-0.125-0.125v-0.875c0-0.069 0.056-0.125 0.125-0.125h4.906v-1.188c0-0.105 0.122-0.164 0.203-0.098l2.217 1.75c0.029 0.023 0.048 0.059 0.048 0.098s-0.019 0.075-0.048 0.098l-0 0-2.217 1.75c-0.081 0.064-0.203 0.006-0.203-0.098z"></path>
</symbol>
<symbol id="user" viewBox="0 0 16 16">
<path fill="currentColor" d="M8 8c2.209 0 4-1.791 4-4s-1.791-4-4-4-4 1.791-4 4 1.791 4 4 4zM10.8 9h-0.522c-0.694 0.319-1.466 0.5-2.278 0.5s-1.581-0.181-2.278-0.5h-0.522c-2.319 0-4.2 1.881-4.2 4.2v1.3c0 0.828 0.672 1.5 1.5 1.5h11c0.828 0 1.5-0.672 1.5-1.5v-1.3c0-2.319-1.881-4.2-4.2-4.2z"></path>
</symbol>
<symbol id="quoteMark" viewBox="0 0 16 16">
 <path d="M6.090 6h2l-1.423 3.738h-2l1.423-3.738z"></path>
 <path d="M9.423 6h2l-1.423 3.738h-2l1.423-3.738z"></path>
</symbol>
<symbol id="phone" viewBox="0 0 16 16">
<path d="M11.5 0h-7c-0.828 0-1.5 0.672-1.5 1.5v13c0 0.828 0.672 1.5 1.5 1.5h7c0.828 0 1.5-0.672 1.5-1.5v-13c0-0.828-0.672-1.5-1.5-1.5zM8 15c-0.553 0-1-0.447-1-1s0.447-1 1-1 1 0.447 1 1-0.447 1-1 1zM11.5 11.625c0 0.206-0.169 0.375-0.375 0.375h-6.25c-0.206 0-0.375-0.169-0.375-0.375v-9.75c0-0.206 0.169-0.375 0.375-0.375h6.25c0.206 0 0.375 0.169 0.375 0.375v9.75z"></path>
</symbol>
<symbol id="mail" viewBox="0 0 16 16">
<path d="M2 3.5c-0.275 0-0.5 0.225-0.5 0.5v0.691l5.391 4.425c0.647 0.531 1.575 0.531 2.222 0l5.387-4.425v-0.691c0-0.275-0.225-0.5-0.5-0.5h-12zM1.5 6.631v5.369c0 0.275 0.225 0.5 0.5 0.5h12c0.275 0 0.5-0.225 0.5-0.5v-5.369l-4.438 3.644c-1.2 0.984-2.928 0.984-4.125 0l-4.438-3.644zM0 4c0-1.103 0.897-2 2-2h12c1.103 0 2 0.897 2 2v8c0 1.103-0.897 2-2 2h-12c-1.103 0-2-0.897-2-2v-8z"></path>
</symbol>
<symbol id="user2" viewBox="0 0 16 16">
<path d="M10.5 4c0-1.381-1.119-2.5-2.5-2.5s-2.5 1.119-2.5 2.5v0c0 1.381 1.119 2.5 2.5 2.5s2.5-1.119 2.5-2.5v0zM4 4c0-2.209 1.791-4 4-4s4 1.791 4 4v0c0 2.209-1.791 4-4 4s-4-1.791-4-4v0zM2.541 14.5h10.922c-0.278-1.978-1.978-3.5-4.031-3.5h-2.856c-2.053 0-3.753 1.522-4.031 3.5zM1 15.072c0-3.078 2.494-5.572 5.572-5.572h2.856c3.078 0 5.572 2.494 5.572 5.572 0 0.512-0.416 0.928-0.928 0.928h-12.144c-0.512 0-0.928-0.416-0.928-0.928z"></path>
</symbol>
<symbol id="linkedin2" viewBox="0 0 16 16">
<path d="M4.134 14h-2.902v-9.347h2.902zM2.681 3.378c-0.928 0-1.681-0.769-1.681-1.697s0.753-1.681 1.681-1.681 1.681 0.753 1.681 1.681v0c0 0.928-0.753 1.697-1.681 1.697zM14.997 14h-2.896v-4.55c0-1.084-0.022-2.475-1.509-2.475-1.509 0-1.74 1.178-1.74 2.397v4.628h-2.899v-9.347h2.784v1.275h0.041c0.387-0.734 1.334-1.509 2.746-1.509 2.938 0 3.478 1.934 3.478 4.447v5.134z"></path>
</symbol>
<symbol id="close" viewBox="0 0 16 16">
 <path d="M12.656 4.275l-0.931-0.931-3.725 3.725-3.725-3.725-0.931 0.931 3.725 3.725-3.725 3.725 0.931 0.931 3.725-3.725 3.725 3.725 0.931-0.931-3.725-3.725z"></path>
</symbol>
<symbol id="userHalf" viewBox="0 0 16 16">
<path d="M13.333 14.667h-1.333v-1.333c0-1.105-0.895-2-2-2h-4c-1.105 0-2 0.895-2 2v1.333h-1.333v-1.333c0-1.841 1.492-3.333 3.333-3.333h4c1.841 0 3.333 1.492 3.333 3.333v1.333zM8 8.667c-2.209 0-4-1.791-4-4s1.791-4 4-4c2.209 0 4 1.791 4 4s-1.791 4-4 4zM8 7.333c1.473 0 2.667-1.194 2.667-2.667s-1.194-2.667-2.667-2.667c-1.473 0-2.667 1.194-2.667 2.667s1.194 2.667 2.667 2.667z"></path>
</symbol>
<symbol id="calender" viewBox="0 0 16 16">
<path d="M12.292 3.303h-1.292c0-0.231 0-0.461 0-0.691 0-0.083 0-0.165 0-0.248 0-0.175-0.153-0.341-0.333-0.333s-0.333 0.147-0.333 0.333c0 0.313 0 0.626 0 0.939h-4.667c0-0.231 0-0.461 0-0.691 0-0.083 0-0.165 0-0.248 0-0.175-0.153-0.341-0.333-0.333s-0.333 0.147-0.333 0.333c0 0.313 0 0.626 0 0.939h-1.292c-0.919 0-1.667 0.748-1.667 1.667v7.333c0 0.919 0.748 1.667 1.667 1.667h8.583c0.919 0 1.667-0.747 1.667-1.667v-7.333c0.001-0.919-0.747-1.667-1.666-1.667zM3.708 3.969h1.292c0 0.049 0 0.098 0 0.147 0 0.083 0 0.165 0 0.248 0 0.175 0.153 0.341 0.333 0.333s0.333-0.147 0.333-0.333c0-0.131 0-0.263 0-0.395h4.667c0 0.049 0 0.098 0 0.147 0 0.083 0 0.165 0 0.248 0 0.175 0.153 0.341 0.333 0.333s0.333-0.147 0.333-0.333c0-0.131 0-0.263 0-0.395h1.291c0.551 0 1 0.449 1 1v1.056h-10.583v-1.056c0-0.551 0.449-1 1-1zM12.292 13.303h-8.584c-0.551 0-1-0.449-1-1v-5.611h10.583v5.611c0.001 0.551-0.448 1-0.999 1z"></path>
</symbol>
<symbol id="clock" viewBox="0 0 16 16">
<path d="M8 0.25c-4.281 0-7.75 3.469-7.75 7.75s3.469 7.75 7.75 7.75 7.75-3.469 7.75-7.75-3.469-7.75-7.75-7.75zM8 14.25c-3.453 0-6.25-2.797-6.25-6.25s2.797-6.25 6.25-6.25 6.25 2.797 6.25 6.25-2.797 6.25-6.25 6.25zM9.931 10.988l-2.653-1.928c-0.097-0.072-0.153-0.184-0.153-0.303v-5.131c0-0.206 0.169-0.375 0.375-0.375h1c0.206 0 0.375 0.169 0.375 0.375v4.428l2.088 1.519c0.169 0.122 0.203 0.356 0.081 0.525l-0.588 0.809c-0.122 0.166-0.356 0.203-0.525 0.081z"></path>
</symbol>
<symbol id="scaleRuler" viewBox="0 0 16 16">
<path d="M0 0.276v15.724h15.724l-15.724-15.724zM0.941 2.548l2.783 2.783-0.616 0.616 0.665 0.665 0.616-0.616 0.667 0.667-0.616 0.617 0.665 0.665 0.616-0.616 0.668 0.667-0.616 0.616 0.665 0.665 0.616-0.616 0.668 0.668-0.616 0.616 0.665 0.665 0.616-0.616 0.667 0.667-0.616 0.616 0.665 0.665 0.616-0.616 0.668 0.668-0.616 0.616 0.665 0.665 0.616-0.616 2.396 2.396h-12.511v-12.511zM1.882 14.118h7.254l-7.254-7.254v7.254zM2.824 9.136l4.040 4.040h-4.040v-4.040z"></path>
</symbol>
<symbol id="location" viewBox="0 0 16 16">
<path d="M11.771 3.536c-2.083-2.049-5.459-2.049-7.542 0s-2.083 5.371 0 7.42l3.771 3.71 3.771-3.71c2.083-2.049 2.083-5.371 0-7.42zM8 8.999c-0.445 0-0.863-0.173-1.179-0.488-0.65-0.65-0.65-1.707 0-2.357 0.315-0.315 0.733-0.488 1.179-0.488s0.864 0.173 1.179 0.488c0.65 0.65 0.65 1.708 0 2.357-0.315 0.315-0.733 0.488-1.179 0.488z"></path>
</symbol>
<symbol id="lock" viewBox="0 0 16 16">
<path d="M13.5 7h-0.75v-2.25c0-2.619-2.131-4.75-4.75-4.75s-4.75 2.131-4.75 4.75v2.25h-0.75c-0.828 0-1.5 0.672-1.5 1.5v6c0 0.828 0.672 1.5 1.5 1.5h11c0.828 0 1.5-0.672 1.5-1.5v-6c0-0.828-0.672-1.5-1.5-1.5zM10.25 7h-4.5v-2.25c0-1.241 1.009-2.25 2.25-2.25s2.25 1.009 2.25 2.25v2.25z"></path>
</symbol>
<symbol id="camera" viewBox="0 0 16 16">
<path d="M16 4.5v9c0 0.828-0.672 1.5-1.5 1.5h-13c-0.828 0-1.5-0.672-1.5-1.5v-9c0-0.828 0.672-1.5 1.5-1.5h2.75l0.384-1.028c0.219-0.584 0.778-0.972 1.403-0.972h3.922c0.625 0 1.184 0.387 1.403 0.972l0.387 1.028h2.75c0.828 0 1.5 0.672 1.5 1.5zM11.75 9c0-2.069-1.681-3.75-3.75-3.75s-3.75 1.681-3.75 3.75 1.681 3.75 3.75 3.75 3.75-1.681 3.75-3.75zM10.75 9c0 1.516-1.234 2.75-2.75 2.75s-2.75-1.234-2.75-2.75 1.234-2.75 2.75-2.75 2.75 1.234 2.75 2.75z"></path>
</symbol>
<symbol id="smallDot" viewBox="0 0 16 16">
  <path fill="currentColor" d="M8 12c2.209 0 4-1.791 4-4s-1.791-4-4-4v0c-2.209 0-4 1.791-4 4s1.791 4 4 4v0z"></path>
</symbol>
</svg>
