<!-- src/assets/sprite.svg -->
<svg xmlns="http://www.w3.org/2000/svg" style="display: none;">
  <symbol id="kuchbhi" viewBox="0 0 32 32">
    <path d="M16 19.5c2.934 0 5.313-2.35 5.313-5.25v-7c0-2.9-2.378-5.25-5.313-5.25s-5.313 2.35-5.313 5.25v7c0 2.9 2.378 5.25 5.313 5.25zM26.313 14.188c0-0.137-0.113-0.25-0.25-0.25h-1.875c-0.137 0-0.25 0.113-0.25 0.25 0 4.384-3.553 7.938-7.938 7.938s-7.938-3.553-7.938-7.938c0-0.137-0.112-0.25-0.25-0.25h-1.875c-0.138 0-0.25 0.113-0.25 0.25 0 5.272 3.956 9.622 9.063 10.238v3.2h-4.541c-0.428 0-0.772 0.447-0.772 1v1.125c0 0.137 0.088 0.25 0.194 0.25h12.737c0.106 0 0.194-0.113 0.194-0.25v-1.125c0-0.553-0.344-1-0.772-1h-4.666v-3.184c5.166-0.563 9.188-4.938 9.188-10.253z" fill="currentColor"></path>
  </symbol>
  <symbol id="update" viewBox="0 0 24 24">
    <path d="M21 10.12h-6.78l2.74-2.82c-2.73-2.7-6.8-4.5-11.28-4.5-4.97 0-9.21 2.97-11.07 7.2-1.86 4.23-0.5 8.97 3.52 11.64 4.02 2.67 9.56 2.67 13.58 0 2.68-1.78 4.37-4.64 4.37-7.72 0-1.5-0.3-2.94-0.82-4.28l2.74-2.82z" fill="currentColor"/>
  </symbol>
  <symbol id="local_parking" viewBox="0 0 24 24">
    <path d="M13 3H6v18h4v-6h3c3.31 0 6-2.69 6-6s-2.69-6-6-6zm.2 8H10V7h3.2c1.1 0 2 .9 2 2s-.9 2-2 2z" fill="currentColor"/>
  </symbol>
  <symbol id="wifi" viewBox="0 0 24 24">
    <path d="M1 9l2 2c2.88-2.88 6.79-4.08 10.53-3.62 1.33.08 2.63.38 3.84.85L19 6c-1.85-.63-3.85-1-6-1-5.14 0-9.79 2.54-12 7zm4 4l2 2c1.66-1.66 3.93-2.5 6.17-2.5 1.23 0 2.43.21 3.57.57L17 12c-1.29-.32-2.63-.5-4-.5-2.97 0-5.64 1.5-7 4zm4 4l2 2c.83-.83 1.97-1.33 3.17-1.33.39 0 .77.05 1.14.14L13 15c-1.29-.32-2.63-.5-4-.5-2.97 0-5.64 1.5-7 4z" fill="currentColor"/>
  </symbol>
  <symbol id="ac_unit" viewBox="0 0 24 24">
    <path d="M22 11h-4.17l3.24-3.24-1.41-1.41L15 11h-2V9l4.66-4.66-1.41-1.41L13 6.17V2h-2v4.17L7.76 2.93 6.34 4.34 11 9v2H9L4.34 6.34 2.93 7.76 6.17 11H2v2h4.17l-3.24 3.24 1.41 1.41L9 13h2v2l-4.66 4.66 1.41 1.41L11 17.83V22h2v-4.17l3.24 3.24 1.41-1.41L13 15v-2h2l4.66 4.66 1.41-1.41L17.83 13H22z" fill="currentColor"/>
  </symbol>
  <symbol id="elevator" viewBox="0 0 24 24">
    <path d="M19 3H5c-1.1 0-2 .9-2 2v14c0 1.1.9 2 2 2h14c1.1 0 2-.9 2-2V5c0-1.1-.9-2-2-2zM8.5 6c.69 0 1.25.56 1.25 1.25S9.19 8.5 8.5 8.5s-1.25-.56-1.25-1.25S7.81 6 8.5 6zm2.5 8h-1v4H7v-4H6v-2.5c0-1.1.9-2 2-2h3c1.1 0 2 .9 2 2V14zm4.5 3.5h-3v-1h3v1zm0-2.5h-3v-1h3v1zm0-2.5h-3v-1h3v1zm0-2.5h-3v-1h3v1z" fill="currentColor"/>
  </symbol>
  <symbol id="security" viewBox="0 0 24 24">
    <path d="M12 1L3 5v6c0 5.55 3.84 10.74 9 12 5.16-1.26 9-6.45 9-12V5l-9-4zm0 10.99h7c-.53 4.12-3.28 7.79-7 8.94V12H5V6.3l7-3.11v8.8z" fill="currentColor"/>
  </symbol>
  <symbol id="videocam" viewBox="0 0 24 24">
    <path d="M17 10.5V7c0-.55-.45-1-1-1H4c-.55 0-1 .45-1 1v10c0 .55.45 1 1 1h12c.55 0 1-.45 1-1v-3.5l4 4v-11l-4 4z" fill="currentColor"/>
  </symbol>
  <symbol id="print" viewBox="0 0 24 24">
    <path d="M19 8H5c-1.66 0-3 1.34-3 3v6h4v4h12v-4h4v-6c0-1.66-1.34-3-3-3zm-3 11H8v-5h8v5zm3-7c-.55 0-1-.45-1-1s.45-1 1-1 1 .45 1 1-.45 1-1 1zm-1-9H6v4h12V3z" fill="currentColor"/>
  </symbol>
  <symbol id="restaurant" viewBox="0 0 24 24">
    <path d="M11 9H9V2H7v7H5V2H3v7c0 2.12 1.66 3.84 3.75 3.97V22h2.5v-9.03C11.34 12.84 13 11.12 13 9V2h-2v7zm5-3v8h2.5v8H21V2c-2.76 0-5 2.24-5 4z" fill="currentColor"/>
  </symbol>
  <symbol id="spa" viewBox="0 0 24 24">
    <path d="M8.55 12c-1.07-.71-2.25-1.27-3.53-1.61 1.28.34 2.46.9 3.53 1.61zm10.43-1.61c-1.29.34-2.49.91-3.57 1.64 1.08-.73 2.28-1.3 3.57-1.64z" fill="currentColor"/>
  </symbol>
  <symbol id="pets" viewBox="0 0 24 24">
    <path d="M4.5 12c1.93 0 3.5-1.57 3.5-3.5S6.43 5 4.5 5 1 6.57 1 8.5 2.57 12 4.5 12zm9 0c1.93 0 3.5-1.57 3.5-3.5S15.43 5 13.5 5 10 6.57 10 8.5 11.57 12 13.5 12zm9 0c1.93 0 3.5-1.57 3.5-3.5S24.43 5 22.5 5 19 6.57 19 8.5 20.57 12 22.5 12z" fill="currentColor"/>
  </symbol>
  <symbol id="sports" viewBox="0 0 24 24">
    <path d="M21 6h-7.59l.58-3H5.41l.58 3H3c-1.1 0-2 .89-2 2v12c0 1.1.9 2 2 2h18c1.1 0 2-.9 2-2V8c0-1.11-.9-2-2-2zm-1 14H4c-.55 0-1-.45-1-1V9c0-.55.45-1 1-1h1.31l.62-4h13.15l.62 4H21c.55 0 1 .45 1 1v10c0 .55-.45 1-1 1zM9 17l3-3 3 3 1.5-1.5L15 12l-3 3-3-3-1.5 1.5L9 17z" fill="currentColor"/>
  </symbol>
  <symbol id="wc" viewBox="0 0 24 24">
    <path d="M5.5 22v-7.5H4V9c0-1.1.9-2 2-2h3c1.1 0 2 .9 2 2v5.5H9.5V22h-4zM18 22v-6h3l-2.54-7.63C18.18 7.55 17.42 7 16.56 7h-.12c-.86 0-1.63.55-1.9 1.37L12 16h3v6h3zM7.5 6c1.11 0 2-.89 2-2s-.89-2-2-2-2 .89-2 2 .89 2 2 2zm9 0c1.11 0 2-.89 2-2s-.89-2-2-2-2 .89-2 2 .89 2 2 2z" fill="currentColor"/>
  </symbol>
</svg>
